<?xml version="1.0" encoding="UTF-8"?>
<svg version="1.1" xmlns="http://www.w3.org/2000/svg" width="512" height="512">
<path d="M0 0 C1.46052394 -0.00489174 2.92104401 -0.01108285 4.38155752 -0.01845789 C8.38651268 -0.0348445 12.39127081 -0.03254213 16.39624774 -0.02708292 C20.71876935 -0.02441118 25.04123862 -0.03894715 29.36373901 -0.05117798 C37.82846723 -0.07222732 46.29312694 -0.07677314 54.75787824 -0.07499009 C61.63789574 -0.07368234 68.51789187 -0.07748729 75.39790535 -0.08491516 C77.37985867 -0.08701436 79.36181199 -0.08911196 81.34376532 -0.09120798 C82.33023979 -0.09225151 83.31671427 -0.09329504 84.33308191 -0.09437019 C102.98751323 -0.11327019 121.64190522 -0.11222295 140.29634214 -0.10540086 C157.36218415 -0.09982425 174.4278761 -0.12065627 191.49368303 -0.15376133 C209.01818852 -0.18749232 226.5426221 -0.20266749 244.06716067 -0.1980443 C253.9053633 -0.19579918 263.74342719 -0.20104913 273.5816021 -0.22593689 C281.95631336 -0.24694223 290.3308098 -0.25054952 298.70552986 -0.2316373 C302.97800068 -0.22247512 307.25007085 -0.22135103 311.52251053 -0.24199295 C315.43531304 -0.26068824 319.34738636 -0.25621639 323.26016099 -0.23344713 C324.67394851 -0.22925769 326.08779178 -0.23347316 327.50152039 -0.24704307 C335.49127017 -0.31849824 341.62851023 -0.10462747 347.77284241 5.39440918 C355.58737249 13.82587585 354.92234632 22.96958212 354.91810608 33.88806152 C354.923144 35.75522575 354.923144 35.75522575 354.92828369 37.66011047 C354.9361325 41.05897094 354.93945987 44.45777029 354.94009948 47.85663557 C354.94081248 49.98428703 354.9429515 52.11193218 354.94559669 54.23958206 C354.95483463 61.67400771 354.95893347 69.10841548 354.95814514 76.54284668 C354.95754454 83.45415528 354.96809682 90.36538578 354.9838888 97.27667463 C354.99699629 103.22680474 355.0023277 109.17690943 355.00168973 115.12705386 C355.00143572 118.67357105 355.00423339 122.22001875 355.01486778 125.76652145 C355.02641486 129.72503416 355.02178233 133.683441 355.01576233 137.64196777 C355.02138184 138.80485825 355.02700134 139.96774872 355.03279114 141.1658783 C355.00064963 149.50056146 354.8498852 158.03022392 349.43690491 164.82019043 C344.54330219 169.44958455 338.83549808 171.67825686 332.14784241 171.95690918 C325.02897498 171.57536198 320.17090037 169.22452495 315.39784241 163.95690918 C312.01268876 159.88148677 310.52044804 155.83609994 310.53233337 150.54118347 C310.52820088 149.12023518 310.52820088 149.12023518 310.52398491 147.67058086 C310.53118113 146.63931481 310.53837734 145.60804876 310.54579163 144.54553223 C310.54555056 143.43476476 310.54530949 142.32399729 310.54506111 141.1795702 C310.54655245 137.58834096 310.56177727 133.99731998 310.57752991 130.40612793 C310.58047089 128.18725688 310.58251099 125.96838444 310.58363342 123.74951172 C310.59411433 115.52695636 310.62203677 107.30443072 310.64784241 99.08190918 C310.68909241 80.70503418 310.73034241 62.32815918 310.77284241 43.39440918 C228.60284241 43.88940918 228.60284241 43.88940918 144.77284241 44.39440918 C175.95784241 53.79940918 175.95784241 53.79940918 207.77284241 63.39440918 C216.72591229 66.97563713 220.94081091 68.86520482 225.08534241 76.95690918 C226.44756223 81.78659764 226.89772907 86.45292425 226.89589024 91.45821953 C226.89788128 92.65800371 226.89987233 93.85778789 226.90192372 95.09392917 C226.89901087 96.40326549 226.89609803 97.71260181 226.89309692 99.06161499 C226.89353316 100.47335044 226.89440904 101.88508582 226.89568609 103.29682076 C226.89792069 107.17121171 226.8939239 111.04557498 226.88890803 114.91996241 C226.88458889 119.09985509 226.88605099 123.27974622 226.8868103 127.4596405 C226.88733461 134.69996383 226.88419755 141.94027815 226.87857246 149.18059921 C226.87044484 159.64888339 226.86784095 170.1171632 226.86658447 180.58545019 C226.86439594 197.56962388 226.85774124 214.55379278 226.84828186 231.53796387 C226.83910261 248.03633602 226.83202428 264.53470687 226.82777405 281.03308105 C226.82737996 282.55856478 226.82737996 282.55856478 226.82697792 284.11486636 C226.82567288 289.21681084 226.82440917 294.31875534 226.82316601 299.42069983 C226.81279959 341.74527388 226.79436461 384.06983905 226.77284241 426.39440918 C254.49284241 426.39440918 282.21284241 426.39440918 310.77284241 426.39440918 C310.72643616 418.40222168 310.68002991 410.41003418 310.63221741 402.17565918 C310.61177567 397.10793783 310.59251958 392.04026742 310.57752991 386.97253418 C310.55363253 378.93140997 310.52598379 370.89046681 310.47108459 362.8494873 C310.42757577 356.36557517 310.40369427 349.88185875 310.39333344 343.39781189 C310.38595121 340.92590759 310.37153549 338.45401382 310.34992218 335.98219299 C310.32082239 332.51584856 310.31688931 329.05030953 310.31874084 325.5838623 C310.29716919 324.05608154 310.29716919 324.05608154 310.27516174 322.49743652 C310.32053128 314.63105654 311.97382227 309.25704341 317.52284241 303.58190918 C323.4608145 299.58519719 329.48451306 297.18655046 336.77284241 298.39440918 C344.31212947 300.55216084 348.81138995 304.5886358 352.87049866 311.17565918 C355.60784502 317.90645024 354.9208951 325.67218443 354.91810608 332.79626465 C354.923144 334.64879852 354.923144 334.64879852 354.92828369 336.53875732 C354.93613207 339.91075929 354.93945984 343.28269966 354.94009948 346.65470648 C354.94081251 348.76560699 354.9429516 350.87650113 354.94559669 352.98740005 C354.95483443 360.36347104 354.95893349 367.73952401 354.95814514 375.11560059 C354.95754455 381.97237787 354.96809677 388.82907644 354.9838888 395.68583381 C354.9969968 401.58925521 355.00232768 407.49265098 355.00168973 413.39608681 C355.00143573 416.91465855 355.00423257 420.43316024 355.01486778 423.95171738 C355.02641595 427.87909731 355.02178202 431.80637054 355.01576233 435.73376465 C355.02138184 436.88730438 355.02700134 438.04084412 355.03279114 439.2293396 C354.99797089 448.18880169 354.64144214 456.22167617 348.77284241 463.39440918 C341.64041008 470.21673575 335.41745686 470.68874791 325.99403381 470.62145996 C324.38338043 470.62189804 324.38338043 470.62189804 322.7401886 470.62234497 C319.20151099 470.62095494 315.6630456 470.60540885 312.12440491 470.58972168 C309.6667543 470.5859904 307.20910221 470.58314397 304.75144958 470.58114624 C298.29060237 470.5735189 291.82984542 470.55387801 285.36903381 470.53173828 C278.77318035 470.51126056 272.17731226 470.5021404 265.58143616 470.49206543 C252.64519978 470.47063137 239.7090259 470.43689195 226.77284241 470.39440918 C226.78331604 470.98343018 226.79378967 471.57245117 226.80458069 472.17932129 C226.84663794 474.89680564 226.87232421 477.61422114 226.89784241 480.33190918 C226.91460022 481.25810059 226.93135803 482.18429199 226.94862366 483.1385498 C227.01058387 491.96788028 226.31482717 499.71250878 220.51502991 506.66394043 C215.80697 511.34033177 211.38738932 512.62047261 204.78683472 512.72515869 C194.99681684 512.60417521 185.61239077 510.54973308 176.04896545 508.60241699 C173.99278626 508.19399806 171.93637771 507.7867324 169.87976074 507.38052368 C164.33217133 506.28114725 158.7880803 505.16501141 153.24460196 504.04511356 C147.42626022 502.87207675 141.60518916 501.71272899 135.78451538 500.55133057 C126.01755908 498.6002829 116.25284093 496.63833449 106.48939514 494.6697998 C95.21547715 492.39685572 83.93822573 490.14108949 72.65903062 487.89449048 C61.7839851 485.72799196 50.91137056 483.54952437 40.03981972 481.36556244 C35.42319412 480.43834556 30.80576872 479.51527364 26.18764305 478.59555817 C20.74945102 477.51194834 15.31347357 476.41783864 9.87900734 475.31570053 C7.88877952 474.91379908 5.89782957 474.51545412 3.90611267 474.12099838 C1.17977043 473.58042333 -1.54361176 473.02679333 -4.2666626 472.46990967 C-5.04799649 472.31814121 -5.82933038 472.16637274 -6.63434106 472.01000524 C-15.67199387 470.12796926 -22.9589549 467.27080403 -28.22715759 459.39440918 C-30.5647192 455.74470613 -30.50933555 452.25297343 -30.4844265 448.0529213 C-30.48793257 447.30781827 -30.49143865 446.56271524 -30.49505097 445.79503334 C-30.50439623 443.2843229 -30.49943364 440.77384284 -30.49458313 438.26312256 C-30.49831783 436.45045779 -30.50291862 434.63779463 -30.50831378 432.82513404 C-30.52058169 427.8329055 -30.52027885 422.84074378 -30.51792502 417.84850359 C-30.51751781 412.46867362 -30.52854691 407.08886534 -30.53804016 401.70904541 C-30.55467222 391.16443298 -30.56015071 380.61984291 -30.56126492 370.07521847 C-30.56221441 361.50558419 -30.56631973 352.93595731 -30.57266617 344.36632538 C-30.59028507 320.08196703 -30.5995041 295.79762637 -30.59800522 271.51326159 C-30.59792531 270.20334693 -30.5978454 268.89343228 -30.59776306 267.54382324 C-30.5976813 266.23231323 -30.59759954 264.92080322 -30.5975153 263.56955048 C-30.59670235 242.31323987 -30.61584057 221.05700011 -30.64403979 199.80070999 C-30.67275094 177.98678029 -30.68658104 156.17288516 -30.68485224 134.35893607 C-30.6841877 122.10732518 -30.68970805 109.85578854 -30.71120834 97.60419464 C-30.72939692 87.17264987 -30.73378663 76.74121301 -30.7201895 66.30965927 C-30.71364796 60.98616435 -30.71358544 55.66287661 -30.730896 50.33940125 C-30.74657941 45.46623471 -30.7438115 40.59344043 -30.72632773 35.72028324 C-30.72324738 33.95714802 -30.72692905 32.19398534 -30.73804788 30.43088248 C-30.83465411 14.02584231 -30.83465411 14.02584231 -26.22715759 7.39440918 C-18.57889095 -0.25385746 -10.19813893 -0.0422036 0 0 Z " fill="#F7931E" transform="translate(30.227157592773438,-0.3944091796875)"/>
<path d="M0 0 C0.85980469 -0.03996094 1.71960938 -0.07992187 2.60546875 -0.12109375 C14.79304668 2.00171215 22.59543478 11.53793017 30.8671875 19.93359375 C32.29967647 21.37033985 33.73313457 22.80612028 35.16751099 24.24098206 C38.15881692 27.23842843 41.14171189 30.24390811 44.11816406 33.25610352 C47.9258337 37.10914504 51.74868855 40.94666136 55.57725334 44.77892971 C58.53262931 47.73874136 61.48253036 50.70395728 64.43054581 53.67109871 C65.83846144 55.08786516 67.24743364 56.50358249 68.65749741 57.91821098 C70.62693442 59.89672886 72.58955007 61.88176686 74.55029297 63.86889648 C75.12799942 64.44726761 75.70570587 65.02563873 76.30091858 65.62153625 C82.27452334 71.70590518 85.93054732 76.89509794 86.125 85.625 C86.18107422 87.25501953 86.18107422 87.25501953 86.23828125 88.91796875 C85.29118325 96.74673296 80.78672403 102.05448016 75.33496094 107.43261719 C74.69373795 108.08084946 74.05251495 108.72908173 73.39186096 109.3969574 C71.28675851 111.5195472 69.16750277 113.62730468 67.046875 115.734375 C65.56901577 117.21493178 64.0917505 118.69608165 62.61505127 120.17779541 C59.5247284 123.27400085 56.42732461 126.36289364 53.32470703 129.44677734 C49.35908457 133.3896118 45.41169249 137.35013352 41.46944809 141.31632614 C38.42426165 144.37600372 35.3695662 147.42604466 32.31195831 150.47330475 C30.85305854 151.92954643 29.39709593 153.38873706 27.94420624 154.85097504 C25.90823197 156.89716892 23.85976409 158.93000372 21.80761719 160.95996094 C21.21616409 161.55951096 20.624711 162.15906097 20.01533508 162.77677917 C15.19545778 167.50110609 10.17469516 170.94894304 3.3984375 171.93359375 C-4.20549501 171.79483586 -8.84682578 171.22139519 -14.8125 166.25 C-19.90376971 160.22086482 -21.6235739 155.24336617 -21.71875 147.34375 C-20.35180128 139.8657364 -16.00423696 134.67759722 -10.671875 129.53125 C-10.05604553 128.92108032 -9.44021606 128.31091064 -8.8057251 127.68225098 C-6.85892878 125.75763843 -4.89862494 123.84749871 -2.9375 121.9375 C-1.60584806 120.62593624 -0.27510954 119.3134444 1.0546875 118 C4.29683635 114.8016793 7.55116703 111.6162515 10.8125 108.4375 C10.18081154 108.43695523 9.54912308 108.43641047 8.89829254 108.43584919 C-6.4932426 108.42086247 -21.88442054 108.37833968 -37.27577972 108.30540943 C-44.71904253 108.27079996 -52.16212091 108.24540925 -59.60546875 108.24194336 C-66.09536627 108.2388978 -72.58493501 108.21832837 -79.0747056 108.17697543 C-82.5090589 108.15569675 -85.9429454 108.14301794 -89.37736511 108.15134621 C-93.21757966 108.156247 -97.05643673 108.13017805 -100.89648438 108.09692383 C-102.59257843 108.10986229 -102.59257843 108.10986229 -104.32293701 108.12306213 C-112.09876907 108.01031725 -117.04548935 106.37372431 -122.70540619 100.99500751 C-127.07148505 96.18522896 -128.70679357 91.11816134 -128.49609375 84.6484375 C-127.49991797 77.51127939 -124.68434919 72.07767662 -119.06640625 67.59375 C-115.09082724 65.14723984 -111.60613415 64.18776962 -106.95463562 64.1590271 C-105.40453545 64.14228188 -105.40453545 64.14228188 -103.82312012 64.12519836 C-102.7003064 64.12303818 -101.57749268 64.12087799 -100.4206543 64.11865234 C-99.22998856 64.10860672 -98.03932281 64.0985611 -96.81257629 64.08821106 C-93.55676961 64.06265328 -90.3010577 64.04577731 -87.04518104 64.03278303 C-83.63918609 64.01712952 -80.23327894 63.9903464 -76.8273468 63.9647522 C-70.38184035 63.91800364 -63.93631731 63.88124061 -57.4907282 63.84807932 C-50.15091526 63.80983016 -42.81119059 63.76042734 -35.47145212 63.71009517 C-20.37686669 63.60683371 -5.28222768 63.51755455 9.8125 63.4375 C9.05106689 62.70225098 8.28963379 61.96700195 7.50512695 61.20947266 C4.64995845 58.44565609 1.81206883 55.66462454 -1.02124023 52.87841797 C-2.24357083 51.68103946 -3.47037551 50.48820889 -4.7019043 49.30029297 C-19.68829522 34.83109378 -19.68829522 34.83109378 -21.81640625 24.3359375 C-21.63006628 17.25501863 -20.484645 11.94559977 -15.5390625 6.68359375 C-10.83638572 2.42243466 -6.45113707 0.1619931 0 0 Z " fill="#F7931E" transform="translate(426.1875,148.5625)"/>
</svg>
