<?xml version="1.0" encoding="UTF-8"?>
<svg version="1.1" xmlns="http://www.w3.org/2000/svg" width="512" height="512">
<path d="M0 0 C1.47017326 -0.01292336 1.47017326 -0.01292336 2.970047 -0.02610779 C6.18481446 -0.04866568 9.39870295 -0.04204733 12.61352539 -0.03295898 C14.86357378 -0.0381991 17.11361996 -0.044477 19.36366272 -0.05174255 C24.07002123 -0.06212807 28.77607703 -0.05761172 33.48242188 -0.04296875 C39.49571265 -0.0257853 45.50804748 -0.04928153 51.52123165 -0.08445835 C56.16514852 -0.10648153 60.80883839 -0.10497886 65.45279121 -0.09669304 C67.66903291 -0.0958762 69.88529171 -0.10268809 72.1014843 -0.11746407 C75.20756653 -0.1350003 78.31195284 -0.12029116 81.41796875 -0.09765625 C82.7734935 -0.11519455 82.7734935 -0.11519455 84.15640259 -0.13308716 C92.1911866 -0.01472424 98.53232076 2.78533695 104.64868164 7.97094727 C110.79669564 15.38472886 113.10026407 21.37428419 112.96899414 30.99438477 C112.9647493 32.18023666 112.9647493 32.18023666 112.9604187 33.39004517 C112.94929119 35.8963381 112.9242009 38.40226371 112.89868164 40.90844727 C112.88864222 42.61547333 112.87951805 44.32250503 112.87133789 46.02954102 C112.84937627 50.19764967 112.81489835 54.36548635 112.77368164 58.53344727 C113.93942215 58.52900604 115.10516266 58.52456482 116.30622864 58.51998901 C127.32518263 58.47933755 138.34412129 58.44941241 149.36313343 58.42982292 C155.02727715 58.41941303 160.69136003 58.40530509 166.35546875 58.38256836 C171.82789897 58.36074006 177.3002709 58.34885765 182.77274132 58.34369278 C184.85418299 58.34001489 186.93562169 58.33283317 189.01703835 58.32198715 C219.3003682 58.17054788 219.3003682 58.17054788 229.71118164 67.21704102 C237.83671809 75.64028031 240.75485501 87.9379534 244.3684082 98.81665039 C245.02860508 100.79822493 245.7016076 102.77515688 246.37524414 104.75219727 C249.77566842 114.85326455 251.99695182 123.0886428 248.77368164 133.53344727 C245.59665095 139.76531516 240.20783976 144.73831916 234.02368164 147.97094727 C230.78089294 148.53219916 227.85683966 148.5885338 224.57055664 148.56860352 C222.9439209 148.56098999 222.9439209 148.56098999 221.28442383 148.55322266 C220.45587891 148.54669678 219.62733398 148.5401709 218.77368164 148.53344727 C218.70917092 149.44717606 218.64466021 150.36090485 218.57819462 151.30232239 C216.29595348 183.50304344 213.70462705 215.67822206 211.09292293 247.85354614 C210.73447761 252.26992245 210.37663515 256.68634748 210.01892281 261.1027832 C208.83080325 275.77102094 207.64140154 290.43915383 206.45021325 305.10714269 C206.386721 305.88897066 206.32322875 306.67079863 206.2578125 307.47631836 C206.1942401 308.25913012 206.1306677 309.04194189 206.06516887 309.84847522 C205.02950454 322.60233377 203.99698942 335.35644511 202.96586173 348.11067116 C201.89910699 361.30513634 200.83003715 374.49941218 199.75857264 387.69349575 C199.16018971 395.06258677 198.56271942 402.43174896 197.96775627 409.80111694 C197.40998238 416.70959704 196.84897569 423.61780833 196.28584862 430.52585411 C196.08081602 433.04715081 195.87681854 435.56853196 195.6739769 438.09000587 C191.90941489 484.85795831 191.90941489 484.85795831 180.77368164 497.53344727 C180.26192383 498.13801758 179.75016602 498.74258789 179.22290039 499.36547852 C172.75222902 506.45387508 163.35443084 511.85958975 153.6742959 512.72006297 C151.28149466 512.79589075 148.89601038 512.80966133 146.50201416 512.8008728 C145.58907868 512.80540392 144.6761432 512.80993503 143.73554301 512.81460345 C140.68733151 512.82722757 137.63929914 512.82562835 134.59106445 512.82397461 C132.40100882 512.82996112 130.2109553 512.83676695 128.02090454 512.84432983 C122.07860992 512.86198516 116.13637292 512.86668504 110.1940546 512.86796141 C106.47906204 512.8693839 102.76408409 512.87365539 99.04909515 512.87895584 C86.75056063 512.89650075 74.45206125 512.90579628 62.15351406 512.90429489 C61.16015521 512.90417502 61.16015521 512.90417502 60.14672852 512.90405273 C59.48367473 512.90397097 58.82062095 512.90388921 58.13747463 512.90380497 C47.39792357 512.90299251 36.65851291 512.92212256 25.91900244 512.95032947 C14.87510525 512.97910546 3.8312798 512.99250147 -7.21265531 512.99114192 C-13.40628678 512.99063268 -19.59975934 512.99629457 -25.79335785 513.01749802 C-31.62109295 513.03690449 -37.44851796 513.03698813 -43.27626419 513.02246475 C-45.40990529 513.02037852 -47.54356592 513.02506638 -49.67717361 513.03718567 C-70.28851684 513.14663864 -70.28851684 513.14663864 -79.22631836 508.53344727 C-80.71905273 507.8122168 -80.71905273 507.8122168 -82.24194336 507.07641602 C-94.07091194 499.90045081 -100.59225133 490.83119842 -104.50998151 477.53269136 C-105.86761262 471.84840039 -106.26846246 466.06582706 -106.76057434 460.25361633 C-106.88416937 458.87921726 -107.00856634 457.50489009 -107.1337164 456.13063174 C-107.45129143 452.60933007 -107.75553307 449.08703615 -108.05409482 445.56407574 C-108.21752676 443.63710596 -108.38348327 441.71035079 -108.5495832 439.78360915 C-109.28821271 431.19495847 -109.98673211 422.60329685 -110.67822266 414.01074219 C-110.90479998 411.21451109 -111.1320989 408.41833873 -111.35934448 405.62216187 C-111.90447499 398.90884896 -112.44699152 392.19532752 -112.98841079 385.48171439 C-113.42854684 380.02433564 -113.86955128 374.5670277 -114.31113625 369.10976601 C-114.43953826 367.52284904 -114.56794012 365.93593205 -114.69634181 364.34901506 C-114.76028795 363.5587062 -114.82423408 362.76839735 -114.89011798 361.95413975 C-116.09008956 347.1220502 -117.28683852 332.28970196 -118.48259274 317.45727191 C-119.57495878 303.90863963 -120.67162789 290.36035953 -121.77024927 276.81223317 C-122.90340428 262.83771564 -124.03357833 248.8629599 -125.1605714 234.88794404 C-125.79137475 227.06649982 -126.42335685 219.24515521 -127.05850792 211.42406273 C-127.59766356 204.78467449 -128.1340131 198.14506685 -128.66676315 191.50516143 C-128.9381776 188.12336668 -129.21129513 184.74173311 -129.48705864 181.36028862 C-129.78620013 177.68951086 -130.08038055 174.0183675 -130.37333679 170.34709167 C-130.46078224 169.28844554 -130.5482277 168.2297994 -130.63832301 167.13907307 C-131.12806851 160.92207755 -131.33183681 154.76926226 -131.22631836 148.53344727 C-132.4212793 148.57985352 -133.61624023 148.62625977 -134.84741211 148.67407227 C-153.11510478 149.18092154 -153.11510478 149.18092154 -160.20678711 142.73266602 C-166.6106911 135.93264426 -168.69692738 129.72342692 -168.61230469 120.46337891 C-167.9236527 113.45184761 -165.68225101 106.9411016 -163.42895508 100.29394531 C-162.60152053 97.84654524 -161.80849272 95.38989189 -161.01928711 92.92993164 C-153.52073494 69.99785453 -153.52073494 69.99785453 -143.22631836 63.53344727 C-134.56698872 59.18981579 -126.26654893 58.38012007 -116.7109375 58.41992188 C-115.31952042 58.41970284 -115.31952042 58.41970284 -113.8999939 58.41947937 C-110.85379647 58.42017241 -107.80766127 58.42793622 -104.76147461 58.43579102 C-102.64155613 58.43765736 -100.52163721 58.43908024 -98.40171814 58.44007874 C-92.83689166 58.44388689 -87.27209151 58.45370259 -81.70727539 58.46478271 C-76.02287146 58.47503348 -70.33846325 58.4795842 -64.65405273 58.48461914 C-53.51146308 58.49532644 -42.36889291 58.51238235 -31.22631836 58.53344727 C-31.24988403 57.01376343 -31.24988403 57.01376343 -31.27392578 55.46337891 C-31.32865431 51.66707461 -31.36282278 47.87080444 -31.39111328 44.07421875 C-31.40610292 42.43809118 -31.42650168 40.80200312 -31.45263672 39.16601562 C-31.78768714 17.63738334 -31.78768714 17.63738334 -24.10131836 9.22094727 C-23.39749023 8.42043945 -22.69366211 7.61993164 -21.96850586 6.79516602 C-15.26455974 1.26584294 -8.50448658 -0.06127724 0 0 Z M-0.22631836 30.53344727 C-0.22631836 39.77344727 -0.22631836 49.01344727 -0.22631836 58.53344727 C26.83368164 58.53344727 53.89368164 58.53344727 81.77368164 58.53344727 C81.77368164 49.29344727 81.77368164 40.05344727 81.77368164 30.53344727 C54.71368164 30.53344727 27.65368164 30.53344727 -0.22631836 30.53344727 Z M-127.01165396 91.91809785 C-128.18206532 94.43816403 -129.17975942 96.90705086 -130.05053711 99.54516602 C-130.35668945 100.46749023 -130.6628418 101.38981445 -130.97827148 102.34008789 C-131.28700195 103.29077148 -131.59573242 104.24145508 -131.91381836 105.22094727 C-132.23415039 106.18323242 -132.55448242 107.14551758 -132.88452148 108.13696289 C-134.56846099 112.74235651 -134.56846099 112.74235651 -135.22631836 117.53344727 C-19.06631836 117.53344727 97.09368164 117.53344727 216.77368164 117.53344727 C215.34903627 111.12254309 213.83748183 105.20441416 211.77368164 99.03344727 C211.51329102 98.22391602 211.25290039 97.41438477 210.98461914 96.58032227 C210.30800332 94.54364029 209.5474787 92.53522661 208.77368164 90.53344727 C206.16882401 89.23101845 204.26959416 89.40319349 201.35099888 89.39643288 C199.61306988 89.38882106 199.61306988 89.38882106 197.84003121 89.38105547 C196.55610841 89.38055772 195.27218562 89.38005996 193.94935608 89.37954712 C192.58033305 89.37553385 191.21131121 89.37109585 189.84229082 89.36626756 C186.0672797 89.35428159 182.29228138 89.34864897 178.51725495 89.34408641 C174.45106484 89.33813816 170.38489009 89.32652658 166.31871033 89.3157959 C156.49372021 89.29125704 146.66872501 89.27664412 136.84371367 89.26373583 C134.07058191 89.26002548 131.29745066 89.25605214 128.52431941 89.25198317 C111.31707841 89.22675216 94.10983664 89.20469113 76.90258121 89.19225502 C72.91568562 89.18932516 68.92879006 89.18636351 64.94189453 89.18334961 C63.95092836 89.18260356 62.95996219 89.18185751 61.93896674 89.18108885 C45.87174833 89.16842451 29.80464031 89.13518754 13.73747355 89.09354778 C-2.74383587 89.05118336 -19.22508868 89.0275665 -35.70645243 89.02233446 C-44.96611442 89.01891447 -54.22560378 89.00709012 -63.48521233 88.97423172 C-71.36793277 88.94630561 -79.25044522 88.93519905 -87.13321131 88.94642718 C-91.15796768 88.95163272 -95.18228795 88.94860542 -99.20698166 88.92396164 C-102.88779697 88.90161065 -106.56785938 88.90209683 -110.24868662 88.92116551 C-112.21880179 88.92532683 -114.1889205 88.90471586 -116.15892452 88.88337862 C-117.3201516 88.89395057 -118.48137868 88.90452251 -119.67779446 88.91541481 C-120.68410835 88.91405828 -121.69042224 88.91270175 -122.72723049 88.91130412 C-125.45085499 89.30978621 -125.45085499 89.30978621 -127.01165396 91.91809785 Z M-100.22631836 148.53344727 C-99.41446554 165.92277193 -99.41446554 165.92277193 -98.21511841 183.27349854 C-98.07000393 185.11011036 -98.07000393 185.11011036 -97.92195785 186.98382545 C-97.6588017 190.30547478 -97.39271082 193.62686236 -97.12519813 196.94816184 C-96.83508497 200.55925891 -96.54888939 204.17066712 -96.26208496 207.7820282 C-95.57283465 216.45004661 -94.87720532 225.1175484 -94.18095809 233.78500712 C-93.85209581 237.88112379 -93.52401712 241.9773032 -93.19588852 246.0734787 C-92.10379823 259.70381416 -91.01031496 273.33403642 -89.91198921 286.963871 C-89.84205635 287.83174995 -89.77212349 288.6996289 -89.70007145 289.59380721 C-89.62998717 290.46355752 -89.5599029 291.33330784 -89.48769486 292.22941422 C-89.34571647 293.99140289 -89.20374071 295.75339177 -89.06176758 297.51538086 C-88.99134526 298.38935712 -88.92092293 299.26333338 -88.8483666 300.16379377 C-87.70427248 314.36593116 -86.5701957 328.56884972 -85.44031145 342.77212396 C-84.27691756 357.39474851 -83.10503904 372.01667313 -81.92470443 386.63794017 C-81.26344598 394.83171238 -80.60582964 403.02574037 -79.95764542 411.22055817 C-79.40668263 418.18578667 -78.84798587 425.15034054 -78.27923431 432.11414 C-77.98960276 435.66324403 -77.70359415 439.21253998 -77.42748642 442.76272392 C-77.12776003 446.61525047 -76.81044928 450.46621565 -76.4914856 454.31719971 C-76.40752348 455.43227126 -76.32356137 456.54734282 -76.23705494 457.69620442 C-75.58245368 465.34568905 -74.86860878 472.64536238 -69.53881836 478.47094727 C-63.237865 482.39418238 -56.80781569 482.82988229 -49.58021545 482.79414368 C-48.74668547 482.79796922 -47.91315548 482.80179477 -47.05436701 482.80573624 C-44.28097087 482.81599703 -41.50778445 482.81208734 -38.734375 482.80810547 C-36.73796905 482.81245575 -34.74156477 482.81763995 -32.74516296 482.82359314 C-27.33609512 482.83695962 -21.92709724 482.83756447 -16.5180161 482.83502984 C-11.99764522 482.83395865 -7.47728842 482.83884724 -2.95692056 482.84363526 C7.70906892 482.85472208 18.37502317 482.85517233 29.04101562 482.84912109 C40.03484598 482.84307968 51.0285484 482.85539851 62.02235693 482.87669116 C71.47142124 482.89431729 80.92044487 482.90030696 90.36952502 482.89705342 C96.00860707 482.89524222 101.64759783 482.89786066 107.28666496 482.91176796 C112.58989909 482.92435827 117.89293396 482.92239071 123.19616508 482.90935707 C125.13874886 482.90699447 127.08134671 482.90971461 129.02391434 482.91798019 C131.68303742 482.92847607 134.34149537 482.9203244 137.00059509 482.90766907 C137.76267601 482.91504335 138.52475694 482.92241764 139.30993122 482.93001539 C146.15014282 482.86189159 153.18006407 481.60655349 158.21118164 476.65844727 C164.12901091 468.90310994 163.2253183 455.63854177 163.96328735 446.25276184 C164.06708501 444.98124777 164.17088267 443.7097337 164.27782571 442.3996889 C164.56255858 438.9101661 164.84149197 435.42020149 165.11938763 431.93012846 C165.42130781 428.15154599 165.72872779 424.3734103 166.03544617 420.59521484 C166.6339348 413.21249112 167.22746243 405.82937671 167.81933095 398.44611964 C168.50889442 389.84690231 169.20368585 381.24810976 169.89874558 372.64933523 C171.13815453 357.31437636 172.37324725 341.97907303 173.60571289 326.64355469 C174.8019773 311.75857634 176.00068667 296.87379787 177.20239258 281.98925781 C177.27654202 281.07082239 177.35069146 280.15238697 177.42708786 279.20612017 C177.72513337 275.51453072 178.02318765 271.82294197 178.32125554 268.13135432 C179.60498488 252.23164296 180.88688637 236.33178414 182.16838783 220.43189308 C182.37600826 217.85599833 182.58366105 215.28010619 182.79131746 212.70421433 C183.57870987 202.93619509 184.36515187 193.16810006 185.15023232 183.39989471 C185.38853546 180.43520203 185.62720801 177.47053945 185.86621284 174.50590324 C186.19104408 170.47644405 186.51461941 166.44688503 186.83804321 162.41731262 C186.93395268 161.22970284 187.02986215 160.04209305 187.12867796 158.81849509 C187.21452946 157.74616085 187.30038095 156.67382661 187.388834 155.56899738 C187.46369392 154.63813511 187.53855384 153.70727284 187.61568224 152.74820262 C187.71572448 151.34586131 187.77368164 149.93935253 187.77368164 148.53344727 C92.73368164 148.53344727 -2.30631836 148.53344727 -100.22631836 148.53344727 Z " fill="#EDB12C" transform="translate(215.226318359375,-0.533447265625)"/>
<path d="M0 0 C4.60097178 3.78512936 6.09640909 8.33213985 6.67271996 14.06620502 C6.81852301 16.19664496 6.94517354 18.3284556 7.05575562 20.46101379 C7.12916086 21.60873506 7.2025661 22.75645633 7.27819574 23.93895704 C7.50047139 27.47805656 7.69876906 31.01794081 7.89453125 34.55859375 C8.01866286 36.60213719 8.14411289 38.6456011 8.2710762 40.68897057 C8.64592469 46.83119215 8.98180527 52.97527072 9.31494141 59.11987305 C9.44308169 61.44418089 9.57146145 63.76847554 9.70005798 66.09275818 C10.04354667 72.31502118 10.38344611 78.537475 10.72239733 84.75998664 C11.04340031 90.64639624 11.36659695 96.53268523 11.68955688 102.41898773 C12.36721873 114.77283861 13.04120316 127.12688802 13.71399419 139.48100499 C14.32764348 150.7470496 14.94588504 162.01283675 15.56627257 173.27851214 C16.20678975 184.91045529 16.84417556 196.54256609 17.4784435 208.17485172 C17.83319086 214.68023891 18.18911239 221.18555618 18.54811478 227.69071007 C18.88503865 233.79829873 19.21796463 239.9060928 19.54789925 246.01406288 C19.66903245 248.24447903 19.79153573 250.47482128 19.9155674 252.70507812 C20.28303011 259.32135622 20.62430095 265.93757339 20.89453125 272.55859375 C20.92630195 273.33140316 20.95807265 274.10421257 20.9908061 274.90044045 C21.0660639 276.97700457 21.11657568 279.05217499 21.15463257 281.12971497 C21.17895544 282.24350934 21.20327831 283.35730371 21.22833824 284.50484943 C20.69391149 289.39391013 18.96079317 292.59635738 15.33203125 295.87109375 C10.36711746 299.30834176 5.81791351 299.14506724 -0.10546875 298.55859375 C-5.25332242 296.21866027 -8.05203881 292.76083678 -10.10546875 287.55859375 C-10.82565647 283.61644975 -10.99520808 279.68404201 -11.16894531 275.68481445 C-11.26996426 273.86752995 -11.26996426 273.86752995 -11.37302399 272.01353264 C-11.5193238 269.33363694 -11.6588924 266.65434225 -11.7873764 263.97362328 C-11.99968277 259.54614577 -12.23719949 255.12020992 -12.47735596 250.69416809 C-12.8373932 244.01553172 -13.18544689 237.33634946 -13.52807617 230.65679932 C-14.13704251 218.81938173 -14.79262293 206.9846488 -15.45117188 195.14990234 C-15.69071481 190.8387033 -15.93006348 186.52749349 -16.16931152 182.21627808 C-16.22954451 181.13107585 -16.2897775 180.04587362 -16.35183573 178.92778647 C-17.03206721 166.65869827 -17.70020815 154.38895531 -18.3671875 142.11914062 C-18.42801734 141.00012289 -18.48884718 139.88110515 -18.55152035 138.72817779 C-18.79863359 134.18191403 -19.04574032 129.63564992 -19.29278231 125.08938229 C-19.79933417 115.77047997 -20.30846183 106.45171956 -20.81811213 97.13298625 C-21.31638225 88.02082817 -21.81318524 78.90859093 -22.30878758 69.79628736 C-22.60188929 64.40742689 -22.89552223 59.01859681 -23.19057465 53.62984276 C-23.46482456 48.61981623 -23.73723921 43.60969325 -24.00822639 38.59948921 C-24.10754522 36.7688581 -24.20750936 34.93826186 -24.30817223 33.10770416 C-24.44546972 30.60905995 -24.58041774 28.11029935 -24.71478271 25.61149597 C-24.75485467 24.89229845 -24.79492662 24.17310092 -24.83621287 23.43210953 C-25.56071213 9.77803184 -25.56071213 9.77803184 -22.10546875 3.55859375 C-15.49643961 -3.44769944 -8.45378259 -3.87393296 0 0 Z " fill="#EDB12C" transform="translate(177.10546875,167.44140625)"/>
<path d="M0 0 C4.28590933 2.79515826 7.22425239 5.92275717 8.875 10.875 C9.67163641 22.76516186 8.32815363 34.96792216 7.69750977 46.84082031 C7.57078919 49.26978696 7.44434182 51.69876788 7.31814575 54.12776184 C7.01135301 60.01913989 6.70168878 65.91036279 6.39069552 71.8015202 C6.02777964 78.67890116 5.66829773 85.55646038 5.30896913 92.43402955 C4.66706868 104.7180336 4.02226617 117.00188354 3.37573242 129.28564453 C2.75015697 141.17128882 2.1263407 153.05702355 1.50463867 164.94287109 C1.46637313 165.67443386 1.42810759 166.40599663 1.38868249 167.15972796 C1.23481409 170.10145851 1.08094785 173.04318916 0.92708692 175.9849201 C0.33227737 187.35633174 -0.26384231 198.72767476 -0.86021946 210.09900428 C-1.03973117 213.52184283 -1.21919213 216.94468401 -1.39852786 220.36753178 C-1.80762399 228.17535081 -2.21752005 235.98312722 -2.62867355 243.79083824 C-2.75269389 246.1481224 -2.87645098 248.50542043 -2.99991417 250.86273384 C-3.32081621 256.98777446 -3.64737414 263.11244655 -3.9831264 269.23669147 C-4.11822974 271.74909899 -4.2442393 274.26182068 -4.36873055 276.77477264 C-4.44587207 278.21931308 -4.52333971 279.66383615 -4.60121155 281.1083374 C-4.69337495 282.92178965 -4.69337495 282.92178965 -4.78740025 284.77187729 C-5.42755905 290.65603832 -7.41808164 294.2097138 -11.6875 298.375 C-16.57124325 300.50608796 -20.87691386 300.6414865 -26.125 299.875 C-31.06532068 297.53957568 -33.50760795 294.61900472 -36.125 289.875 C-36.45164134 286.95224403 -36.55966271 284.46160132 -36.44859314 281.55822754 C-36.43239927 280.73449976 -36.4162054 279.91077199 -36.39952081 279.06208277 C-36.33516713 276.33147231 -36.23473592 273.60414744 -36.125 270.875 C-36.08973623 269.94528822 -36.05447245 269.01557644 -36.01814008 268.05769157 C-35.72667996 260.68269797 -35.3404834 253.31351957 -34.94750977 245.94335938 C-34.82063901 243.4954032 -34.6941967 241.04742479 -34.56814575 238.59942627 C-34.26272864 232.6898903 -33.95280456 226.78060137 -33.64069552 220.87141603 C-33.27652583 213.9727038 -32.91766004 207.07371853 -32.55896913 200.17471963 C-31.91858445 187.86105904 -31.27351646 175.54764836 -30.62573242 163.234375 C-29.99862161 151.31397865 -29.37479545 139.39341644 -28.75463867 127.47265625 C-28.71637313 126.73711854 -28.67810759 126.00158082 -28.63868249 125.24375409 C-28.6004803 124.50942365 -28.56227811 123.77509322 -28.52291828 123.01851034 C-27.81422752 109.39620719 -27.10273446 95.77405173 -26.38978054 82.15197107 C-26.17426923 78.03342022 -25.9592484 73.9148441 -25.74459643 69.79624838 C-25.37239399 62.65470515 -24.9980428 55.51327785 -24.62132645 48.37197113 C-24.49684765 46.00615463 -24.3730791 43.64030063 -24.25008583 41.27440643 C-24.08162694 38.03646786 -23.91053255 34.79867865 -23.73878479 31.56091309 C-23.66728056 30.16930977 -23.66728056 30.16930977 -23.5943318 28.74959326 C-23.34733126 24.14642486 -23.04988458 19.54856457 -22.6842947 14.95322418 C-22.61514809 14.0743915 -22.54600148 13.19555882 -22.47475952 12.29009485 C-21.88424147 8.21255867 -20.71502322 6.12913174 -18.125 2.875 C-12.39765349 -1.3084531 -6.79018845 -2.44446784 0 0 Z " fill="#EDB12C" transform="translate(351.125,166.125)"/>
<path d="M0 0 C3.73529341 2.49019561 6.97905974 5.36452997 8.44082993 9.76764131 C8.85277886 12.10338001 8.94162457 14.28284883 8.94672108 16.65523911 C8.95117892 17.61968689 8.95563676 18.58413467 8.96022969 19.57780814 C8.96004533 20.63460155 8.95986097 21.69139495 8.95967102 22.7802124 C8.96334771 23.90504603 8.9670244 25.02987965 8.9708125 26.18879914 C8.98185819 29.97189932 8.98569468 33.75497204 8.98950195 37.53808594 C8.99523382 40.24487544 9.00239974 42.95166083 9.00941467 45.65844727 C9.02916462 53.79036561 9.03924276 61.92228518 9.04814246 70.05422151 C9.05252718 73.88456006 9.05789346 77.71489722 9.06313133 81.54523468 C9.08014103 94.27909432 9.09463552 107.0129531 9.10188007 119.74682236 C9.10378993 123.05029044 9.10571027 126.35375851 9.10766602 129.65722656 C9.10814976 130.47827575 9.1086335 131.29932494 9.1091319 132.1452544 C9.11743345 145.44775007 9.14277363 158.75015586 9.17524669 172.05261227 C9.20831999 185.71236925 9.22632902 199.37208053 9.22952431 213.03187776 C9.23168901 220.70042386 9.24043177 228.36883882 9.26598549 236.03734589 C9.28769609 242.56757564 9.29574114 249.09764239 9.28601871 255.62790415 C9.28147507 258.95866444 9.28554658 262.28881584 9.30278015 265.6195755 C9.32043522 269.23395242 9.3134232 272.84747594 9.30024719 276.46185303 C9.31121644 277.50972355 9.32218568 278.55759407 9.33348733 279.63721824 C9.27846222 285.88864378 8.43124355 290.67302984 4.8125 295.875 C1.17670505 299.42211702 -1.75379785 300.16078227 -6.6875 300.375 C-11.6082651 300.17469749 -14.48760527 299.30417072 -18.1875 295.875 C-22.93489133 290.42833311 -22.75422844 285.60268088 -22.69543457 278.57069397 C-22.70167453 277.42711172 -22.7079145 276.28352947 -22.71434355 275.10529321 C-22.73030733 271.27058841 -22.71765525 267.43651625 -22.70507812 263.60180664 C-22.70829718 260.8536803 -22.71747474 258.10558087 -22.72631836 255.35746765 C-22.74410139 248.66623948 -22.74026446 241.97519083 -22.7286678 235.28395564 C-22.71963211 229.84507021 -22.71841005 224.40623507 -22.72276306 218.96734428 C-22.72337599 218.19307714 -22.72398893 217.41880999 -22.72462043 216.6210802 C-22.72589934 215.04812951 -22.7271962 213.47517883 -22.7285108 211.90222817 C-22.73991615 197.15355792 -22.72680401 182.40498713 -22.70530933 167.6563332 C-22.68744191 155.00496983 -22.69053957 142.35375329 -22.70898438 129.70239258 C-22.730398 115.00784543 -22.73881379 100.31338547 -22.72653532 85.6188249 C-22.72526114 84.05137377 -22.72400366 82.48392263 -22.72276306 80.91647148 C-22.72214596 80.14527552 -22.72152886 79.37407955 -22.72089306 78.57951402 C-22.71744136 73.14851377 -22.72326467 67.71756889 -22.73268127 62.28657722 C-22.74390827 55.66594401 -22.74084675 49.04550045 -22.7195583 42.42488892 C-22.70905637 39.04768091 -22.70706909 35.67105029 -22.71815491 32.29380417 C-22.72907032 28.63098319 -22.71539324 24.96905371 -22.69543457 21.30628967 C-22.70435746 20.24130676 -22.71328034 19.17632384 -22.72247362 18.07906872 C-22.65594274 11.79279726 -21.87937352 8.01482325 -18.1875 2.875 C-12.98905167 -2.06352591 -6.5629217 -2.3163253 0 0 Z " fill="#EDB12C" transform="translate(263.1875,166.125)"/>
</svg>
