<?xml version="1.0" encoding="UTF-8"?>
<svg version="1.1" xmlns="http://www.w3.org/2000/svg" width="512" height="512">
<path d="M0 0 C1.2113562 -0.00938095 2.4227124 -0.0187619 3.67077637 -0.02842712 C4.98018188 -0.01719315 6.2895874 -0.00595917 7.63867188 0.00561523 C8.99483314 0.00546026 10.35099486 0.00397163 11.70715332 0.00120544 C14.54862053 -0.00017896 17.38958321 0.01238523 20.23095703 0.03515625 C23.87297248 0.06354193 27.51414963 0.06080458 31.15622711 0.04806614 C33.956392 0.04111066 36.75636315 0.04889655 39.5565033 0.06132317 C41.55234683 0.06803511 43.54821758 0.06369398 45.54406738 0.05921936 C46.75542358 0.07190353 47.96677979 0.08458771 49.21484375 0.09765625 C50.81676575 0.10576073 50.81676575 0.10576073 52.4510498 0.11402893 C55.10742188 0.50170898 55.10742188 0.50170898 56.95739746 1.83091736 C58.80126417 4.50974489 58.38955081 7.00336822 58.29492188 10.18920898 C58.26785156 11.36870117 58.24078125 12.54819336 58.21289062 13.76342773 C58.16068359 15.11887695 58.16068359 15.11887695 58.10742188 16.50170898 C60.31393958 17.00675637 62.52055214 17.49944214 64.73632812 17.96264648 C67.10742188 18.50170898 67.10742188 18.50170898 70.16992188 19.56420898 C74.48858537 19.47232253 76.36595923 17.09127148 79.37304688 14.16577148 C81.58811244 12.04050588 82.759982 11.55284732 85.81445312 11.10327148 C90.28165126 11.64378656 92.61672053 13.92663593 95.79492188 16.87670898 C96.40505127 17.42109619 97.01518066 17.9654834 97.64379883 18.52636719 C99.4791297 20.16999357 101.29524522 21.83262552 103.10742188 23.50170898 C104.0965561 24.40454502 105.0861049 25.30692718 106.07617188 26.20874023 C107.86674523 27.84238115 109.65458087 29.47902862 111.43945312 31.11889648 C115.05321844 34.34641748 118.80851916 37.3803431 122.59960938 40.39624023 C129.83947182 46.47456712 129.83947182 46.47456712 130.85742188 50.37670898 C129.7271169 55.08631303 126.64449608 57.37363266 123.10742188 60.50170898 C122.10062709 61.49486772 121.09823409 62.49260485 120.10742188 63.50170898 C120.54054688 64.31575195 120.54054688 64.31575195 120.98242188 65.14624023 C121.35367187 65.86166992 121.72492188 66.57709961 122.10742188 67.31420898 C122.47867187 68.0219043 122.84992188 68.72959961 123.23242188 69.45874023 C124.10742188 71.50170898 124.10742188 71.50170898 124.10742188 74.50170898 C125.66203125 74.44950195 125.66203125 74.44950195 127.24804688 74.39624023 C128.61782229 74.36809416 129.98761529 74.34079488 131.35742188 74.31420898 C132.03933594 74.28907227 132.72125 74.26393555 133.42382812 74.23803711 C136.41433902 74.19448598 138.64902652 74.25208803 141.30357361 75.69763184 C143.68413628 78.07849657 143.61856732 79.32887952 143.64086914 82.65991211 C143.65670547 83.71110229 143.67254181 84.76229248 143.68885803 85.84533691 C143.68141823 87.54695984 143.68141823 87.54695984 143.67382812 89.28295898 C143.6800267 90.4479895 143.68622528 91.61302002 143.69261169 92.81335449 C143.6997197 95.27798628 143.6965189 97.74266598 143.68383789 100.20727539 C143.6699747 103.98730424 143.70402988 107.76485824 143.7421875 111.54467773 C143.74313865 113.93660543 143.74128011 116.32853623 143.73632812 118.72045898 C143.74958633 119.85487427 143.76284454 120.98928955 143.77650452 122.15808105 C143.76397141 123.20927124 143.75143829 124.26046143 143.73852539 125.34350586 C143.73756363 126.26933472 143.73660187 127.19516357 143.73561096 128.14904785 C143.10742188 130.50170898 143.10742188 130.50170898 140.78990173 132.30578613 C137.3094922 133.85744784 134.58884971 133.79558079 130.79492188 133.68920898 C129.54066406 133.66213867 128.28640625 133.63506836 126.99414062 133.60717773 C126.04152344 133.57237305 125.08890625 133.53756836 124.10742188 133.50170898 C124.00429688 134.38858398 123.90117187 135.27545898 123.79492188 136.18920898 C123.09551485 139.55907919 122.01999676 141.67442437 120.10742188 144.50170898 C120.82929688 145.15397461 121.55117188 145.80624023 122.29492188 146.47827148 C123.22304688 147.35225586 124.15117187 148.22624023 125.10742188 149.12670898 C126.03554688 149.98522461 126.96367187 150.84374023 127.91992188 151.72827148 C130.10742188 154.50170898 130.10742188 154.50170898 130.73242188 157.52905273 C129.88783959 161.54609724 128.23004184 162.82146915 125.10742188 165.43920898 C124.60122314 165.87249512 124.09502441 166.30578125 123.57348633 166.75219727 C122.09560915 168.01479958 120.60182014 169.25870482 119.10742188 170.50170898 C117.83332561 171.62301227 116.56208722 172.74757908 115.29492188 173.87670898 C113.90091201 175.08714553 112.50476871 176.29512622 111.10742188 177.50170898 C110.59276367 177.94804687 110.07810547 178.39438477 109.54785156 178.85424805 C105.96630397 181.9585256 102.36654988 185.03971263 98.74804688 188.10083008 C97.2999696 189.33729845 95.873773 190.59929364 94.45117188 191.86499023 C91.06548373 194.75789842 89.08659641 196.37931217 84.60742188 196.93920898 C79.50444434 194.84334321 75.98338635 191.36009539 72.10742188 187.50170898 C71.264375 187.79045898 70.42132813 188.07920898 69.55273438 188.37670898 C68.45703125 188.74795898 67.36132812 189.11920898 66.23242188 189.50170898 C65.141875 189.87295898 64.05132812 190.24420898 62.92773438 190.62670898 C60.10742188 191.50170898 60.10742188 191.50170898 58.10742188 191.50170898 C58.14222656 192.4053418 58.17703125 193.30897461 58.21289062 194.23999023 C58.23996094 195.41948242 58.26703125 196.59897461 58.29492188 197.81420898 C58.32972656 198.9859668 58.36453125 200.15772461 58.40039062 201.36499023 C58.10742188 204.50170898 58.10742188 204.50170898 55.10742188 207.50170898 C45.20742188 207.50170898 35.30742187 207.50170898 25.10742188 207.50170898 C25.10742188 245.12170898 25.10742188 282.74170898 25.10742188 321.50170898 C32.36742187 321.50170898 39.62742187 321.50170898 47.10742188 321.50170898 C51.10742188 324.50170898 51.10742188 324.50170898 52.10742188 327.50170898 C52.36595559 331.45570792 52.33880118 335.41515701 52.35742188 339.37670898 C52.37804687 340.4659668 52.39867187 341.55522461 52.41992188 342.67749023 C52.42507813 343.7306543 52.43023437 344.78381836 52.43554688 345.86889648 C52.44489258 346.82908691 52.45423828 347.78927734 52.46386719 348.77856445 C52.0292505 352.0989169 51.13331698 353.8400742 49.10742188 356.50170898 C46.75054932 357.1250028 46.75054932 357.1250028 43.90527344 357.12253475 C42.82129776 357.13372339 41.73732208 357.14491203 40.62049866 357.15643972 C38.82738503 357.13663977 38.82738503 357.13663977 36.99804688 357.11643982 C35.73169907 357.12212308 34.46535126 357.12780633 33.16062927 357.13366181 C29.6384511 357.1487619 26.1169967 357.13255825 22.59487534 357.11135519 C18.79931512 357.09391481 15.00382901 357.10523536 11.20825195 357.11302185 C3.76993109 357.1237108 -3.66810741 357.10771906 -11.10638523 357.08288359 C-19.76268426 357.05499936 -28.41892557 357.05361075 -37.07526207 357.05344058 C-52.51703219 357.05225234 -67.95867231 357.02725441 -83.40039062 356.98876953 C-98.39519816 356.95142249 -113.38991113 356.93017416 -128.38476562 356.92724609 C-129.769992 356.92697188 -129.769992 356.92697188 -131.18320274 356.92669212 C-132.10506685 356.92651315 -133.02693096 356.92633418 -133.97673035 356.92614979 C-135.83271281 356.92578438 -137.68869527 356.925412 -139.54467773 356.92503262 C-140.91753071 356.92475434 -140.91753071 356.92475434 -142.3181181 356.92447045 C-156.59241103 356.92090225 -170.8666893 356.90245196 -185.14096737 356.88253937 C-190.32023516 356.87551051 -195.49949948 356.87073141 -200.67877102 356.86757802 C-208.89363026 356.86253415 -217.10842358 356.85113728 -225.32324886 356.82627773 C-229.078501 356.8150362 -232.83368819 356.80694244 -236.58895874 356.80741119 C-240.65378808 356.80777493 -244.71840857 356.79267263 -248.78320312 356.77586365 C-249.97861221 356.77827873 -251.1740213 356.78069382 -252.40565491 356.78318208 C-253.48963058 356.77611649 -254.57360626 356.7690509 -255.69042969 356.7617712 C-256.62937073 356.75982028 -257.56831177 356.75786936 -258.53570557 356.75585932 C-260.89257813 356.50170898 -260.89257813 356.50170898 -263.89257812 354.50170898 C-264.29663086 351.56835938 -264.29663086 351.56835938 -264.32617188 347.84936523 C-264.33141373 347.1934288 -264.33665558 346.53749237 -264.34205627 345.86167908 C-264.34848131 344.47388118 -264.34713314 343.08602886 -264.33862305 341.69824219 C-264.33012174 339.57510197 -264.35884472 337.45466056 -264.390625 335.33178711 C-264.39223736 333.98348062 -264.3916588 332.63516937 -264.38867188 331.28686523 C-264.3905249 330.05846924 -264.39237793 328.83007324 -264.39428711 327.56445312 C-263.89257812 324.50170898 -263.89257812 324.50170898 -259.89257812 321.50170898 C-252.63257813 321.50170898 -245.37257812 321.50170898 -237.89257812 321.50170898 C-237.89257812 242.30170898 -237.89257812 163.10170898 -237.89257812 81.50170898 C-240.86257812 81.50170898 -243.83257812 81.50170898 -246.89257812 81.50170898 C-249.41967773 79.90014648 -249.41967773 79.90014648 -250.89257812 77.50170898 C-251.72611534 72.8751006 -251.49513104 68.19496878 -251.45507812 63.50170898 C-251.47892578 62.21780273 -251.50277344 60.93389648 -251.52734375 59.61108398 C-251.52541016 58.37874023 -251.52347656 57.14639648 -251.52148438 55.87670898 C-251.52220947 54.75006836 -251.52293457 53.62342773 -251.52368164 52.46264648 C-250.89257812 49.50170898 -250.89257812 49.50170898 -248.78581905 47.34361935 C-245.21729043 45.07180375 -243.17870949 45.02480265 -238.96961975 45.07020569 C-237.94284792 45.07271234 -237.94284792 45.07271234 -236.89533323 45.07526964 C-234.60748119 45.08539003 -232.32098981 45.12392987 -230.03344727 45.16210938 C-228.39043498 45.17466186 -226.7474068 45.18526319 -225.10437012 45.19406128 C-221.56731227 45.21598586 -218.03061113 45.24937834 -214.49373055 45.29094124 C-208.89007209 45.35433789 -203.28669508 45.37760446 -197.682724 45.39268494 C-181.74751878 45.44030402 -165.81303896 45.51641449 -149.87866211 45.68994141 C-141.07662257 45.78546333 -132.27560688 45.83407347 -123.4730348 45.83121103 C-118.82018464 45.831754 -114.17025425 45.85623135 -109.51808357 45.9391346 C-88.33995759 47.38438523 -88.33995759 47.38438523 -69.50048733 39.93061733 C-66.93759007 37.29778245 -64.94258458 34.5543273 -62.89257812 31.50170898 C-60.70033264 29.4019928 -60.70033264 29.4019928 -58.89257812 27.93920898 C-58.3021875 27.4300293 -57.71179688 26.92084961 -57.10351562 26.39624023 C-56.37390625 25.77104492 -55.64429688 25.14584961 -54.89257812 24.50170898 C-53.7178987 23.48501323 -52.54344158 22.4680606 -51.36914062 21.45092773 C-50.08549812 20.34260962 -48.80164227 19.23453857 -47.51757812 18.12670898 C-46.89753906 17.58973389 -46.2775 17.05275879 -45.63867188 16.49951172 C-39.96555913 11.62241935 -39.96555913 11.62241935 -36.08007812 11.18530273 C-31.1832448 11.67138545 -28.93375238 14.58810812 -25.45507812 17.84936523 C-22.97329191 19.80801344 -22.97329191 19.80801344 -19.85351562 19.31420898 C-18.87640625 19.04608398 -17.89929688 18.77795898 -16.89257812 18.50170898 C-16.12171875 18.32510742 -15.35085938 18.14850586 -14.55664062 17.96655273 C-13.88375 17.7925293 -13.21085938 17.61850586 -12.51757812 17.43920898 C-11.32132813 17.12983398 -10.12507812 16.82045898 -8.89257812 16.50170898 C-8.92738281 15.68186523 -8.9621875 14.86202148 -8.99804688 14.01733398 C-9.02511719 12.93967773 -9.0521875 11.86202148 -9.08007812 10.75170898 C-9.11488281 9.68436523 -9.1496875 8.61702148 -9.18554688 7.51733398 C-8.5865392 1.35154831 -5.89049946 0.00091654 0 0 Z M6.10742188 12.50170898 C5.77742188 16.13170898 5.44742188 19.76170898 5.10742188 23.50170898 C1.93633909 25.88002107 0.4745735 26.91814683 -3.04492188 28.03686523 C-4.20991211 28.41488281 -4.20991211 28.41488281 -5.3984375 28.80053711 C-6.20087891 29.05254883 -7.00332031 29.30456055 -7.83007812 29.56420898 C-9.42295291 30.07459743 -11.01541306 30.58628203 -12.60742188 31.09936523 C-13.3534668 31.33800293 -14.09951172 31.57664062 -14.86816406 31.82250977 C-16.52808031 32.37941847 -18.15932898 33.02109398 -19.77929688 33.68530273 C-22.94170365 34.90700886 -24.67138124 34.53249199 -27.89257812 33.50170898 C-30.40140872 31.67572543 -32.66402786 29.65773246 -34.89257812 27.50170898 C-39.61777832 28.95158557 -42.61466869 31.75619255 -46.08007812 35.12670898 C-51.46696043 40.24266484 -56.99489183 44.97526803 -62.89257812 49.50170898 C-61.61172654 53.34426375 -59.61867224 54.49702601 -56.48632812 56.90405273 C-54.5851084 58.80993231 -54.2696236 59.8599659 -53.89257812 62.50170898 C-55.04654222 65.22051833 -56.24679056 67.72578786 -57.64257812 70.31420898 C-58.36847192 71.69470343 -59.09244922 73.07620739 -59.81445312 74.45874023 C-60.34522461 75.46541748 -60.34522461 75.46541748 -60.88671875 76.49243164 C-61.86645646 78.44952906 -62.71119589 80.42334439 -63.53320312 82.45092773 C-64.89257812 85.50170898 -64.89257812 85.50170898 -66.89257812 86.50170898 C-73.32757813 86.99670898 -73.32757813 86.99670898 -79.89257812 87.50170898 C-79.89257812 98.39170898 -79.89257812 109.28170898 -79.89257812 120.50170898 C-75.60257813 120.83170898 -71.31257812 121.16170898 -66.89257812 121.50170898 C-62.43218209 125.96210502 -62.43218209 125.96210502 -60.95507812 130.18920898 C-59.32599744 134.60727579 -57.28271806 138.43442281 -54.74804688 142.39624023 C-53.59565953 145.23248123 -53.86219974 146.636534 -54.89257812 149.50170898 C-56.74023438 151.52124023 -56.74023438 151.52124023 -58.95507812 153.31420898 C-59.68855469 153.9187793 -60.42203125 154.52334961 -61.17773438 155.14624023 C-61.74363281 155.59354492 -62.30953125 156.04084961 -62.89257812 156.50170898 C-58.67992568 161.85291615 -54.04831517 165.97138164 -48.72851562 170.21264648 C-44.65512124 173.50053782 -40.77070246 176.98745805 -36.89257812 180.50170898 C-33.47200446 178.90344967 -30.77513316 176.90778491 -27.86914062 174.52514648 C-25.05237763 173.06666446 -23.03208176 173.20811451 -19.89257812 173.50170898 C-17.03320312 174.48999023 -17.03320312 174.48999023 -14.14257812 175.81420898 C-9.4673586 177.88108686 -4.90354181 179.47594805 0.04882812 180.72827148 C2.10742188 181.50170898 2.10742188 181.50170898 5.10742188 184.50170898 C5.60242188 189.94670898 5.60242188 189.94670898 6.10742188 195.50170898 C18.64742188 195.50170898 31.18742187 195.50170898 44.10742188 195.50170898 C44.43742187 191.54170898 44.76742187 187.58170898 45.10742188 183.50170898 C50.15688738 181.29132697 55.2491402 179.2840038 60.41992188 177.37670898 C65.33790553 175.61499083 65.33790553 175.61499083 70.10742188 173.50170898 C72.73242188 173.00170898 72.73242188 173.00170898 76.10742188 173.50170898 C78.30040035 175.2265709 80.23480859 177.06666759 82.17773438 179.06811523 C83.96029834 180.6842484 83.96029834 180.6842484 86.00195312 180.52905273 C89.04015835 179.04658896 91.2698338 176.83077006 93.66992188 174.50170898 C98.57443898 169.85773007 103.6208166 165.56071372 108.92773438 161.37670898 C111.29717551 159.50854162 111.29717551 159.50854162 113.10742188 156.50170898 C112.25857422 155.83075195 112.25857422 155.83075195 111.39257812 155.14624023 C110.65910156 154.54166992 109.925625 153.93709961 109.16992188 153.31420898 C108.07357422 152.42668945 108.07357422 152.42668945 106.95507812 151.52124023 C104.71303071 149.07063027 104.20618186 147.81510634 104.10742188 144.50170898 C105.18164062 141.70483398 105.18164062 141.70483398 106.79492188 138.75170898 C109.15758892 134.31142984 111.31046819 129.88388756 113.24804688 125.24389648 C114.10742188 123.50170898 114.10742188 123.50170898 116.10742188 121.50170898 C120.39742187 121.17170898 124.68742188 120.84170898 129.10742188 120.50170898 C129.10742188 109.61170898 129.10742188 98.72170898 129.10742188 87.50170898 C125.14742187 87.17170898 121.18742188 86.84170898 117.10742188 86.50170898 C113.63299017 83.02727728 112.40907615 81.51237787 110.60742188 77.25170898 C109.12224365 73.78783057 107.57008192 70.47798679 105.73242188 67.18920898 C104.45542188 64.60893328 104.09802136 63.34503382 103.91992188 60.37670898 C105.62748652 56.24260512 108.56386608 54.11080229 112.10742188 51.50170898 C107.83276648 41.21942978 93.85833581 32.97331511 85.10742188 26.50170898 C84.59953125 26.99541992 84.09164062 27.48913086 83.56835938 27.99780273 C82.53582031 28.95879883 82.53582031 28.95879883 81.48242188 29.93920898 C80.80953125 30.57729492 80.13664063 31.21538086 79.44335938 31.87280273 C76.50623591 33.92093064 74.68949963 34.38274699 71.10742188 34.50170898 C68.56629252 33.69174183 66.32670216 32.84572839 63.91992188 31.75170898 C57.73443185 29.09694611 51.66000984 27.11741561 45.10742188 25.50170898 C44.77742188 21.21170898 44.44742188 16.92170898 44.10742188 12.50170898 C31.56742187 12.50170898 19.02742188 12.50170898 6.10742188 12.50170898 Z M-236.89257812 58.50170898 C-236.89257812 61.80170898 -236.89257812 65.10170898 -236.89257812 68.50170898 C-191.35257813 68.50170898 -145.81257813 68.50170898 -98.89257812 68.50170898 C-98.89257812 72.79170898 -98.89257812 77.08170898 -98.89257812 81.50170898 C-140.14257812 81.50170898 -181.39257812 81.50170898 -223.89257812 81.50170898 C-223.89257812 160.70170898 -223.89257812 239.90170898 -223.89257812 321.50170898 C-219.93257812 321.50170898 -215.97257812 321.50170898 -211.89257812 321.50170898 C-211.86679688 319.64545898 -211.84101563 317.78920898 -211.81445312 315.87670898 C-211.75815489 313.4183527 -211.70080795 310.96002027 -211.64257812 308.50170898 C-211.62839844 307.2809668 -211.61421875 306.06022461 -211.59960938 304.80249023 C-211.36429348 296.09580223 -210.25121036 290.60670394 -204.64257812 283.75170898 C-196.83512942 277.3637964 -188.84148465 275.62921048 -178.89257812 276.50170898 C-171.08089975 278.50637959 -165.20253187 281.9387545 -160.77539062 288.76733398 C-157.83865181 294.83465576 -158.21647068 301.39168444 -158.14257812 308.00170898 C-158.11292969 309.30108398 -158.08328125 310.60045898 -158.05273438 311.93920898 C-157.98242912 315.12638068 -157.93519393 318.31404681 -157.89257812 321.50170898 C-153.93257813 321.50170898 -149.97257812 321.50170898 -145.89257812 321.50170898 C-145.86679688 319.57327148 -145.84101563 317.64483398 -145.81445312 315.65795898 C-145.75815668 313.1058535 -145.7008097 310.55377104 -145.64257812 308.00170898 C-145.62839844 306.73327148 -145.61421875 305.46483398 -145.59960938 304.15795898 C-145.39719916 296.38540663 -145.06610781 289.97377123 -139.51708984 284.02783203 C-133.4433223 278.60574355 -127.87693445 277.27601039 -119.89257812 275.50170898 C-119.89257812 268.24170898 -119.89257812 260.98170898 -119.89257812 253.50170898 C-126.99734543 253.25238106 -126.99734543 253.25238106 -134.1027832 253.02368164 C-134.98861084 252.98807129 -135.87443848 252.95246094 -136.78710938 252.91577148 C-137.69307861 252.88435059 -138.59904785 252.85292969 -139.5324707 252.82055664 C-141.89257813 252.50170898 -141.89257813 252.50170898 -144.89257812 250.50170898 C-145.19638519 247.40325906 -145.31240579 244.50843285 -145.29101562 241.40795898 C-145.2938858 240.50549438 -145.29675598 239.60302979 -145.29971313 238.67321777 C-145.30175651 236.76333998 -145.29620757 234.85344139 -145.28369141 232.94360352 C-145.2676415 230.0132791 -145.28353072 227.08433404 -145.30273438 224.15405273 C-145.30075199 222.30118509 -145.29690842 220.44831831 -145.29101562 218.59545898 C-145.29708832 217.71523071 -145.30316101 216.83500244 -145.30941772 215.92810059 C-145.28076172 213.46069336 -145.28076172 213.46069336 -144.89257812 209.50170898 C-141.65633136 207.34421114 -140.54863747 207.21810411 -136.78710938 207.08764648 C-135.80419922 207.04897461 -134.82128906 207.01030273 -133.80859375 206.97045898 C-132.27235352 206.92405273 -132.27235352 206.92405273 -130.70507812 206.87670898 C-129.66931641 206.83803711 -128.63355469 206.79936523 -127.56640625 206.75952148 C-125.00875785 206.6652303 -122.45069235 206.58237981 -119.89257812 206.50170898 C-119.89257812 203.20170898 -119.89257812 199.90170898 -119.89257812 196.50170898 C-121.44589844 196.44112305 -122.99921875 196.38053711 -124.59960938 196.31811523 C-126.63477508 196.23370744 -128.66993083 196.14905956 -130.70507812 196.06420898 C-131.72923828 196.02489258 -132.75339844 195.98557617 -133.80859375 195.94506836 C-134.79150391 195.90317383 -135.77441406 195.8612793 -136.78710938 195.81811523 C-138.14606323 195.76312866 -138.14606323 195.76312866 -139.5324707 195.70703125 C-141.89257812 195.50170898 -141.89257812 195.50170898 -144.89257812 194.50170898 C-144.94192211 188.55689717 -144.97827094 182.6122039 -145.00244141 176.66723633 C-145.01251483 174.64377771 -145.02617408 172.62033371 -145.04345703 170.59692383 C-145.0676466 167.69275309 -145.07904761 164.78877438 -145.08789062 161.88452148 C-145.0982132 160.97614532 -145.10853577 160.06776917 -145.11917114 159.13186646 C-145.1193222 158.29114594 -145.11947327 157.45042542 -145.11962891 156.58422852 C-145.12407013 155.84254425 -145.12851135 155.10085999 -145.13308716 154.33670044 C-144.89257812 152.50170898 -144.89257812 152.50170898 -142.89257812 150.50170898 C-140.88122559 150.2477417 -140.88122559 150.2477417 -138.3828125 150.24291992 C-137.4484436 150.2366156 -136.51407471 150.23031128 -135.5513916 150.22381592 C-134.03418518 150.22988861 -134.03418518 150.22988861 -132.48632812 150.23608398 C-131.45068726 150.23417053 -130.41504639 150.23225708 -129.34802246 150.23028564 C-127.15567787 150.22892302 -124.96332524 150.23262484 -122.77099609 150.2409668 C-119.40639196 150.25166506 -116.04232181 150.24107395 -112.67773438 150.22827148 C-110.55143111 150.22959307 -108.42512817 150.23215543 -106.29882812 150.23608398 C-105.28735718 150.23203552 -104.27588623 150.22798706 -103.23376465 150.22381592 C-101.8322113 150.2332724 -101.8322113 150.2332724 -100.40234375 150.24291992 C-99.16562927 150.2453067 -99.16562927 150.2453067 -97.90393066 150.2477417 C-95.89257812 150.50170898 -95.89257812 150.50170898 -93.89257812 152.50170898 C-93.57373047 154.56469727 -93.57373047 154.56469727 -93.47851562 157.07202148 C-93.4251001 158.28269287 -93.4251001 158.28269287 -93.37060547 159.51782227 C-93.33660645 160.54375488 -93.30260742 161.5696875 -93.26757812 162.62670898 C-93.14382812 165.88545898 -93.02007812 169.14420898 -92.89257812 172.50170898 C-84.31257812 172.50170898 -75.73257813 172.50170898 -66.89257812 172.50170898 C-69.66200147 169.0399298 -71.80793172 166.52658736 -75.08007812 163.75170898 C-75.77488281 163.15874023 -76.4696875 162.56577148 -77.18554688 161.95483398 C-77.74886719 161.47530273 -78.3121875 160.99577148 -78.89257812 160.50170898 C-79.89257812 159.50170898 -79.89257812 159.50170898 -80.26757812 157.23999023 C-79.73247684 153.33263603 -77.86821095 152.18130147 -74.89257812 149.68920898 C-73.96445312 148.89901367 -73.03632813 148.10881836 -72.08007812 147.29467773 C-71.35820312 146.70299805 -70.63632812 146.11131836 -69.89257812 145.50170898 C-71.79993311 139.22525814 -71.79993311 139.22525814 -74.89257812 133.50170898 C-78.16536222 132.66890187 -78.16536222 132.66890187 -81.83007812 132.81420898 C-89.58161917 132.78975617 -89.58161917 132.78975617 -92.89257812 129.50170898 C-93.37359619 127.12886047 -93.37359619 127.12886047 -93.34667969 124.29589844 C-93.34637756 123.23502518 -93.34607544 122.17415192 -93.34576416 121.08113098 C-93.32511902 119.93730453 -93.30447388 118.79347809 -93.28320312 117.61499023 C-93.27754333 116.4428447 -93.27188354 115.27069916 -93.26605225 114.06303406 C-93.24363134 110.3130132 -93.19342196 106.56394188 -93.14257812 102.81420898 C-93.12252063 100.27450922 -93.10426856 97.73479451 -93.08789062 95.19506836 C-93.04374773 88.96362366 -92.97677794 82.73273415 -92.89257812 76.50170898 C-89.89257812 75.50170898 -89.89257812 75.50170898 -86.49414062 75.53686523 C-82.31873279 75.56557629 -78.95763062 75.45244257 -74.89257812 74.50170898 C-71.94284254 71.5785476 -70.49231306 68.61147155 -69.89257812 64.50170898 C-70.85460723 61.80707024 -71.85636596 60.53792115 -73.89257812 58.50170898 C-76.82102154 58.20166909 -76.82102154 58.20166909 -80.32119751 58.26119995 C-80.98852539 58.2594911 -81.65585328 58.25778225 -82.34340322 58.25602162 C-84.58988297 58.25271518 -86.83606708 58.2637491 -89.08251953 58.2746582 C-90.68870537 58.27522207 -92.29489173 58.27490624 -93.90107727 58.27377319 C-98.27069903 58.27319772 -102.64021172 58.28498345 -107.00980806 58.29892111 C-111.57288852 58.31139609 -116.13597128 58.31259641 -120.69906616 58.31497192 C-129.34406138 58.32119622 -137.98900621 58.33761985 -146.6339792 58.3576709 C-156.47421824 58.3800004 -166.31445963 58.3910159 -176.15471768 58.40106177 C-196.40069932 58.42198528 -216.64663555 58.45717966 -236.89257812 58.50170898 Z M-131.89257812 161.50170898 C-131.89257812 168.76170898 -131.89257812 176.02170898 -131.89257812 183.50170898 C-127.93257812 183.50170898 -123.97257813 183.50170898 -119.89257812 183.50170898 C-119.76882812 182.22295898 -119.64507812 180.94420898 -119.51757812 179.62670898 C-119.14257812 175.75170898 -119.14257812 175.75170898 -116.89257812 173.50170898 C-113.57036992 172.92440723 -110.25970661 172.76071887 -106.89257812 172.50170898 C-106.89257812 168.87170898 -106.89257812 165.24170898 -106.89257812 161.50170898 C-115.14257812 161.50170898 -123.39257812 161.50170898 -131.89257812 161.50170898 Z M-105.89257812 184.50170898 C-105.89257812 229.71170898 -105.89257812 274.92170898 -105.89257812 321.50170898 C-93.02257812 321.50170898 -80.15257812 321.50170898 -66.89257812 321.50170898 C-66.89257812 315.23170898 -66.89257812 308.96170898 -66.89257812 302.50170898 C-65.90257812 300.19170898 -64.91257812 297.88170898 -63.89257812 295.50170898 C-63.39757812 294.01670898 -63.39757812 294.01670898 -62.89257812 292.50170898 C-61.08007813 291.43920898 -61.08007813 291.43920898 -58.89257812 290.50170898 C-58.33699219 290.16139648 -57.78140625 289.82108398 -57.20898438 289.47045898 C-51.49994018 287.08286546 -43.11420906 287.42623159 -37.27148438 289.37670898 C-32.67336858 292.01910445 -29.80727365 295.51759352 -27.89257812 300.50170898 C-27.30105563 304.15101265 -27.19903574 307.74728403 -27.14257812 311.43920898 C-27.06007813 314.75983398 -26.97757812 318.08045898 -26.89257812 321.50170898 C-14.35257812 321.50170898 -1.81257813 321.50170898 11.10742188 321.50170898 C11.10742188 283.88170898 11.10742188 246.26170898 11.10742188 207.50170898 C5.82742188 207.17170898 0.54742187 206.84170898 -4.89257812 206.50170898 C-8.38248621 203.0118009 -8.32519829 202.05497386 -8.58007812 197.31420898 C-8.64582031 196.2275293 -8.7115625 195.14084961 -8.77929688 194.02124023 C-8.83537109 192.77407227 -8.83537109 192.77407227 -8.89257812 191.50170898 C-13.13295198 189.16219237 -17.09261558 187.29816295 -21.89257812 186.50170898 C-25.08021091 188.08676814 -27.04819197 189.89336894 -29.47851562 192.47827148 C-31.89257812 194.50170898 -31.89257812 194.50170898 -38.89257812 195.50170898 C-43.18257812 191.87170898 -47.47257812 188.24170898 -51.89257812 184.50170898 C-69.71257812 184.50170898 -87.53257812 184.50170898 -105.89257812 184.50170898 Z M-131.89257812 219.50170898 C-131.89257812 226.76170898 -131.89257812 234.02170898 -131.89257812 241.50170898 C-127.93257812 241.50170898 -123.97257813 241.50170898 -119.89257812 241.50170898 C-119.89257812 234.24170898 -119.89257812 226.98170898 -119.89257812 219.50170898 C-123.85257813 219.50170898 -127.81257812 219.50170898 -131.89257812 219.50170898 Z M-195.89257812 293.50170898 C-197.23364218 296.18383709 -197.10708231 298.3856893 -197.20898438 301.38452148 C-197.24709229 302.43526855 -197.2852002 303.48601562 -197.32446289 304.56860352 C-197.36756592 305.90777832 -197.41066895 307.24695313 -197.45507812 308.62670898 C-197.59945312 312.87545898 -197.74382812 317.12420898 -197.89257812 321.50170898 C-189.31257813 321.50170898 -180.73257813 321.50170898 -171.89257812 321.50170898 C-171.83070313 317.83045898 -171.76882812 314.15920898 -171.70507812 310.37670898 C-171.67776611 309.23057129 -171.6504541 308.08443359 -171.62231445 306.90356445 C-171.56579164 299.97131483 -172.28229024 295.50749504 -176.95507812 290.12670898 C-184.15056216 286.14622845 -190.50311601 287.69767286 -195.89257812 293.50170898 Z M-129.89257812 292.50170898 C-131.76590231 296.16961663 -132.13160801 299.15241442 -132.08789062 303.23999023 C-132.08144531 304.30668945 -132.075 305.37338867 -132.06835938 306.47241211 C-132.05160156 307.57520508 -132.03484375 308.67799805 -132.01757812 309.81420898 C-132.00855469 310.93633789 -131.99953125 312.0584668 -131.99023438 313.21459961 C-131.96672406 315.97706115 -131.93085475 318.73941258 -131.89257812 321.50170898 C-127.93257812 321.50170898 -123.97257813 321.50170898 -119.89257812 321.50170898 C-119.89257812 310.61170898 -119.89257812 299.72170898 -119.89257812 288.50170898 C-124.6906262 288.50170898 -126.20587842 289.53632009 -129.89257812 292.50170898 Z M-51.07226562 300.39233398 C-54.07172928 303.86810731 -53.31065964 307.77060456 -53.14257812 312.18920898 C-53.12453125 313.08188477 -53.10648438 313.97456055 -53.08789062 314.89428711 C-53.04076908 317.09721917 -52.96902551 319.29959957 -52.89257812 321.50170898 C-48.93257812 321.50170898 -44.97257813 321.50170898 -40.89257812 321.50170898 C-40.83853363 318.75144481 -40.79888506 316.00224695 -40.76757812 313.25170898 C-40.75082031 312.4744043 -40.7340625 311.69709961 -40.71679688 310.89624023 C-40.55687474 305.36687007 -40.55687474 305.36687007 -42.89257812 300.50170898 C-46.06759065 299.46637881 -47.94917205 299.11623123 -51.07226562 300.39233398 Z M-249.89257812 334.50170898 C-249.89257812 337.80170898 -249.89257812 341.10170898 -249.89257812 344.50170898 C-155.18257812 344.50170898 -60.47257812 344.50170898 37.10742188 344.50170898 C37.10742188 341.20170898 37.10742188 337.90170898 37.10742188 334.50170898 C-57.60257813 334.50170898 -152.31257813 334.50170898 -249.89257812 334.50170898 Z " fill="#EAD100" transform="translate(334.892578125,77.498291015625)"/>
<path d="M0 0 C2.52513146 2.21286329 4.93068767 4.49734212 7.30859375 6.8671875 C8.00726563 7.54265625 8.7059375 8.218125 9.42578125 8.9140625 C21.39653884 21.3040295 26.8416732 36.98203474 26.73095703 54.00732422 C26.10454884 73.46691977 16.82705322 88.93640134 2.99609375 102.1171875 C-2.16966057 106.68193993 -7.52180883 109.85855666 -13.69140625 112.8671875 C-14.32046875 113.23328125 -14.94953125 113.599375 -15.59765625 113.9765625 C-32.27473982 123.48542594 -55.77583688 124.14472561 -74.078125 119.8984375 C-94.07422617 114.19144214 -112.77390097 103.08931708 -123.69140625 84.8671875 C-132.26773917 68.36514002 -135.34864244 49.62656422 -129.62890625 31.4921875 C-121.83581148 12.15055117 -107.01852581 -2.4323843 -88.05932617 -10.8046875 C-59.44628309 -22.53263197 -24.58444993 -19.48201692 0 0 Z M-103.69140625 15.8671875 C-114.05035884 28.26333671 -118.55881027 41.74236919 -117.69140625 57.8671875 C-115.83364426 73.59937444 -106.88766153 86.79037854 -94.60546875 96.51953125 C-88.47016033 100.87183488 -80.36279896 105.8671875 -72.69140625 105.8671875 C-72.69140625 98.2771875 -72.69140625 90.6871875 -72.69140625 82.8671875 C-75.16640625 81.6296875 -75.16640625 81.6296875 -77.69140625 80.3671875 C-88.29754818 74.51270608 -94.60182764 66.47296827 -98.3359375 54.86328125 C-100.38351579 43.36534162 -97.52175647 33.87796071 -91.40625 24.21875 C-85.87782519 16.63762987 -76.81847086 10.17214299 -67.47265625 8.4609375 C-64.63631144 8.41286386 -62.38119806 8.97059023 -59.69140625 9.8671875 C-59.69253418 10.90649414 -59.69366211 11.94580078 -59.69482422 13.01660156 C-59.69114867 16.87864563 -59.64832067 20.73944149 -59.59375 24.60107422 C-59.57559955 26.27123977 -59.56801981 27.94155543 -59.57128906 29.61181641 C-59.57414928 32.01582728 -59.53881193 34.41673224 -59.49609375 36.8203125 C-59.50518768 37.56524963 -59.51428162 38.31018677 -59.52365112 39.07769775 C-59.51990366 41.47826821 -59.51990366 41.47826821 -58.69140625 44.8671875 C-55.8013381 47.42220657 -55.8013381 47.42220657 -52.69140625 48.8671875 C-47.82499224 45.63742904 -47.82499224 45.63742904 -45.96606445 40.30200195 C-45.94554948 38.94495134 -45.95578875 37.58718624 -45.9921875 36.23046875 C-45.98559616 35.50981735 -45.97900482 34.78916595 -45.97221375 34.04667664 C-45.95478746 31.75672676 -45.9766895 29.46950714 -46.00390625 27.1796875 C-46.01519833 24.87970752 -46.01789969 22.58052931 -46.00346375 20.28056335 C-45.99606117 18.85266847 -46.00435285 17.42458868 -46.02986145 15.99690247 C-46.02856445 14.04418945 -46.02856445 14.04418945 -45.69140625 10.8671875 C-42.22090715 8.55352144 -40.3575684 8.64122106 -36.30078125 9.19140625 C-24.75962904 12.18035735 -16.67081009 19.94580631 -10.69140625 29.8671875 C-6.39963323 38.05920337 -6.46279774 48.07517597 -8.34765625 56.9609375 C-11.93886694 67.98223928 -18.92529576 74.961717 -28.69140625 80.8671875 C-30.67140625 81.8571875 -30.67140625 81.8571875 -32.69140625 82.8671875 C-32.69140625 90.4571875 -32.69140625 98.0471875 -32.69140625 105.8671875 C-17.85549278 102.90000481 -4.83291229 93.12914412 3.58984375 80.75390625 C11.25107834 67.88651451 13.78342176 54.95017133 10.77734375 40.2734375 C6.35099465 23.62193373 -4.57218417 12.14685445 -19.01953125 3.46875 C-46.64618332 -11.62528176 -81.33958173 -5.71987786 -103.69140625 15.8671875 Z M-76.00390625 27.0546875 C-82.94290139 34.3164266 -85.25612483 39.43183801 -85.0625 49.51171875 C-84.28717582 56.52228164 -81.18504171 61.78271977 -76.12890625 66.6171875 C-70.70736695 70.77844283 -70.70736695 70.77844283 -59.69140625 75.8671875 C-59.36140625 86.7571875 -59.03140625 97.6471875 -58.69140625 108.8671875 C-54.73140625 108.8671875 -50.77140625 108.8671875 -46.69140625 108.8671875 C-46.68729736 107.88322998 -46.68318848 106.89927246 -46.67895508 105.88549805 C-46.65717963 102.23408655 -46.60290905 98.58375517 -46.53881836 94.93286133 C-46.51562401 93.35288853 -46.50123921 91.7727608 -46.49584961 90.19262695 C-46.4865694 87.92040311 -46.44560878 85.65062035 -46.3984375 83.37890625 C-46.40237015 82.67255539 -46.4063028 81.96620453 -46.41035461 81.2384491 C-46.35083008 79.23706055 -46.35083008 79.23706055 -45.69140625 75.8671875 C-43.28540039 73.96899414 -43.28540039 73.96899414 -40.69140625 72.8671875 C-39.96179688 72.49078125 -39.2321875 72.114375 -38.48046875 71.7265625 C-37.76632812 71.36046875 -37.0521875 70.994375 -36.31640625 70.6171875 C-29.20190113 66.65677965 -24.1134503 61.80610966 -21.69140625 53.8671875 C-20.15637174 46.76765291 -20.42095867 40.43922978 -23.69140625 33.8671875 C-26.11214963 30.6023372 -28.71153165 27.63325944 -31.69140625 24.8671875 C-32.02140625 24.8671875 -32.35140625 24.8671875 -32.69140625 24.8671875 C-32.69551514 25.56803467 -32.69962402 26.26888184 -32.70385742 26.9909668 C-32.73683997 30.17971955 -32.80748957 33.36657355 -32.87890625 36.5546875 C-32.88470703 37.65748047 -32.89050781 38.76027344 -32.89648438 39.89648438 C-33.11989724 48.11311311 -33.11989724 48.11311311 -35.94140625 51.8359375 C-36.84890625 52.50625 -37.75640625 53.1765625 -38.69140625 53.8671875 C-39.48160156 54.67800781 -40.27179688 55.48882812 -41.0859375 56.32421875 C-48.43468232 63.48301217 -48.43468232 63.48301217 -52.62890625 63.9921875 C-58.69165761 63.27601728 -63.44435205 57.85044951 -67.69140625 53.8671875 C-68.39072266 53.279375 -69.09003906 52.6915625 -69.81054688 52.0859375 C-72.20740676 49.25848907 -72.22586956 47.67848534 -72.30078125 44.0078125 C-72.33300781 42.89277344 -72.36523438 41.77773437 -72.3984375 40.62890625 C-72.41261719 39.47003906 -72.42679687 38.31117188 -72.44140625 37.1171875 C-72.47105469 35.94285156 -72.50070312 34.76851562 -72.53125 33.55859375 C-72.60191352 30.66138928 -72.65462891 27.76498795 -72.69140625 24.8671875 C-74.10086283 24.75265419 -74.10086283 24.75265419 -76.00390625 27.0546875 Z " fill="#EAD100" transform="translate(412.69140625,129.1328125)"/>
<path d="M0 0 C0.98226059 -0.0038269 1.96452118 -0.00765381 2.97654724 -0.01159668 C5.04842151 -0.01431328 7.12033022 -0.00696976 9.19213867 0.00976562 C12.36389482 0.03120135 15.53339172 0.0099432 18.70507812 -0.015625 C20.72005708 -0.01298213 22.73503463 -0.00785799 24.75 0 C26.17198448 -0.01214539 26.17198448 -0.01214539 27.62269592 -0.02453613 C31.43767502 0.02984722 34.04986553 0.10196299 37.40405273 1.99975586 C39.51867898 5.81108205 39.38099481 9.27239065 39.33984375 13.56640625 C39.34367065 14.44147324 39.34749756 15.31654022 39.35144043 16.21812439 C39.35415839 18.0647802 39.34680529 19.91147459 39.33007812 21.75805664 C39.30864018 24.58762123 39.32989592 27.41465426 39.35546875 30.24414062 C39.35282596 32.03906811 39.34770198 33.83399402 39.33984375 35.62890625 C39.34794067 36.47582535 39.3560376 37.32274445 39.36437988 38.19532776 C39.27025508 44.07553433 39.27025508 44.07553433 37.0645752 46.25280762 C34.53012826 47.68905364 33.08723579 47.91567918 30.1953125 47.93530273 C28.83369995 47.95432899 28.83369995 47.95432899 27.44458008 47.97373962 C25.98507935 47.96933617 25.98507935 47.96933617 24.49609375 47.96484375 C23.49022217 47.9700856 22.48435059 47.97532745 21.44799805 47.98072815 C19.32308881 47.98714648 17.19814404 47.98581382 15.07324219 47.97729492 C11.82032132 47.9687807 8.56915383 47.99755675 5.31640625 48.02929688 C3.25130261 48.03090886 1.18619586 48.03033141 -0.87890625 48.02734375 C-1.85190674 48.03857773 -2.82490723 48.04981171 -3.82739258 48.06138611 C-7.70972056 48.02126464 -10.38986333 47.98658518 -13.80053711 46.04907227 C-15.86637506 42.30938704 -15.78329228 38.96189829 -15.7578125 34.75 C-15.76401108 33.89950073 -15.77020966 33.04900146 -15.77659607 32.17272949 C-15.78368929 30.37737166 -15.78052884 28.58194798 -15.76782227 26.78662109 C-15.753951 24.04011053 -15.78803672 21.29700431 -15.82617188 18.55078125 C-15.82712306 16.80468667 -15.82526428 15.05858782 -15.8203125 13.3125 C-15.83357071 12.49261597 -15.84682892 11.67273193 -15.86048889 10.82800293 C-15.79827618 7.01775531 -15.63236175 5.11436158 -13.2890625 2.015625 C-8.83429785 -0.11906676 -4.88330086 -0.04179827 0 0 Z M-1.19140625 13.53125 C-1.19140625 20.79125 -1.19140625 28.05125 -1.19140625 35.53125 C7.38859375 35.53125 15.96859375 35.53125 24.80859375 35.53125 C24.80859375 28.27125 24.80859375 21.01125 24.80859375 13.53125 C16.22859375 13.53125 7.64859375 13.53125 -1.19140625 13.53125 Z " fill="#EAD100" transform="translate(138.19140625,283.46875)"/>
<path d="M0 0 C0.95769287 -0.0038269 1.91538574 -0.00765381 2.90209961 -0.01159668 C4.92269952 -0.0143132 6.94333476 -0.00697023 8.96386719 0.00976562 C12.05223175 0.03117881 15.13827007 0.00995499 18.2265625 -0.015625 C20.19271345 -0.01298168 22.15886297 -0.00785661 24.125 0 C25.50643188 -0.01214539 25.50643188 -0.01214539 26.91577148 -0.02453613 C30.86819155 0.03311637 33.54280991 0.28378832 37.14648438 1.99975586 C39.98784907 5.75384741 39.74538845 8.97284696 39.65625 13.56640625 C39.65629028 14.44147324 39.65633057 15.31654022 39.65637207 16.21812439 C39.65101834 18.06484168 39.63344173 19.91155851 39.60449219 21.75805664 C39.56259318 24.58745752 39.56342709 27.4144815 39.5703125 30.24414062 C39.55982135 32.03907907 39.54688364 33.83400523 39.53125 35.62890625 C39.53104858 36.47582535 39.53084717 37.32274445 39.53063965 38.19532776 C39.41247694 44.04479339 39.41247694 44.04479339 37.82322693 46.25379944 C35.56638137 47.89119623 34.24573988 47.91131961 31.47094727 47.91943359 C30.54310928 47.92889008 29.6152713 47.93834656 28.65931702 47.9480896 C27.65928146 47.94201691 26.65924591 47.93594421 25.62890625 47.9296875 C24.59942368 47.93255768 23.5699411 47.93542786 22.50926208 47.93838501 C20.33128307 47.94042718 18.15328577 47.93488666 15.9753418 47.92236328 C12.64134651 47.90632862 9.30856658 47.92219887 5.97460938 47.94140625 C3.85937232 47.93942353 1.74413603 47.93557925 -0.37109375 47.9296875 C-1.86811073 47.93879654 -1.86811073 47.93879654 -3.39537048 47.9480896 C-4.7918557 47.93390488 -4.7918557 47.93390488 -6.21655273 47.91943359 C-7.44208107 47.91585342 -7.44208107 47.91585342 -8.69236755 47.91220093 C-11.53362188 47.43010087 -12.89717341 46.5531112 -14.9375 44.53125 C-15.35450685 41.44425421 -15.52200212 38.71885431 -15.50390625 35.62890625 C-15.51010483 34.75479599 -15.51630341 33.88068573 -15.52268982 32.98008728 C-15.52979264 31.13167434 -15.52660588 29.28319748 -15.51391602 27.43481445 C-15.50006508 24.60703603 -15.5340928 21.78257606 -15.57226562 18.95507812 C-15.57321697 17.15885336 -15.57135719 15.36262445 -15.56640625 13.56640625 C-15.57966446 12.72151138 -15.59292267 11.87661652 -15.60658264 11.00611877 C-15.54510954 7.1271392 -15.40701705 5.15087866 -13.01928711 1.99975586 C-8.63818507 -0.08788803 -4.79849895 -0.04218784 0 0 Z M-0.9375 13.53125 C-0.9375 20.79125 -0.9375 28.05125 -0.9375 35.53125 C7.6425 35.53125 16.2225 35.53125 25.0625 35.53125 C25.0625 28.27125 25.0625 21.01125 25.0625 13.53125 C16.4825 13.53125 7.9025 13.53125 -0.9375 13.53125 Z " fill="#EAD100" transform="translate(137.9375,168.46875)"/>
<path d="M0 0 C1.50880737 -0.00218285 1.50880737 -0.00218285 3.0480957 -0.00440979 C5.17304381 -0.00275109 7.29800397 0.00880687 9.42285156 0.02954102 C12.67564925 0.05848829 15.9268165 0.05015039 19.1796875 0.03710938 C21.24479959 0.04334708 23.30990653 0.05173827 25.375 0.0625 C26.34800049 0.05956436 27.32100098 0.05662872 28.32348633 0.05360413 C29.23122803 0.0662883 30.13896973 0.07897247 31.07421875 0.09204102 C31.87045654 0.097444 32.66669434 0.10284698 33.48706055 0.1084137 C36.29556589 0.60322463 37.66414651 1.49993392 39.6875 3.49609375 C40.10450685 6.58308954 40.27200212 9.30848944 40.25390625 12.3984375 C40.26320412 13.70960289 40.26320412 13.70960289 40.27268982 15.04725647 C40.27979264 16.89566941 40.27660588 18.74414627 40.26391602 20.5925293 C40.25006508 23.42030772 40.2840928 26.24476769 40.32226562 29.07226562 C40.32321697 30.86849039 40.32135719 32.6647193 40.31640625 34.4609375 C40.32966446 35.30583237 40.34292267 36.15072723 40.35658264 37.02122498 C40.29510954 40.90020455 40.15701705 42.87646509 37.76928711 46.02758789 C33.38818507 48.11523178 29.54849895 48.06953159 24.75 48.02734375 C23.31346069 48.03308411 23.31346069 48.03308411 21.84790039 48.03894043 C19.82730048 48.04165695 17.80666524 48.03431398 15.78613281 48.01757812 C12.69776825 47.99616494 9.61172993 48.01738876 6.5234375 48.04296875 C4.55728655 48.04032543 2.59113703 48.03520036 0.625 48.02734375 C-0.29595459 48.03544067 -1.21690918 48.0435376 -2.16577148 48.05187988 C-6.12757607 47.99409049 -8.78869643 47.74838922 -12.39428711 46.01171875 C-15.2040646 42.32685847 -15.01454586 39.23777712 -14.94140625 34.71484375 C-14.94381821 33.86434448 -14.94623016 33.01384521 -14.94871521 32.13757324 C-14.94773716 30.34215627 -14.93435331 28.546709 -14.90942383 26.75146484 C-14.87511304 24.00514162 -14.88876517 21.26203632 -14.90820312 18.515625 C-14.90130448 16.76951757 -14.89163193 15.02341844 -14.87890625 13.27734375 C-14.88386612 12.45745972 -14.88882599 11.63757568 -14.89393616 10.79284668 C-14.82223397 7.31739937 -14.61940758 5.0516735 -12.92163086 1.97827148 C-8.76406631 -0.38353018 -4.6997458 -0.05426189 0 0 Z M-0.3125 12.49609375 C-0.3125 19.75609375 -0.3125 27.01609375 -0.3125 34.49609375 C8.2675 34.49609375 16.8475 34.49609375 25.6875 34.49609375 C25.6875 27.23609375 25.6875 19.97609375 25.6875 12.49609375 C17.1075 12.49609375 8.5275 12.49609375 -0.3125 12.49609375 Z " fill="#EAD100" transform="translate(137.3125,226.50390625)"/>
<path d="M0 0 C1.26108078 0.0001133 1.26108078 0.0001133 2.54763794 0.00022888 C3.91020218 0.00797081 3.91020218 0.00797081 5.30029297 0.01586914 C6.22969696 0.01728409 7.15910095 0.01869904 8.1166687 0.02015686 C11.09197171 0.02576486 14.06720011 0.03831871 17.04248047 0.05102539 C19.0568023 0.05603936 21.07112531 0.06060245 23.08544922 0.06469727 C28.02948849 0.07573689 32.97347182 0.0930069 37.91748047 0.11352539 C37.91748047 4.40352539 37.91748047 8.69352539 37.91748047 13.11352539 C27.02748047 13.11352539 16.13748047 13.11352539 4.91748047 13.11352539 C4.91748047 20.37352539 4.91748047 27.63352539 4.91748047 35.11352539 C15.80748047 35.11352539 26.69748047 35.11352539 37.91748047 35.11352539 C37.91748047 39.07352539 37.91748047 43.03352539 37.91748047 47.11352539 C31.70616273 47.18760986 25.49510142 47.24209653 19.28344727 47.27832031 C17.16979493 47.29341899 15.05617398 47.31389965 12.94262695 47.33984375 C9.90682231 47.37617936 6.87143141 47.39324083 3.83544922 47.40649414 C2.41500557 47.42971992 2.41500557 47.42971992 0.96586609 47.45341492 C-0.35516365 47.45375481 -0.35516365 47.45375481 -1.70288086 47.45410156 C-2.4778743 47.4607634 -3.25286774 47.46742523 -4.05134583 47.47428894 C-6.66825967 47.00949013 -7.5333024 46.25241099 -9.08251953 44.11352539 C-9.38099947 41.06490015 -9.50273798 38.22492444 -9.48095703 35.17602539 C-9.48382721 34.29954346 -9.48669739 33.42306152 -9.48965454 32.52001953 C-9.49169551 30.66739252 -9.48616331 28.81474397 -9.47363281 26.9621582 C-9.45757937 24.1241036 -9.47348008 21.28747312 -9.49267578 18.44946289 C-9.49069336 16.64998058 -9.48684969 14.85049915 -9.48095703 13.05102539 C-9.48702972 12.20096924 -9.49310242 11.35091309 -9.49935913 10.47509766 C-9.42827733 4.52996404 -9.42827733 4.52996404 -7.68325806 2.42822266 C-5.0358084 0.25385453 -3.34873385 -0.01002615 0 0 Z " fill="#EAD100" transform="translate(198.08251953125,168.886474609375)"/>
<path d="M0 0 C1.14825256 -0.00430527 1.14825256 -0.00430527 2.31970215 -0.00869751 C3.93693787 -0.0107375 5.5541983 -0.00521213 7.17138672 0.00732422 C9.64737091 0.02337992 12.12172285 0.00747453 14.59765625 -0.01171875 C16.16927444 -0.00973631 17.74089161 -0.0058926 19.3125 0 C20.05318726 -0.00607269 20.79387451 -0.01214539 21.55700684 -0.0184021 C24.40078658 0.02052596 26.62394345 0.09134012 29.11938477 1.53100586 C31.65024135 6.08916974 30.62153767 12.27100401 30.59375 17.3359375 C30.6237207 19.26856445 30.6237207 19.26856445 30.65429688 21.24023438 C30.65365234 22.47708984 30.65300781 23.71394531 30.65234375 24.98828125 C30.65512329 26.68778931 30.65512329 26.68778931 30.65795898 28.42163086 C30.15625 31.3984375 30.15625 31.3984375 28.59204102 33.76586914 C25.32995287 35.95225617 22.48648826 35.97435534 18.6875 35.9296875 C17.6115155 35.93542786 17.6115155 35.93542786 16.51379395 35.94128418 C15.00088086 35.94399977 13.48792055 35.93666305 11.97509766 35.91992188 C9.66332024 35.89850301 7.35464987 35.91973101 5.04296875 35.9453125 C3.57030566 35.94266916 2.0976445 35.93754403 0.625 35.9296875 C-0.06364136 35.93778442 -0.75228271 35.94588135 -1.46179199 35.95422363 C-4.66644486 35.89181734 -6.59679165 35.56395925 -9.27954102 33.76586914 C-11.32116317 30.67587226 -11.34587912 28.67851862 -11.33984375 24.98828125 C-11.34048828 23.75142578 -11.34113281 22.51457031 -11.34179688 21.24023438 C-11.32181641 19.95181641 -11.30183594 18.66339844 -11.28125 17.3359375 C-11.28833984 16.04365234 -11.29542969 14.75136719 -11.30273438 13.41992188 C-11.23960925 4.11139428 -11.23960925 4.11139428 -9.80688477 1.53100586 C-6.6979419 -0.26260016 -3.49135174 -0.02862464 0 0 Z M3.15625 12.3984375 C3.15625 16.0284375 3.15625 19.6584375 3.15625 23.3984375 C7.44625 23.3984375 11.73625 23.3984375 16.15625 23.3984375 C16.15625 19.7684375 16.15625 16.1384375 16.15625 12.3984375 C11.86625 12.3984375 7.57625 12.3984375 3.15625 12.3984375 Z " fill="#EAD100" transform="translate(251.84375,318.6015625)"/>
<path d="M0 0 C1.0759845 -0.00430527 1.0759845 -0.00430527 2.17370605 -0.00869751 C3.68661287 -0.01073419 5.19954626 -0.00523194 6.71240234 0.00732422 C9.02371284 0.02338513 11.33327492 0.00746384 13.64453125 -0.01171875 C15.11719135 -0.00973625 16.58985036 -0.00589242 18.0625 0 C19.09546204 -0.00910904 19.09546204 -0.00910904 20.14929199 -0.0184021 C23.0701666 0.02425797 25.30463568 0.29297363 27.96484375 1.53100586 C30.22747729 4.22846283 30.04859348 6.18698414 30.0625 9.67578125 C30.07023437 11.52913086 30.07023437 11.52913086 30.078125 13.41992188 C30.06265625 14.71220703 30.0471875 16.00449219 30.03125 17.3359375 C30.04671875 18.62435547 30.0621875 19.91277344 30.078125 21.24023438 C30.07296875 22.47708984 30.0678125 23.71394531 30.0625 24.98828125 C30.05798828 26.12128662 30.05347656 27.25429199 30.04882812 28.42163086 C29.53125 31.3984375 29.53125 31.3984375 27.96484375 33.76806641 C24.70003298 35.9553062 21.86190653 35.95651192 18.0625 35.89453125 C16.9865155 35.8967141 16.9865155 35.8967141 15.88879395 35.89894104 C14.37585376 35.89728491 12.86289624 35.8857554 11.35009766 35.86499023 C9.03865766 35.83603031 6.72951225 35.84438593 4.41796875 35.85742188 C2.94530139 35.85118397 1.47264125 35.8427926 0 35.83203125 C-0.68864136 35.83496689 -1.37728271 35.83790253 -2.08679199 35.84092712 C-4.99589138 35.78393697 -7.24792774 35.49996523 -9.90234375 34.27954102 C-12.2030969 31.51655738 -11.98639194 29.42666733 -12 25.8671875 C-12.00515625 24.58199219 -12.0103125 23.29679687 -12.015625 21.97265625 C-12.00724609 21.30411621 -11.99886719 20.63557617 -11.99023438 19.94677734 C-11.96881585 17.90471569 -11.99003292 15.86617112 -12.015625 13.82421875 C-12.01046875 12.53902344 -12.0053125 11.25382812 -12 9.9296875 C-11.99548828 8.74955078 -11.99097656 7.56941406 -11.98632812 6.35351562 C-11.46875 3.3984375 -11.46875 3.3984375 -9.90234375 1.51513672 C-6.60444459 0.00183508 -3.55930099 -0.03138723 0 0 Z M2.53125 12.3984375 C2.53125 16.0284375 2.53125 19.6584375 2.53125 23.3984375 C6.82125 23.3984375 11.11125 23.3984375 15.53125 23.3984375 C15.53125 19.7684375 15.53125 16.1384375 15.53125 12.3984375 C11.24125 12.3984375 6.95125 12.3984375 2.53125 12.3984375 Z " fill="#EAD100" transform="translate(252.46875,272.6015625)"/>
<path d="M0 0 C1.1149585 -0.00430527 1.1149585 -0.00430527 2.25244141 -0.00869751 C3.8225989 -0.01073726 5.39278186 -0.0052135 6.96289062 0.00732422 C9.36646332 0.02338047 11.76835461 0.00747398 14.171875 -0.01171875 C15.69792038 -0.0097363 17.22396471 -0.00589259 18.75 0 C19.46881348 -0.00607269 20.18762695 -0.01214539 20.92822266 -0.0184021 C23.71460041 0.0208786 25.87734747 0.11337017 28.32446289 1.51513672 C30.68208331 5.74164936 29.85114716 11.13710898 29.82104492 15.85009766 C29.81252697 17.89197321 29.84130834 19.93105665 29.87304688 21.97265625 C29.87240234 23.25785156 29.87175781 24.54304688 29.87109375 25.8671875 C29.87387329 27.63739258 29.87387329 27.63739258 29.87670898 29.44335938 C29.375 32.3984375 29.375 32.3984375 27.81298828 34.28173828 C24.50307203 35.79781649 21.44242535 35.8282255 17.87109375 35.796875 C17.15139908 35.79974518 16.43170441 35.80261536 15.69020081 35.80557251 C14.17309784 35.80760896 12.65596837 35.80210836 11.13891602 35.78955078 C8.81662427 35.77346607 6.49606651 35.78942404 4.17382812 35.80859375 C2.69791283 35.8066117 1.22199861 35.80276882 -0.25390625 35.796875 C-1.29461021 35.80598404 -1.29461021 35.80598404 -2.3563385 35.8152771 C-5.08641358 35.77540835 -7.16919666 35.66137665 -9.56079102 34.28173828 C-11.15471539 31.46101504 -11.0141955 29.09044642 -11.0234375 25.8671875 C-11.02730469 24.58199219 -11.03117187 23.29679687 -11.03515625 21.97265625 C-11.02887207 21.30411621 -11.02258789 20.63557617 -11.01611328 19.94677734 C-11.00005354 17.9052442 -11.01596671 15.86569042 -11.03515625 13.82421875 C-11.03128906 12.53902344 -11.02742188 11.25382812 -11.0234375 9.9296875 C-11.02005371 8.74955078 -11.01666992 7.56941406 -11.01318359 6.35351562 C-10.625 3.3984375 -10.625 3.3984375 -9.57666016 1.51513672 C-6.52546298 -0.23069464 -3.42043053 -0.02889654 0 0 Z M3.375 12.3984375 C3.375 16.0284375 3.375 19.6584375 3.375 23.3984375 C7.335 23.3984375 11.295 23.3984375 15.375 23.3984375 C15.375 19.7684375 15.375 16.1384375 15.375 12.3984375 C11.415 12.3984375 7.455 12.3984375 3.375 12.3984375 Z " fill="#EAD100" transform="translate(304.625,318.6015625)"/>
<path d="M0 0 C4.62 0 9.24 0 14 0 C14 5.94 14 11.88 14 18 C20.6 18 27.2 18 34 18 C34 21.96 34 25.92 34 30 C29.64009127 30.07418046 25.28051721 30.12861544 20.92016602 30.16479492 C19.43702801 30.17987768 17.95393456 30.20034689 16.47094727 30.22631836 C14.33859255 30.26272616 12.20682765 30.27973073 10.07421875 30.29296875 C8.79119873 30.3086792 7.50817871 30.32438965 6.1862793 30.34057617 C3 30 3 30 1.07617188 28.86914062 C-0.49967805 26.13213812 -0.3372279 23.94318084 -0.29296875 20.80078125 C-0.28330078 19.59228516 -0.27363281 18.38378906 -0.26367188 17.13867188 C-0.23853516 15.87603516 -0.21339844 14.61339844 -0.1875 13.3125 C-0.17396484 12.03826172 -0.16042969 10.76402344 -0.14648438 9.45117188 C-0.11108471 6.30060175 -0.05727724 3.15024834 0 0 Z " fill="#EAD100" transform="translate(294,278)"/>
</svg>
