<?xml version="1.0" encoding="UTF-8"?>
<svg version="1.1" xmlns="http://www.w3.org/2000/svg" width="151" height="151">
<path d="M0 0 C6.65805802 3.00780691 11.02578769 8.34616485 14.37109375 14.71484375 C15.90669425 20.29451015 15.59487369 24.41148338 12.8828125 29.4375 C11.98053584 30.96847672 11.06081495 32.48929047 10.125 34 C5.08876962 42.26675352 1.25978308 50.25059654 3.5 60.2265625 C5.0317553 65.43104927 6.92558357 69.27234242 11 73 C14.25274952 74.60143036 17.55929943 75.86423476 21 77 C20.76171875 78.859375 20.76171875 78.859375 20 81 C13.09349609 85.87517923 4.07912858 86.057429 -4 85 C-12.20009379 82.47861062 -18.17420533 77.238692 -22.875 70.1875 C-25.26049581 63.42859521 -25.7823845 56.81264916 -23.48046875 49.9609375 C-21.02501164 45.05002327 -17.72179456 40.74624634 -14.48779297 36.32348633 C-8.04909605 27.46659628 -4.52949159 18.63209066 -2 8 C-1.34 8 -0.68 8 0 8 C0.94401557 21.42599922 -2.23767213 32.09808756 -7.8125 44.1875 C-10.78297324 51.09667036 -11.36513199 58.09355502 -9.3359375 65.38671875 C-7.16295138 70.34679576 -3.56138281 74.10912362 1 77 C3.12945247 77.67404128 3.12945247 77.67404128 5 78 C4.39671875 77.6596875 3.7934375 77.319375 3.171875 76.96875 C-3.88397197 72.68972022 -6.44404668 68.66785995 -9 61 C-10.1633265 53.76970491 -8.05634355 47.8678374 -5.42895508 41.24194336 C-0.01979166 27.58097267 2.71614105 14.68482762 0 0 Z " fill="#1BB8DE" transform="translate(27,19)"/>
<path d="M0 0 C4.1287392 1.76945966 4.96304651 5.13347069 6.625 9.125 C6.92664063 9.76695313 7.22828125 10.40890625 7.5390625 11.0703125 C9.08066743 14.39845025 9.625 16.38085757 9.625 20.125 C7.645 20.125 5.665 20.125 3.625 20.125 C3.295 19.135 2.965 18.145 2.625 17.125 C-0.34565509 17.46727572 -0.34565509 17.46727572 -3.375 18.125 C-3.705 18.785 -4.035 19.445 -4.375 20.125 C-8.665 20.125 -12.955 20.125 -17.375 20.125 C-18.035 18.475 -18.695 16.825 -19.375 15.125 C-20.035 15.125 -20.695 15.125 -21.375 15.125 C-21.375 16.775 -21.375 18.425 -21.375 20.125 C-23.355 20.125 -25.335 20.125 -27.375 20.125 C-27.375 13.855 -27.375 7.585 -27.375 1.125 C-15.04408611 0.63176344 -15.04408611 0.63176344 -11.9375 2.921875 C-10.375 5.125 -10.375 5.125 -10.625 8.625 C-10.8725 9.78 -11.12 10.935 -11.375 12.125 C-11.375 13.445 -11.375 14.765 -11.375 16.125 C-8.90850999 13.65850999 -8.1522754 11.36491809 -6.875 8.125 C-3.749677 0.19735142 -3.749677 0.19735142 0 0 Z M-21.375 6.125 C-21.375 7.115 -21.375 8.105 -21.375 9.125 C-19.725 8.795 -18.075 8.465 -16.375 8.125 C-16.705 7.465 -17.035 6.805 -17.375 6.125 C-18.695 6.125 -20.015 6.125 -21.375 6.125 Z " fill="#544947" transform="translate(136.375,65.875)"/>
<path d="M0 0 C2.31 0 4.62 0 7 0 C8.9375 2.5 8.9375 2.5 10 5 C10.350625 4.175 10.70125 3.35 11.0625 2.5 C11.701875 1.675 12.34125 0.85 13 0 C15.31 0 17.62 0 20 0 C20 6.27 20 12.54 20 19 C18.02 19 16.04 19 14 19 C13.67 16.69 13.34 14.38 13 12 C12.01 13.485 12.01 13.485 11 15 C9.68 14.34 8.36 13.68 7 13 C6.67 14.98 6.34 16.96 6 19 C4.02 19 2.04 19 0 19 C0 12.73 0 6.46 0 0 Z " fill="#463B38" transform="translate(70,67)"/>
<path d="M0 0 C4.95 0 9.9 0 15 0 C15 1.65 15 3.3 15 5 C12.03 5 9.06 5 6 5 C6.33 5.33 6.66 5.66 7 6 C8.155 6 9.31 6 10.5 6 C11.655 6 12.81 6 14 6 C15.77201559 7.77201559 15 10.60574059 15 13 C15.185625 13.928125 15.37125 14.85625 15.5625 15.8125 C15.706875 16.534375 15.85125 17.25625 16 18 C15 19 15 19 11.62109375 19.09765625 C10.22652508 19.09191424 8.83198403 19.07890228 7.4375 19.0625 C4.983125 19.041875 2.52875 19.02125 0 19 C0 12.73 0 6.46 0 0 Z " fill="#1A0D0A" transform="translate(92,67)"/>
<path d="M0 0 C4.95 0 9.9 0 15 0 C15 1.65 15 3.3 15 5 C12.03 5 9.06 5 6 5 C6.33 5.33 6.66 5.66 7 6 C7.99 6 8.98 6 10 6 C10.99 6 11.98 6 13 6 C13.33 6.33 13.66 6.66 14 7 C13.979375 7.804375 13.95875 8.60875 13.9375 9.4375 C13.70941092 12.16918103 13.70941092 12.16918103 16 14 C15.67 15.65 15.34 17.3 15 19 C10.05 19 5.1 19 0 19 C0 12.73 0 6.46 0 0 Z " fill="#4E4441" transform="translate(53,67)"/>
<path d="M0 0 C1.58367747 0.14204741 3.16693318 0.28880153 4.75 0.4375 C5.63171875 0.51871094 6.5134375 0.59992188 7.421875 0.68359375 C9.69350452 0.96238465 11.79851823 1.38790577 14 2 C14 1.34 14 0.68 14 0 C14.66 0 15.32 0 16 0 C16 0.66 16 1.32 16 2 C16.598125 1.835 17.19625 1.67 17.8125 1.5 C20 1 20 1 23 1 C24.03769531 0.90460938 25.07539062 0.80921875 26.14453125 0.7109375 C27.35496094 0.60007813 28.56539062 0.48921875 29.8125 0.375 C31.01519531 0.25898438 32.21789062 0.14296875 33.45703125 0.0234375 C37.10670664 -0.00070589 39.63446643 0.64966341 43 2 C43 3.65 43 5.3 43 7 C30.33333333 7 17.66666667 7 5 7 C5 6.34 5 5.68 5 5 C4.01 5 3.02 5 2 5 C2 5.66 2 6.32 2 7 C1.34 7 0.68 7 0 7 C0 4.69 0 2.38 0 0 Z " fill="#B0B0B2" transform="translate(100,128)"/>
<path d="M0 0 C2 1.4375 2 1.4375 3 3 C3 3.66 3 4.32 3 5 C-0.8503105 7.56687367 -2.58569763 6.83288724 -7 6 C-7.74957157 9.47147842 -7.74957157 9.47147842 -8 13 C-6.9275 12.608125 -5.855 12.21625 -4.75 11.8125 C-1 11 -1 11 1.4375 12.25 C3 14 3 14 3 16 C-0.52436946 18.86355018 -3.63889298 19.60265683 -8.06640625 19.41015625 C-11.57856845 18.66515215 -12.99417731 16.85677777 -15 14 C-16.10949563 10.11676531 -16.4112222 8.00520982 -14.875 4.25 C-10.25971325 -1.2883441 -6.71589034 -1.51649137 0 0 Z " fill="#564C49" transform="translate(49,67)"/>
<path d="M0 0 C0.99 0.66 1.98 1.32 3 2 C5.05709596 2.24055468 5.05709596 2.24055468 7.1875 2.125 C8.445625 2.08375 9.70375 2.0425 11 2 C11 3.65 11 5.3 11 7 C7.04886452 8.30351387 3.06175257 8.12612281 -1.046875 8.09765625 C-1.81807678 8.0962413 -2.58927856 8.09482635 -3.3838501 8.09336853 C-5.83927338 8.08778534 -8.29460442 8.07523595 -10.75 8.0625 C-12.41796743 8.05748283 -14.08593629 8.0529203 -15.75390625 8.04882812 C-19.83597287 8.03782141 -23.91797081 8.02056836 -28 8 C-28 5.69 -28 3.38 -28 1 C-27.17757812 1.0721875 -26.35515625 1.144375 -25.5078125 1.21875 C-12.49651619 2.70912145 -12.49651619 2.70912145 0 0 Z " fill="#BFBEC0" transform="translate(100,137)"/>
<path d="M0 0 C0.556875 0.350625 1.11375 0.70125 1.6875 1.0625 C4.61073202 2.24759406 5.93507861 1.63306781 9 1 C11.06095876 0.91004801 13.12458553 0.86987475 15.1875 0.875 C16.23292969 0.87242187 17.27835938 0.86984375 18.35546875 0.8671875 C21 1 21 1 23 2 C23 1.34 23 0.68 23 0 C25.12534659 0.14069196 27.25027529 0.28770921 29.375 0.4375 C30.55835938 0.51871094 31.74171875 0.59992188 32.9609375 0.68359375 C36 1 36 1 38 2 C38 3.65 38 5.3 38 7 C37.27820557 6.99476318 36.55641113 6.98952637 35.81274414 6.98413086 C32.56267151 6.96342642 29.31261272 6.95036082 26.0625 6.9375 C24.92619141 6.92912109 23.78988281 6.92074219 22.61914062 6.91210938 C21.53955078 6.90888672 20.45996094 6.90566406 19.34765625 6.90234375 C18.34742432 6.89710693 17.34719238 6.89187012 16.31665039 6.88647461 C14.03792772 6.73818905 14.03792772 6.73818905 13 8 C10.5 8.125 10.5 8.125 8 8 C7.67 7.67 7.34 7.34 7 7 C5.48071962 6.92820036 3.95832518 6.91607993 2.4375 6.9375 C1.19806641 6.95103516 1.19806641 6.95103516 -0.06640625 6.96484375 C-1.02353516 6.98224609 -1.02353516 6.98224609 -2 7 C-1.125 2.25 -1.125 2.25 0 0 Z " fill="#B4B3B5" transform="translate(47,128)"/>
<path d="M0 0 C1.33841672 0.31229724 2.67139075 0.64830932 4 1 C6.18703385 0.62092718 6.18703385 0.62092718 8 0 C8 0.66 8 1.32 8 2 C9.36125 1.7525 9.36125 1.7525 10.75 1.5 C24.14832536 -0.42583732 24.14832536 -0.42583732 29 2 C29 3.65 29 5.3 29 7 C19.1 7 9.2 7 -1 7 C-1.33 5.35 -1.66 3.7 -2 2 C-1.34 1.34 -0.68 0.68 0 0 Z " fill="#BBBABC" transform="translate(14,128)"/>
<path d="M0 0 C3.66486119 1.44889861 4.23071996 3.3678526 5.7734375 6.8671875 C6.07507813 7.59164062 6.37671875 8.31609375 6.6875 9.0625 C6.98914063 9.70445313 7.29078125 10.34640625 7.6015625 11.0078125 C9.14316743 14.33595025 9.6875 16.31835757 9.6875 20.0625 C7.7075 20.0625 5.7275 20.0625 3.6875 20.0625 C3.3575 19.0725 3.0275 18.0825 2.6875 17.0625 C0.3775 17.3925 -1.9325 17.7225 -4.3125 18.0625 C-4.3125 17.4025 -4.3125 16.7425 -4.3125 16.0625 C-2.0025 16.0625 0.3075 16.0625 2.6875 16.0625 C2.3575 15.4025 2.0275 14.7425 1.6875 14.0625 C-0.33713255 13.41036708 -0.33713255 13.41036708 -2.3125 13.0625 C-2.6425 11.4125 -2.9725 9.7625 -3.3125 8.0625 C-3.9725 8.0625 -4.6325 8.0625 -5.3125 8.0625 C-5.6425 9.0525 -5.9725 10.0425 -6.3125 11.0625 C-6.6425 10.4025 -6.9725 9.7425 -7.3125 9.0625 C-6.5703125 7.15234375 -6.5703125 7.15234375 -5.4375 5 C-5.06882813 4.28714844 -4.70015625 3.57429688 -4.3203125 2.83984375 C-2.75220562 0.07438394 -2.75220562 0.07438394 0 0 Z " fill="#5D5350" transform="translate(136.3125,65.9375)"/>
<path d="M0 0 C1.67012983 0.06378968 3.33780985 0.20028115 5 0.375 C5.9075 0.46523437 6.815 0.55546875 7.75 0.6484375 C10 1 10 1 11 2 C11.04063832 3.66617115 11.042721 5.33388095 11 7 C10.278125 6.814375 9.55625 6.62875 8.8125 6.4375 C6.08978556 5.84478197 6.08978556 5.84478197 3.7734375 6.46484375 C0.40992894 7.11385878 -2.76352279 7.13221597 -6.1875 7.125 C-7.41855469 7.12757813 -8.64960937 7.13015625 -9.91796875 7.1328125 C-13 7 -13 7 -15 6 C-14.67 4.35 -14.34 2.7 -14 1 C-13.07316406 1.01160156 -12.14632812 1.02320313 -11.19140625 1.03515625 C-9.39509766 1.04869141 -9.39509766 1.04869141 -7.5625 1.0625 C-5.77005859 1.07990234 -5.77005859 1.07990234 -3.94140625 1.09765625 C-1.11126659 1.33901792 -1.11126659 1.33901792 0 0 Z " fill="#B9B9BB" transform="translate(59,138)"/>
<path d="M0 0 C4.95 0 9.9 0 15 0 C15 1.65 15 3.3 15 5 C12.03 5 9.06 5 6 5 C6.33 5.33 6.66 5.66 7 6 C8.155 6 9.31 6 10.5 6 C11.655 6 12.81 6 14 6 C15.77201559 7.77201559 15 10.60574059 15 13 C15.185625 13.928125 15.37125 14.85625 15.5625 15.8125 C15.706875 16.534375 15.85125 17.25625 16 18 C15 19 15 19 11.62109375 19.09765625 C10.22652508 19.09191424 8.83198403 19.07890228 7.4375 19.0625 C4.983125 19.041875 2.52875 19.02125 0 19 C0 12.73 0 6.46 0 0 Z M1 1 C1 6.61 1 12.22 1 18 C5.29 18 9.58 18 14 18 C14 16.68 14 15.36 14 14 C11.03 14 8.06 14 5 14 C5 13.01 5 12.02 5 11 C7.64 11 10.28 11 13 11 C13 10.01 13 9.02 13 8 C10.36 8 7.72 8 5 8 C5 6.68 5 5.36 5 4 C7.97 4 10.94 4 14 4 C14 3.01 14 2.02 14 1 C9.71 1 5.42 1 1 1 Z " fill="#9B9694" transform="translate(92,67)"/>
<path d="M0 0 C1.2684375 0.10828125 1.2684375 0.10828125 2.5625 0.21875 C8.73081678 0.72343046 14.81140412 1.12134502 21 1 C20.01 1.33 19.02 1.66 18 2 C18.33 3.65 18.66 5.3 19 7 C12.73 7 6.46 7 0 7 C0 4.69 0 2.38 0 0 Z " fill="#BDBCBE" transform="translate(72,138)"/>
<path d="M0 0 C0.556875 0.350625 1.11375 0.70125 1.6875 1.0625 C4.61526323 2.24943104 5.95028992 1.7092349 9 1 C11.33301986 0.96175377 13.66711508 0.95425716 16 1 C16.33 2.65 16.66 4.3 17 6 C15.68 6 14.36 6 13 6 C13 6.66 13 7.32 13 8 C11.33388095 8.042721 9.66617115 8.04063832 8 8 C7.67 7.67 7.34 7.34 7 7 C5.48071962 6.92820036 3.95832518 6.91607993 2.4375 6.9375 C1.19806641 6.95103516 1.19806641 6.95103516 -0.06640625 6.96484375 C-1.02353516 6.98224609 -1.02353516 6.98224609 -2 7 C-1.125 2.25 -1.125 2.25 0 0 Z " fill="#C5C5C7" transform="translate(47,128)"/>
<path d="M0 0 C1.2684375 0.495 1.2684375 0.495 2.5625 1 C2.5625 2.65 2.5625 4.3 2.5625 6 C-1.7275 6 -6.0175 6 -10.4375 6 C-10.4375 5.34 -10.4375 4.68 -10.4375 4 C-11.0975 4 -11.7575 4 -12.4375 4 C-12.4375 2.68 -12.4375 1.36 -12.4375 0 C-8.41501725 -2.01124138 -4.18016888 -1.21604913 0 0 Z " fill="#C5C5C7" transform="translate(140.4375,129)"/>
<path d="M0 0 C1.33841672 0.31229724 2.67139075 0.64830932 4 1 C6.18703385 0.62092718 6.18703385 0.62092718 8 0 C8.66 1.32 9.32 2.64 10 4 C10.66 4 11.32 4 12 4 C12.33 4.99 12.66 5.98 13 7 C8.38 7 3.76 7 -1 7 C-1.33 5.35 -1.66 3.7 -2 2 C-1.34 1.34 -0.68 0.68 0 0 Z " fill="#C0C0C1" transform="translate(14,128)"/>
<path d="M0 0 C0 1.98 0 3.96 0 6 C1.65 6.33 3.3 6.66 5 7 C5 7.66 5 8.32 5 9 C2.69 9 0.38 9 -2 9 C-2.33 9.99 -2.66 10.98 -3 12 C-4.65 12 -6.3 12 -8 12 C-5.72972973 0 -5.72972973 0 0 0 Z " fill="#2D211E" transform="translate(134,73)"/>
<path d="M0 0 C2.9375 0.875 2.9375 0.875 4.375 2.8125 C4.9375 4.875 4.9375 4.875 3.9375 6.875 C0.9675 6.875 -2.0025 6.875 -5.0625 6.875 C-5.3925 5.225 -5.7225 3.575 -6.0625 1.875 C-3.0625 -0.125 -3.0625 -0.125 0 0 Z " fill="#BCBCBE" transform="translate(93.0625,128.125)"/>
<path d="M0 0 C0 1.65 0 3.3 0 5 C-4.16138263 5.08159574 -7.9472484 4.98248524 -12 4 C-12 3.01 -12 2.02 -12 1 C-3.96428571 -1.27678571 -3.96428571 -1.27678571 0 0 Z " fill="#ADADAF" transform="translate(85,130)"/>
<path d="M0 0 C3.96 0 7.92 0 12 0 C11.01 0.33 10.02 0.66 9 1 C9.33 2.65 9.66 4.3 10 6 C6.05272412 6.17942163 3.4019487 6.09350689 0 4 C0 2.68 0 1.36 0 0 Z " fill="#C3C3C5" transform="translate(81,139)"/>
<path d="M0 0 C2.375 -0.125 2.375 -0.125 5 0 C5.66 0.66 6.32 1.32 7 2 C7.99 2 8.98 2 10 2 C10 3.32 10 4.64 10 6 C4.25 6.125 4.25 6.125 2 5 C2 4.34 2 3.68 2 3 C1.34 3 0.68 3 0 3 C-0.33 3.66 -0.66 4.32 -1 5 C-0.67 3.35 -0.34 1.7 0 0 Z " fill="#A7A7A9" transform="translate(24,129)"/>
<path d="M0 0 C7.07760532 0.33702882 7.07760532 0.33702882 10 2.4375 C11 4 11 4 11 6 C8 8 8 8 5.8125 7.625 C5.214375 7.41875 4.61625 7.2125 4 7 C4.33 5.68 4.66 4.36 5 3 C2.69 2.67 0.38 2.34 -2 2 C-1.34 1.34 -0.68 0.68 0 0 Z " fill="#7C7573" transform="translate(41,66)"/>
<path d="M0 0 C2.31 0 4.62 0 7 0 C7.33 1.65 7.66 3.3 8 5 C6.68 5 5.36 5 4 5 C4 5.66 4 6.32 4 7 C2.68 6.67 1.36 6.34 0 6 C0 5.34 0 4.68 0 4 C0.66 4 1.32 4 2 4 C2 3.34 2 2.68 2 2 C1.34 2 0.68 2 0 2 C0 1.34 0 0.68 0 0 Z " fill="#A2A1A4" transform="translate(56,129)"/>
<path d="M0 0 C3.37462715 0.54723683 5.08235 1.0549 8 3 C7.67 4.32 7.34 5.64 7 7 C6.34 7 5.68 7 5 7 C5 6.34 5 5.68 5 5 C4.01 5 3.02 5 2 5 C2 5.66 2 6.32 2 7 C1.34 7 0.68 7 0 7 C0 4.69 0 2.38 0 0 Z " fill="#B0B0B2" transform="translate(100,128)"/>
<path d="M0 0 C3.63 0 7.26 0 11 0 C10.01 0.495 10.01 0.495 9 1 C9.33 1.99 9.66 2.98 10 4 C8.35 3.67 6.7 3.34 5 3 C5 2.34 5 1.68 5 1 C2.4158995 2.54801956 2.4158995 2.54801956 0 5 C-0.89055736 8.64182335 -0.89055736 8.64182335 -1 12 C-1.33 12 -1.66 12 -2 12 C-2.25 4.5 -2.25 4.5 0 0 Z " fill="#201310" transform="translate(37,68)"/>
<path d="M0 0 C3.63 0 7.26 0 11 0 C10.01 0.495 10.01 0.495 9 1 C9 1.66 9 2.32 9 3 C7.35 3 5.7 3 4 3 C4 2.34 4 1.68 4 1 C3.01 1 2.02 1 1 1 C1 6.28 1 11.56 1 17 C0.67 17 0.34 17 0 17 C0 11.39 0 5.78 0 0 Z " fill="#140705" transform="translate(110,68)"/>
<path d="M0 0 C0 1.65 0 3.3 0 5 C-6.75 6.125 -6.75 6.125 -9 5 C-9 3.68 -9 2.36 -9 1 C-1.125 0 -1.125 0 0 0 Z " fill="#9D9DA0" transform="translate(99,139)"/>
<path d="M0 0 C4.75 0.875 4.75 0.875 7 2 C7 2.66 7 3.32 7 4 C4 6 4 6 1.3125 5.625 C0.549375 5.41875 -0.21375 5.2125 -1 5 C-0.67 3.35 -0.34 1.7 0 0 Z " fill="#C4C4C5" transform="translate(45,139)"/>
<path d="M0 0 C2.31 0.33 4.62 0.66 7 1 C6.67 2.65 6.34 4.3 6 6 C4.35 5.67 2.7 5.34 1 5 C0.67 3.35 0.34 1.7 0 0 Z " fill="#C0BFC1" transform="translate(107,129)"/>
<path d="M0 0 C2.97 0.33 5.94 0.66 9 1 C8.01 1.33 7.02 1.66 6 2 C5.67 2.66 5.34 3.32 5 4 C4.34 3.67 3.68 3.34 3 3 C3 3.99 3 4.98 3 6 C4.32 6.33 5.64 6.66 7 7 C5.02 7 3.04 7 1 7 C1.33 5.35 1.66 3.7 2 2 C1.34 2 0.68 2 0 2 C0 1.34 0 0.68 0 0 Z " fill="#D7D7D8" transform="translate(70,128)"/>
<path d="M0 0 C0.99 0.33 1.98 0.66 3 1 C3.33 2.65 3.66 4.3 4 6 C2.02 6.33 0.04 6.66 -2 7 C-1.125 2.25 -1.125 2.25 0 0 Z " fill="#9F9EA1" transform="translate(47,128)"/>
<path d="M0 0 C0 1.98 0 3.96 0 6 C-1.65 5.67 -3.3 5.34 -5 5 C-5 3.68 -5 2.36 -5 1 C-1.125 0 -1.125 0 0 0 Z " fill="#A2A0A3" transform="translate(92,129)"/>
<path d="M0 0 C0.66 0.33 1.32 0.66 2 1 C1.67 3.31 1.34 5.62 1 8 C-0.98 8 -2.96 8 -5 8 C-3.68 7.67 -2.36 7.34 -1 7 C-1.26676204 5.01508358 -1.26676204 5.01508358 -2 3 C-2.99 2.67 -3.98 2.34 -5 2 C-2.625 0.9375 -2.625 0.9375 0 0 Z " fill="#DDDDDE" transform="translate(100,137)"/>
<path d="M0 0 C0.99 0.33 1.98 0.66 3 1 C3 2.65 3 4.3 3 6 C1.35 6 -0.3 6 -2 6 C-1.125 1.125 -1.125 1.125 0 0 Z " fill="#AFAFB1" transform="translate(140,129)"/>
<path d="M0 0 C1.32 0 2.64 0 4 0 C4 1.65 4 3.3 4 5 C2.68 5 1.36 5 0 5 C0 3.35 0 1.7 0 0 Z " fill="#A5A5A8" transform="translate(66,140)"/>
<path d="M0 0 C-0.33 1.32 -0.66 2.64 -1 4 C-1 3.34 -1 2.68 -1 2 C-1.66 2 -2.32 2 -3 2 C-3 2.99 -3 3.98 -3 5 C-3.99 5 -4.98 5 -6 5 C-5.625 3.0625 -5.625 3.0625 -5 1 C-3 0 -3 0 0 0 Z " fill="#9B9A9D" transform="translate(106,139)"/>
<path d="M0 0 C2.31 0.33 4.62 0.66 7 1 C6.67 2.65 6.34 4.3 6 6 C5.34 6 4.68 6 4 6 C3.71125 5.38125 3.4225 4.7625 3.125 4.125 C2.06279958 1.86674235 2.06279958 1.86674235 0 0 Z " fill="#99999C" transform="translate(101,129)"/>
<path d="M0 0 C1.65 0.33 3.3 0.66 5 1 C4.34 2.32 3.68 3.64 3 5 C1.68 4.34 0.36 3.68 -1 3 C-0.67 2.01 -0.34 1.02 0 0 Z " fill="#8DDFF0" transform="translate(43,95)"/>
<path d="M0 0 C1.65 0 3.3 0 5 0 C5 1.32 5 2.64 5 4 C3.35 3.67 1.7 3.34 0 3 C0 2.01 0 1.02 0 0 Z " fill="#99989B" transform="translate(29,131)"/>
</svg>
