<?xml version="1.0" encoding="UTF-8"?>
<svg version="1.1" xmlns="http://www.w3.org/2000/svg" width="512" height="512">
<path d="M0 0 C0.81984375 0.67289062 0.81984375 0.67289062 1.65625 1.359375 C2.65398437 2.16568359 2.65398437 2.16568359 3.671875 2.98828125 C4.49171875 3.68824219 5.3115625 4.38820313 6.15625 5.109375 C6.70474609 5.57585449 7.25324219 6.04233398 7.81835938 6.52294922 C10.29764081 8.63352723 12.77342425 10.74763639 15.23242188 12.88183594 C15.81056641 13.38360352 16.38871094 13.88537109 16.984375 14.40234375 C17.5323877 14.87929687 18.08040039 15.35625 18.64501953 15.84765625 C20.2556345 17.23238112 20.2556345 17.23238112 22.5390625 18.74609375 C24.15625 20.109375 24.15625 20.109375 24.78125 23.734375 C24.59466812 27.23416297 23.67027591 29.18399886 21.6328125 32.00390625 C18.98090837 35.83138055 16.54203663 39.74520439 14.203125 43.76953125 C13.85778214 44.36275177 13.51243927 44.95597229 13.15663147 45.56716919 C12.43964088 46.80111344 11.72349389 48.03554822 11.00814819 49.27044678 C5.54699088 58.69418365 0.05753273 68.09267257 -5.79980469 77.27758789 C-7.61851289 80.12965303 -9.3481677 82.99980968 -10.98046875 85.9609375 C-12.84375 89.109375 -12.84375 89.109375 -14.84375 90.109375 C-16.87109596 90.13262057 -18.89919775 90.0993229 -20.92578125 90.0390625 C-37.39506566 89.09726134 -37.39506566 89.09726134 -51.46875 96.109375 C-53.34117449 98.05249851 -55.08162495 100.06076949 -56.84375 102.109375 C-58.60318435 103.60643756 -60.39494204 105.06644338 -62.21875 106.484375 C-67.34108524 110.65093923 -72.31792378 114.97138781 -77.29418945 119.30981445 C-81.80590363 123.23426597 -86.39700555 127.04364283 -91.04296875 130.80859375 C-94.30704783 133.48996416 -97.5162572 136.23000363 -100.71875 138.984375 C-101.30833496 139.49145996 -101.89791992 139.99854492 -102.50537109 140.52099609 C-103.09527832 141.02840332 -103.68518555 141.53581055 -104.29296875 142.05859375 C-111.53191124 148.28459867 -118.80240909 154.4702374 -126.21875 160.484375 C-131.34108524 164.65093923 -136.31792378 168.97138781 -141.29418945 173.30981445 C-145.80314957 177.2318704 -150.39073064 181.03969365 -155.03515625 184.80078125 C-158.3467348 187.52281591 -161.59688059 190.31077231 -164.84375 193.109375 C-168.968393 196.66394992 -173.11582904 200.17729798 -177.34375 203.609375 C-182.12873762 207.49630043 -186.81662861 211.48522589 -191.48754883 215.50756836 C-196.18667232 219.55358676 -200.91629563 223.56199818 -205.66943359 227.54443359 C-208.16300906 229.64323937 -210.59258062 231.74990194 -212.84375 234.109375 C-212.11027344 234.67785156 -211.37679687 235.24632812 -210.62109375 235.83203125 C-209.68394531 236.60417969 -208.74679688 237.37632812 -207.78125 238.171875 C-206.84152344 238.92597656 -205.90179688 239.68007813 -204.93359375 240.45703125 C-202.84375 243.109375 -202.84375 243.109375 -202.7421875 246.65625 C-204.02780336 250.6863366 -205.15395384 251.82676496 -208.53125 254.296875 C-209.52769531 255.05613281 -210.52414063 255.81539063 -211.55078125 256.59765625 C-212.08654785 257.00064941 -212.62231445 257.40364258 -213.17431641 257.81884766 C-216.11811557 260.09450171 -218.9090778 262.54661714 -221.71875 264.984375 C-222.90969168 266.00965447 -224.10109983 267.03439233 -225.29296875 268.05859375 C-225.88255371 268.56567871 -226.47213867 269.07276367 -227.07958984 269.59521484 C-233.72894837 275.30228952 -240.41250157 280.96498004 -247.21875 286.484375 C-252.34108524 290.65093923 -257.31792378 294.97138781 -262.29418945 299.30981445 C-266.80590363 303.23426597 -271.39700555 307.04364283 -276.04296875 310.80859375 C-279.30704783 313.48996416 -282.5162572 316.23000363 -285.71875 318.984375 C-286.30833496 319.49145996 -286.89791992 319.99854492 -287.50537109 320.52099609 C-288.09527832 321.02840332 -288.68518555 321.53581055 -289.29296875 322.05859375 C-324.96903062 352.74254202 -324.96903062 352.74254202 -338.84375 358.109375 C-340.14892578 358.65658203 -340.14892578 358.65658203 -341.48046875 359.21484375 C-355.98737548 363.07324287 -372.00438784 360.75742445 -384.8515625 353.3828125 C-392.78478901 348.1300222 -400.09287713 340.42812137 -402.84375 331.109375 C-404.43340612 317.83410515 -403.11606341 307.35910448 -394.8984375 296.55078125 C-389.47659542 290.1386027 -383.05395393 284.8663875 -376.58935547 279.55664062 C-373.59612153 277.07497758 -370.6616564 274.52529788 -367.71875 271.984375 C-362.77061622 267.72763914 -357.75538877 263.56705824 -352.6875 259.453125 C-349.36687974 256.71635006 -346.10343592 253.91817366 -342.84375 251.109375 C-337.74475237 246.71951407 -332.61749 242.37422196 -327.37109375 238.16015625 C-325.68940459 236.79557076 -324.03497846 235.39666942 -322.41015625 233.96484375 C-316.76586882 229.13912077 -316.76586882 229.13912077 -311.96875 228.984375 C-307.27032343 230.67580857 -307.27032343 230.67580857 -305.84375 233.109375 C-305.34375 235.984375 -305.34375 235.984375 -305.84375 239.109375 C-309.36483962 242.99292973 -313.35123449 246.35015761 -317.34375 249.734375 C-318.25797729 250.51325073 -318.25797729 250.51325073 -319.19067383 251.30786133 C-321.07324154 252.9104861 -322.95842767 254.5099924 -324.84375 256.109375 C-325.98317393 257.07930843 -327.12250055 258.04935619 -328.26171875 259.01953125 C-333.20796035 263.22479035 -338.17587874 267.3949565 -343.21875 271.484375 C-348.33457199 275.64564128 -353.30681672 279.95877896 -358.27441406 284.29443359 C-362.92505621 288.34318587 -367.65530986 292.26438847 -372.4765625 296.109375 C-380.72073406 303.07474768 -386.05099867 309.71036261 -387.21875 320.609375 C-386.41806262 328.0824572 -384.24357566 333.83227265 -378.84375 339.109375 C-376.56763989 340.65917582 -374.31311493 341.85224376 -371.84375 343.109375 C-371.163125 343.50125 -370.4825 343.893125 -369.78125 344.296875 C-360.71382462 348.09934371 -349.34796133 346.59412989 -340.41015625 343.1796875 C-334.49165948 340.50205246 -330.09295959 336.92384617 -325.390625 332.484375 C-322.89206456 330.15442907 -320.31726233 328.00078137 -317.65625 325.859375 C-313.13433841 322.20091187 -308.72599699 318.43240893 -304.34375 314.609375 C-299.18810937 310.11416767 -293.96863576 305.72313836 -288.65234375 301.41796875 C-285.3407652 298.69593409 -282.09061941 295.90797769 -278.84375 293.109375 C-273.86486395 288.81862221 -268.82395732 284.62085266 -263.71875 280.48046875 C-259.59884282 277.08266487 -255.55845233 273.59397971 -251.52539062 270.09375 C-249.03211307 267.93878491 -246.58976752 265.94005335 -243.84375 264.109375 C-249.68144432 258.75287891 -255.63417272 253.6077883 -261.79296875 248.625 C-265.36431766 245.68012331 -268.85583301 242.65213808 -272.34375 239.609375 C-282.59373119 230.47345459 -282.59373119 230.47345459 -293.5859375 222.30078125 C-295.84375 220.109375 -295.84375 220.109375 -296.984375 216.6953125 C-296.84375 213.109375 -296.84375 213.109375 -294.703125 210.3359375 C-293.68660787 209.44545844 -292.64853141 208.57918043 -291.59375 207.734375 C-291.05177979 207.2710376 -290.50980957 206.8077002 -289.95141602 206.33032227 C-288.26685221 204.90006915 -286.55796685 203.50386705 -284.84375 202.109375 C-283.79439382 201.23187685 -282.74616897 200.35302358 -281.69921875 199.47265625 C-271.86833749 191.29999593 -271.86833749 191.29999593 -268.15625 190.609375 C-263.99603226 191.2373324 -261.95613883 192.95570236 -258.7734375 195.6015625 C-256.87459776 197.08527128 -255.0289196 198.10905292 -252.84375 199.109375 C-246.56879455 194.06071022 -240.41296685 188.90218898 -234.34375 183.609375 C-229.18526065 179.1118656 -223.96217877 174.71942024 -218.64453125 170.41015625 C-215.38045217 167.72878584 -212.1712428 164.98874637 -208.96875 162.234375 C-208.37916504 161.72729004 -207.78958008 161.22020508 -207.18212891 160.69775391 C-206.59222168 160.19034668 -206.00231445 159.68293945 -205.39453125 159.16015625 C-198.15558876 152.93415133 -190.88509091 146.7485126 -183.46875 140.734375 C-178.34641476 136.56781077 -173.36957622 132.24736219 -168.39331055 127.90893555 C-163.88159637 123.98448403 -159.29049445 120.17510717 -154.64453125 116.41015625 C-151.38045217 113.72878584 -148.1712428 110.98874637 -144.96875 108.234375 C-144.37916504 107.72729004 -143.78958008 107.22020508 -143.18212891 106.69775391 C-142.59222168 106.19034668 -142.00231445 105.68293945 -141.39453125 105.16015625 C-134.15558876 98.93415133 -126.88509091 92.7485126 -119.46875 86.734375 C-115.01558465 83.11212097 -110.67029846 79.38065322 -106.34375 75.609375 C-90.10511627 61.4573615 -90.10511627 61.4573615 -85.73120117 58.85009766 C-83.59964966 57.23261165 -83.59964966 57.23261165 -83.36132812 54.52148438 C-83.3680957 53.00264648 -83.3680957 53.00264648 -83.375 51.453125 C-83.36082031 50.34839844 -83.34664063 49.24367187 -83.33203125 48.10546875 C-83.33589844 46.95175781 -83.33976562 45.79804688 -83.34375 44.609375 C-83.35139668 42.32811403 -83.34177882 40.04671089 -83.3125 37.765625 C-83.31926758 36.24678711 -83.31926758 36.24678711 -83.32617188 34.69726562 C-82.84375 32.109375 -82.84375 32.109375 -81.36523438 30.49389648 C-77.69665093 28.47951454 -73.90203241 26.88517533 -70.03125 25.30078125 C-69.1573613 24.93749222 -68.2834726 24.57420319 -67.38310242 24.1999054 C-64.53882093 23.01858251 -61.69140858 21.84503106 -58.84375 20.671875 C-54.93256445 19.05325915 -51.02277223 17.43129769 -47.11328125 15.80859375 C-46.14542191 15.40743347 -45.17756256 15.00627319 -44.18037415 14.59295654 C-38.42252634 12.20080869 -32.68887196 9.76166942 -26.98046875 7.25390625 C-26.32869659 6.96868607 -25.67692444 6.68346588 -25.00540161 6.38960266 C-22.04643961 5.09367408 -19.09290745 3.78736747 -16.14648438 2.46313477 C-15.12232422 2.01381592 -14.09816406 1.56449707 -13.04296875 1.1015625 C-12.17502686 0.71339355 -11.30708496 0.32522461 -10.4128418 -0.07470703 C-6.87031911 -1.19977696 -3.41960349 -1.65184236 0 0 Z M-13.171875 16.27734375 C-14.26781982 16.75260498 -15.36376465 17.22786621 -16.49291992 17.7175293 C-17.68119385 18.23871338 -18.86946777 18.75989746 -20.09375 19.296875 C-22.61470518 20.39335242 -25.13739643 21.48580719 -27.66015625 22.578125 C-28.31724075 22.86318405 -28.97432526 23.1482431 -29.65132141 23.44194031 C-34.60521578 25.58667929 -39.57676545 27.68666745 -44.55859375 29.765625 C-45.26970306 30.06245682 -45.98081238 30.35928864 -46.71347046 30.66511536 C-49.5132971 31.83278222 -52.31365777 32.99913201 -55.11560059 34.16171265 C-57.06098306 34.96908079 -59.0051694 35.77927212 -60.94921875 36.58984375 C-62.06449951 37.05285889 -63.17978027 37.51587402 -64.32885742 37.99291992 C-66.73490192 38.8807355 -66.73490192 38.8807355 -67.84375 40.109375 C-67.94041468 41.68523404 -67.97574769 43.26495256 -67.984375 44.84375 C-68.00371094 45.81054688 -68.02304687 46.77734375 -68.04296875 47.7734375 C-68.07656259 49.81490916 -68.0950319 51.85669114 -68.09765625 53.8984375 C-68.2857453 61.36260291 -68.2857453 61.36260291 -70.9453125 64.921875 C-71.90179688 65.64375 -72.85828125 66.365625 -73.84375 67.109375 C-74.9776628 68.10746153 -76.10486175 69.11320834 -77.2265625 70.125 C-78.47188463 71.20551963 -79.71936729 72.28355312 -80.96875 73.359375 C-81.63326172 73.93365234 -82.29777344 74.50792969 -82.98242188 75.09960938 C-87.5805272 79.05921213 -92.2523711 82.91635399 -96.96875 86.734375 C-100.47922753 89.6343347 -103.91204935 92.61698695 -107.34375 95.609375 C-112.50226311 100.10685477 -117.72532094 104.49932952 -123.04296875 108.80859375 C-126.30704783 111.48996416 -129.5162572 114.23000363 -132.71875 116.984375 C-133.30833496 117.49145996 -133.89791992 117.99854492 -134.50537109 118.52099609 C-135.09527832 119.02840332 -135.68518555 119.53581055 -136.29296875 120.05859375 C-143.53191124 126.28459867 -150.80240909 132.4702374 -158.21875 138.484375 C-163.34108524 142.65093923 -168.31792378 146.97138781 -173.29418945 151.30981445 C-177.80314957 155.2318704 -182.39073064 159.03969365 -187.03515625 162.80078125 C-190.3467348 165.52281591 -193.59688059 168.31077231 -196.84375 171.109375 C-200.968393 174.66394992 -205.11582904 178.17729798 -209.34375 181.609375 C-214.12700476 185.49489279 -218.81622993 189.47915194 -223.48095703 193.50537109 C-226.50654987 196.11508062 -229.54659169 198.70268073 -232.625 201.25 C-233.22844238 201.75160645 -233.83188477 202.25321289 -234.45361328 202.77001953 C-235.60947718 203.72892294 -236.769183 204.68321854 -237.93310547 205.63232422 C-239.27389978 206.74804313 -240.56448435 207.92361049 -241.84375 209.109375 C-241.84375 209.769375 -241.84375 210.429375 -241.84375 211.109375 C-240.16839541 212.62922383 -238.42669378 214.07643953 -236.65625 215.484375 C-235.69332031 216.25523437 -234.73039063 217.02609375 -233.73828125 217.8203125 C-232.78308594 218.57570313 -231.82789063 219.33109375 -230.84375 220.109375 C-229.17663965 221.44215354 -227.50982219 222.77529891 -225.84375 224.109375 C-221.69961014 222.40895397 -218.59991765 219.46788095 -215.28125 216.546875 C-214.02039893 215.45082397 -212.75867167 214.35578011 -211.49609375 213.26171875 C-210.87460449 212.72272949 -210.25311523 212.18374023 -209.61279297 211.62841797 C-207.22494681 209.57802067 -204.78960215 207.59004279 -202.34375 205.609375 C-196.94012098 201.21991682 -191.66336545 196.69254691 -186.38671875 192.15234375 C-181.43816284 187.89585575 -176.4489646 183.68770494 -171.46142578 179.47705078 C-169.81466021 178.08478083 -168.17064933 176.68932027 -166.52734375 175.29296875 C-161.54348752 171.06083867 -156.54815728 166.85200102 -151.46875 162.734375 C-146.34641476 158.56781077 -141.36957622 154.24736219 -136.39331055 149.90893555 C-131.88159637 145.98448403 -127.29049445 142.17510717 -122.64453125 138.41015625 C-119.38045217 135.72878584 -116.1712428 132.98874637 -112.96875 130.234375 C-112.37916504 129.72729004 -111.78958008 129.22020508 -111.18212891 128.69775391 C-110.59222168 128.19034668 -110.00231445 127.68293945 -109.39453125 127.16015625 C-102.15558876 120.93415133 -94.88509091 114.7485126 -87.46875 108.734375 C-83.01557306 105.11211154 -78.6705042 101.38042917 -74.34375 97.609375 C-61.98505884 86.84918071 -61.98505884 86.84918071 -55.84375 82.109375 C-55.01875 81.35011719 -54.19375 80.59085937 -53.34375 79.80859375 C-48.72868389 77.56802036 -45.49425918 78.2650939 -40.47705078 78.7277832 C-34.33715759 79.1689857 -28.684908 79.23787981 -22.84375 77.109375 C-16.22657114 71.25013354 -12.98237702 62.60760335 -9.48779297 54.66943359 C-6.9180206 49.10477356 -3.73378736 43.95189748 -0.53125 38.734375 C0.53120335 36.95803196 1.59011558 35.17956336 2.64453125 33.3984375 C3.08321533 32.66318848 3.52189941 31.92793945 3.97387695 31.17041016 C5.11410366 29.18284174 6.15360863 27.16924696 7.15625 25.109375 C5.22688642 23.266758 3.28869033 21.43542048 1.34375 19.609375 C0.52293945 18.82240234 0.52293945 18.82240234 -0.31445312 18.01953125 C-5.24017495 13.42219088 -7.22145554 13.67416008 -13.171875 16.27734375 Z M-272.90625 211.109375 C-273.82535156 211.851875 -274.74445313 212.594375 -275.69140625 213.359375 C-276.75681641 214.225625 -276.75681641 214.225625 -277.84375 215.109375 C-275.17024474 218.65146147 -272.44903783 221.42678475 -268.96875 224.171875 C-264.51895182 227.73764661 -260.15905412 231.38211889 -255.84375 235.109375 C-248.30576415 241.60479673 -240.61941402 247.89993208 -232.84375 254.109375 C-229.85154732 252.74567201 -227.55348471 251.16029417 -225.09375 248.984375 C-224.48015625 248.44554687 -223.8665625 247.90671875 -223.234375 247.3515625 C-222.77546875 246.94164062 -222.3165625 246.53171875 -221.84375 246.109375 C-225.71054599 242.13966048 -229.77036687 238.47445576 -233.96875 234.859375 C-234.63253662 234.28582275 -235.29632324 233.71227051 -235.98022461 233.12133789 C-240.58950201 229.15265496 -245.26596216 225.27718312 -249.99609375 221.453125 C-254.17335679 218.01504842 -258.25960122 214.47212638 -262.33813477 210.91772461 C-267.64973168 206.31883245 -267.50921142 206.73709058 -272.90625 211.109375 Z " fill="#EAD100" transform="translate(451.84375,90.890625)"/>
<path d="M0 0 C1.22542511 -0.0287471 2.45085022 -0.0574942 3.71340942 -0.08711243 C5.03114349 -0.09470078 6.34887756 -0.10228912 7.70654297 -0.11010742 C9.08552528 -0.12552271 10.46450279 -0.14137371 11.84347534 -0.15763855 C14.73349064 -0.18606354 17.62303587 -0.19750592 20.51318359 -0.19921875 C24.18930117 -0.20437999 27.86166735 -0.26918433 31.53680611 -0.34950733 C34.3871199 -0.4019187 37.23655596 -0.41277988 40.08730698 -0.41272545 C42.09199046 -0.42235733 44.09634126 -0.47330444 46.10037231 -0.52534485 C56.02469116 -0.42779562 60.88872813 2.6990416 67.82373047 9.59692383 C69.13774617 10.74262983 70.45871516 11.88052089 71.79248047 13.00317383 C72.97065105 14.03318151 74.14774455 15.06442257 75.32373047 16.09692383 C80.68143122 20.77495726 86.10550915 25.33835216 91.65185547 29.79223633 C92.36857422 30.3877832 93.08529297 30.98333008 93.82373047 31.59692383 C94.35788071 32.03418793 94.89203094 32.47145203 95.44236755 32.92196655 C97.26561262 35.13272345 97.16350779 36.36099611 97.09741211 39.20092773 C97.07868797 40.59850815 97.07868797 40.59850815 97.05958557 42.02432251 C97.03460495 43.03054657 97.00962433 44.03677063 96.98388672 45.07348633 C96.97203923 47.21019455 96.9623427 49.34691558 96.95458984 51.48364258 C96.92788423 54.8485499 96.88649239 58.21085564 96.80688477 61.57495117 C96.05331859 74.28706584 96.05331859 74.28706584 99.92773438 85.97558594 C102.44720974 88.25407411 104.86917526 89.93772395 107.82373047 91.59692383 C108.77763672 92.39743164 109.73154297 93.19793945 110.71435547 94.02270508 C111.49294922 94.64532227 112.27154297 95.26793945 113.07373047 95.90942383 C117.34104883 99.36535067 121.53668635 102.89088298 125.69873047 106.47192383 C126.58032837 107.22989258 126.58032837 107.22989258 127.47973633 108.00317383 C128.67013051 109.02672074 129.86047881 110.05032102 131.05078125 111.07397461 C133.90616353 113.52672518 136.76811979 115.97157202 139.63623047 118.40942383 C140.17006348 118.86510742 140.70389648 119.32079102 141.25390625 119.7902832 C145.10196966 123.05212286 149.07682809 126.07992253 153.21435547 128.96411133 C155.32346032 131.1039313 155.62248825 132.62977108 155.82373047 135.59692383 C153.88846443 139.00299205 152.61282491 140.32829593 148.88623047 141.59692383 C142.97628429 141.59692383 138.97251568 137.18015551 134.69873047 133.47192383 C133.53794057 132.47635226 132.37647244 131.48157099 131.21435547 130.48754883 C130.64007813 129.99577148 130.06580078 129.50399414 129.47412109 128.99731445 C127.16189082 127.03533918 124.80693358 125.12825568 122.44873047 123.22192383 C117.33004893 119.05833156 112.35600406 114.74176569 107.38427734 110.40527344 C102.85854517 106.46721614 98.26581696 102.63885774 93.58154297 98.88989258 C92.67146484 98.13321289 91.76138672 97.3765332 90.82373047 96.59692383 C90.09536484 96.0789473 89.36699921 95.56097076 88.61656189 95.02729797 C82.30161298 90.16732314 82.30161298 90.16732314 81.0300293 85.98869324 C80.78538001 82.9867135 80.80920011 80.1057354 80.94482422 77.09692383 C80.96392601 75.4824939 80.96392601 75.4824939 80.9834137 73.83544922 C81.03353046 70.42025007 81.14638531 67.01049769 81.26123047 63.59692383 C81.30640502 61.27278219 81.34746437 58.94855669 81.38427734 56.62426758 C81.48314868 50.94664897 81.6334592 45.27217546 81.82373047 39.59692383 C81.2269751 39.31856689 80.63021973 39.04020996 80.01538086 38.75341797 C76.70481625 37.0064931 74.05492574 34.49357676 71.26123047 32.03442383 C70.01604135 30.95135166 68.76993583 29.86933223 67.52294922 28.78833008 C66.59361572 27.98226318 66.59361572 27.98226318 65.64550781 27.15991211 C62.13385396 24.14709947 58.53245477 21.24627807 54.93310547 18.33911133 C52.82373047 16.59692383 52.82373047 16.59692383 50.82373047 14.59692383 C48.2426974 14.42189388 45.77064884 14.36530104 43.19091797 14.40161133 C42.43908234 14.40444122 41.6872467 14.40727112 40.91262817 14.41018677 C38.50783469 14.42139509 36.10341166 14.44650031 33.69873047 14.47192383 C32.06982959 14.48195281 30.44092289 14.4910788 28.81201172 14.49926758 C24.81577491 14.52133648 20.81981553 14.55587032 16.82373047 14.59692383 C26.54463374 22.98727007 26.54463374 22.98727007 36.44873047 31.15942383 C37.31369141 31.89161133 38.17865234 32.62379883 39.06982422 33.37817383 C41.84500888 35.69412716 41.84500888 35.69412716 45.17138672 37.75317383 C49.72335301 40.88892906 53.08464868 43.76067159 54.52099609 49.27270508 C55.61163326 56.6813505 56.29295352 65.62060621 52.86865234 72.52172852 C50.18304528 76.09572167 46.56648123 78.2663577 42.82373047 80.59692383 C40.80514527 82.24103197 38.80430617 83.9072204 36.82373047 85.59692383 C29.23088032 91.77715069 24.51834408 92.10772397 14.82373047 92.28442383 C13.54626953 92.35081055 12.26880859 92.41719727 10.95263672 92.4855957 C2.17643857 92.62482914 -2.37583565 90.99625434 -8.78564453 84.98291016 C-9.57455078 84.19553467 -10.36345703 83.40815918 -11.17626953 82.59692383 C-12.48972822 81.4505793 -13.81165669 80.31380474 -15.14501953 79.19067383 C-16.32315982 78.1606315 -17.50025394 77.12939129 -18.67626953 76.09692383 C-24.74394465 70.80165431 -30.9099419 65.65635983 -37.17626953 60.59692383 C-39.34001231 77.11616855 -39.34001231 77.11616855 -35.11376953 92.36645508 C-32.27432116 94.86307233 -29.4488592 96.7112309 -26.17626953 98.59692383 C-24.23522539 100.15027607 -22.31771966 101.73355097 -20.42626953 103.34692383 C-19.58580078 104.02239258 -18.74533203 104.69786133 -17.87939453 105.39379883 C-15.17626953 107.59692383 -15.17626953 107.59692383 -13.83505249 109.10987854 C-10.22760404 112.90241624 -7.5044863 114.01579971 -2.26367188 114.1953125 C0.07068762 114.16205757 2.40475748 114.10024802 4.73779297 114.01489258 C7.29897783 113.98945391 9.86017685 113.96540967 12.42138672 113.94262695 C16.43099785 113.87233017 20.43880014 113.78668753 24.44726562 113.66943359 C50.44466172 113.00081918 50.44466172 113.00081918 57.81982422 119.87036133 C59.52899806 121.74241067 61.20111078 123.64937426 62.82373047 125.59692383 C64.60442318 127.11423189 66.41301307 128.6001356 68.26123047 130.03442383 C73.12422471 133.99135801 77.8807325 138.06128324 82.62988281 142.15307617 C86.17756816 145.20352229 89.75670439 148.20614133 93.38623047 151.15942383 C94.25119141 151.8684082 95.11615234 152.57739258 96.00732422 153.30786133 C98.11214996 155.01857961 100.2296906 156.70621719 102.35888672 158.38598633 C103.55592828 159.35160309 104.75254923 160.31774152 105.94873047 161.28442383 C106.51793213 161.72407471 107.08713379 162.16372559 107.67358398 162.61669922 C110.40139346 164.84694957 111.74857344 166.36659467 112.85107422 169.74536133 C112.82373047 172.59692383 112.82373047 172.59692383 110.26123047 175.53442383 C107.93792346 177.50772615 106.99552841 177.60674738 103.88623047 177.42895508 C100.59561633 176.53494894 98.9684546 175.53790188 96.38623047 173.34692383 C95.53029297 172.62891602 94.67435547 171.9109082 93.79248047 171.17114258 C92.81279297 170.32165039 91.83310547 169.4721582 90.82373047 168.59692383 C89.96134766 167.85176514 89.96134766 167.85176514 89.08154297 167.09155273 C86.5253312 164.8825058 83.97199628 162.67027289 81.42578125 160.44970703 C76.90621117 156.51145228 72.30603464 152.69105142 67.64794922 148.91723633 C63.09885255 145.17980421 58.64425525 141.33305496 54.18310547 137.49145508 C53.6540712 137.04911026 53.12503693 136.60676544 52.57997131 136.15101624 C50.82373047 134.59692383 50.82373047 134.59692383 49.42089844 133.0189209 C45.83186235 129.24562888 43.08621306 128.17814608 37.87939453 127.96679688 C35.5323219 127.98657534 33.185373 128.03554769 30.83935547 128.10864258 C28.26904724 128.12433234 25.69873441 128.13928314 23.12841797 128.15356445 C19.1015666 128.2054602 15.07548089 128.28372222 11.04931641 128.37353516 C7.14537209 128.4489055 3.24393273 128.46880908 -0.66064453 128.48364258 C-1.85059021 128.52704269 -3.04053589 128.57044281 -4.26654053 128.61515808 C-13.81354176 128.61536934 -18.48510222 125.14522901 -25.17626953 118.59692383 C-26.32017432 117.61926422 -27.47227947 116.65099893 -28.63720703 115.69848633 C-29.59884766 114.8812207 -30.56048828 114.06395508 -31.55126953 113.22192383 C-32.08018799 112.77349121 -32.60910645 112.32505859 -33.15405273 111.86303711 C-36.04731427 109.40961945 -38.93507838 106.94982701 -41.82080078 104.48754883 C-42.41393066 103.98271973 -43.00706055 103.47789062 -43.61816406 102.95776367 C-44.75995681 101.98588246 -45.90031765 101.01231586 -47.0390625 100.03686523 C-49.92972765 97.55790936 -49.92972765 97.55790936 -53.17626953 95.59692383 C-53.26893454 88.34735754 -53.34001609 81.09791885 -53.38351822 73.84788036 C-53.40439692 70.481382 -53.43271793 67.11528867 -53.47802734 63.74902344 C-53.52642679 59.87920328 -53.54921215 56.00995965 -53.56689453 52.13989258 C-53.58753967 50.93044479 -53.60818481 49.72099701 -53.62945557 48.47489929 C-53.62975769 47.35396378 -53.63005981 46.23302826 -53.63037109 45.078125 C-53.63925354 44.08995285 -53.64813599 43.1017807 -53.6572876 42.08366394 C-53.17626953 39.59692383 -53.17626953 39.59692383 -51.31585693 37.79341125 C-48.17659897 36.03789396 -46.75469988 35.92174829 -43.17626953 36.59692383 C-39.89197914 38.58781326 -37.07425997 41.08758517 -34.17626953 43.59692383 C-33.07525434 44.53766892 -31.97365632 45.47773218 -30.87158203 46.41723633 C-28.45939898 48.47814356 -26.05469011 50.54743655 -23.65283203 52.62036133 C-20.69901901 55.16118902 -17.70228032 57.64219531 -14.67626953 60.09692383 C1.27611142 73.04930478 1.27611142 73.04930478 5.82373047 77.59692383 C16.28053266 78.88247478 16.28053266 78.88247478 25.99951172 75.72973633 C28.44697335 73.46425591 30.62113988 71.09760938 32.82373047 68.59692383 C33.71576172 67.96657227 34.60779297 67.3362207 35.52685547 66.68676758 C38.05061285 64.75097985 38.05061285 64.75097985 38.69873047 61.67895508 C38.96762474 54.93339892 38.96762474 54.93339892 35.84716797 49.16723633 C33.47317808 47.25543916 31.04522473 45.5021226 28.51806641 43.79956055 C25.44052682 41.61512827 22.65717596 39.08436204 19.82373047 36.59692383 C15.65813709 33.00116284 11.46353285 29.45013442 7.19873047 25.97192383 C6.33248047 25.26036133 5.46623047 24.54879883 4.57373047 23.81567383 C2.57127591 22.20005708 0.55667239 20.62455566 -1.48876953 19.06567383 C-2.59299964 18.20117153 -3.69716763 17.33658987 -4.80126953 16.47192383 C-6.30560547 15.32336914 -6.30560547 15.32336914 -7.84033203 14.15161133 C-10.81680751 10.89640236 -11.36546463 8.98824161 -11.17626953 4.59692383 C-7.6000187 0.92843322 -5.05271891 0.08584912 0 0 Z " fill="#EAD100" transform="translate(102.17626953125,89.403076171875)"/>
<path d="M0 0 C3.28429039 1.99088943 6.10200956 4.49066134 9 7 C10.10101519 7.94074509 11.20261321 8.88080835 12.3046875 9.8203125 C14.71687055 11.88121973 17.12157942 13.95051272 19.5234375 16.0234375 C22.47725052 18.5642652 25.47398921 21.04527148 28.5 23.5 C33.31386403 27.4063904 38.02418214 31.4220571 42.703125 35.48828125 C43.79344918 36.43098434 44.89278778 37.36336771 46.00112915 38.28482056 C47.40160992 39.48653693 48.75962652 40.73869986 50.08261108 42.02523804 C56.94786763 48.28712982 62.03223611 49.07643922 71.12890625 48.75390625 C72.35858627 48.748181 73.5882663 48.74245575 74.85520935 48.73655701 C78.75914499 48.71649902 82.65942375 48.6452567 86.5625 48.5625 C90.468982 48.485089 94.37328748 48.42025815 98.28050232 48.39915466 C100.70283869 48.38598164 103.12527908 48.34115731 105.54627991 48.25965881 C113.87106342 48.21211283 118.06632602 50.25262662 124 56 C125.07015698 56.8973332 126.14645619 57.78742368 127.23046875 58.66796875 C128.20628906 59.49941406 129.18210937 60.33085937 130.1875 61.1875 C130.72431396 61.64382813 131.26112793 62.10015625 131.81420898 62.5703125 C134.81890299 65.12757261 137.81289449 67.69719828 140.8046875 70.26953125 C141.74598511 71.07837769 141.74598511 71.07837769 142.70629883 71.90356445 C143.91566186 72.94368347 145.12389088 73.98512295 146.33081055 75.02807617 C149.60286483 77.8629088 149.60286483 77.8629088 153.15490723 80.32434082 C155 82 155 82 155.50793457 84.42858887 C155.51111694 85.38994751 155.51429932 86.35130615 155.51757812 87.34179688 C155.53018677 88.43302856 155.54279541 89.52426025 155.55578613 90.64855957 C155.54768921 91.82672241 155.53959229 93.00488525 155.53125 94.21875 C155.5350769 95.42817261 155.53890381 96.63759521 155.54284668 97.88366699 C155.54557048 100.44247265 155.53817678 103.00130593 155.52148438 105.56005859 C155.50008355 109.48467884 155.52127253 113.40746819 155.546875 117.33203125 C155.54423181 119.81510822 155.53910702 122.29818405 155.53125 124.78125 C155.53934692 125.95941284 155.54744385 127.13757568 155.55578613 128.35144043 C155.53687317 129.98828796 155.53687317 129.98828796 155.51757812 131.65820312 C155.51439575 132.61956177 155.51121338 133.58092041 155.50793457 134.57141113 C155 137 155 137 153.18200684 138.80725098 C149.94617081 140.57605398 147.62814154 140.43267771 144 140 C141.3671875 138.41796875 141.3671875 138.41796875 138.875 136.1875 C137.93140625 135.36378906 136.9878125 134.54007813 136.015625 133.69140625 C135.52384766 133.25070801 135.03207031 132.81000977 134.52539062 132.35595703 C132.46784646 130.5269557 130.36064478 128.76048706 128.25195312 126.9909668 C126.60586694 125.60893615 124.96609065 124.2197673 123.328125 122.828125 C122.77962891 122.36212891 122.23113281 121.89613281 121.66601562 121.41601562 C120.55533854 120.47200521 119.44466146 119.52799479 118.33398438 118.58398438 C111.6235857 112.88290536 104.88225068 107.23096081 98.046875 101.6796875 C96 100 96 100 95 99 C88.13560523 98.0396528 81.66276504 97.31955431 75.6328125 101.125 C72.93371344 103.64123327 70.46816988 106.25998624 68 109 C67.26007813 109.47566406 66.52015625 109.95132813 65.7578125 110.44140625 C63.73596245 111.9438112 63.73596245 111.9438112 63.2578125 114.8203125 C62.96964311 121.5953422 62.96964311 121.5953422 65.85546875 127.5390625 C68.46086789 129.88350751 71.15977531 131.94724003 74 134 C75.75791264 135.4278128 77.50787073 136.86547138 79.25 138.3125 C80.16265625 139.05113281 81.0753125 139.78976562 82.015625 140.55078125 C85.9941533 143.81588235 89.88610374 147.17692725 93.78344727 150.53808594 C98.38638147 154.49817355 103.06304843 158.35210945 107.79296875 162.16015625 C111.76979189 165.47534864 111.76979189 165.47534864 113 167 C112.875 170.5625 112.875 170.5625 112 174 C108.52889962 176.31406692 107.02372857 176.29949487 102.91479492 176.41748047 C101.65886032 176.45606171 100.40292572 176.49464294 99.1089325 176.53439331 C97.73282035 176.56403187 96.35666172 176.59157494 94.98046875 176.6171875 C94.28357752 176.63033115 93.58668629 176.64347481 92.86867714 176.65701675 C89.16977692 176.72221469 85.47099087 176.77107937 81.77172852 176.81005859 C78.73351859 176.84547688 75.69909775 176.91472267 72.66235352 177.01513672 C44.7512411 177.91728946 44.7512411 177.91728946 36.99763489 171.86428833 C34.4072761 169.40940229 32.23430398 166.78609747 30 164 C28.20574623 162.45346694 26.37242419 160.95090964 24.5 159.5 C23.19446167 158.39362183 23.19446167 158.39362183 21.86254883 157.26489258 C19.72295443 155.57201264 17.73624409 154.20376162 15.42456055 152.8034668 C10.501108 149.5938874 5.9021994 146.31853293 4.29864502 140.42022705 C3.39687503 133.07656683 3.89009232 125.67746039 4.3125 118.3125 C5.85276107 103.90642009 5.85276107 103.90642009 1.77880859 90.68896484 C-1.03478346 88.39400727 -3.79805597 86.69706568 -7 85 C-8.28280381 83.97734628 -9.53851467 82.91871406 -10.75 81.8125 C-11.55908813 81.11362671 -11.55908813 81.11362671 -12.38452148 80.40063477 C-12.91762939 79.93842529 -13.4507373 79.47621582 -14 79 C-18.10130336 75.46277274 -22.22806686 71.97132773 -26.4375 68.5625 C-32.82132265 63.37978176 -39.01229856 57.97681768 -45.19628906 52.55859375 C-46.44602423 51.47869265 -47.70947273 50.41453653 -48.98339844 49.36328125 C-49.61793945 48.83734375 -50.25248047 48.31140625 -50.90625 47.76953125 C-51.76959961 47.06534058 -51.76959961 47.06534058 -52.65039062 46.34692383 C-54 45 -54 45 -54.75 42.375 C-53.64609462 38.87929963 -52.15668948 37.81341736 -49 36 C-44.6486495 35.46444917 -42.63211001 35.58422281 -38.9296875 38.01953125 C-37.89628218 38.93364595 -36.87864603 39.8658074 -35.875 40.8125 C-34.73738411 41.82988006 -33.59935151 42.84679433 -32.4609375 43.86328125 C-31.88698242 44.38615723 -31.31302734 44.9090332 -30.72167969 45.44775391 C-28.03843886 47.86693218 -25.26868715 50.17975627 -22.5 52.5 C-21.41876989 53.41346989 -20.33804207 54.32753464 -19.2578125 55.2421875 C-18.72188477 55.69561523 -18.18595703 56.14904297 -17.63378906 56.61621094 C-15.98109003 58.01601639 -14.33019016 59.41791828 -12.6796875 60.8203125 C-4.83765892 67.47898752 3.07681046 74.04031346 11.09375 80.48828125 C12.0940625 81.29652344 13.094375 82.10476563 14.125 82.9375 C15.49011719 84.03384766 15.49011719 84.03384766 16.8828125 85.15234375 C19 87 19 87 20 89 C20.04780376 90.48019595 20.03178839 91.96270219 19.9831543 93.44287109 C19.84118539 98.62902663 19.77413189 103.81158154 19.73364258 108.99951172 C19.70311951 111.23237887 19.6494448 113.46506115 19.5715332 115.69677734 C18.64034282 129.22289206 18.64034282 129.22289206 23.99243164 141.04003906 C26.8385069 143.69141604 29.90331651 145.84415153 33.21827698 147.86724854 C36.04930704 149.66710935 38.51127833 151.8249565 41.0625 154 C42.70557108 155.33673579 44.3512493 156.67027586 46 158 C46.71559082 158.6919043 47.43118164 159.38380859 48.16845703 160.09667969 C51.73254699 162.492407 54.56612389 162.51344992 58.70703125 162.390625 C59.43242599 162.38496521 60.15782074 162.37930542 60.90519714 162.37347412 C63.20832008 162.35119099 65.50985224 162.30101487 67.8125 162.25 C69.37953472 162.22992434 70.94659399 162.21167543 72.51367188 162.1953125 C76.34305519 162.15135337 80.17125846 162.08238623 84 162 C76.51237146 155.18453864 76.51237146 155.18453864 68.75 148.6875 C64.22931943 145.02820985 59.78785478 141.28783162 55.375 137.5 C54.75850586 136.97108154 54.14201172 136.44216309 53.50683594 135.8972168 C48.02151522 131.1790684 48.02151522 131.1790684 47.7277832 128.734375 C46.53680124 108.65359775 46.53680124 108.65359775 49.84375 102.65625 C52.43222998 100.39542571 55.0315839 98.72664841 58 97 C59.98048844 95.40207635 61.93921704 93.77679865 63.875 92.125 C65.57622004 90.74120877 67.28385607 89.3652391 69 88 C69.58330078 87.47672119 70.16660156 86.95344238 70.76757812 86.41430664 C75.37540022 83.49511227 81.32855736 84.35867412 86.625 84.3125 C88.47544922 84.23225586 88.47544922 84.23225586 90.36328125 84.15039062 C98.46052742 84.06864372 102.87279089 85.35202549 108.84570312 90.87231445 C109.55662109 91.57445068 110.26753906 92.27658691 111 93 C112.20913176 94.03969829 113.4257973 95.0707481 114.65234375 96.08984375 C115.74856946 97.03770687 116.84362699 97.98692273 117.9375 98.9375 C125.13630527 105.14926074 132.3766798 111.31108978 140 117 C140.13030971 113.03343396 140.18608596 109.0730028 140.17700195 105.10424805 C140.18729617 103.10214267 140.25421866 101.10058452 140.32226562 99.09960938 C140.30703786 91.62234594 140.30703786 91.62234594 136.75024414 85.29199219 C133.9326902 82.99709025 131.03702042 80.99228743 128 79 C126.5725794 77.82096145 125.16477562 76.61744275 123.78515625 75.3828125 C123.16189453 74.83882813 122.53863281 74.29484375 121.89648438 73.734375 C121.29126953 73.20328125 120.68605469 72.6721875 120.0625 72.125 C118.80449933 71.02216557 117.54541819 69.92056217 116.28515625 68.8203125 C115.74769775 68.34867676 115.21023926 67.87704102 114.65649414 67.39111328 C114.10985107 66.9320459 113.56320801 66.47297852 113 66 C112.42050095 65.48326218 111.84100189 64.96652435 111.24394226 64.43412781 C108.4363495 62.63976486 106.75564358 62.63917144 103.44042969 62.6628418 C102.32537048 62.66241379 101.21031128 62.66198578 100.0614624 62.6615448 C98.86039856 62.6739772 97.65933472 62.68640961 96.421875 62.69921875 C93.87369533 62.69157516 91.32551807 62.68308501 88.77734375 62.67382812 C84.7636325 62.67603697 80.75041081 62.68621575 76.73681641 62.71508789 C72.86050494 62.73584107 68.98565735 62.71975117 65.109375 62.69921875 C63.31992462 62.72697639 63.31992462 62.72697639 61.49432373 62.7552948 C53.77221699 62.68760723 49.55956208 61.36770558 44 56 C42.85238024 55.02954214 41.7006814 54.06386376 40.54296875 53.10546875 C39.42258473 52.13499527 38.30412789 51.16229294 37.1875 50.1875 C33.00318887 46.56646152 28.79853989 42.98581743 24.5 39.5 C19.66054089 35.5714979 14.93029902 31.5279678 10.21118164 27.45678711 C5.6797181 23.5566904 1.07195538 19.76940653 -3.59765625 16.03515625 C-6.23260949 13.80294383 -8.68943115 11.5695828 -11 9 C-11.07119063 5.44046851 -10.7009249 3.77880545 -8.3125 1.125 C-5.05782422 -0.45835579 -3.61176747 -0.68146556 0 0 Z " fill="#EAD100" transform="translate(321,275)"/>
</svg>
