<?xml version="1.0" encoding="UTF-8"?>
<svg version="1.1" xmlns="http://www.w3.org/2000/svg" width="512" height="512">
<path d="M0 0 C0.76075836 -0.00902847 1.52151672 -0.01805695 2.30532837 -0.02735901 C3.91412422 -0.04185814 5.522979 -0.05074742 7.13183594 -0.05444336 C9.58630403 -0.06633234 12.03825064 -0.11550789 14.4921875 -0.16601562 C16.05727943 -0.1754813 17.62238676 -0.18271565 19.1875 -0.1875 C19.91786469 -0.20703232 20.64822937 -0.22656464 21.40072632 -0.24668884 C25.37175405 -0.21174454 27.05267535 0.23008744 30.17675781 2.76342773 C32.16425719 5.29183184 32.85818941 6.81141322 33.6015625 9.87109375 C35.04872975 13.48901188 36.02472932 14.27204598 39.6015625 16.02734375 C43.42300667 17.39695541 47.27524359 18.44332076 51.2265625 19.37109375 C52.26296875 19.61859375 53.299375 19.86609375 54.3671875 20.12109375 C58.58716028 20.49005312 61.46131167 18.88235666 65.25 17.18359375 C69.13808886 16.12227816 72.41713339 16.15343859 76.2265625 17.37109375 C78.84739719 18.98040286 81.00188209 20.94547827 83.2265625 23.05859375 C84.4368826 24.15966572 85.64910996 25.25864502 86.86328125 26.35546875 C87.43868652 26.88076172 88.0140918 27.40605469 88.60693359 27.94726562 C91.18784016 30.21616027 93.98870484 32.13000447 96.87109375 33.9921875 C98.89229744 36.04833996 99.11000467 37.5112641 99.2265625 40.37109375 C97.83598819 43.31285581 96.13526849 45.91595444 94.37890625 48.65234375 C92.92607878 51.3060708 92.92607878 51.3060708 93.9140625 53.95703125 C94.3471875 54.75367188 94.7803125 55.5503125 95.2265625 56.37109375 C95.56816406 57.07492188 95.90976562 57.77875 96.26171875 58.50390625 C96.60074219 59.16132813 96.93976563 59.81875 97.2890625 60.49609375 C98.4811746 62.80834137 99.39842964 64.88669517 100.2265625 67.37109375 C103.33685954 68.74446812 103.33685954 68.74446812 107.0390625 69.87109375 C116.08974923 72.79732614 116.08974923 72.79732614 118.2265625 75.37109375 C118.70675597 78.28330995 118.60201652 81.11766198 118.4765625 84.05859375 C118.45851563 84.85587891 118.44046875 85.65316406 118.421875 86.47460938 C118.37478497 88.44061824 118.30304149 90.40600869 118.2265625 92.37109375 C119.3403125 92.63921875 120.4540625 92.90734375 121.6015625 93.18359375 C125.2265625 94.37109375 125.2265625 94.37109375 127.2265625 97.37109375 C127.48103809 100.42248917 127.48103809 100.42248917 127.48725891 104.25250244 C127.49108446 104.95658131 127.49491001 105.66066019 127.49885148 106.38607478 C127.50919085 108.75127369 127.50518756 111.11623026 127.5012207 113.48144531 C127.50556678 115.17494431 127.51074958 116.86844134 127.51670837 118.56193542 C127.53012387 123.16747488 127.530674 127.77293239 127.52814507 132.37848759 C127.52707664 136.22278784 127.53195568 140.06707144 127.5367505 143.91136813 C127.54785545 152.98307966 127.54827817 162.0547498 127.54223633 171.12646484 C127.53620075 180.48258815 127.54849472 189.8385609 127.5698064 199.19465852 C127.58742963 207.22704345 127.59342244 215.2593805 127.59016865 223.29178405 C127.5883561 228.08915912 127.59098878 232.88642692 127.60488319 237.68378448 C127.6174679 242.19819236 127.61551133 246.71236608 127.60247231 251.2267704 C127.60010801 252.88154238 127.60283594 254.53633086 127.61109543 256.19108391 C127.62157785 258.45490979 127.6134508 260.7179523 127.6007843 262.98175049 C127.60095204 264.24716297 127.60111979 265.51257545 127.60129261 266.81633377 C126.99502505 272.56750139 125.06410373 277.26457664 120.6015625 281.12109375 C119.99054688 281.6728125 119.37953125 282.22453125 118.75 282.79296875 C109.39861904 288.64120081 99.07912772 287.80381887 88.47900391 287.77514648 C86.57436219 287.78085462 84.66972389 287.7878206 82.76509094 287.79594421 C77.61004144 287.81384244 72.45516247 287.81271341 67.30009127 287.80700183 C62.98861962 287.80390491 58.67718049 287.81000808 54.36571348 287.81604058 C44.19007037 287.83007348 34.01451125 287.828535 23.83886719 287.81713867 C13.3590828 287.8056607 2.87955442 287.81973063 -7.60019624 287.84653515 C-16.61450604 287.86872385 -25.62873566 287.87532231 -34.64307082 287.86945873 C-40.01953935 287.86609531 -45.39584384 287.86846332 -50.77228928 287.88570976 C-55.83019435 287.90122716 -60.88772154 287.8971702 -65.94561195 287.87840462 C-67.79543933 287.87473189 -69.645295 287.87778856 -71.49509621 287.88829041 C-93.89949771 288.00571636 -93.89949771 288.00571636 -102.8359375 279.99609375 C-107.47917039 275.20527644 -108.02368065 269.59415277 -108.04086304 263.15342712 C-108.04539415 262.4494574 -108.04992526 261.74548767 -108.05459368 261.02018553 C-108.06720199 258.67346418 -108.06561968 256.32697597 -108.06396484 253.98022461 C-108.06995213 252.29288944 -108.07675813 250.605557 -108.08432007 248.91822815 C-108.10196189 244.34399874 -108.10667454 239.7698442 -108.10795164 235.19558406 C-108.10937425 232.33745405 -108.1136458 229.47934302 -108.11894608 226.62121773 C-108.13743673 216.64972857 -108.14561745 206.67829284 -108.14404297 196.70678711 C-108.14284018 187.41130336 -108.16397187 178.11605129 -108.1955303 168.8206262 C-108.22166803 160.83746718 -108.2324114 152.85438399 -108.23113215 144.8711825 C-108.230622 140.1040558 -108.23633518 135.33713527 -108.25748825 130.57005119 C-108.27682981 126.08921094 -108.27702327 121.60877452 -108.26245499 117.12792015 C-108.26036105 115.48358827 -108.26510252 113.83923136 -108.2771759 112.19494247 C-108.292592 109.95007735 -108.2833463 107.7066113 -108.26791382 105.46177673 C-108.26954812 103.57779883 -108.26954812 103.57779883 -108.27121544 101.65576077 C-107.68168487 97.7656494 -106.55418652 96.10851824 -103.7734375 93.37109375 C-101.0234375 92.55859375 -101.0234375 92.55859375 -98.7734375 92.37109375 C-98.81984375 91.2625 -98.86625 90.15390625 -98.9140625 89.01171875 C-98.95158852 87.54820407 -98.98798779 86.08466019 -99.0234375 84.62109375 C-99.05695313 83.89148438 -99.09046875 83.161875 -99.125 82.41015625 C-99.18632058 79.03752425 -99.08001151 76.83399015 -97.1953125 73.98828125 C-94.1610301 71.96216365 -91.29202314 71.19283183 -87.7734375 70.24609375 C-82.6770409 68.64885126 -82.6770409 68.64885126 -79.07421875 64.96875 C-78.04943071 62.35893766 -78.04943071 62.35893766 -77.44921875 59.7734375 C-76.69572055 57.09481671 -75.43207329 55.5685519 -73.7734375 53.37109375 C-74.41827174 50.79175679 -75.55908752 48.74374461 -76.87890625 46.44921875 C-77.25660156 45.7634375 -77.63429687 45.07765625 -78.0234375 44.37109375 C-78.39984375 43.73171875 -78.77625 43.09234375 -79.1640625 42.43359375 C-79.7734375 40.37109375 -79.7734375 40.37109375 -79.1640625 37.890625 C-77.54880362 34.96410259 -75.79910429 33.24457434 -73.2734375 31.05859375 C-72.38398438 30.28773437 -71.49453125 29.516875 -70.578125 28.72265625 C-55.71061792 16.25714196 -55.71061792 16.25714196 -50.5859375 16.55859375 C-46.89372451 17.34545881 -43.57766259 18.44940371 -40.08203125 19.84765625 C-37.01766566 20.54245319 -34.83935992 20.04281971 -31.7734375 19.37109375 C-29.96359375 18.99017578 -29.96359375 18.99017578 -28.1171875 18.6015625 C-20.38389716 16.64800324 -20.38389716 16.64800324 -14.5703125 11.44140625 C-12.99050275 8.23878226 -12.99050275 8.23878226 -11.8515625 5.015625 C-9.59635897 -0.51616047 -5.19198855 0.03791202 0 0 Z M1.2265625 13.37109375 C0.3603125 15.75328125 0.3603125 15.75328125 -0.5234375 18.18359375 C-1.96344889 22.14362507 -3.07140906 24.26626153 -6.7734375 26.37109375 C-9.31623113 27.26640409 -11.81229195 28.06909135 -14.3984375 28.80859375 C-19.16894283 30.21453536 -23.72866306 31.70023734 -28.2734375 33.74609375 C-32.76081534 35.59648161 -36.12298367 35.77172256 -40.7734375 34.37109375 C-41.46953125 34.01917969 -42.165625 33.66726562 -42.8828125 33.3046875 C-45.38138249 32.10413348 -46.98375101 31.41107333 -49.7734375 31.37109375 C-53.93643377 33.86781302 -57.33693564 36.96028536 -60.7734375 40.37109375 C-59.68588424 43.18258516 -58.56831064 45.73576372 -57.0859375 48.37109375 C-55.56823487 51.84012832 -55.74055425 52.81989205 -56.7734375 56.37109375 C-58.04296875 58.6953125 -58.04296875 58.6953125 -59.5859375 61.05859375 C-62.25620806 65.31573154 -64.11597641 69.48729252 -65.71875 74.2421875 C-67.44024897 77.71706505 -69.73114413 78.99644452 -73.31640625 80.28515625 C-74.18910156 80.51976562 -75.06179687 80.754375 -75.9609375 80.99609375 C-79.14671367 81.67680077 -79.14671367 81.67680077 -81.7734375 83.37109375 C-81.7734375 86.34109375 -81.7734375 89.31109375 -81.7734375 92.37109375 C-69.8934375 92.37109375 -58.0134375 92.37109375 -45.7734375 92.37109375 C-44.2884375 84.45109375 -44.2884375 84.45109375 -42.7734375 76.37109375 C-40.50552922 70.77692 -37.63513112 66.87640297 -33.7734375 62.37109375 C-33.7734375 61.71109375 -33.7734375 61.05109375 -33.7734375 60.37109375 C-33.20496094 60.10941406 -32.63648438 59.84773438 -32.05078125 59.578125 C-29.59698135 58.27756896 -27.54557842 56.73911323 -25.3359375 55.05859375 C-11.49157985 45.31476432 4.71537956 42.97009981 21.2265625 45.37109375 C36.36791889 48.79612621 50.14561036 55.5792295 58.79296875 68.83984375 C63.03378141 76.32770915 63.79194029 83.76336051 65.2265625 92.37109375 C77.1065625 92.37109375 88.9865625 92.37109375 101.2265625 92.37109375 C101.2265625 89.40109375 101.2265625 86.43109375 101.2265625 83.37109375 C100.0303125 82.93796875 98.8340625 82.50484375 97.6015625 82.05859375 C96.13187483 81.52646546 94.67462836 80.95952185 93.2265625 80.37109375 C92.22109375 79.99210937 91.215625 79.613125 90.1796875 79.22265625 C86.39539491 76.84996486 85.2023953 74.05679024 83.6015625 70.05859375 C83.05187202 68.7478931 82.49721996 67.43926165 81.9375 66.1328125 C81.66583008 65.49851318 81.39416016 64.86421387 81.11425781 64.21069336 C80.13116788 62.06489903 80.13116788 62.06489903 78.046875 59.10546875 C75.66682046 55.53027953 75.63324656 53.59846983 76.2265625 49.37109375 C77.203125 47.51171875 77.203125 47.51171875 78.3515625 45.68359375 C79.2796875 44.04390625 79.2796875 44.04390625 80.2265625 42.37109375 C78.58335363 37.5187946 74.70397121 33.70680863 70.2265625 31.37109375 C66.60802439 31.64019389 63.55957091 32.99930894 60.2265625 34.37109375 C53.8054827 36.38555016 49.63967819 34.58917774 43.66796875 31.8359375 C39.08453941 29.88498858 34.37782393 28.53576536 29.5703125 27.24755859 C26.61842429 26.39779474 24.54625649 25.69548912 22.3671875 23.484375 C20.59813197 20.20677555 19.45703125 16.88671875 18.2265625 13.37109375 C12.6165625 13.37109375 7.0065625 13.37109375 1.2265625 13.37109375 Z M-23.7734375 72.37109375 C-28.48034555 79.19221582 -28.90720976 83.70881632 -29.7734375 92.37109375 C-3.7034375 92.37109375 22.3665625 92.37109375 49.2265625 92.37109375 C47.27806117 79.70583508 45.14220464 72.82881792 35.640625 64.94140625 C16.48144462 52.47863843 -8.32896232 55.61824682 -23.7734375 72.37109375 Z M-90.7734375 106.37109375 C-90.86366339 127.70223026 -90.93737605 149.03321274 -90.98068619 170.36449146 C-91.00132858 180.26853571 -91.02948113 190.17245315 -91.07519531 200.07641602 C-91.11501184 208.70675272 -91.14085811 217.33699762 -91.14979148 225.96742362 C-91.15501505 230.53898873 -91.16732689 235.11029115 -91.19635773 239.68177223 C-91.22344507 243.9819243 -91.23189614 248.2817047 -91.22586823 252.58193398 C-91.22697147 254.16261309 -91.23496525 255.74330425 -91.2502594 257.32390976 C-91.270084 259.47781948 -91.26540588 261.63031537 -91.25445557 263.78425598 C-91.25814274 264.990883 -91.26182991 266.19751001 -91.26562881 267.44070148 C-91.01961125 270.38854508 -91.01961125 270.38854508 -89.22969437 272.25896168 C-85.82636537 273.79990448 -82.65718912 273.78534209 -78.99230957 273.75204468 C-78.20358853 273.75672465 -77.41486749 273.76140462 -76.60224581 273.76622641 C-73.95666522 273.77820225 -71.31160016 273.76870919 -68.66601562 273.75927734 C-66.77045896 273.7633419 -64.87490466 273.76868312 -62.97935486 273.77520752 C-57.82860204 273.78890073 -52.6780292 273.78357417 -47.52727318 273.77407026 C-42.14126469 273.76648407 -36.75527178 273.77351638 -31.3692627 273.77822876 C-22.32378365 273.78368934 -13.27837805 273.77648674 -4.23291016 273.76220703 C6.2303994 273.74587996 16.69353359 273.75116825 27.15683889 273.76768625 C36.13441772 273.78129248 45.11194371 273.783225 54.08952951 273.77537024 C59.45407899 273.77068898 64.818546 273.77008132 70.18309021 273.77997971 C75.22608604 273.78863452 80.26885539 273.78265462 85.31182671 273.76529694 C87.16458701 273.76132415 89.01736631 273.76247963 90.87011909 273.76908493 C93.39548311 273.77725929 95.9201173 273.76702895 98.44543457 273.75204468 C99.55029433 273.76208293 99.55029433 273.76208293 100.6774745 273.77232397 C103.64957567 273.73801928 105.96207425 273.49084746 108.68281937 272.25896168 C110.96954668 269.46248662 110.71852724 267.36655586 110.70758057 263.78425598 C110.71270712 262.77585719 110.71270712 262.77585719 110.71793723 261.7470867 C110.7245373 259.4895703 110.70250704 257.23323731 110.68066406 254.97583008 C110.67953603 253.35964486 110.68016857 251.74345759 110.68243408 250.12727356 C110.68358391 245.73485052 110.66003135 241.34286252 110.63213825 236.95054078 C110.60716924 232.36212497 110.60478616 227.7736997 110.60003662 223.18522644 C110.58759358 214.49415156 110.55475405 205.80327743 110.51463866 197.11229104 C110.46996222 187.21884675 110.44794431 177.32539298 110.42785692 167.43187296 C110.3860225 147.07814288 110.31265361 126.72468807 110.2265625 106.37109375 C91.7465625 106.37109375 73.2665625 106.37109375 54.2265625 106.37109375 C54.27296875 111.2334375 54.319375 116.09578125 54.3671875 121.10546875 C54.38762619 124.18621927 54.40688182 127.26688618 54.421875 130.34765625 C54.44578506 135.23748132 54.47406751 140.12700674 54.52832031 145.01660156 C54.5717878 148.9588372 54.59570145 152.90075152 54.60607147 156.84320831 C54.61346132 158.34714059 54.62789217 159.85105532 54.64948273 161.35485077 C54.67853062 163.46188834 54.68251821 165.56759904 54.68066406 167.67480469 C54.68954651 168.87393494 54.69842896 170.07306519 54.70758057 171.30853271 C54.13044985 174.98302681 53.11176306 176.108776 50.2265625 178.37109375 C47.26668617 179.85103192 44.25627905 179.52707972 41.01049805 179.53222656 C39.89556976 179.53967392 39.89556976 179.53967392 38.75811768 179.54727173 C36.29316286 179.56190544 33.82827242 179.56869781 31.36328125 179.57421875 C29.65175881 179.5799698 27.94023639 179.58572754 26.22871399 179.5914917 C22.63660379 179.60200553 19.044516 179.6078455 15.45239258 179.61132812 C10.85221694 179.6168096 6.25233778 179.64082848 1.65225506 179.66930008 C-1.88480998 179.68793677 -5.42180381 179.69313264 -8.9589138 179.694664 C-10.65456956 179.69768941 -12.3502241 179.70571421 -14.04583168 179.71884918 C-16.42051252 179.73592933 -18.79447188 179.73402474 -21.16918945 179.72753906 C-22.21752205 179.74136124 -22.21752205 179.74136124 -23.28703308 179.75546265 C-27.57829003 179.7188011 -30.56324873 179.32438491 -33.7734375 176.37109375 C-34.41267395 173.3528595 -34.41267395 173.3528595 -34.43286133 169.60473633 C-34.44334503 168.92154831 -34.45382874 168.23836029 -34.46463013 167.5344696 C-34.49341744 165.27772814 -34.48708531 163.02251743 -34.48046875 160.765625 C-34.49358176 159.2004758 -34.50888477 157.63534354 -34.52629089 156.07023621 C-34.56620121 151.95198674 -34.57633512 147.83417933 -34.58032227 143.71575928 C-34.5912813 138.77382942 -34.63912767 133.83213637 -34.68080902 128.89038849 C-34.73998479 121.38375802 -34.75222509 113.87836 -34.7734375 106.37109375 C-53.2534375 106.37109375 -71.7334375 106.37109375 -90.7734375 106.37109375 Z M-18.7734375 106.37109375 C-18.7734375 126.17109375 -18.7734375 145.97109375 -18.7734375 166.37109375 C0.0365625 166.37109375 18.8465625 166.37109375 38.2265625 166.37109375 C38.2265625 146.57109375 38.2265625 126.77109375 38.2265625 106.37109375 C19.4165625 106.37109375 0.6065625 106.37109375 -18.7734375 106.37109375 Z " fill="#EAD100" transform="translate(326.7734375,77.62890625)"/>
<path d="M0 0 C0.99775452 -0.00832352 1.99550903 -0.01664703 3.02349854 -0.02522278 C6.29996711 -0.04919137 9.57623645 -0.05807581 12.8527832 -0.06469727 C15.1386572 -0.07366872 17.42453062 -0.08279066 19.71040344 -0.09205627 C24.49070664 -0.10850957 29.27094006 -0.11624058 34.05126953 -0.11914062 C40.17822863 -0.12454179 46.30453391 -0.16230951 52.43130779 -0.20788479 C57.14704298 -0.23760098 61.86261902 -0.2448629 66.57843971 -0.24586678 C68.83790924 -0.25007451 71.097379 -0.26253085 73.35675621 -0.28338432 C76.51176972 -0.31020423 79.66524368 -0.30550233 82.8203125 -0.29296875 C84.21918449 -0.31522018 84.21918449 -0.31522018 85.64631653 -0.33792114 C89.70975219 -0.2918941 92.1898714 0.01939772 95.79907227 1.98794556 C98.92918566 7.40639627 98.36739228 12.85866904 98.28369141 19.00097656 C98.28228035 20.41056264 98.28307405 21.82015239 98.28590393 23.22973633 C98.28733727 27.04988942 98.25796183 30.86925595 98.22303414 34.68922639 C98.19175645 38.68370201 98.18883881 42.67819609 98.1829071 46.67277527 C98.16737274 54.2340915 98.12635004 61.79504584 98.07615966 69.35620278 C98.02025332 77.96553542 97.99277649 86.57488543 97.96768248 95.18435442 C97.91543363 112.89190687 97.82749949 130.59912257 97.71606445 148.30639648 C120.46417971 148.19921887 143.21226124 148.08646854 165.9603157 147.96705723 C176.52227927 147.91174472 187.08424621 147.85826593 197.64624023 147.80908203 C206.85049553 147.76621607 216.05472615 147.71993195 225.25894332 147.66951793 C230.13390688 147.64293647 235.00886561 147.61808384 239.88385773 147.59732246 C244.47039512 147.57773559 249.05688564 147.55358561 253.64338112 147.52590561 C255.32842724 147.51654605 257.01348364 147.50886684 258.69854546 147.50297737 C260.99620499 147.49469759 263.29375131 147.48041565 265.59136963 147.46461487 C267.52160414 147.45493604 267.52160414 147.45493604 269.49083328 147.44506168 C272.12498511 147.33180928 274.21418386 147.04726609 276.71606445 146.30639648 C278.10980695 146.21812168 279.50703101 146.17580979 280.90356445 146.17358398 C281.68473633 146.17229492 282.4659082 146.17100586 283.27075195 146.16967773 C284.07770508 146.17354492 284.8846582 146.17741211 285.71606445 146.18139648 C286.52301758 146.1775293 287.3299707 146.17366211 288.16137695 146.16967773 C288.94254883 146.1709668 289.7237207 146.17225586 290.52856445 146.17358398 C291.59010742 146.17527588 291.59010742 146.17527588 292.6730957 146.17700195 C294.71606445 146.30639648 294.71606445 146.30639648 296.44839478 146.80561829 C299.35201269 147.44683537 302.06731445 147.43906503 305.04174805 147.44824219 C306.96426895 147.45879387 306.96426895 147.45879387 308.92562866 147.46955872 C309.60796947 147.47137461 310.29031029 147.4731905 310.99332809 147.47506142 C313.13770938 147.48225559 315.28186563 147.49794349 317.42617798 147.5164032 C323.52147354 147.56873705 329.61664272 147.61683904 335.7121582 147.63232422 C339.44527981 147.64242798 343.17782944 147.6718084 346.91072464 147.71364403 C348.32917574 147.72592135 349.74770771 147.73108125 351.16621017 147.7288456 C353.1547324 147.72648245 355.14323114 147.75090887 357.1315918 147.77636719 C358.26092133 147.78223343 359.39025085 147.78809967 360.55380249 147.79414368 C364.44484936 148.42445189 366.65452979 149.86751558 369.71606445 152.30639648 C370.44482422 154.40942383 370.44482422 154.40942383 370.4074707 156.64233398 C370.39876953 157.86823242 370.39876953 157.86823242 370.38989258 159.11889648 C370.3531543 159.96452148 370.31641602 160.81014648 370.27856445 161.68139648 C370.27663086 162.51928711 370.27469727 163.35717773 370.27270508 164.22045898 C370.14404434 170.28180936 369.03653004 174.60268658 364.98950195 179.31811523 C364.36301758 179.87112305 363.7365332 180.42413086 363.09106445 180.99389648 C362.48004883 181.55463867 361.8690332 182.11538086 361.23950195 182.69311523 C353.78169449 187.46103239 346.29692058 187.70657212 337.65356445 187.49389648 C336.59717773 187.48036133 335.54079102 187.46682617 334.45239258 187.45288086 C331.87306636 187.41786738 329.29484952 187.36876323 326.71606445 187.30639648 C326.44793945 188.19456055 326.17981445 189.08272461 325.90356445 189.99780273 C322.56191012 199.30826727 316.22061053 205.54233427 307.71606445 210.30639648 C306.55397461 210.95801758 306.55397461 210.95801758 305.3684082 211.62280273 C295.09645138 216.29483381 280.10373873 216.25733784 269.46606445 212.68139648 C266.99731445 211.56420898 266.99731445 211.56420898 264.71606445 210.30639648 C263.5249707 209.6528418 263.5249707 209.6528418 262.30981445 208.98608398 C254.97992443 204.51485107 248.90856746 198.38155115 245.71606445 190.30639648 C245.71606445 189.31639648 245.71606445 188.32639648 245.71606445 187.30639648 C183.34606445 187.30639648 120.97606445 187.30639648 56.71606445 187.30639648 C56.38606445 188.95639648 56.05606445 190.60639648 55.71606445 192.30639648 C51.30224029 202.17838714 42.88629574 208.27144954 33.1965332 212.39624023 C21.78294746 216.58421736 6.51847089 216.04301149 -4.48706055 210.98217773 C-13.15697327 205.78749539 -21.02886388 198.07161148 -24.28393555 188.30639648 C-25.05471436 188.29705078 -25.82549316 188.28770508 -26.61962891 188.27807617 C-30.15418361 188.2239799 -33.68747036 188.14040806 -37.22143555 188.05639648 C-38.43379883 188.0422168 -39.64616211 188.02803711 -40.89526367 188.01342773 C-49.8791641 187.7699616 -56.96621662 186.96802451 -63.35922241 180.28352356 C-66.92910742 176.03766515 -67.16762881 172.54419149 -67.13964844 167.14013672 C-67.15819382 166.24786377 -67.1767392 165.35559082 -67.19584656 164.4362793 C-67.24759033 161.49529779 -67.25459402 158.55639897 -67.2565918 155.61499023 C-67.27336092 153.54776685 -67.2911551 151.48055156 -67.30992126 149.41334534 C-67.34131514 145.07483498 -67.34846365 140.73704642 -67.34082031 136.3984375 C-67.33588688 131.98762409 -67.37018176 127.58012545 -67.44335938 123.16992188 C-68.19682147 77.2247994 -68.19682147 77.2247994 -56.68566895 61.3286438 C-54.23924165 57.79924154 -52.39830538 53.94844806 -50.47143555 50.11889648 C-49.66019145 48.58958378 -48.84799316 47.0607759 -48.03393555 45.53295898 C-45.89045356 41.48505102 -43.79998113 37.41133857 -41.72143555 33.32983398 C-40.78148481 31.49134765 -39.8409625 29.65315473 -38.90029907 27.81503296 C-37.99254966 26.03529297 -37.0926142 24.25157436 -36.19287109 22.46777344 C-29.10588062 8.6348343 -29.10588062 8.6348343 -22.47143555 4.55639648 C-21.56458008 3.97631836 -21.56458008 3.97631836 -20.6394043 3.38452148 C-13.90659446 0.30283738 -7.27480079 0.00521891 0 0 Z M-15.28393555 17.30639648 C-17.23878791 19.89815216 -17.23878791 19.89815216 -18.6862793 23.01342773 C-19.2628125 24.15038086 -19.8393457 25.28733398 -20.43334961 26.45874023 C-21.02973 27.67862042 -21.62575191 28.89867591 -22.22143555 30.11889648 C-22.84578795 31.36450358 -23.47177109 32.60929458 -24.09936523 33.85327148 C-25.84713754 37.32806847 -27.5669909 40.81625783 -29.28393555 44.30639648 C-29.98687524 45.71729476 -30.69096327 47.12762284 -31.3972168 48.53686523 C-32.45916954 50.65823623 -33.51673023 52.78181373 -34.5690918 54.90795898 C-37.22068829 60.16283131 -39.97639823 65.36244754 -42.73413086 70.56225586 C-43.54243371 72.08811385 -44.3412158 73.61905556 -45.13012695 75.1550293 C-46.28393555 77.30639648 -46.28393555 77.30639648 -47.46508789 79.07495117 C-51.73927645 85.92953221 -50.71474629 94.03494617 -50.53393555 101.80639648 C-50.51384049 103.31158106 -50.49559503 104.81679153 -50.47924805 106.32202148 C-50.43548853 109.98402385 -50.3666277 113.64504226 -50.28393555 117.30639648 C-49.25042969 117.36263184 -48.21692383 117.41886719 -47.15209961 117.47680664 C-45.7845693 117.55773253 -44.41705719 117.63896619 -43.04956055 117.72045898 C-42.36974121 117.7566333 -41.68992187 117.79280762 -40.98950195 117.83007812 C-35.11879831 118.19030964 -31.05469453 119.0897893 -26.40893555 122.80639648 C-23.00106964 127.3502177 -24.05923349 133.79925964 -24.03393555 139.18139648 C-24.01331055 140.2706543 -23.99268555 141.35991211 -23.97143555 142.48217773 C-23.9662793 143.5353418 -23.96112305 144.58850586 -23.95581055 145.67358398 C-23.94646484 146.63377441 -23.93711914 147.59396484 -23.92749023 148.58325195 C-24.47081492 152.73410371 -26.20286156 155.38412432 -29.3581543 158.07592773 C-33.57011815 159.8473144 -37.56782102 159.87569998 -42.09643555 159.99389648 C-42.98008789 160.02805664 -43.86374023 160.0622168 -44.77416992 160.09741211 C-46.94365721 160.17950082 -49.11377444 160.24463528 -51.28393555 160.30639648 C-51.17045936 162.2862573 -51.04284205 164.26531246 -50.90893555 166.24389648 C-50.80452148 167.89711914 -50.80452148 167.89711914 -50.69799805 169.58374023 C-50.56135742 170.4822168 -50.4247168 171.38069336 -50.28393555 172.30639648 C-47.62215334 173.63728759 -45.59654159 173.41908641 -42.61987305 173.40405273 C-41.49838867 173.40083008 -40.3769043 173.39760742 -39.22143555 173.39428711 C-38.04581055 173.3859082 -36.87018555 173.3775293 -35.65893555 173.36889648 C-34.47557617 173.36438477 -33.2922168 173.35987305 -32.07299805 173.35522461 C-29.14326048 173.34341115 -26.21362283 173.32693906 -23.28393555 173.30639648 C-22.66325195 171.48495117 -22.66325195 171.48495117 -22.0300293 169.62670898 C-18.46128295 160.16421866 -11.21847825 154.63089877 -2.27612305 150.46264648 C9.15545705 146.04522128 22.82096683 145.0159164 34.26293945 150.05249023 C35.0724707 150.4662793 35.88200195 150.88006836 36.71606445 151.30639648 C37.5874707 151.73049805 38.45887695 152.15459961 39.35668945 152.59155273 C48.49026045 157.5001635 52.68046133 163.8899892 56.71606445 173.30639648 C64.96606445 173.30639648 73.21606445 173.30639648 81.71606445 173.30639648 C81.38606445 120.83639648 81.05606445 68.36639648 80.71606445 14.30639648 C65.98981445 14.24452148 51.26356445 14.18264648 36.09106445 14.11889648 C31.44705566 14.09158447 26.80304688 14.06427246 22.01831055 14.03613281 C17.8430972 14.0260974 17.8430972 14.0260974 13.6678772 14.02006531 C11.81311889 14.01546883 9.95836936 14.00493883 8.10366821 13.9896698 C5.28859971 13.96765978 2.47407741 13.96468014 -0.34106445 13.96582031 C-1.16262842 13.95502599 -1.98419239 13.94423166 -2.83065224 13.93311024 C-7.71308043 13.95952102 -11.0577546 14.59415759 -15.28393555 17.30639648 Z M-50.28393555 131.30639648 C-50.28393555 136.58639648 -50.28393555 141.86639648 -50.28393555 147.30639648 C-46.98393555 147.30639648 -43.68393555 147.30639648 -40.28393555 147.30639648 C-40.28393555 142.02639648 -40.28393555 136.74639648 -40.28393555 131.30639648 C-43.58393555 131.30639648 -46.88393555 131.30639648 -50.28393555 131.30639648 Z M-4.28393555 168.30639648 C-7.89059698 172.72746534 -8.59263063 177.78995685 -8.10424805 183.35327148 C-7.0632327 188.83453597 -4.48586341 192.67578337 -0.28393555 196.30639648 C6.69137102 200.73303335 13.50928497 202.15294107 21.71606445 201.30639648 C28.66631104 199.43125664 35.01485131 196.5183185 39.0012207 190.30249023 C41.81320785 184.82149833 42.50664572 180.23638031 40.71606445 174.30639648 C38.02749364 167.92965803 33.96849012 164.16101597 27.71606445 161.30639648 C15.97520726 157.09907243 4.7110633 159.83033988 -4.28393555 168.30639648 Z M265.71606445 167.30639648 C261.91923318 171.93667852 260.18055357 177.3281477 260.71606445 183.30639648 C262.73879691 190.31712364 266.27099388 194.54582086 272.52856445 198.18920898 C279.30109122 201.64803515 285.91939528 202.56453922 293.3371582 200.61889648 C299.64960854 198.31297855 305.53114658 195.3133393 308.8449707 189.23608398 C310.94225425 183.83769496 311.23084525 178.89943329 309.71606445 173.30639648 C306.44692658 166.3594785 300.07561081 162.58070717 293.09106445 159.93139648 C283.28532739 158.11551925 273.01650359 160.16128584 265.71606445 167.30639648 Z M97.71606445 162.30639648 C97.71606445 165.93639648 97.71606445 169.56639648 97.71606445 173.30639648 C146.55606445 173.30639648 195.39606445 173.30639648 245.71606445 173.30639648 C248.19106445 167.86139648 248.19106445 167.86139648 250.71606445 162.30639648 C200.22606445 162.30639648 149.73606445 162.30639648 97.71606445 162.30639648 Z M320.71606445 162.30639648 C322.69606445 165.93639648 324.67606445 169.56639648 326.71606445 173.30639648 C330.13294229 173.36034719 333.54896809 173.40004698 336.96606445 173.43139648 C338.41819336 173.4565332 338.41819336 173.4565332 339.8996582 173.48217773 C341.30151367 173.4918457 341.30151367 173.4918457 342.73168945 173.50170898 C344.01994629 173.51741943 344.01994629 173.51741943 345.33422852 173.53344727 C348.10138409 173.41400172 348.10138409 173.41400172 351.71606445 171.30639648 C352.37606445 168.33639648 353.03606445 165.36639648 353.71606445 162.30639648 C342.82606445 162.30639648 331.93606445 162.30639648 320.71606445 162.30639648 Z " fill="#EAD100" transform="translate(115.283935546875,219.693603515625)"/>
<path d="M0 0 C0.68651642 -0.00671722 1.37303284 -0.01343445 2.08035278 -0.02035522 C4.34994746 -0.03935441 6.61924677 -0.04326021 8.88891602 -0.04541016 C10.46688458 -0.05183634 12.04485195 -0.05856456 13.62281799 -0.06558228 C16.93070234 -0.07755952 20.23848221 -0.0812626 23.54638672 -0.08007812 C27.78469455 -0.07987481 32.02233277 -0.10718723 36.26048183 -0.14162254 C39.51958797 -0.16386106 42.77853212 -0.16791663 46.03770638 -0.16685867 C47.60022351 -0.16921884 49.16274484 -0.17806582 50.7251873 -0.19352341 C52.91101864 -0.21312481 55.09539515 -0.20737032 57.28125 -0.1953125 C58.52462631 -0.19816254 59.76800262 -0.20101257 61.04905701 -0.20394897 C64.20532227 0.29052734 64.20532227 0.29052734 66.60572815 1.95797729 C68.60829671 4.87815019 68.71197548 6.57091176 68.72290039 10.09716797 C68.73550903 11.26517944 68.74811768 12.43319092 68.7611084 13.63659668 C68.75301147 14.8939563 68.74491455 16.15131592 68.73657227 17.44677734 C68.74231262 19.38840759 68.74231262 19.38840759 68.74816895 21.3692627 C68.75405914 24.1063958 68.74551765 26.84300593 68.72680664 29.58007812 C68.70401596 33.08424761 68.71714181 36.58719168 68.7410965 40.09131622 C68.75904681 43.43906755 68.74646987 46.78649122 68.73657227 50.13427734 C68.74466919 51.39163696 68.75276611 52.64899658 68.7611084 53.94445801 C68.74849976 55.11246948 68.73589111 56.28048096 68.72290039 57.48388672 C68.71971802 58.51106812 68.71653564 59.53824951 68.71325684 60.59655762 C68.20532227 63.29052734 68.20532227 63.29052734 66.75865173 65.62109375 C62.89257631 68.14883499 59.36210231 67.8491058 54.83447266 67.80810547 C53.8860701 67.81511475 52.93766754 67.82212402 51.96052551 67.8293457 C48.82437895 67.84695561 45.68913432 67.8352911 42.55297852 67.82177734 C40.37348762 67.82447161 38.19399789 67.82835349 36.01451111 67.83337402 C31.44559287 67.83927333 26.87698736 67.83069278 22.30810547 67.81201172 C16.45234018 67.78923574 10.59730875 67.80233437 4.74157047 67.82630157 C0.24025448 67.84075922 -4.2608877 67.83615341 -8.76220894 67.82579041 C-10.92116953 67.82312234 -13.08014591 67.82639566 -15.23908806 67.83570862 C-18.25796131 67.84587184 -21.27564862 67.830375 -24.29443359 67.80810547 C-25.18654541 67.81620239 -26.07865723 67.82429932 -26.99780273 67.8326416 C-31.08844016 67.77676096 -33.29510786 67.58538925 -36.88722229 65.46520996 C-38.79467773 63.29052734 -38.79467773 63.29052734 -38.81420898 59.97802734 C-37.75494046 56.14680327 -36.33607716 52.78212935 -34.48217773 49.29052734 C-34.13606445 48.61900635 -33.78995117 47.94748535 -33.43334961 47.25561523 C-32.6593446 45.75841187 -31.88025484 44.26382957 -31.09692383 42.77148438 C-29.6805616 40.07312049 -28.27809426 37.36779174 -26.87670898 34.66162109 C-24.33625559 29.76350698 -21.77622356 24.87594575 -19.20922852 19.99169922 C-17.91390338 17.51819605 -16.63127185 15.03863742 -15.35327148 12.55615234 C-14.64645711 11.19666457 -13.93944257 9.83728083 -13.23217773 8.47802734 C-12.33305664 6.73585937 -12.33305664 6.73585937 -11.41577148 4.95849609 C-8.38673948 -0.02663368 -5.45903431 0.03349277 0 0 Z M2.20532227 13.29052734 C-8.84821699 33.21352027 -8.84821699 33.21352027 -17.79467773 54.29052734 C5.30532227 54.29052734 28.40532227 54.29052734 52.20532227 54.29052734 C52.20532227 40.76052734 52.20532227 27.23052734 52.20532227 13.29052734 C35.70532227 13.29052734 19.20532227 13.29052734 2.20532227 13.29052734 Z " fill="#EAD100" transform="translate(120.794677734375,240.70947265625)"/>
<path d="M0 0 C0.90968033 -0.00525696 1.81936066 -0.01051392 2.75660706 -0.01593018 C5.7518958 -0.02909233 8.74664957 -0.02040616 11.74194336 -0.01025391 C13.82889406 -0.01227555 15.91584407 -0.01518774 18.00279236 -0.01895142 C22.3713963 -0.0233695 26.73981595 -0.01695957 31.10839844 -0.00292969 C36.70617094 0.01417238 42.30351223 0.00431112 47.90126896 -0.01364708 C52.2086868 -0.02448972 56.51600246 -0.02103652 60.82342339 -0.0132637 C62.88748666 -0.01126358 64.95155923 -0.01371436 67.01561165 -0.02070236 C69.89998062 -0.0283258 72.78365172 -0.01670037 75.66796875 0 C76.51953552 -0.00607269 77.37110229 -0.01214539 78.24847412 -0.0184021 C83.35089814 0.03629568 86.98215556 0.60105204 90.76928711 4.38818359 C91.14329763 7.75427826 91.23201118 9.68922497 89.33543396 12.55406189 C85.48880762 15.30339046 82.02011426 14.95536231 77.3984375 14.92163086 C75.97583366 14.93455421 75.97583366 14.93455421 74.52449036 14.94773865 C71.388364 14.97044768 68.25312768 14.96365029 65.11694336 14.95458984 C62.93745151 14.95982344 60.75796194 14.96609894 58.57847595 14.97337341 C54.0095657 14.98378693 49.4409667 14.97920265 44.87207031 14.96459961 C39.01619496 14.94741562 33.16130112 14.97089801 27.30553532 15.00608921 C22.80420933 15.02804773 18.30311871 15.02662533 13.80175591 15.0183239 C11.64278525 15.01750344 9.48379748 15.02438483 7.32487679 15.03909492 C4.30581442 15.05651059 1.2885223 15.04202214 -1.73046875 15.01928711 C-2.62258057 15.03097931 -3.51469238 15.04267151 -4.43383789 15.05471802 C-8.85613157 14.98694413 -10.68645265 14.80213503 -14.3127594 12.04405212 C-16.23071289 9.38818359 -16.23071289 9.38818359 -16.41821289 6.26318359 C-15.23071289 3.38818359 -15.23071289 3.38818359 -12.7334137 1.73275757 C-8.33222803 0.04328421 -4.66955993 -0.03337891 0 0 Z " fill="#EAD100" transform="translate(257.230712890625,269.61181640625)"/>
<path d="M0 0 C0.90924225 -0.0049649 1.8184845 -0.00992981 2.75527954 -0.01504517 C5.76671095 -0.02966438 8.7780897 -0.03646811 11.78955078 -0.04199219 C13.88078818 -0.04774347 15.97202557 -0.05350121 18.06326294 -0.05926514 C22.44972988 -0.06977419 26.83617849 -0.07561761 31.22265625 -0.07910156 C36.84401299 -0.08458859 42.46512779 -0.10862158 48.08640862 -0.13707352 C52.40667429 -0.15569371 56.72688158 -0.16090515 61.04718399 -0.16243744 C63.11963347 -0.16546547 65.19208189 -0.17349905 67.26449203 -0.18662262 C70.16349477 -0.20367134 73.06190502 -0.20180576 75.9609375 -0.1953125 C77.24535736 -0.20913467 77.24535736 -0.20913467 78.5557251 -0.22323608 C83.67785724 -0.18728514 87.30696923 0.35823876 91.10986328 4.16113281 C91.42236328 7.53613281 91.42236328 7.53613281 91.10986328 11.16113281 C89.35576392 13.24121029 87.88840481 14.04882479 85.19075203 14.43797302 C82.70219487 14.5680813 80.23100113 14.58922238 77.73901367 14.58105469 C76.31640984 14.593759 76.31640984 14.593759 74.86506653 14.60671997 C71.72908124 14.63012474 68.59358557 14.6311113 65.45751953 14.62988281 C63.27802839 14.63698216 61.09853913 14.64468082 58.91905212 14.6529541 C54.3501974 14.66640684 49.78151549 14.66796402 45.21264648 14.66210938 C39.35680514 14.65621195 33.5017925 14.68680359 27.64611149 14.72722626 C23.14480621 14.75307109 18.64370133 14.75598358 14.14233208 14.75233459 C11.98335118 14.75402878 9.82436132 14.76369988 7.66545296 14.78147888 C4.6464396 14.80360502 1.62911482 14.79399853 -1.38989258 14.77636719 C-2.7280603 14.79626205 -2.7280603 14.79626205 -4.09326172 14.81655884 C-8.54187736 14.75616781 -10.34433988 14.58001862 -13.98390198 11.78674316 C-15.89013672 9.16113281 -15.89013672 9.16113281 -15.89013672 6.53613281 C-14.84297607 4.04912628 -14.01749805 2.79756461 -11.89013672 1.16113281 C-7.92781443 -0.15964128 -4.13140852 0.0053681 0 0 Z " fill="#EAD100" transform="translate(256.89013671875,310.8388671875)"/>
<path d="M0 0 C1.30808121 -0.01260864 2.61616241 -0.02521729 3.96388245 -0.03820801 C5.38339784 -0.03104873 6.8029083 -0.02284488 8.22241211 -0.01367188 C9.68542234 -0.01636817 11.14843082 -0.02025174 12.61143494 -0.02526855 C15.67212039 -0.03115541 18.73233783 -0.02262635 21.79296875 -0.00390625 C25.71295621 0.01890391 29.63184941 0.00574333 33.55179691 -0.01819611 C36.57075732 -0.03265935 39.58945878 -0.02804622 42.60842705 -0.01768494 C44.05369637 -0.01502011 45.49898934 -0.01827889 46.94423103 -0.02760315 C48.9641181 -0.03777755 50.98408784 -0.01951613 53.00390625 0 C54.72668541 0.00477356 54.72668541 0.00477356 56.48426819 0.00964355 C60.07823817 0.62783157 61.2663726 1.63369261 63.43725586 4.51757812 C63.87969828 7.61467508 64.10159384 9.53382059 62.31736755 12.17591858 C59.53653111 14.16034098 57.30980708 13.90622157 53.91796875 13.92163086 C53.26071304 13.92849411 52.60345734 13.93535736 51.92628479 13.94242859 C49.7539407 13.96072774 47.58231673 13.95685489 45.40991211 13.95117188 C43.89920313 13.95573243 42.38849623 13.96103762 40.87779236 13.96705627 C37.71108576 13.97599361 34.54463125 13.97355761 31.37792969 13.96362305 C27.32117206 13.952136 23.26528521 13.97233657 19.20864201 14.00154018 C16.08848041 14.01989397 12.96852776 14.01961139 9.84832573 14.01390266 C8.35280575 14.01374933 6.85727172 14.01980402 5.36180305 14.03219414 C3.26929387 14.04708702 1.17839651 14.03644248 -0.9140625 14.01928711 C-2.69918495 14.01903786 -2.69918495 14.01903786 -4.52037048 14.01878357 C-8.17224866 13.41716739 -9.3455744 12.42645018 -11.56274414 9.51757812 C-12.12524414 7.01757812 -12.12524414 7.01757812 -11.56274414 4.51757812 C-7.7959561 0.75271049 -5.2616094 0.01456903 0 0 Z " fill="#EAD100" transform="translate(284.562744140625,290.482421875)"/>
<path d="M0 0 C1.10479706 -0.0159874 2.20959412 -0.03197479 3.34786987 -0.04844666 C4.54163239 -0.05380936 5.7353949 -0.05917206 6.96533203 -0.06469727 C8.19220734 -0.07372574 9.41908264 -0.08275421 10.68313599 -0.09205627 C13.28059441 -0.10657546 15.87808955 -0.11544963 18.47558594 -0.11914062 C22.45065914 -0.13103623 26.42418036 -0.18020943 30.39892578 -0.23071289 C32.92105361 -0.2401768 35.44319099 -0.24741199 37.96533203 -0.25219727 C39.15504608 -0.27172958 40.34476013 -0.2912619 41.57052612 -0.31138611 C50.75756309 -0.26113299 50.75756309 -0.26113299 53.88378906 2.67724609 C55.59814453 5.30639648 55.59814453 5.30639648 55.66064453 7.93139648 C54.37169109 10.81258654 53.28778788 11.68288011 50.59814453 13.30639648 C48.01806641 13.68734741 48.01806641 13.68734741 45.06689453 13.69458008 C43.4049707 13.7087648 43.4049707 13.7087648 41.70947266 13.72323608 C40.51773438 13.71716339 39.32599609 13.7110907 38.09814453 13.70483398 C36.8703125 13.70770416 35.64248047 13.71057434 34.37744141 13.71353149 C31.78173359 13.71557279 29.18601041 13.71003841 26.59033203 13.69750977 C22.61342018 13.68145814 18.63752471 13.6973574 14.66064453 13.71655273 C12.13980895 13.71457032 9.618974 13.71072667 7.09814453 13.70483398 C5.90640625 13.71090668 4.71466797 13.71697937 3.48681641 13.72323608 C2.37886719 13.7137796 1.27091797 13.70432312 0.12939453 13.69458008 C-0.84449219 13.6921933 -1.81837891 13.68980652 -2.82177734 13.68734741 C-5.83325994 13.24269921 -7.19579957 12.36767997 -9.40185547 10.30639648 C-10.53125949 7.80557328 -10.56737051 6.77535577 -9.65185547 4.18139648 C-7.04508076 0.27123442 -4.36764306 0.04775591 0 0 Z " fill="#EAD100" transform="translate(376.40185546875,304.693603515625)"/>
<path d="M0 0 C3.59236173 2.87388938 4.95887484 4.51542416 5.8125 9.125 C5.05657953 13.50933873 3.87577914 15.01345838 0.3828125 17.63671875 C-3.69159525 19.70292197 -7.40769909 19.79842705 -11.8125 18.75 C-14.82504749 17.22228463 -16.89735676 15.54011283 -18.8125 12.75 C-19.6387174 8.46869168 -19.36247584 6.63388975 -17.0625 2.9375 C-12.11507383 -1.87249766 -6.35770615 -2.82564718 0 0 Z " fill="#EAD100" transform="translate(407.8125,391.25)"/>
<path d="M0 0 C3.75212276 2.01502889 5.63644095 3.45466142 8 7 C8.58568229 10.44901791 8.80778525 12.81039985 6.78515625 15.7890625 C3.50036093 19.05067103 0.63478279 20.44526657 -4 20.75 C-8.6307555 20.44553137 -11.51131518 19.06265651 -14.7734375 15.77734375 C-16 14 -16 14 -16.75 10.5 C-15.76900316 5.92201477 -14.33447296 4.25692707 -11 1 C-7.27599129 -0.24133624 -3.86824 -0.54111486 0 0 Z " fill="#EAD100" transform="translate(136,390)"/>
</svg>
