<?xml version="1.0" encoding="UTF-8"?>
<svg version="1.1" xmlns="http://www.w3.org/2000/svg" width="512" height="512">
<path d="M0 0 C1.14855469 -0.02449219 2.29710937 -0.04898438 3.48046875 -0.07421875 C11.75125984 -0.10310393 11.75125984 -0.10310393 15.89453125 2.1640625 C18.31590209 5.2577327 17.99176995 7.56059253 17.625 11.375 C11.98631064 15.17941691 8.02759564 15.88287002 1.3125 15.875 C-12.6395086 16.2318487 -26.0177029 18.61308703 -38.375 25.375 C-39.62990234 26.03628906 -39.62990234 26.03628906 -40.91015625 26.7109375 C-49.37187387 31.44531428 -56.46514293 37.69758294 -62.375 45.375 C-61.78871826 45.18309082 -61.20243652 44.99118164 -60.59838867 44.79345703 C-54.02229872 42.72100013 -47.48781335 41.35323059 -40.6875 40.25 C-39.71361328 40.08113281 -38.73972656 39.91226563 -37.73632812 39.73828125 C-22.66812368 37.24491061 -7.54133427 37.16963859 7.6875 37.1875 C9.1157309 37.18840637 9.1157309 37.18840637 10.57281494 37.18933105 C31.1251513 37.22474899 50.58067045 38.73549834 70.70581055 43.03955078 C72.79281888 43.46108833 72.79281888 43.46108833 75.625 43.375 C74.74134766 42.39660156 74.74134766 42.39660156 73.83984375 41.3984375 C72.71255859 40.08746094 72.71255859 40.08746094 71.5625 38.75 C70.43134766 37.46222656 70.43134766 37.46222656 69.27734375 36.1484375 C67.625 33.375 67.625 33.375 67.75390625 30.15625 C68.625 27.375 68.625 27.375 70.625 25.5 C74.80880622 23.93107267 78.22631479 23.37865352 82.625 24.375 C92.70827178 30.11791607 98.79075623 42.13132031 103.8359375 52.16015625 C105.75895609 55.94963406 107.96207374 59.08048225 110.625 62.375 C112.23434861 67.70596726 111.4192724 70.75342569 108.92578125 75.48046875 C107.625 77.375 107.625 77.375 105.55932617 78.98461914 C102.83171836 82.35531309 103.19469052 85.3852468 103.375 89.515625 C103.39014648 90.31546814 103.40529297 91.11531128 103.42089844 91.93939209 C103.48572341 95.34477015 103.59654077 98.74818469 103.70703125 102.15234375 C104.30249555 122.2414288 100.79978294 138.61692629 87.625 154.375 C87.12613281 155.03113281 86.62726563 155.68726563 86.11328125 156.36328125 C80.75584023 163.09719326 73.6843196 167.59698618 66.625 172.375 C67.47452934 173.54504774 68.33000521 174.7107773 69.1875 175.875 C69.66316406 176.5246875 70.13882812 177.174375 70.62890625 177.84375 C71.28761719 178.6790625 71.94632812 179.514375 72.625 180.375 C73.0895459 181.03806152 73.5540918 181.70112305 74.03271484 182.38427734 C77.12902739 186.45499881 79.36882032 188.79497908 84.53125 189.6015625 C86.39348653 189.76399797 88.25862848 189.89527406 90.125 190 C119.33034633 192.76995776 146.50230438 202.82228786 168.625 222.375 C169.68654297 223.29345703 169.68654297 223.29345703 170.76953125 224.23046875 C192.22562379 244.07841234 194.11766279 274.37409223 198.47698975 301.53851318 C199.04013226 305.04061012 199.60917102 308.54174854 200.17773438 312.04296875 C201.17385267 318.18082706 202.16491961 324.31948658 203.15202332 330.45880127 C203.48043495 332.48366552 203.82003537 334.50673419 204.16841125 336.52825928 C204.7075207 339.88950027 204.90517258 343.15965468 205 346.5625 C205.04898437 347.77292969 205.09796875 348.98335938 205.1484375 350.23046875 C204.625 353.375 204.625 353.375 202.50565767 355.04758883 C199.10353323 356.61529263 196.75158709 356.75306497 193.01103973 356.75811005 C192.35674463 356.76306956 191.70244952 356.76802908 191.02832729 356.77313888 C188.83244904 356.78610846 186.63717752 356.77770643 184.44128418 356.76940918 C182.85247983 356.77429744 181.26367905 356.78048694 179.67488432 356.78786707 C175.30617492 356.80429769 170.93764561 356.80194235 166.56891608 356.7964921 C161.85854857 356.79382579 157.14822949 356.80834609 152.43788147 356.82058716 C143.20920357 356.84165927 133.98058846 356.84618103 124.75188935 356.84439927 C117.25299638 356.8430927 109.75412304 356.84689043 102.25523376 356.85432434 C100.09689633 356.85642348 97.9385589 356.85852108 95.78022146 356.86061716 C94.70603592 356.86166069 93.63185038 356.86270422 92.52511376 356.86377937 C72.20213449 356.88268846 51.87919131 356.8816293 31.55620688 356.87481004 C12.95241611 356.86923238 -5.65123704 356.89006836 -24.25499564 356.92317051 C-43.34674947 356.956878 -62.43843731 356.97207963 -81.53022146 356.96745348 C-92.25311376 356.96520603 -102.9758788 356.97049235 -113.69874573 356.99534607 C-122.82603641 357.01632107 -131.95313005 357.01998892 -141.08042872 357.00104648 C-145.73932791 356.99186564 -150.39785936 356.99081716 -155.05673027 357.01140213 C-159.31916559 357.03002764 -163.58092981 357.02570423 -167.84333891 357.00285631 C-169.38768365 356.99864916 -170.93207902 357.0029412 -172.47637039 357.01645225 C-174.57207759 357.03354324 -176.66542301 357.0199758 -178.76103973 356.99861908 C-179.92596939 356.99889146 -181.09089904 356.99916385 -182.29112959 356.99944448 C-186.31651407 356.18435539 -187.83095986 354.52709295 -190.375 351.375 C-190.73242188 348.94287109 -190.73242188 348.94287109 -190.34375 346.2734375 C-190.20710938 345.22124023 -190.07046875 344.16904297 -189.9296875 343.08496094 C-189.74664062 341.86067383 -189.56359375 340.63638672 -189.375 339.375 C-189.18612228 337.89666215 -189.00146787 336.41778057 -188.8203125 334.93847656 C-188.31076702 330.81020676 -187.77034187 326.68674415 -187.21826172 322.56396484 C-186.87291766 319.98444612 -186.53181537 317.40439292 -186.19140625 314.82421875 C-185.97159792 313.16663432 -185.75155428 311.50908108 -185.53125 309.8515625 C-185.43017944 309.08897125 -185.32910889 308.32638 -185.22497559 307.54067993 C-184.67911533 303.47154504 -184.07561893 299.42115431 -183.375 295.375 C-184.33019531 295.15585937 -185.28539062 294.93671875 -186.26953125 294.7109375 C-199.10728995 291.62567505 -209.99024115 287.12191671 -218.375 276.375 C-225.48893595 264.64723338 -221.06262799 244.26318185 -220.125 231.125 C-220.06041595 230.19409546 -219.99583191 229.26319092 -219.92929077 228.30407715 C-218.42349353 206.63070441 -216.44371476 185.00089207 -214.375 163.375 C-215.78507324 162.91685913 -215.78507324 162.91685913 -217.22363281 162.44946289 C-230.53062838 157.91242482 -240.9045835 147.60762821 -247.375 135.375 C-247.7258667 134.73151611 -248.0767334 134.08803223 -248.43823242 133.42504883 C-251.52105487 127.27930196 -252.04013787 121.88002329 -251.9375 115.0625 C-251.92799316 114.04792725 -251.91848633 113.03335449 -251.90869141 111.98803711 C-251.69458953 104.276038 -250.52066424 98.00586349 -246.375 91.375 C-245.94058594 90.66988281 -245.50617188 89.96476562 -245.05859375 89.23828125 C-243.61501984 87.14489345 -242.06370135 85.27618694 -240.375 83.375 C-239.67761719 82.57320313 -238.98023438 81.77140625 -238.26171875 80.9453125 C-228.99263078 70.96321776 -214.93253426 61.82624783 -201 60.8125 C-196.37240698 61.53057478 -195.20004033 62.67822952 -192.375 66.375 C-191.71021283 69.3240936 -191.79025822 72.16532811 -191.88671875 75.17578125 C-191.89379349 76.01215622 -191.90086823 76.84853119 -191.90815735 77.71025085 C-191.93605015 80.37026052 -191.99877519 83.02813139 -192.0625 85.6875 C-192.08758966 87.49541221 -192.11040167 89.30335757 -192.13085938 91.11132812 C-192.18585958 95.53337073 -192.27209357 99.95382331 -192.375 104.375 C-191.6015625 104.67019531 -190.828125 104.96539062 -190.03125 105.26953125 C-187.375 106.375 -187.375 106.375 -184.875 108.0625 C-182.5043511 109.55415473 -182.5043511 109.55415473 -180.0625 109.375 C-178.7321875 108.88 -178.7321875 108.88 -177.375 108.375 C-176.7145166 108.18486328 -176.0540332 107.99472656 -175.37353516 107.79882812 C-172.6204264 106.65425619 -171.23444197 105.73842275 -169.375 103.375 C-168.40105476 97.52895596 -168.75784534 91.77363278 -169.0625 85.875 C-169.16054372 83.46365457 -169.24686215 81.05284136 -169.31636047 78.64050293 C-169.36223989 77.14283012 -169.42584727 75.64556396 -169.50968933 74.14953613 C-169.68120686 69.6442585 -169.19479538 66.93066035 -166.375 63.375 C-162.55155854 60.82603903 -159.78901465 60.71082225 -155.375 61.375 C-144.2184383 64.63749324 -132.77736016 70.20603874 -124.375 78.375 C-124.375 79.035 -124.375 79.695 -124.375 80.375 C-123.715 80.375 -123.055 80.375 -122.375 80.375 C-113.31931092 90.35025133 -107.99546962 103.07313904 -108.15625 116.55859375 C-109.18891488 129.85415407 -114.94311969 141.79749927 -124.88330078 150.73046875 C-139.91453259 163.375 -139.91453259 163.375 -146.375 163.375 C-146.21802139 163.94232849 -146.06104279 164.50965698 -145.89930725 165.09417725 C-145.37286252 167.38429838 -145.14094608 169.52503322 -144.98608398 171.86816406 C-144.92609726 172.74877502 -144.86611053 173.62938599 -144.80430603 174.53668213 C-144.74384598 175.47848328 -144.68338593 176.42028442 -144.62109375 177.390625 C-144.55592056 178.36159119 -144.49074738 179.33255737 -144.42359924 180.33294678 C-144.21649741 183.43008248 -144.01443625 186.52752362 -143.8125 189.625 C-143.67285821 191.7265846 -143.53288818 193.82814741 -143.39257812 195.9296875 C-143.04957786 201.0778801 -142.71109755 206.22635234 -142.375 211.375 C-141.37702393 210.83447998 -140.37904785 210.29395996 -139.35083008 209.73706055 C-138.01131187 209.01596205 -136.67170764 208.29502333 -135.33203125 207.57421875 C-134.35079285 207.04193665 -134.35079285 207.04193665 -133.34973145 206.49890137 C-112.14924658 195.11745081 -87.47249468 188.83635012 -63.375 189.375 C-63.14039063 188.82972656 -62.90578125 188.28445313 -62.6640625 187.72265625 C-60.45100444 183.69220808 -57.26182844 180.40748038 -54.2734375 176.93359375 C-52.07706378 174.50445707 -52.07706378 174.50445707 -52.375 171.375 C-54.62500837 169.39583742 -54.62500837 169.39583742 -57.5 167.5 C-69.15272074 159.4473068 -77.66049691 150.14582634 -83.375 137.1875 C-83.65335693 136.55932373 -83.93171387 135.93114746 -84.21850586 135.28393555 C-87.63748216 127.01793818 -88.52603175 119.24745993 -88.32421875 110.3671875 C-88.30634308 109.55132675 -88.28846741 108.735466 -88.27005005 107.8948822 C-88.1872561 104.48367636 -88.09618997 101.07396496 -87.95678711 97.66455078 C-87.02952733 86.27287521 -87.02952733 86.27287521 -91.82421875 76.48828125 C-92.45803467 75.97048096 -93.09185059 75.45268066 -93.74487305 74.91918945 C-96.31192373 72.48746928 -96.45831368 69.83883636 -96.58203125 66.421875 C-96.27572123 63.39345143 -95.37393186 61.64964659 -93.375 59.375 C-92.67375 59.08625 -91.9725 58.7975 -91.25 58.5 C-90.63125 58.12875 -90.0125 57.7575 -89.375 57.375 C-89.25253906 56.33601563 -89.13007813 55.29703125 -89.00390625 54.2265625 C-88.31065878 49.98096001 -86.79797934 47.11898669 -84.4375 43.625 C-84.03563477 43.02010742 -83.63376953 42.41521484 -83.21972656 41.79199219 C-67.95503069 19.3730769 -45.45479395 6.60673484 -19.23046875 1.265625 C-12.82096338 0.15059275 -6.49342625 0.00743806 0 0 Z M-6.94189453 52.41308594 C-29.73991828 52.87251558 -56.37395486 55.56533767 -76.375 67.375 C-73.59909917 73.44728306 -68.52687207 75.72026716 -62.875 78.6875 C-56.05293202 80.56356869 -49.94383174 78.94803596 -43.375 77 C-34.69985861 74.57989618 -26.34909388 73.16575008 -17.375 72.375 C-15.580625 72.20871094 -15.580625 72.20871094 -13.75 72.0390625 C13.26336189 69.88497976 41.76676462 70.71794886 67.625 79.375 C74.71184683 80.1927131 81.03320286 77.88031046 86.8203125 73.84375 C88.54412858 72.42003146 90.1642478 71.06792474 91.625 69.375 C91.625 68.715 91.625 68.055 91.625 67.375 C69.87419694 56.37122105 44.84566087 52.74932367 20.625 52.375 C19.67125488 52.35985352 18.71750977 52.34470703 17.73486328 52.32910156 C9.50656954 52.22303018 1.28570806 52.29101004 -6.94189453 52.41308594 Z M-223.12890625 90.01171875 C-229.81798404 97.22474519 -233.6320809 106.52558816 -233.375 116.375 C-232.54564384 126.27543919 -227.13513518 135.71596738 -219.984375 142.46484375 C-215.40401228 145.81783382 -210.31579774 148.13756471 -205.1796875 150.515625 C-204.53999023 150.82951172 -203.90029297 151.14339844 -203.24121094 151.46679688 C-201.47461627 152.32652112 -199.67915617 153.12617914 -197.8828125 153.921875 C-195.375 156.375 -195.375 156.375 -195.07626343 158.35559082 C-195.23352303 166.81422901 -195.92690032 175.21237906 -196.67137146 183.63600922 C-196.91131219 186.35422299 -197.14497387 189.07291533 -197.3770752 191.79180908 C-198.03760097 199.51494473 -198.71016368 207.23702452 -199.38427734 214.95898438 C-199.79812161 219.70449739 -200.20565292 224.4505221 -200.60972595 229.19687653 C-200.83745427 231.84856686 -201.07248166 234.49954258 -201.30773926 237.15057373 C-203.89484211 254.74540753 -203.89484211 254.74540753 -199.875 271.0625 C-198.22413576 272.87629051 -198.22413576 272.87629051 -196.375 274.375 C-195.84132812 274.82488281 -195.30765625 275.27476562 -194.7578125 275.73828125 C-188.27442032 279.93087486 -179.74164535 279.21754142 -172.375 278.375 C-167.12457472 276.81852147 -163.57122885 274.12497851 -160.3125 269.75 C-155.88587774 261.24132425 -158.65169383 249.88495223 -159.48590088 240.67276001 C-160.85214291 225.52434982 -161.97707107 210.36259001 -163 195.1875 C-163.06216705 194.27050323 -163.12433411 193.35350647 -163.18838501 192.40872192 C-163.48376793 188.04208305 -163.77149404 183.6752591 -164.04394531 179.30712891 C-164.25341454 176.01160433 -164.51749021 172.72690521 -164.82324219 169.43896484 C-164.88853119 168.65970139 -164.95382019 167.88043793 -165.02108765 167.07756042 C-165.14384617 165.62053064 -165.28276126 164.16473265 -165.44107056 162.71113586 C-165.70435976 159.36596596 -165.65874123 157.75251013 -163.61083984 155.02783203 C-161.6759792 153.59749718 -159.95067545 152.46503577 -157.765625 151.48046875 C-157.09708496 151.16851562 -156.42854492 150.8565625 -155.73974609 150.53515625 C-155.04187988 150.21417969 -154.34401367 149.89320313 -153.625 149.5625 C-143.02831994 144.4581904 -133.99205729 137.53237646 -129.5 126.25 C-126.9399214 117.44211053 -126.93800542 106.56408395 -131.375 98.375 C-135.94103555 91.45091792 -141.45408594 85.94855809 -148.375 81.375 C-148.705 81.375 -149.035 81.375 -149.375 81.375 C-149.36339844 82.2220752 -149.35179687 83.06915039 -149.33984375 83.94189453 C-149.31557048 87.1073884 -149.32726976 90.27020252 -149.36279297 93.43554688 C-149.37086741 94.80109691 -149.36490654 96.16680908 -149.34423828 97.53222656 C-149.18851869 108.76042858 -149.18851869 108.76042858 -151.88867188 112.43481445 C-153.96660943 114.02777882 -156.04156887 115.19075449 -158.375 116.375 C-159.93217974 117.37623232 -161.48418426 118.38555345 -163.03125 119.40234375 C-164.64259348 120.37776805 -166.25721295 121.34780034 -167.875 122.3125 C-169.07962891 123.07143555 -169.07962891 123.07143555 -170.30859375 123.84570312 C-174.6005294 126.39512682 -178.06547929 128.27064993 -183.21826172 127.1730957 C-188.03596425 125.39031672 -192.33222674 122.68908422 -196.6875 120 C-197.67556641 119.40960938 -198.66363281 118.81921875 -199.68164062 118.2109375 C-208.64745102 112.7911692 -208.64745102 112.7911692 -210.375 110.375 C-210.80737305 107.37231445 -210.80737305 107.37231445 -210.88671875 103.73828125 C-210.93989258 101.79018555 -210.93989258 101.79018555 -210.99414062 99.80273438 C-211.0172405 98.43099483 -211.0400229 97.0592499 -211.0625 95.6875 C-211.09567542 94.30400393 -211.13016531 92.92053871 -211.16601562 91.53710938 C-211.24863241 88.14982117 -211.31774058 84.76279643 -211.375 81.375 C-215.15169289 81.375 -220.47403676 87.53423475 -223.12890625 90.01171875 Z M-38.375 90.4375 C-39.04015625 90.61087891 -39.7053125 90.78425781 -40.390625 90.96289062 C-42.82864639 91.60956093 -45.11326637 92.24413318 -47.375 93.375 C-49.99018725 93.47368631 -52.57284734 93.51396965 -55.1875 93.5 C-55.89970703 93.50386719 -56.61191406 93.50773437 -57.34570312 93.51171875 C-61.16567077 93.50465128 -64.65175473 93.1868021 -68.375 92.375 C-69.06570284 113.61464351 -69.22120817 130.93257653 -54.88671875 148.1640625 C-53.48411952 149.70149803 -53.48411952 149.70149803 -51.375 151.375 C-50.715 151.375 -50.055 151.375 -49.375 151.375 C-49.375 152.035 -49.375 152.695 -49.375 153.375 C-47.3002967 154.91664085 -45.24632885 156.31557144 -43.0625 157.6875 C-42.1034375 158.29307739 -42.1034375 158.29307739 -41.125 158.91088867 C-20.8853563 171.46724447 3.01603908 175.48579612 26.4375 171.25 C48.50322868 166.07796721 66.16646696 155.45695298 78.75 136.2578125 C83.88910568 126.6449842 84.02913142 116.26771305 83.8125 105.625 C83.79896484 104.34367187 83.78542969 103.06234375 83.77148438 101.7421875 C83.73652705 98.61933305 83.6874609 95.49740459 83.625 92.375 C82.86396973 92.53436035 82.10293945 92.6937207 81.31884766 92.85791016 C71.21453857 94.79745399 61.87926198 93.40434256 52.20263672 90.32958984 C38.64014492 86.20976004 24.08646215 86.03965259 10.02050781 86.11425781 C7.62539384 86.12499823 5.23102942 86.11426597 2.8359375 86.1015625 C-11.00386906 86.0880512 -24.95514121 86.82128805 -38.375 90.4375 Z M-40.79296875 187.7890625 C-41.72278352 188.8536137 -42.64568319 189.92423436 -43.5625 191 C-44.03880859 191.52207031 -44.51511719 192.04414063 -45.00585938 192.58203125 C-47.26042212 195.22486168 -48.37652696 196.79933691 -48.3671875 200.3203125 C-47.21745182 203.86004989 -45.86021688 207.2455426 -44.3125 210.625 C-43.85484253 211.6464209 -43.85484253 211.6464209 -43.38793945 212.68847656 C-42.73329277 214.14898224 -42.0758979 215.60825863 -41.41601562 217.06640625 C-40.33375096 219.46647537 -39.26657631 221.87278961 -38.203125 224.28125 C-36.14201009 228.94679127 -36.14201009 228.94679127 -34.07421875 233.609375 C-33.79408936 234.24069336 -33.51395996 234.87201172 -33.2253418 235.52246094 C-32.31908139 237.49682325 -31.35654521 239.43711177 -30.375 241.375 C-26.41372866 239.08838351 -22.45650044 236.79486007 -18.5 234.5 C-16.80810547 233.52353516 -16.80810547 233.52353516 -15.08203125 232.52734375 C-14.00566406 231.90214844 -12.92929688 231.27695312 -11.8203125 230.6328125 C-10.82531738 230.0567627 -9.83032227 229.48071289 -8.80517578 228.88720703 C-6.31207851 227.46326492 -6.31207851 227.46326492 -4.375 225.375 C-5.10203125 224.46621094 -5.10203125 224.46621094 -5.84375 223.5390625 C-12.02083333 215.81770833 -18.19791667 208.09635417 -24.375 200.375 C-25.02726562 199.56289063 -25.67953125 198.75078125 -26.3515625 197.9140625 C-27.77560133 196.12714118 -29.18585851 194.32919308 -30.5859375 192.5234375 C-31.30007812 191.60820312 -32.01421875 190.69296875 -32.75 189.75 C-33.39710938 188.91210938 -34.04421875 188.07421875 -34.7109375 187.2109375 C-35.26007813 186.60507812 -35.80921875 185.99921875 -36.375 185.375 C-38.7085678 185.13948836 -38.7085678 185.13948836 -40.79296875 187.7890625 Z M51.625 185.375 C49.71081873 187.73441015 47.90666162 190.10562975 46.125 192.5625 C45.03712211 194.03824996 43.94857078 195.5135037 42.859375 196.98828125 C42.31474609 197.72900879 41.77011719 198.46973633 41.20898438 199.23291016 C38.96616299 202.26597347 36.6782016 205.26265213 34.375 208.25 C33.18003906 209.80267578 33.18003906 209.80267578 31.9609375 211.38671875 C29.04045232 215.12279093 26.04800734 218.79702078 23.0234375 222.44921875 C21.429138 224.24805878 21.429138 224.24805878 21.625 226.375 C25.14571061 228.3742471 28.66951004 230.36792169 32.19628906 232.35644531 C33.39604903 233.03394918 34.59494816 233.71297981 35.79296875 234.39355469 C37.51336169 235.3705328 39.23710409 236.34160532 40.9609375 237.3125 C41.99782715 237.89902344 43.0347168 238.48554688 44.10302734 239.08984375 C46.45023803 240.52634391 46.45023803 240.52634391 48.625 240.375 C54.01719164 226.39690321 59.40625257 212.41894635 64.625 198.375 C63.93664062 197.59576172 63.93664062 197.59576172 63.234375 196.80078125 C60.51319799 193.70801494 57.82854452 190.63905775 55.3125 187.375 C54.755625 186.715 54.19875 186.055 53.625 185.375 C52.965 185.375 52.305 185.375 51.625 185.375 Z M-12.375 186.375 C-9.75356729 191.15141832 -6.39178253 195.19126563 -2.9375 199.375 C-1.79284522 200.77073204 -0.64831115 202.16656307 0.49609375 203.5625 C1.0360498 204.21605469 1.57600586 204.86960937 2.13232422 205.54296875 C3.42374489 207.12799012 4.67128049 208.74857849 5.91015625 210.375 C6.75900391 211.365 6.75900391 211.365 7.625 212.375 C8.285 212.375 8.945 212.375 9.625 212.375 C11.03826031 210.91200984 11.03826031 210.91200984 12.453125 208.97265625 C13.00613281 208.24626953 13.55914062 207.51988281 14.12890625 206.77148438 C14.99322266 205.61616211 14.99322266 205.61616211 15.875 204.4375 C16.43574219 203.70208984 16.99648438 202.96667969 17.57421875 202.20898438 C21.46613975 197.06319968 25.10324518 191.77998202 28.625 186.375 C27.61469727 186.42829468 27.61469727 186.42829468 26.58398438 186.48266602 C13.51007938 187.14995207 0.67209888 187.63887694 -12.375 186.375 Z M-136.375 228.375 C-137.76912109 229.07689453 -137.76912109 229.07689453 -139.19140625 229.79296875 C-141.88975406 232.98368056 -141.62184547 233.98758753 -141.390625 238.06640625 C-141.16171009 240.35954802 -140.90535267 242.65007708 -140.625 244.9375 C-137.96926656 268.69005468 -137.96926656 268.69005468 -146.375 279.375 C-150.08955463 283.37293302 -153.69071097 286.19695518 -158.75 288.25 C-161.59715042 289.56174197 -161.59715042 289.56174197 -163.11349487 292.19737244 C-163.24345856 292.91719803 -163.37342224 293.63702362 -163.50732422 294.37866211 C-163.65780212 295.1850412 -163.80828003 295.99142029 -163.96331787 296.82223511 C-164.16710052 298.08585373 -164.16710052 298.08585373 -164.375 299.375 C-164.50618225 300.17575958 -164.6373645 300.97651917 -164.77252197 301.80154419 C-165.16726449 304.34519759 -165.5293455 306.8917013 -165.8828125 309.44140625 C-166.01315887 310.36090561 -166.14350525 311.28040497 -166.27780151 312.22776794 C-166.68852497 315.1305545 -167.09434465 318.03400132 -167.5 320.9375 C-167.77962241 322.91996781 -168.05956729 324.90239017 -168.33984375 326.88476562 C-169.02255674 331.71425308 -169.6986171 336.54460512 -170.375 341.375 C-157.835 341.375 -145.295 341.375 -132.375 341.375 C-132.20461581 329.37865434 -132.20461581 329.37865434 -132.07714844 317.38183594 C-132.04777505 315.87431794 -132.01694859 314.36682725 -131.984375 312.859375 C-131.98324707 312.08094238 -131.98211914 311.30250977 -131.98095703 310.50048828 C-131.88567343 306.89133138 -131.70686439 304.80308642 -129.46191406 301.90722656 C-125.92909587 299.31340731 -123.76334696 299.03081592 -119.375 299.375 C-114.74264706 301.63970588 -114.74264706 301.63970588 -113.375 304.375 C-113.375 316.585 -113.375 328.795 -113.375 341.375 C-34.835 341.375 43.705 341.375 124.625 341.375 C124.955 328.175 125.285 314.975 125.625 301.375 C132.8921271 298.9526243 135.56672553 298.55169021 142.625 301.375 C142.955 314.575 143.285 327.775 143.625 341.375 C157.155 341.375 170.685 341.375 184.625 341.375 C182.24904571 324.36816929 179.67226701 307.39725698 176.95501709 290.44207764 C176.62558221 288.37864672 176.29994724 286.31464558 175.97509766 284.25048828 C175.35352858 280.31013171 174.70927864 276.37379783 174.0625 272.4375 C173.87703613 271.25414062 173.69157227 270.07078125 173.50048828 268.8515625 C170.23194902 249.36982977 159.39596753 235.02477877 143.58105469 223.69433594 C128.1171774 213.26413214 108.16898904 206.5327445 89.5625 205.75 C88.79228516 205.71132813 88.02207031 205.67265625 87.22851562 205.6328125 C85.36100523 205.54001695 83.49303748 205.45649876 81.625 205.375 C77.83254607 214.40257044 74.17610702 223.42582284 70.953125 232.67578125 C69.06319874 237.93978174 67.01177569 243.13801762 64.94726562 248.33569336 C64.66044922 249.06280518 64.37363281 249.78991699 64.078125 250.5390625 C63.82192383 251.18311035 63.56572266 251.8271582 63.30175781 252.49072266 C62.60468087 254.43157396 62.09166875 256.36743335 61.625 258.375 C56.99223993 260.24304842 53.24894069 260.92295545 48.44140625 259.30078125 C44.73825604 257.46418999 41.17910645 255.48184245 37.625 253.375 C36.10167714 252.48678253 34.57823512 251.5987694 33.0546875 250.7109375 C30.76955557 249.37444594 28.48976405 248.03149783 26.22241211 246.66503906 C25.53671143 246.2522168 24.85101074 245.83939453 24.14453125 245.4140625 C23.53714111 245.04490723 22.92975098 244.67575195 22.30395508 244.29541016 C20.46558301 243.22255709 20.46558301 243.22255709 17.625 242.375 C17.62135437 243.04485428 17.61770874 243.71470856 17.61395264 244.40486145 C17.57220793 251.36409452 17.50291894 258.32266312 17.41748047 265.28149414 C17.38921931 267.88005942 17.36803055 270.47871148 17.35400391 273.07739258 C17.33264634 276.80855919 17.28603054 280.53867655 17.234375 284.26953125 C17.23314636 285.43523148 17.23191772 286.6009317 17.23065186 287.80195618 C17.21093323 288.88285019 17.1912146 289.9637442 17.17089844 291.07739258 C17.16201599 292.03003494 17.15313354 292.98267731 17.14398193 293.96418762 C16.625 296.375 16.625 296.375 14.71588135 298.18119812 C11.37784907 300.08706868 8.36075812 299.95032209 4.625 299.375 C1.38886646 297.63246655 0.80104685 296.90314056 -0.375 293.375 C-0.48992784 291.73412211 -0.55132354 290.0892222 -0.58032227 288.44458008 C-0.60026749 287.44376907 -0.62021271 286.44295807 -0.64076233 285.41181946 C-0.66583107 283.7945118 -0.66583107 283.7945118 -0.69140625 282.14453125 C-0.71218735 281.03897385 -0.73296844 279.93341644 -0.75437927 278.7943573 C-0.81982332 275.2588021 -0.87873603 271.72317194 -0.9375 268.1875 C-0.9806901 265.79230992 -1.02430454 263.39712745 -1.06835938 261.00195312 C-1.17549948 255.12638158 -1.27727557 249.25073528 -1.375 243.375 C-5.16741432 244.8523021 -8.59639604 246.55494356 -12.12109375 248.59765625 C-13.20583984 249.21833984 -14.29058594 249.83902344 -15.40820312 250.47851562 C-17.67649322 251.78379099 -19.94213055 253.09368724 -22.20507812 254.40820312 C-23.83413086 255.33729492 -23.83413086 255.33729492 -25.49609375 256.28515625 C-26.4802124 256.85371338 -27.46433105 257.42227051 -28.47827148 258.00805664 C-32.75183528 260.02471772 -35.93980648 260.80555806 -40.5 259.4375 C-43.30574469 257.42468316 -43.91576162 256.75005903 -45.31640625 253.80859375 C-45.8273584 252.73629517 -45.8273584 252.73629517 -46.34863281 251.64233398 C-48.03539042 247.91614038 -49.62641799 244.15532875 -51.1875 240.375 C-56.08291496 228.63383307 -61.18937371 216.9908029 -66.375 205.375 C-91.33364571 204.14752562 -116.74858606 213.13822763 -136.375 228.375 Z " fill="#EAD100" transform="translate(258.375,77.625)"/>
<path d="M0 0 C1.20184937 -0.00619858 2.40369873 -0.01239716 3.64196777 -0.01878357 C6.18041169 -0.02588058 8.71890216 -0.02270991 11.25732422 -0.01000977 C15.14247178 0.00385707 19.02521201 -0.03022344 22.91015625 -0.06835938 C25.37760476 -0.06931055 27.84505628 -0.06745184 30.3125 -0.0625 C31.47406616 -0.07575821 32.63563232 -0.08901642 33.83239746 -0.10267639 C42.79576105 0.00089748 42.79576105 0.00089748 45.91601562 2.91430664 C47.65625 5.56640625 47.65625 5.56640625 47.84375 8.62890625 C46.59837308 11.70957547 45.46140729 12.99534469 42.66384888 14.74588013 C38.35783906 16.50579023 33.67032608 16.11063974 29.08984375 16.0625 C27.97819351 16.06395523 26.86654327 16.06541046 25.72120667 16.06690979 C23.37701795 16.06525354 21.03281804 16.05372315 18.6887207 16.03295898 C15.10255751 16.00397743 11.51787087 16.0123623 7.93164062 16.02539062 C5.65103449 16.01915369 3.37043302 16.01076311 1.08984375 16 C-0.51655724 16.00440346 -0.51655724 16.00440346 -2.15541077 16.00889587 C-8.73333844 15.92556983 -12.55886225 15.351294 -17.34375 10.56640625 C-17.78125 7.69140625 -17.78125 7.69140625 -17.34375 4.56640625 C-12.83309076 -0.98223144 -6.5533042 -0.02798251 0 0 Z " fill="#EAD100" transform="translate(314.34375,371.43359375)"/>
<path d="M0 0 C3.4375 1.5625 3.4375 1.5625 6 4 C7.1104224 9.88523873 5.11690674 13.22723655 2 18 C2.68707031 18.10957031 3.37414062 18.21914062 4.08203125 18.33203125 C5.43361328 18.56986328 5.43361328 18.56986328 6.8125 18.8125 C7.70582031 18.96332031 8.59914063 19.11414063 9.51953125 19.26953125 C12.21624127 20.0636805 13.26818518 20.8283592 15 23 C15.875 24.875 15.875 24.875 16 27 C14.35923508 30.44560634 13.21487558 31.85674962 10 34 C5.55586634 34.44552222 1.08898787 34.3241008 -3.375 34.3125 C-5.22351563 34.33666992 -5.22351563 34.33666992 -7.109375 34.36132812 C-8.89214844 34.36229492 -8.89214844 34.36229492 -10.7109375 34.36328125 C-12.33974854 34.36775269 -12.33974854 34.36775269 -14.00146484 34.37231445 C-17.40740011 33.94941498 -19.2657747 33.04536539 -22 31 C-23.53125 28.2734375 -23.53125 28.2734375 -24 25 C-22.96958989 22.2502428 -21.97198864 20.11228418 -20.5 17.625 C-20.1285083 16.96669189 -19.7570166 16.30838379 -19.37426758 15.63012695 C-9.82296822 -0.99894592 -9.82296822 -0.99894592 0 0 Z " fill="#EAD100" transform="translate(270,175)"/>
<path d="M0 0 C3.25375827 1.83023903 4.56956869 3.06739882 6.125 6.4375 C6 9 6 9 3.6875 11.75 C0.290688 14.59384261 -1.05759257 15.20490156 -5.375 14.875 C-8.8334785 14.4343229 -9.85054618 14.12454485 -12.625 11.8125 C-14 9 -14 9 -14 5.875 C-13 3 -13 3 -11.5 1.125 C-7.67104211 -0.59803105 -4.12398206 -0.6616014 0 0 Z " fill="#EAD100" transform="translate(311,84)"/>
<path d="M0 0 C2.5 1.6875 2.5 1.6875 4 4 C4.5625 7 4.5625 7 4 10 C1.5111518 12.70845245 -0.44224885 13.82199431 -3.9375 14.9375 C-7.74912637 15.01528829 -9.77844591 13.97686274 -13 12 C-15 10 -15 10 -15.4375 7.125 C-15 4 -15 4 -12.625 1.6875 C-8.17849771 -1.17096575 -5.11724467 -1.29448087 0 0 Z " fill="#EAD100" transform="translate(242,346)"/>
<path d="M0 0 C3 2.1875 3 2.1875 5 5 C5.0625 8.125 5.0625 8.125 4 11 C1.07136049 13.75905237 -1.00794934 14.43141456 -5 14.4375 C-8.4197035 14.33173597 -9.68318419 14.21636202 -12.5625 12.25 C-13.99436909 10.0088136 -14.83438913 8.64977397 -15 6 C-14.14241142 2.85550855 -13.04050481 2.0273172 -10.3125 0.1875 C-6.25633825 -1.26659572 -4.1291489 -1.20120695 0 0 Z " fill="#EAD100" transform="translate(83,327)"/>
</svg>
