<svg id="Capa_1" data-name="Capa 1" xmlns="http://www.w3.org/2000/svg" viewBox="0 0 60.53 25.81"><defs><style>.cls-1{isolation:isolate;}.cls-2{fill:#fff;}.cls-3{fill:#f29100;}.cls-4{fill:#f9bf79;}</style></defs><title>logo-blanco</title><g class="cls-1"><path class="cls-2" d="M15.53,14.69a5,5,0,0,1,2.29.51,3.73,3.73,0,0,1,1.59,1.56A5.5,5.5,0,0,1,20,19.45v6.16H16.87V19.93A2.75,2.75,0,0,0,16.3,18a2.09,2.09,0,0,0-1.61-.62,2.78,2.78,0,0,0-1.33.31,2.17,2.17,0,0,0-.92.95,3.57,3.57,0,0,0-.33,1.64v5.32H9V14.85h3v3l-.56-.9a4,4,0,0,1,1.66-1.66A5.08,5.08,0,0,1,15.53,14.69Z" transform="translate(-0.02 0.01)"/></g><g class="cls-1"><path class="cls-2" d="M28.23,25.77A6.93,6.93,0,0,1,25,25.05a5.23,5.23,0,0,1-2.91-4.82,5.46,5.46,0,0,1,.75-2.87,5.29,5.29,0,0,1,2.05-2,6.09,6.09,0,0,1,2.94-.71,6,6,0,0,1,2.85.67,5,5,0,0,1,2,1.92,5.79,5.79,0,0,1,.74,3c0,.12,0,.26,0,.41s0,.3,0,.43H24.63V19.29h7.1l-1.2.54a3,3,0,0,0-.34-1.46,2.51,2.51,0,0,0-.94-1,2.77,2.77,0,0,0-1.4-.35,2.83,2.83,0,0,0-1.41.35,2.42,2.42,0,0,0-1,1,3.06,3.06,0,0,0-.34,1.49v.48a3,3,0,0,0,.39,1.55,2.52,2.52,0,0,0,1.1,1,3.77,3.77,0,0,0,1.67.35A4.12,4.12,0,0,0,29.82,23,3.61,3.61,0,0,0,31,22.23L32.67,24a4.79,4.79,0,0,1-1.86,1.29A6.91,6.91,0,0,1,28.23,25.77Z" transform="translate(-0.02 0.01)"/><path class="cls-2" d="M35.51,25.61V10.77h3.12V25.61Z" transform="translate(-0.02 0.01)"/><path class="cls-2" d="M44.85,25.77a4.93,4.93,0,0,1-2.16-.43,3.33,3.33,0,0,1-1.38-1.17,3,3,0,0,1-.48-1.66,2.83,2.83,0,0,1,2-2.81,7.32,7.32,0,0,1,2.66-.41h2.86v1.82H45.79a2.35,2.35,0,0,0-1.51.36,1.16,1.16,0,0,0-.41.9,1.13,1.13,0,0,0,.47.95,2.13,2.13,0,0,0,1.29.35A2.64,2.64,0,0,0,47,23.3a2.17,2.17,0,0,0,.9-1.09l.48,1.44a2.81,2.81,0,0,1-1.24,1.58A4.45,4.45,0,0,1,44.85,25.77Zm3.28-.16v-2.1l-.2-.46V19.29a2,2,0,0,0-.61-1.56,2.71,2.71,0,0,0-1.87-.56,5.43,5.43,0,0,0-1.69.27,4.47,4.47,0,0,0-1.41.73L41.23,16a6.9,6.9,0,0,1,2.12-1,9.39,9.39,0,0,1,2.52-.34,5.73,5.73,0,0,1,3.82,1.16,4.49,4.49,0,0,1,1.36,3.62v6.14Z" transform="translate(-0.02 0.01)"/><path class="cls-2" d="M53.87,25.61V14.85h3v3L56.43,17A3.43,3.43,0,0,1,58,15.28a5.29,5.29,0,0,1,2.58-.59v2.88l-.36,0h-.34a2.65,2.65,0,0,0-2.86,3v5.08Z" transform="translate(-0.02 0.01)"/></g><path class="cls-3" d="M6.1,3.5A2.89,2.89,0,0,1,3.5,6.6H3.3c-1.6,0-4.4-3-2.8-3.1C4.8,3.2,2-.7,3.5.1,5.2,1.1,5.9,1.8,6.1,3.5Z" transform="translate(-0.02 0.01)"/><rect class="cls-2" x="2.08" y="10.81" width="3.7" height="15"/><path class="cls-4" d="M7.6,6.2A3.49,3.49,0,0,1,4,9.3C2,9.3.5,8,.5,6.5.5,5.2,4.3,9,5.6,6,6.9,2.7,7.6,4.7,7.6,6.2Z" transform="translate(-0.02 0.01)"/></svg>