<?xml version="1.0" encoding="UTF-8"?>
<svg version="1.1" xmlns="http://www.w3.org/2000/svg" width="845" height="845">
<path d="M0 0 C1.31871094 1.03060547 1.31871094 1.03060547 2.6640625 2.08203125 C8.68099478 6.80429854 14.3527522 11.84534702 20 17 C21.70805031 18.52115119 23.41638188 20.04198663 25.125 21.5625 C32.23855474 27.97471836 38.78565116 34.71891663 45 42 C45.80050781 42.91136719 46.60101562 43.82273437 47.42578125 44.76171875 C73.08598857 74.1844754 92.47140011 109.10272005 105 146 C105.31807617 146.93102539 105.63615234 147.86205078 105.96386719 148.82128906 C132.21274482 226.90964289 124.48186358 312.7074053 88.1875 386.25 C76.09365237 410.14419302 60.92077776 432.11158918 43 452 C42.48663086 452.56976562 41.97326172 453.13953125 41.44433594 453.7265625 C33.06477774 462.98299088 24.50576808 471.88689982 15 480 C13.63294922 481.20076172 13.63294922 481.20076172 12.23828125 482.42578125 C-7.88944295 499.97959451 -30.78411733 514.83358578 -55.01708984 526.07421875 C-57.14449115 527.06746004 -59.25282941 528.09627571 -61.36328125 529.125 C-134.41540298 564.05101701 -222.71868216 566.20835667 -298.74804688 540.0546875 C-304.90077027 537.86902691 -310.96597364 535.4933317 -317 533 C-317.81887695 532.66274902 -318.63775391 532.32549805 -319.48144531 531.97802734 C-362.18756419 514.14572602 -403.20788454 484.61486288 -433 449 C-433.45358887 448.46020508 -433.90717773 447.92041016 -434.37451172 447.36425781 C-446.59475677 432.76557581 -457.56341587 417.54057369 -467 401 C-467.4316748 400.25411621 -467.86334961 399.50823242 -468.30810547 398.73974609 C-509.62373091 327.12306203 -517.76824814 242.23345524 -497.44140625 162.7890625 C-491.7720066 141.70020824 -483.37217156 121.21170225 -473 102 C-472.62020996 101.28585937 -472.24041992 100.57171875 -471.84912109 99.8359375 C-454.30518517 66.93840804 -430.41457024 36.25161787 -402 12 C-401.08863281 11.19949219 -400.17726563 10.39898437 -399.23828125 9.57421875 C-379.11055705 -7.97959451 -356.21588267 -22.83358578 -331.98291016 -34.07421875 C-329.85550885 -35.06746004 -327.74717059 -36.09627571 -325.63671875 -37.125 C-237.26787347 -79.3739001 -126.31482373 -74.31997391 0 0 Z M-321 60 C-321.9590625 60.66644531 -322.918125 61.33289063 -323.90625 62.01953125 C-334.96220094 69.89223789 -345.13570463 78.70373288 -355 88 C-355.7321875 88.68964844 -356.464375 89.37929688 -357.21875 90.08984375 C-362.62945506 95.33951592 -367.36771681 101.0592472 -372 107 C-372.42152344 107.53979492 -372.84304688 108.07958984 -373.27734375 108.63574219 C-396.22046791 138.26777421 -412.67214548 173.72914191 -418 211 C-418.17225098 212.14911865 -418.34450195 213.2982373 -418.52197266 214.48217773 C-419.95415344 224.78227399 -420.40107748 234.91943777 -420.375 245.3125 C-420.37445618 246.1360498 -420.37391235 246.95959961 -420.37335205 247.80810547 C-420.19326035 307.56973597 -395.43164409 362.76953078 -353.9375 405.3125 C-349.7477889 409.40851149 -345.33772084 413.15022417 -340.75390625 416.796875 C-338.98498761 418.21200991 -337.24002543 419.65792428 -335.52734375 421.140625 C-290.34062801 459.97186758 -229.54318299 473.09454266 -171.43701172 469.79785156 C-124.22575211 465.85303561 -76.82758561 445.31702424 -42.14453125 412.9921875 C-40.20782568 411.19306211 -38.21851264 409.50290804 -36.1875 407.8125 C-19.28545376 392.98078473 -6.09906836 374.40940449 5 355 C5.40202637 354.30438965 5.80405273 353.6087793 6.21826172 352.89208984 C20.11931543 328.61540429 27.86725821 301.54600061 32 274 C32.1038501 273.33661621 32.2077002 272.67323242 32.31469727 271.98974609 C39.73758941 216.89598494 23.21529504 158.09842027 -9.78857422 113.77124023 C-11.80444829 111.135816 -13.88864876 108.55892608 -16 106 C-16.46374023 105.43474609 -16.92748047 104.86949219 -17.40527344 104.28710938 C-52.12902113 62.21037036 -102.59929471 31.7938551 -157 24 C-158.13171631 23.82774902 -159.26343262 23.65549805 -160.42944336 23.47802734 C-171.23940407 21.95915517 -181.90458894 21.59989724 -192.8125 21.625 C-194.15436874 21.62581573 -194.15436874 21.62581573 -195.52334595 21.62664795 C-239.93841744 21.75016176 -284.35730381 34.4539966 -321 60 Z " fill="#2C376C" transform="translate(627,175)"/>
<path d="M0 0 C1.64874367 -0.00855011 1.64874367 -0.00855011 3.33079529 -0.01727295 C5.65110328 -0.0266667 7.97142428 -0.03323436 10.29174805 -0.03710938 C13.74748847 -0.04670532 17.20260451 -0.07773802 20.65820312 -0.109375 C40.79565278 -0.20541479 60.74180135 1.50258306 80.49609375 5.515625 C82.08973755 5.83200928 82.08973755 5.83200928 83.71557617 6.15478516 C94.3712201 8.33180443 104.83758221 11.05780171 115.24609375 14.203125 C116.11008789 14.46319336 116.97408203 14.72326172 117.86425781 14.99121094 C137.77372825 21.08107891 156.85826936 29.46545012 175.24609375 39.203125 C175.95008301 39.57373047 176.65407227 39.94433594 177.37939453 40.32617188 C254.39997279 81.15472096 312.48566162 152.97152196 338.53125 235.86108398 C346.71530928 262.92176126 352.32427744 291.40061928 352.44921875 319.73828125 C352.45627838 320.80686371 352.46333801 321.87544617 352.47061157 322.97640991 C352.69797445 367.48178441 352.69797445 367.48178441 349.24609375 386.203125 C349.03678223 387.36166992 348.8274707 388.52021484 348.61181641 389.71386719 C345.70181229 405.45219092 342.11027199 420.95202709 337.24609375 436.203125 C336.99279297 437.00411621 336.73949219 437.80510742 336.47851562 438.63037109 C321.97092651 483.83478254 297.12453398 524.23076336 265.24609375 559.203125 C263.72510123 560.9113166 262.20426737 562.61964949 260.68359375 564.328125 C254.98495698 570.65005017 249.0714253 576.64101929 242.60546875 582.1796875 C240.809479 583.71995686 239.03137493 585.28110846 237.26171875 586.8515625 C181.42471986 636.10786059 104.13611338 668.09553889 29.4921875 668.40625 C28.39302505 668.41195007 27.29386261 668.41765015 26.16139221 668.42352295 C23.84108422 668.4329167 21.52076322 668.43948436 19.20043945 668.44335938 C15.74469903 668.45295532 12.28958299 668.48398802 8.83398438 668.515625 C-35.16912602 668.72508603 -78.21423265 659.10253576 -118.75390625 642.203125 C-119.64368164 641.83606445 -120.53345703 641.46900391 -121.45019531 641.09082031 C-154.87503562 627.1627416 -185.98264009 606.49797684 -212.75390625 582.203125 C-213.36685547 581.65188965 -213.97980469 581.1006543 -214.61132812 580.53271484 C-228.4628536 568.03967665 -241.25649673 554.73348108 -252.50390625 539.83837891 C-253.69715224 538.27737077 -254.92785962 536.74521213 -256.16015625 535.21484375 C-296.8632857 484.26985543 -322.66883941 414.03212119 -322.95703125 348.66796875 C-322.96409088 347.59938629 -322.97115051 346.53080383 -322.97842407 345.42984009 C-323.20578695 300.92446559 -323.20578695 300.92446559 -319.75390625 282.203125 C-319.54459473 281.04458008 -319.3352832 279.88603516 -319.11962891 278.69238281 C-316.20962479 262.95405908 -312.61808449 247.45422291 -307.75390625 232.203125 C-307.37395508 231.00163818 -307.37395508 231.00163818 -306.98632812 229.77587891 C-294.79871096 191.80030236 -275.31832545 155.83785293 -249.75390625 125.203125 C-249.31272461 124.66719727 -248.87154297 124.13126953 -248.41699219 123.57910156 C-236.56570085 109.18885637 -223.96478424 95.2995817 -209.75390625 83.203125 C-208.84382813 82.40390625 -207.93375 81.6046875 -206.99609375 80.78125 C-198.02666189 72.96289043 -188.50407039 66.0121419 -178.75390625 59.203125 C-178.10131836 58.74518555 -177.44873047 58.28724609 -176.77636719 57.81542969 C-166.83333462 50.87758674 -156.46444244 44.87481896 -145.75390625 39.203125 C-144.77067383 38.68153809 -144.77067383 38.68153809 -143.76757812 38.14941406 C-99.84569553 15.06227065 -49.86836471 0.20758092 0 0 Z M-130.75390625 45.203125 C-132.14464355 45.88810059 -132.14464355 45.88810059 -133.56347656 46.58691406 C-145.82591351 52.68993804 -157.45999349 59.45684304 -168.75390625 67.203125 C-169.35750977 67.61385254 -169.96111328 68.02458008 -170.58300781 68.44775391 C-196.06014369 85.87467633 -221.12939811 107.51880446 -239.75390625 132.203125 C-240.77319499 133.50771869 -241.7941755 134.81099153 -242.81640625 136.11328125 C-294.97282 202.91531367 -319.16374086 287.37300531 -309.50390625 371.640625 C-299.63672236 450.88027863 -260.11748392 528.08057225 -197.94140625 579.203125 C-196.21726667 580.54295255 -194.48797002 581.87616684 -192.75390625 583.203125 C-191.75230469 584.02167969 -190.75070313 584.84023438 -189.71875 585.68359375 C-123.05869414 640.03641243 -35.42836239 663.68184053 49.62890625 655.36328125 C112.59783746 648.61119104 174.99770396 623.61086827 223.24609375 582.203125 C224.23480469 581.39746094 225.22351563 580.59179688 226.2421875 579.76171875 C234.08986724 573.31023026 241.36092943 566.30170614 248.55859375 559.140625 C249.47745361 558.23094971 250.39631348 557.32127441 251.34301758 556.3840332 C257.40247423 550.29722008 262.91080083 543.9291879 268.24609375 537.203125 C269.17529246 536.06884306 270.10596964 534.93576817 271.0390625 533.8046875 C309.26956849 486.28161154 332.1558538 428.58669963 339.24609375 368.203125 C339.38966309 367.07813599 339.38966309 367.07813599 339.53613281 365.93041992 C340.67010218 355.71758286 340.49005397 345.40252473 340.49609375 335.140625 C340.49676849 334.11223511 340.49744324 333.08384521 340.49813843 332.02429199 C340.48165998 316.20559552 339.90919955 300.82841111 337.24609375 285.203125 C336.98868408 283.62192871 336.98868408 283.62192871 336.72607422 282.00878906 C324.21593169 206.50074379 283.23224962 132.45208364 222.24609375 85.203125 C221.17923818 84.31615998 220.11563426 83.42527447 219.0546875 82.53125 C202.93449749 69.06833366 184.90459514 57.80305745 166.24609375 48.203125 C165.33730469 47.73310059 164.42851563 47.26307617 163.4921875 46.77880859 C120.17596584 24.608805 71.88643469 12.52517277 23.24609375 11.203125 C21.94800781 11.161875 20.64992188 11.120625 19.3125 11.078125 C-32.74557278 10.25262533 -84.14350418 22.24053034 -130.75390625 45.203125 Z " fill="#333331" transform="translate(418.75390625,86.796875)"/>
<path d="M0 0 C3.79172079 2.90429677 5.53759531 5.51683504 7 10 C7.31562424 13.14644241 7.31562424 13.14644241 7.40692139 16.72442627 C7.42577534 17.37837608 7.4446293 18.03232589 7.46405458 18.70609236 C7.52319335 20.86285487 7.56820404 23.01963913 7.61230469 25.17675781 C7.64975559 26.70636551 7.68759796 28.23596367 7.725811 29.76555252 C8.09104225 45.14986543 8.18099045 60.53565986 8.20018864 75.92373562 C8.20318329 78.21650597 8.2072961 80.50927203 8.21169281 82.8020401 C8.22519891 90.02181802 8.2349628 97.24158538 8.2388947 104.461375 C8.24342422 112.72103851 8.26126456 120.98054059 8.2898953 129.24015498 C8.31149409 135.6986336 8.32159695 142.15706645 8.32293582 148.6155808 C8.32397918 152.44612445 8.32979468 156.27651263 8.34775543 160.10701752 C8.36421913 163.68286933 8.3664003 167.25844768 8.35761642 170.83432388 C8.35648091 172.76278935 8.37018494 174.69124579 8.3843689 176.61965942 C8.35196571 183.33356538 8.27636188 188.59762421 3.375 193.6875 C1.04658276 194.9742569 -1.12448166 195.75959321 -3.6484375 196.58203125 C-4.86926025 196.98192261 -4.86926025 196.98192261 -6.11474609 197.38989258 C-6.73687988 197.59122803 -7.35901367 197.79256348 -8 198 C-5.90712799 213.98974202 -3.49997654 229.92035498 -0.97889137 245.8477478 C-0.31623054 250.03451463 0.34235001 254.22191767 1.00032043 258.40942383 C2.86869449 270.29649493 4.74222766 282.18274933 6.61987305 294.06835938 C7.6637473 300.67637599 8.70431998 307.28490419 9.7413519 313.89399815 C10.39408564 318.05264608 11.05089623 322.21062237 11.71081769 326.36813545 C12.21479082 329.55083416 12.71276475 332.73447231 13.21166992 335.91796875 C13.39397156 337.05872864 13.57627319 338.19948853 13.76409912 339.37481689 C13.92804672 340.42828308 14.09199432 341.48174927 14.26091003 342.56713867 C14.47629567 343.93185555 14.47629567 343.93185555 14.69603252 345.32414246 C15.02683237 348.23620813 15.05084425 351.07167668 15 354 C8.03139814 353.83443926 1.65226889 352.5253833 -5 350.5625 C-5.7417749 350.34505127 -6.4835498 350.12760254 -7.24780273 349.90356445 C-10.53502225 348.89962882 -13.12148414 347.91901057 -16 346 C-16.6465807 343.91083336 -16.6465807 343.91083336 -17.03242493 341.29476929 C-17.25876633 339.82422309 -17.25876633 339.82422309 -17.48968029 338.32396889 C-17.64044175 337.2533238 -17.79120321 336.18267872 -17.9465332 335.07958984 C-18.19785366 333.40338593 -18.19785366 333.40338593 -18.45425129 331.69331932 C-18.98390256 328.13081767 -19.49369372 324.56588808 -20 321 C-20.31985541 318.78946629 -20.63986944 316.57895552 -20.96005249 314.36846924 C-21.77520881 308.69329392 -22.56897383 303.01531813 -23.35548973 297.33610916 C-23.8702864 293.61958804 -24.38841207 289.90354315 -24.90730286 286.18759155 C-26.19094912 276.99050838 -27.46944684 267.79271068 -28.74749756 258.59484863 C-29.83771615 250.7495067 -30.93027301 242.90449746 -32.02596474 235.05991745 C-32.53619208 231.40017002 -33.04307091 227.73996864 -33.54985046 224.07974243 C-33.8601288 221.85603476 -34.17056989 219.6323498 -34.48120117 217.40869141 C-34.62093353 216.39276917 -34.76066589 215.37684692 -34.90463257 214.33013916 C-35.03485306 213.4029306 -35.16507355 212.47572205 -35.29924011 211.52041626 C-35.41111255 210.7149769 -35.52298498 209.90953754 -35.63824749 209.07969093 C-35.97906579 206.81451625 -35.97906579 206.81451625 -37 204 C-38.32 204 -39.64 204 -41 204 C-41.33 247.23 -41.66 290.46 -42 335 C-48.75178037 332.74940654 -48.75178037 332.74940654 -51.875 330.35546875 C-52.88820313 329.58686523 -52.88820313 329.58686523 -53.921875 328.80273438 C-54.95054687 328.00319336 -54.95054687 328.00319336 -56 327.1875 C-57.02867187 326.40536133 -57.02867187 326.40536133 -58.078125 325.60742188 C-69.59910714 316.80178571 -69.59910714 316.80178571 -71 314 C-71.10546551 312.47327259 -71.14908026 310.94207698 -71.1621542 309.41176701 C-71.17277903 308.43921784 -71.18340386 307.46666866 -71.19435066 306.46464831 C-71.20098749 305.38851178 -71.20762433 304.31237526 -71.21446228 303.20362854 C-71.22519463 302.06628625 -71.23592697 300.92894397 -71.24698454 299.75713676 C-71.27555101 296.59046758 -71.29950884 293.42380312 -71.32129228 290.25708115 C-71.34071117 287.54309445 -71.36375135 284.82914286 -71.38668614 282.11518396 C-71.60301382 256.37174601 -71.71616307 230.62741894 -71.80750179 204.88327122 C-71.81960972 201.53033427 -71.83194332 198.17739825 -71.84448242 194.82446289 C-71.84758927 193.99110717 -71.85069611 193.15775145 -71.8538971 192.29914253 C-71.90568848 178.81059306 -72.0098517 165.32294907 -72.13427465 151.8348955 C-72.26098005 137.98424837 -72.33443702 124.13407157 -72.35790926 110.28286022 C-72.37254603 102.50673266 -72.41118 94.7323034 -72.51078606 86.9567585 C-72.59565047 80.33137018 -72.63289462 73.70787205 -72.60853248 67.08194721 C-72.59760388 63.70193719 -72.61669833 60.32933977 -72.6823349 56.94945908 C-73.07551321 35.61502481 -73.07551321 35.61502481 -67.93445015 30.01360893 C-64.57031873 27.06638014 -60.96736341 25.03932625 -57 23 C-55.47564877 21.95737151 -53.96223547 20.8978212 -52.4765625 19.80078125 C-51.19891158 18.96183016 -49.91513082 18.13212996 -48.625 17.3125 C-47.92294434 16.86318115 -47.22088867 16.4138623 -46.49755859 15.95092773 C-14.91818854 -3.88938487 -14.91818854 -3.88938487 0 0 Z M-32.6875 38.375 C-33.36361328 38.7875 -34.03972656 39.2 -34.73632812 39.625 C-37.38423483 41.25853449 -39.79286339 42.79286339 -42 45 C-42.30414184 47.26236626 -42.30414184 47.26236626 -42.25396729 49.92111206 C-42.25960693 50.96143585 -42.26524658 52.00175964 -42.27105713 53.0736084 C-42.26700867 54.21962524 -42.26296021 55.36564209 -42.25878906 56.54638672 C-42.2622937 57.74969635 -42.26579834 58.95300598 -42.26940918 60.19277954 C-42.27671885 63.4986971 -42.27498327 66.80436532 -42.26865101 70.11026907 C-42.26359531 73.56774836 -42.26828148 77.02521683 -42.27142334 80.48269653 C-42.27506522 86.29170651 -42.27025912 92.1006657 -42.26074219 97.90966797 C-42.24986742 104.62500776 -42.25337516 111.34022603 -42.264395 118.05556285 C-42.27347379 123.8186859 -42.27474995 129.58177237 -42.26951766 135.34490025 C-42.26639989 138.78792571 -42.26598308 142.23089408 -42.27259064 145.67391586 C-42.27944531 149.51426659 -42.26994158 153.35448152 -42.25878906 157.19482422 C-42.26283752 158.3367926 -42.26688599 159.47876099 -42.27105713 160.65533447 C-42.26541748 161.70129791 -42.25977783 162.74726135 -42.25396729 163.82492065 C-42.25321323 164.73305449 -42.25245918 165.64118832 -42.25168228 166.57684135 C-41.98474344 169.14688783 -41.29925744 170.78658673 -40 173 C-33.40912571 173.44937779 -27.25654835 172.06969278 -21 170 C-17.42744048 166.42744048 -17.87508824 161.34549079 -17.86628723 156.50848389 C-17.86202225 155.44294281 -17.85775726 154.37740173 -17.85336304 153.27957153 C-17.85404282 151.54935257 -17.85404282 151.54935257 -17.85473633 149.78417969 C-17.85137772 148.55756622 -17.8480191 147.33095276 -17.84455872 146.06716919 C-17.83670516 142.71623839 -17.83338241 139.36536956 -17.83274293 136.01443386 C-17.8320309 133.9208468 -17.82989382 131.82726618 -17.82724571 129.73368073 C-17.81800938 122.43052255 -17.8139092 115.12738258 -17.81469727 107.82421875 C-17.81529953 101.01333401 -17.80471429 94.20252809 -17.7889536 87.39166331 C-17.77589838 81.54187419 -17.77051243 75.69211092 -17.77115268 69.84230733 C-17.771408 66.3490949 -17.76853697 62.85595275 -17.75797462 59.36275482 C-17.74653679 55.47455217 -17.75102797 51.58645897 -17.75708008 47.69824219 C-17.75146057 46.53666595 -17.74584106 45.37508972 -17.74005127 44.17831421 C-17.74424576 43.12405243 -17.74844025 42.06979065 -17.75276184 40.98358154 C-17.75221707 40.06405071 -17.75167231 39.14451988 -17.75111103 38.19712448 C-17.79247141 35.79218092 -17.79247141 35.79218092 -20 34 C-25.08697387 33.05487917 -28.5674864 35.76952098 -32.6875 38.375 Z " fill="#262623" transform="translate(383,246)"/>
<path d="M0 0 C3.00059529 -0.08300827 5.99877204 -0.14142852 9 -0.1875 C10.22976563 -0.22520508 10.22976563 -0.22520508 11.484375 -0.26367188 C17.29100631 -0.32965632 22.69650364 0.39965061 28.37109375 1.51831055 C29.10743042 1.66007469 29.84376709 1.80183884 30.60241699 1.94789886 C32.40231618 2.2949636 34.20126031 2.64697515 36 3 C39.33472179 31.29783348 42.29443947 59.63207551 45.2232821 87.9743526 C45.88998006 94.42209001 46.55879463 100.86960793 47.2273407 107.31715393 C48.35228685 118.16841797 49.47580928 129.01982877 50.59838867 139.87133789 C51.73479379 150.856464 52.8720732 161.84149903 54.01049805 172.82641602 C54.08022045 173.4991954 54.14994285 174.17197479 54.22177805 174.86514144 C54.57263989 178.25072456 54.92351462 181.63630636 55.27439523 185.02188754 C57.04898108 202.14465459 58.82301772 219.26747785 60.5930481 236.39071655 C60.78774466 238.27418362 60.78774466 238.27418362 60.9863745 240.19570053 C61.49778434 245.14319726 62.00917736 250.09069572 62.52048516 255.038203 C64.03460549 269.68797801 65.55444696 284.33713461 67.08337033 298.98537195 C67.59259318 303.86772016 68.10001033 308.75025627 68.60718101 313.63281804 C69.051852 317.91184764 69.4994403 322.19055692 69.94956064 326.46901655 C70.27411582 329.56246732 70.59412489 332.65638859 70.91479492 335.75024414 C71.02757215 336.81185572 71.14034939 337.87346729 71.25654411 338.96724892 C71.77476683 344.01002113 72.12293438 348.93059537 72 354 C63.23923975 357.99364386 53.78321348 362 44 362 C42.89937384 351.86018874 41.84407303 341.71578242 40.875 331.5625 C40.78750488 330.68899902 40.70000977 329.81549805 40.60986328 328.91552734 C39.98183961 322.18922952 40 315.83544698 40 309 C29.77 309.33 19.54 309.66 9 310 C9 314.62 9 319.24 9 324 C8.84162706 327.58846432 8.65972968 331.15688903 8.4140625 334.73828125 C8.35221771 335.67053024 8.29037292 336.60277924 8.22665405 337.5632782 C8.09631743 339.49995668 7.9634716 341.43646793 7.828125 343.37280273 C7.62230895 346.35144588 7.43205467 349.3308494 7.2421875 352.31054688 C7.11291866 354.2031894 6.98274498 356.0957704 6.8515625 357.98828125 C6.79626373 358.87977371 6.74096497 359.77126617 6.68399048 360.68977356 C6.52899932 362.79981833 6.27458786 364.90216476 6 367 C2.55079966 368.72460017 -1.32481337 368.18462977 -5.125 368.1875 C-5.95515625 368.19974609 -6.7853125 368.21199219 -7.640625 368.22460938 C-13.10054105 368.23744617 -17.75716086 367.53168395 -23 366 C-23.10037827 355.72128704 -22.86042393 345.5418316 -22.17152405 335.28019714 C-22.08105284 333.87594872 -21.99103564 332.47167099 -21.9014253 331.06736737 C-21.65713656 327.25930984 -21.4065051 323.45169383 -21.15471327 319.64412606 C-20.88302946 315.51829474 -20.61738936 311.39207348 -20.35096741 307.26589966 C-19.82949931 299.20419602 -19.30257879 291.14285778 -18.77380354 283.08163049 C-18.15749095 273.68239118 -17.54683803 264.28278668 -16.9364404 254.8831617 C-15.84696153 238.10876553 -14.75267011 221.33468688 -13.65551758 204.56079102 C-12.59214121 188.30318298 -11.53173838 172.04538488 -10.47485352 155.78735352 C-10.40970502 154.78518503 -10.34455652 153.78301654 -10.27743382 152.7504793 C-10.01552731 148.72153177 -9.75362341 144.69258407 -9.49172736 140.66363586 C-8.48247393 125.1389273 -7.470963 109.61436572 -6.45903378 94.08983138 C-6.15382404 89.40736042 -5.84871341 84.72488306 -5.54383397 80.04239058 C-4.90317487 70.20308592 -4.26173806 60.36383323 -3.61776597 50.52474477 C-3.35164626 46.45860514 -3.08594701 42.39243934 -2.82146454 38.32619286 C-2.57900186 34.59880597 -2.33521203 30.87150826 -2.0903905 27.14427558 C-1.96096468 25.1689064 -1.83289708 23.19344838 -1.70488983 21.21798676 C-1.23799072 14.1342198 -0.68462221 7.06615518 0 0 Z M19 114 C17.82416743 134.87076488 16.65057282 155.74165453 15.47963715 176.61269474 C14.93589111 186.30362408 14.39141477 195.99451136 13.84521484 205.68530273 C13.36911043 214.13247819 12.89438069 222.57972959 12.4212966 231.02707475 C12.17079095 235.49922252 11.91960044 239.97132942 11.66676331 244.44334602 C11.42868663 248.65467493 11.19245162 252.86610316 10.95761299 257.07761383 C10.87122068 258.62115454 10.78416246 260.16465815 10.69637871 261.70812035 C10.57633018 263.82066183 10.4587119 265.93332561 10.3416748 268.04603577 C10.27530571 269.22685258 10.20893661 270.40766939 10.14055634 271.62426853 C9.99666199 275.08016863 10 278.54110551 10 282 C19.24 281.67 28.48 281.34 38 281 C36.32527461 260.24197225 34.64784841 239.48416475 32.96684361 218.72664452 C32.18639048 209.08854493 31.40689141 199.45036996 30.62963867 189.81201172 C29.95217483 181.41112054 29.27292054 173.01037637 28.59151691 164.6098038 C28.23079141 160.1618832 27.87096219 155.7138942 27.51327705 151.265728 C27.17650013 147.07793008 26.83732727 142.89033307 26.49632645 138.70287704 C26.3716846 137.16708999 26.24791363 135.63123197 26.12508583 134.09529877 C25.95701369 131.99524831 25.78578431 129.89547777 25.61378479 127.79574585 C25.51884011 126.62138159 25.42389544 125.44701733 25.32607365 124.23706627 C25.01264092 121.12549156 24.5516554 118.07742851 24 115 C22.35 114.67 20.7 114.34 19 114 Z " fill="#252522" transform="translate(432,236)"/>
<path d="M0 0 C4.02688123 1.284437 7.14135606 2.5422427 10.53125 5.08203125 C11.34207031 5.68466797 12.15289063 6.28730469 12.98828125 6.90820312 C13.81714844 7.53662109 14.64601563 8.16503906 15.5 8.8125 C16.32886719 9.42931641 17.15773438 10.04613281 18.01171875 10.68164062 C20.35713752 12.4360437 22.69218947 14.19635805 25 16 C26.003797 16.72038452 27.00759399 17.44076904 28.04180908 18.1829834 C31.42227908 21.02535496 32.02085902 23.49458882 32.66113281 27.89331055 C32.76735207 28.57086962 32.87357132 29.24842869 32.98300934 29.94651985 C33.32998551 32.19455033 33.64113327 34.44608962 33.953125 36.69921875 C34.1948449 38.30391713 34.43922852 39.90821623 34.68609619 41.51213074 C35.20750665 44.91807152 35.71597278 48.32559648 36.21557617 51.73480225 C37.36958969 59.55514849 38.6586662 67.3536196 39.93321228 75.15503311 C40.64507745 79.52230899 41.34770055 83.89106848 42.05078125 88.25976562 C42.19024925 89.12521059 42.32971725 89.99065556 42.47341156 90.88232613 C43.1924096 95.34449593 43.9096501 99.80694098 44.62451172 104.26977539 C45.33452753 108.70147244 46.04865859 113.13248938 46.76551056 117.56308556 C47.0333466 119.22333031 47.299674 120.88381924 47.56438446 122.5445652 C47.93062156 124.8413126 48.302117 127.13715311 48.67480469 129.43286133 C48.88320984 130.72992508 49.09161499 132.02698883 49.30633545 133.36335754 C50.00224574 137.01177365 50.92414702 140.44924486 52 144 C54.4757143 143.45378139 54.4757143 143.45378139 57 142 C58.4820847 139.27477017 58.4820847 139.27477017 59.375 135.75 C59.57287109 135.06744141 59.77074219 134.38488281 59.97460938 133.68164062 C65.66263694 113.40183412 69.84286934 92.63687177 74 72 C91.91513479 87.52645015 97.96566225 121.72966808 99.82128906 144.16552734 C102.76690026 190.88485254 90.9829939 241.41025361 60.109375 277.6484375 C53.6509086 284.84843153 53.6509086 284.84843153 51 287 C50.34 287 49.68 287 49 287 C48.77487131 281.41757808 48.61300025 275.83788299 48.50561523 270.25195312 C48.46078742 268.35858052 48.39969711 266.46551151 48.32104492 264.57324219 C47.84037535 252.69787624 48.32680309 244.5783069 55.72753906 234.98852539 C68.33275087 218.41134472 72.43186437 190.9899364 69.67578125 170.6015625 C69.45277344 170.07304687 69.22976563 169.54453125 69 169 C68.01 168.67 67.02 168.34 66 168 C65.82744186 168.66993484 65.65488373 169.33986969 65.47709656 170.03010559 C63.70842929 176.72488627 61.60519408 183.20603105 59.20703125 189.69921875 C58.85613937 190.6602803 58.5052475 191.62134186 58.14372253 192.61152649 C57.03750513 195.63840432 55.92512282 198.66297162 54.8125 201.6875 C54.05492711 203.75701089 53.29776198 205.8266711 52.54101562 207.89648438 C50.69871413 212.93272292 48.85136509 217.96708674 47 223 C46.34 223 45.68 223 45 223 C44.70230713 221.76846191 44.40461426 220.53692383 44.09790039 219.26806641 C42.99519794 214.70904193 41.88932058 210.15079261 40.7824707 205.59277344 C40.30341009 203.61804952 39.82521654 201.64311505 39.34790039 199.66796875 C38.66258693 196.83277786 37.97418244 193.99835306 37.28515625 191.1640625 C37.07157974 190.27756012 36.85800323 189.39105774 36.63795471 188.47769165 C36.43782272 187.65699188 36.23769073 186.83629211 36.03149414 185.99072266 C35.85606583 185.26680328 35.68063751 184.54288391 35.49989319 183.79702759 C35.03915009 181.91901194 35.03915009 181.91901194 34 180 C32.68 180.33 31.36 180.66 30 181 C30.0040642 181.63684219 30.0081284 182.27368439 30.01231575 182.92982483 C30.10789239 198.4466098 30.1480389 213.9624082 30.12697029 229.47943115 C30.11810931 236.98354761 30.12780722 244.48677243 30.18164062 251.99072266 C30.22853109 258.53351293 30.24014637 265.07526765 30.2099179 271.61817265 C30.19513752 275.08108215 30.19767073 278.54197569 30.24249649 282.00466919 C30.29195423 285.87634681 30.26262914 289.74531328 30.22705078 293.6171875 C30.2536528 294.75726761 30.28025482 295.89734772 30.30766296 297.07197571 C30.20894053 301.80641284 30.0559986 304.79661163 26.86088181 308.43768311 C24.32430519 310.50644743 21.78802802 312.28855824 19 314 C18.14673693 314.53362152 17.29347385 315.06724304 16.41435432 315.61703491 C14.16464475 316.98502295 11.88049439 318.2516982 9.5625 319.5 C8.77423828 319.94085937 7.98597656 320.38171875 7.17382812 320.8359375 C1.400888 324 1.400888 324 -2 324 C-2.17323286 280.45147804 -1.9039875 236.90642538 -1.5625 193.359375 C-1.55702683 192.66070509 -1.55155367 191.96203518 -1.54591465 191.24219346 C-1.40437787 173.18955214 -1.25769294 155.1369538 -1.10923576 137.08436823 C-1.02308771 126.60280474 -0.93833289 116.12123063 -0.85449219 105.63964844 C-0.8485182 104.89284277 -0.84254421 104.1460371 -0.83638918 103.37660095 C-0.80640236 99.627082 -0.776438 95.87756287 -0.74648476 92.12804365 C-0.5011326 61.41866722 -0.25188345 30.7093236 0 0 Z " fill="#262623" transform="translate(520,257)"/>
<path d="M0 0 C1.5397227 1.44135358 3.07256962 2.88962259 4.6027832 4.34106445 C5.10600098 4.81560059 5.60921875 5.29013672 6.12768555 5.77905273 C41.54734184 39.39867503 66.30070364 90.50795679 67.77978516 139.62207031 C67.80583972 141.09992777 67.8260497 142.57789735 67.84106445 144.0559082 C67.85085831 144.86078674 67.86065216 145.66566528 67.8707428 146.49493408 C68.35993131 197.17206382 55.83851128 245.28059555 23.6027832 285.34106445 C22.39428711 286.85506836 22.39428711 286.85506836 21.16137695 288.3996582 C9.87491992 302.26978779 -2.84727669 314.92216617 -17.3972168 325.34106445 C-18.05351074 325.81463379 -18.70980469 326.28820312 -19.38598633 326.77612305 C-54.43378659 351.791439 -95.34512794 365.82213739 -138.3972168 367.34106445 C-140.10458008 367.40293945 -140.10458008 367.40293945 -141.84643555 367.46606445 C-200.93820328 368.50618358 -254.82148402 345.51332844 -297.3972168 305.34106445 C-298.2531543 304.53926758 -299.1090918 303.7374707 -299.9909668 302.91137695 C-334.58594375 269.52065552 -358.29533769 218.36938038 -359.55834961 170.16430664 C-359.577808 168.738915 -359.59161567 167.3134372 -359.6003418 165.88793945 C-359.60735611 165.11387253 -359.61437042 164.3398056 -359.62159729 163.5422821 C-359.63899413 161.05848288 -359.64544961 158.57492237 -359.6472168 156.09106445 C-359.64789154 155.24069611 -359.64856628 154.39032776 -359.64926147 153.51419067 C-359.63292857 140.55517186 -359.08529831 128.05653665 -356.3972168 115.34106445 C-356.1477832 114.08664551 -356.1477832 114.08664551 -355.89331055 112.80688477 C-352.0451999 93.73023256 -345.69243939 75.35728116 -336.41821289 58.23120117 C-335.38644245 56.32111825 -334.38583351 54.39666805 -333.38549805 52.4699707 C-325.06691998 36.7677275 -314.29107847 22.50226595 -301.85620117 9.83081055 C-300.38029288 8.32378371 -298.92734846 6.79688077 -297.4753418 5.2668457 C-234.96939025 -59.82276819 -131.80895275 -73.80384993 0 0 Z M-278.3972168 4.34106445 C-279.83194336 5.5959668 -279.83194336 5.5959668 -281.2956543 6.8762207 C-318.70060905 40.03377065 -342.52043982 86.49170455 -347.3972168 136.34106445 C-347.55239312 139.07956239 -347.606229 141.81342164 -347.63549805 144.5559082 C-347.64533722 145.32031723 -347.65517639 146.08472626 -347.66531372 146.87229919 C-348.00511094 180.17347886 -343.36345155 211.21629507 -328.3972168 241.34106445 C-328.01162598 242.12852051 -327.62603516 242.91597656 -327.22875977 243.72729492 C-321.83441871 254.66177004 -315.83883006 264.6854175 -308.3972168 274.34106445 C-307.73077148 275.21891602 -307.06432617 276.09676758 -306.37768555 277.0012207 C-301.09421686 283.79117741 -295.2901116 290.08258386 -289.3972168 296.34106445 C-288.74108398 297.05133789 -288.08495117 297.76161133 -287.40893555 298.4934082 C-253.56755917 333.92902501 -201.45443434 354.11148796 -153.1237793 355.55981445 C-109.05185901 356.4032505 -64.16230139 344.98656195 -28.3972168 318.34106445 C-27.85871094 317.94097168 -27.32020508 317.54087891 -26.76538086 317.12866211 C-17.79025901 310.40868483 -9.5032894 303.07715034 -1.3972168 295.34106445 C-0.74366211 294.74036133 -0.09010742 294.1396582 0.58325195 293.52075195 C6.64895056 287.78643355 11.57944954 280.97853925 16.6027832 274.34106445 C17.03526367 273.77468262 17.46774414 273.20830078 17.91333008 272.62475586 C33.1269323 252.57632243 43.60202813 229.7798232 50.0402832 205.46606445 C50.26296875 204.625354 50.4856543 203.78464355 50.71508789 202.91845703 C54.57849141 187.25500479 56.16108034 171.75512388 56.0402832 155.65356445 C56.03724182 154.78565277 56.03420044 153.91774109 56.03106689 153.02352905 C55.95777615 138.81571108 54.97357299 125.19095306 51.6027832 111.34106445 C51.29727539 110.03661377 51.29727539 110.03661377 50.9855957 108.70581055 C38.75789752 57.80424286 5.83099713 13.39170145 -38.47143555 -14.2331543 C-112.83181581 -59.53732832 -212.40792847 -54.42082563 -278.3972168 4.34106445 Z " fill="#333331" transform="translate(579.397216796875,265.658935546875)"/>
<path d="M0 0 C0.33 0 0.66 0 1 0 C1 80.85 1 161.7 1 245 C-10.21481847 235.38729845 -23.66634282 219.94232115 -25.39148998 204.49437714 C-25.39911515 203.25192482 -25.40674032 202.0094725 -25.41459656 200.72937012 C-25.42280436 200.03160162 -25.43101216 199.33383313 -25.43946868 198.61492014 C-25.46299725 196.29458617 -25.46536105 193.97474161 -25.4675293 191.65429688 C-25.47979041 189.98303347 -25.49324433 188.31177846 -25.50779724 186.64053345 C-25.54277516 182.11115041 -25.55809608 177.58191306 -25.56763434 173.05241203 C-25.57422405 170.21646723 -25.58457446 167.38056055 -25.59613991 164.54463196 C-25.63585863 154.63293079 -25.65788959 144.72134548 -25.66577148 134.80957031 C-25.67362836 125.60090359 -25.7227979 116.39307308 -25.79083699 107.18467283 C-25.84734999 99.2565241 -25.87269068 91.3286517 -25.87471896 83.40030336 C-25.87655117 78.67506882 -25.89091954 73.95071586 -25.93753624 69.22569275 C-25.98053179 64.77318156 -25.98438793 60.32224392 -25.95974159 55.86960983 C-25.95717893 54.24718342 -25.96795843 52.62466435 -25.99401855 51.00244522 C-26.30073473 30.66653498 -15.09960221 16.48549609 -1.78515625 1.80078125 C-1.19605469 1.20652344 -0.60695313 0.61226563 0 0 Z " fill="#242421" transform="translate(292,297)"/>
<path d="M0 0 C5.37499747 3.39877019 8.46991135 7.54707871 10.46484375 13.55859375 C11.4240982 21.44455764 10.61226418 28.69516349 6.46484375 35.55859375 C1.69473537 41.27064759 -4.22831987 44.10612456 -11.546875 44.875 C-20.43434687 45.20104926 -28.68668164 43.68200002 -35.97265625 38.30859375 C-42.37169026 31.44133774 -43.20274184 25.50242234 -42.9140625 16.125 C-42.12060795 8.65671125 -39.09606024 4.50477386 -33.4140625 -0.21484375 C-23.95623214 -6.38897833 -9.73360141 -4.71325281 0 0 Z " fill="#F9F9FA" transform="translate(182.53515625,374.44140625)"/>
<path d="M0 0 C5.25397745 3.94323675 9.69804022 8.79540502 10.86328125 15.3984375 C11.79169806 23.53497927 10.52942801 29.60796603 5.86328125 36.3984375 C1.95379594 40.87716106 -3.45814309 43.8942734 -9.35449219 44.70239258 C-11.7682097 44.83606842 -14.15706657 44.85705638 -16.57421875 44.8359375 C-17.78561523 44.8659082 -17.78561523 44.8659082 -19.02148438 44.89648438 C-25.97688926 44.8908797 -31.0941842 43.01692542 -36.37890625 38.46875 C-42.12620235 31.62149293 -43.63384006 26.3277915 -43.4453125 17.3671875 C-42.81285179 11.28275537 -40.30535521 7.22145766 -35.88671875 3.0859375 C-26.52118908 -4.1047516 -10.64446642 -5.82862045 0 0 Z " fill="#F8F9FA" transform="translate(718.13671875,396.6015625)"/>
<path d="M0 0 C5.50608424 4.43277347 9.65103618 10.63823803 11.00390625 17.61328125 C11.92301172 26.73284996 11.94794256 35.19397809 6.00390625 42.61328125 C3.51226321 44.77236413 0.99446718 46.24633823 -1.99609375 47.61328125 C-2.90359375 48.04640625 -3.81109375 48.47953125 -4.74609375 48.92578125 C-10.87809278 50.22293489 -18.04442119 51.0605731 -23.80859375 48.11328125 C-31.90611986 42.42526291 -35.93042852 35.20039811 -37.99609375 25.61328125 C-39.15269873 17.6152487 -37.77056906 11.19836676 -32.99609375 4.61328125 C-24.26572098 -4.20841341 -10.69500034 -6.79199485 0 0 Z " fill="#F9F9FB" transform="translate(383.99609375,139.38671875)"/>
<path d="M0 0 C6.93615487 3.86248624 14.28610282 9.51710228 16.6875 17.4375 C17.84500798 25.69103514 17.35368588 32.37247665 12.54296875 39.30859375 C8.26394179 44.21821416 3.5389317 48.05937908 -3.09765625 48.7109375 C-13.4576484 49.03198612 -20.10192539 46.70766359 -27.6875 39.625 C-34.2071728 32.51142988 -36.18418225 26.69971584 -35.890625 16.91796875 C-34.69307501 9.70839413 -30.28968282 4.67343999 -24.5625 0.375 C-16.69401774 -4.31582596 -8.15927303 -3.8638371 0 0 Z " fill="#F9F9FA" transform="translate(240.3125,223.5625)"/>
<path d="M0 0 C2.55152539 1.15416334 3.51694521 2.50133525 5.12866211 4.78320312 C5.69327148 5.57404297 6.25788086 6.36488281 6.83959961 7.1796875 C7.41709961 8.01177734 7.99459961 8.84386719 8.58959961 9.70117188 C9.46745117 10.9319043 9.46745117 10.9319043 10.36303711 12.1875 C15.41750374 19.33446944 18.00414 23.95132464 16.96459961 32.88867188 C15.04038206 39.99148834 9.84423529 44.77906065 3.96459961 48.88867188 C-2.99597363 52.75773883 -10.04528961 55.49443639 -18.03540039 53.88867188 C-25.50729191 50.33826409 -29.98690072 44.67679218 -34.59790039 38.01367188 C-35.2250293 37.13453125 -35.8521582 36.25539063 -36.49829102 35.34960938 C-38.02486729 33.20541063 -39.53651327 31.05227171 -41.03540039 28.88867188 C-37.56416744 25.10591802 -33.61058237 22.34882336 -29.41040039 19.45117188 C-24.57204425 16.09389119 -19.76652971 12.71166384 -15.05493164 9.17773438 C-14.24685059 8.57630615 -13.43876953 7.97487793 -12.60620117 7.35522461 C-11.03850664 6.18499412 -9.47801528 5.00504052 -7.92553711 3.81469727 C-7.21284668 3.28610107 -6.50015625 2.75750488 -5.76586914 2.21289062 C-5.14091553 1.73940186 -4.51596191 1.26591309 -3.87207031 0.77807617 C-2.03540039 -0.11132812 -2.03540039 -0.11132812 0 0 Z " fill="#F9FAFB" transform="translate(660.035400390625,236.111328125)"/>
<path d="M0 0 C5.19517574 0.8592931 8.89892118 2.96038911 13.375 5.625 C14.13361328 6.07359375 14.89222656 6.5221875 15.67382812 6.984375 C21.28841605 10.38715556 26.9674994 13.9349988 30 20 C31.15773447 29.8187607 29.2247322 36.70042541 24 45 C23.60554687 45.6290625 23.21109375 46.258125 22.8046875 46.90625 C19.15483202 51.90884912 13.61807671 55.39436853 7.52636719 56.4140625 C-0.5063028 56.67910748 -5.80371411 54.1586968 -12.625 50.125 C-13.61628906 49.56941406 -14.60757813 49.01382813 -15.62890625 48.44140625 C-22.82858941 44.34282119 -22.82858941 44.34282119 -24 42 C-22.77172852 39.42480469 -22.77172852 39.42480469 -20.87890625 36.171875 C-20.37253883 35.2936911 -20.37253883 35.2936911 -19.85594177 34.39776611 C-18.76561332 32.51072346 -17.66434329 30.63033787 -16.5625 28.75 C-15.85407342 27.52907739 -15.14638315 26.30772724 -14.43945312 25.0859375 C-13.02194795 22.63788661 -11.60044579 20.19222211 -10.17626953 17.74804688 C-6.74674703 11.85353685 -3.37516951 5.9257399 0 0 Z " fill="#F9F9FB" transform="translate(562,160)"/>
<path d="M0 0 C4.61366841 1.43573747 8.94610952 3.26977643 13.3046875 5.3359375 C13.98749786 5.65656158 14.67030823 5.97718567 15.37380981 6.30752563 C16.81162692 6.98340537 18.24869879 7.6608725 19.68505859 8.33984375 C21.86008533 9.36795003 24.03723139 10.3914459 26.21484375 11.4140625 C32.84814065 14.53410329 39.46690514 17.67375066 46 21 C44.50722924 25.97590252 42.38017913 30.40955897 40 35 C30.81156086 33.3708523 21.66880618 31.54291357 12.52539062 29.6796875 C11.45353516 29.463125 10.38167969 29.2465625 9.27734375 29.0234375 C8.31046631 28.82669434 7.34358887 28.62995117 6.34741211 28.42724609 C4.069717 27.94031149 4.069717 27.94031149 2 28 C2.51796143 28.37697021 3.03592285 28.75394043 3.56958008 29.14233398 C13.24655042 36.19682496 22.86834998 43.24322762 32 51 C31.40362909 52.58628608 30.79754075 54.16892059 30.1875 55.75 C29.85105469 56.63171875 29.51460937 57.5134375 29.16796875 58.421875 C28.02775084 60.93874397 26.68578106 62.82766417 25 65 C19.87630924 62.6539373 14.75345744 60.3060554 9.63134766 57.95654297 C7.89166379 57.15885159 6.15175859 56.36164273 4.41162109 55.56494141 C1.89881849 54.41438021 -0.61316172 53.26203967 -3.125 52.109375 C-3.89303955 51.75816589 -4.6610791 51.40695679 -5.45239258 51.04510498 C-10.35351018 48.79340235 -15.18722317 46.4350359 -20 44 C-18.68 41.03 -17.36 38.06 -16 35 C-14.62328125 35.59167969 -13.2465625 36.18335938 -11.828125 36.79296875 C-2.23866178 40.91069976 7.35054052 45.02434278 17 49 C7.37043944 41.61653616 -2.27216764 34.25370159 -12 27 C-10.94124926 23.59687262 -9.99097846 20.98646769 -8 18 C0.47094084 18.48881142 8.45242577 20.06962128 16.6875 22.0625 C17.87794922 22.34416016 19.06839844 22.62582031 20.29492188 22.91601562 C23.1982868 23.60396153 26.0998317 24.29872324 29 25 C27.05059675 23.05059675 24.11201366 22.22146014 21.62890625 21.12890625 C20.31960485 20.54895591 19.01036186 19.96887368 17.70117188 19.38867188 C15.6302607 18.47402968 13.55873275 17.56084471 11.48608398 16.65014648 C9.49021536 15.77209736 7.49693641 14.88837537 5.50390625 14.00390625 C4.30580322 13.47611572 3.1077002 12.9483252 1.87329102 12.40454102 C-1 11 -1 11 -3 9 C-2.6442194 5.62008426 -1.64284201 2.95711562 0 0 Z " fill="#F8F8FA" transform="translate(664,500)"/>
<path d="M0 0 C1.35490296 0.11674901 2.70890696 0.24393423 4.0625 0.375 C5.19365234 0.47941406 5.19365234 0.47941406 6.34765625 0.5859375 C9.62451493 1.09749423 12.81105932 2.08887409 16 3 C16.33 15.54 16.66 28.08 17 41 C21.89394534 30.18580709 21.89394534 30.18580709 26.78295898 19.36938477 C27.39549118 18.01831058 28.00819116 16.66731245 28.62109375 15.31640625 C28.93985474 14.60899292 29.25861572 13.90157959 29.58703613 13.17272949 C31.8859282 8.1140718 31.8859282 8.1140718 33 7 C38.02913736 7.20489078 43.09817576 7.85624101 48 9 C47.39543224 15.1437672 46.47946465 21.08741119 45.1875 27.12109375 C44.92682739 28.3600515 44.92682739 28.3600515 44.66088867 29.6240387 C44.29649123 31.35127563 43.93001395 33.07807501 43.56152344 34.80444336 C42.99652443 37.45379742 42.43920448 40.10468582 41.8828125 42.75585938 C41.52649043 44.44019916 41.16973532 46.12444742 40.8125 47.80859375 C40.64580811 48.6012413 40.47911621 49.39388885 40.30737305 50.21055603 C39.11561323 55.76877354 39.11561323 55.76877354 38 58 C34.7 57.67 31.4 57.34 28 57 C28.76060988 49.37464521 30.42462639 41.97873613 32.0625 34.5 C32.3473247 33.1875693 32.6318325 31.87506978 32.91601562 30.5625 C33.60757133 27.37431099 34.30231863 24.18685309 35 21 C34.55084229 21.96413818 34.10168457 22.92827637 33.63891602 23.92163086 C31.97688521 27.4877615 30.31200236 31.05255431 28.64624023 34.61694336 C27.92475364 36.1618251 27.20404814 37.70707188 26.48413086 39.25268555 C25.45109367 41.47019622 24.41528354 43.68639253 23.37890625 45.90234375 C23.05596085 46.5971434 22.73301544 47.29194305 22.40028381 48.00779724 C20.11387171 52.88612829 20.11387171 52.88612829 19 54 C15.7 53.67 12.4 53.34 9 53 C8.67 39.47 8.34 25.94 8 12 C6.11197689 21.88617439 6.11197689 21.88617439 4.23095703 31.77368164 C3.99231934 33.01496826 3.75368164 34.25625488 3.5078125 35.53515625 C3.26691895 36.797229 3.02602539 38.05930176 2.77783203 39.35961914 C2.00498218 42.97668258 1.05754976 46.458206 0 50 C-6.625 50.125 -6.625 50.125 -10 49 C-9.37652884 43.40568459 -8.43917937 38.00466519 -7.1875 32.51953125 C-7.01371826 31.74365158 -6.83993652 30.96777191 -6.66088867 30.16838074 C-6.11078894 27.71561089 -5.55557495 25.26403484 -5 22.8125 C-4.44554848 20.35001205 -3.89215103 17.88728963 -3.33911133 15.42448425 C-2.99626188 13.89943403 -2.65240121 12.37461067 -2.30737305 10.85005188 C-1.49238958 7.24151584 -0.70406927 3.63191286 0 0 Z " fill="#F7F8F9" transform="translate(470,132)"/>
<path d="M0 0 C8.10328452 0.71891133 15.9759679 2.30378932 23.9375 3.9375 C25.25708756 4.20544233 26.57674869 4.47302259 27.89648438 4.74023438 C30.43373807 5.2548359 32.97069798 5.77088862 35.50732422 6.28857422 C40.00253799 7.20420772 44.50065794 8.10490191 49 9 C50.72615393 14.22871594 48.97050196 19.09007427 47.8125 24.3125 C47.49829102 25.84293945 47.49829102 25.84293945 47.17773438 27.40429688 C45.68687308 34.2481023 44.26125882 40.64885992 38.3125 44.9375 C32.56610879 46.78068208 28.03622489 46.99960131 22.5625 44.3125 C19.9273852 41.93446957 18.93973198 40.38303514 18 37 C17.44280273 37.48895752 16.88560547 37.97791504 16.31152344 38.48168945 C13.59548806 40.26570129 12.22896962 40.35174944 9.015625 40.29296875 C8.08105469 40.28330078 7.14648438 40.27363281 6.18359375 40.26367188 C5.21550781 40.23853516 4.24742187 40.21339844 3.25 40.1875 C2.26644531 40.17396484 1.28289063 40.16042969 0.26953125 40.14648438 C-2.15420415 40.11118726 -4.57682145 40.06188054 -7 40 C-6.85962479 38.18706911 -6.71255111 36.3746557 -6.5625 34.5625 C-6.48128906 33.55316406 -6.40007813 32.54382813 -6.31640625 31.50390625 C-6 29 -6 29 -5 28 C1.0390846 27.7374311 6.9954896 28.39194831 13 29 C13.6700834 26.87607494 14.33596797 24.75082476 15 22.625 C15.556875 20.84996094 15.556875 20.84996094 16.125 19.0390625 C17.09222606 16.20676561 17.09222606 16.20676561 17 14 C8.09 12.02 8.09 12.02 -1 10 C-0.67 6.7 -0.34 3.4 0 0 Z " fill="#F8F8FA" transform="translate(675,451)"/>
<path d="M0 0 C7.486875 -0.12375 7.486875 -0.12375 15.125 -0.25 C17.47069092 -0.30462402 17.47069092 -0.30462402 19.86376953 -0.36035156 C21.10755371 -0.3703418 22.35133789 -0.38033203 23.6328125 -0.390625 C24.90012207 -0.41157227 26.16743164 -0.43251953 27.47314453 -0.45410156 C32.55194478 0.19982122 35.67923798 2.37106017 38.875 6.3125 C40.62065768 10.48268224 40.78945353 13.92073506 39.16796875 18.19140625 C36.51703878 23.74148061 36.51703878 23.74148061 34 25 C34.9590625 26.175625 34.9590625 26.175625 35.9375 27.375 C38.98052672 31.2479431 39.19256984 33.48905646 39.5 38.375 C39.7371205 42.12658498 40.08447074 45.33788297 41 49 C37.04 49 33.08 49 29 49 C28.66517137 46.37518273 28.3320723 43.75016613 28 41.125 C27.90460938 40.37863281 27.80921875 39.63226563 27.7109375 38.86328125 C27 33.2265625 27 33.2265625 27 31 C21.39 30.67 15.78 30.34 10 30 C10 36.6 10 43.2 10 50 C6.7 50 3.4 50 0 50 C0 33.5 0 17 0 0 Z " fill="#FBFBFC" transform="translate(409,131)"/>
<path d="M0 0 C1.19287411 3.87684087 2 6.91621923 2 11 C0.54003906 12.64941406 0.54003906 12.64941406 -1.484375 14.265625 C-4.458098 16.72058399 -7.34215121 19.20523511 -10.140625 21.859375 C-10.81867187 22.50003906 -11.49671875 23.14070313 -12.1953125 23.80078125 C-13.5811297 25.11546334 -14.96653733 26.43057728 -16.3515625 27.74609375 C-17.02445313 28.38160156 -17.69734375 29.01710938 -18.390625 29.671875 C-18.98907227 30.2400293 -19.58751953 30.80818359 -20.20410156 31.39355469 C-22.05866215 33.05247375 -23.98930689 34.53596754 -26 36 C-23.02069594 35.3756494 -20.04155539 34.75053509 -17.0625 34.125 C-16.23169922 33.95097656 -15.40089844 33.77695312 -14.54492188 33.59765625 C-9.65625632 32.57046582 -4.77955682 31.50733322 0.0859375 30.375 C2.41741116 29.91822149 4.63168317 29.84720537 7 30 C7.66 32.97 8.32 35.94 9 39 C-3.25344814 42.13610678 -15.51406544 45.18852663 -27.875 47.875 C-28.86056885 48.08987061 -29.8461377 48.30474121 -30.86157227 48.52612305 C-37.73296804 50 -37.73296804 50 -40 50 C-41.83357799 46.10364677 -42.71810329 43.28333441 -42 39 C-39.69279271 36.04658646 -36.9349322 33.65467157 -34.125 31.1875 C-33.3522876 30.48625 -32.5795752 29.785 -31.78344727 29.0625 C-29.53503466 27.02691173 -27.26905517 25.0125128 -25 23 C-23.87980091 21.98756535 -22.76107652 20.97349403 -21.64453125 19.95703125 C-19.44147821 17.95743477 -17.22848397 15.97114061 -15 14 C-21.96097959 14.83416698 -28.6476834 16.55988477 -35.4375 18.27148438 C-36.33726562 18.49255859 -37.23703125 18.71363281 -38.1640625 18.94140625 C-38.97311035 19.14451416 -39.7821582 19.34762207 -40.61572266 19.55688477 C-43 20 -43 20 -48 20 C-48.33 16.7 -48.66 13.4 -49 10 C-44.98429178 9.05628921 -40.96815772 8.11441638 -36.95166016 7.17407227 C-35.59217362 6.85553751 -34.23279427 6.53654484 -32.87353516 6.21704102 C-28.25213747 5.13096125 -23.62796063 4.05777454 -19 3 C-18.0182782 2.77500824 -18.0182782 2.77500824 -17.01672363 2.54547119 C-15.11937632 2.11370723 -13.21987063 1.69146235 -11.3203125 1.26953125 C-10.22219238 1.02436768 -9.12407227 0.7792041 -7.99267578 0.52661133 C-5.24891887 0.04380144 -2.77688302 -0.10467258 0 0 Z " fill="#F8F8FA" transform="translate(715,335)"/>
<path d="M0 0 C3.61443234 3.44322239 6.53515124 6.96215697 9.375 11.0625 C13.8324408 17.429519 18.45215505 23.66458493 23.125 29.875 C23.80095215 30.77355713 24.4769043 31.67211426 25.17333984 32.59790039 C26.78095152 34.73289973 28.38975323 36.86698775 30 39 C28.28452508 42.76624721 26.88411875 44.3227669 23 46 C18.42785233 45.57849444 14.76366681 44.18807445 10.61328125 42.27734375 C8.8353418 41.47006836 8.8353418 41.47006836 7.02148438 40.64648438 C5.78484359 40.07750197 4.54851845 39.50783307 3.3125 38.9375 C0.87398537 37.81497898 -1.56772932 36.70050561 -4.01171875 35.58984375 C-5.08897217 35.09347412 -6.16622559 34.59710449 -7.27612305 34.08569336 C-9.97575234 32.81487183 -9.97575234 32.81487183 -13 33 C-12.52578613 33.60996826 -12.05157227 34.21993652 -11.56298828 34.84838867 C-9.41095071 37.62346774 -7.26791605 40.40537224 -5.125 43.1875 C-4.37863281 44.14720703 -3.63226563 45.10691406 -2.86328125 46.09570312 C-2.14785156 47.02705078 -1.43242187 47.95839844 -0.6953125 48.91796875 C0.2944458 50.19837036 0.2944458 50.19837036 1.30419922 51.50463867 C2.96236231 53.94461635 4.02251213 56.22610663 5 59 C0.60546875 63.00390625 0.60546875 63.00390625 -1 64 C-4.37779045 62.87406985 -4.85269787 62.20984612 -6.86328125 59.4140625 C-7.41419434 58.65649658 -7.96510742 57.89893066 -8.53271484 57.1184082 C-9.12004395 56.2955835 -9.70737305 55.47275879 -10.3125 54.625 C-11.56097582 52.90218278 -12.80968086 51.17953165 -14.05859375 49.45703125 C-14.70296387 48.56322754 -15.34733398 47.66942383 -16.01123047 46.74853516 C-19.26832751 42.24713589 -22.57347322 37.78135385 -25.875 33.3125 C-27.0601244 31.70459552 -28.24504152 30.09653824 -29.4296875 28.48828125 C-29.92710449 27.81321533 -30.42452148 27.13814941 -30.93701172 26.44262695 C-31.28779785 25.96656006 -31.63858398 25.49049316 -32 25 C-28.88603251 21.61912101 -26.53177538 19.06756071 -22 18 C-19.32471475 18.8149776 -17.08355175 19.68154105 -14.58203125 20.8671875 C-13.8835759 21.18076202 -13.18512054 21.49433655 -12.46549988 21.81741333 C-10.23997848 22.82025877 -8.02630635 23.84658611 -5.8125 24.875 C-3.58604762 25.89136651 -1.35745498 26.90280501 0.87263489 27.91116333 C2.25861407 28.53978479 3.64208402 29.17397356 5.02275085 29.81417847 C8.3722114 31.45359093 8.3722114 31.45359093 12 32 C11.46632813 31.36835938 10.93265625 30.73671875 10.3828125 30.0859375 C5.86981315 24.6672151 1.55705561 19.15968317 -2.5625 13.4375 C-3.00384277 12.83019043 -3.44518555 12.22288086 -3.89990234 11.59716797 C-7 7.24323662 -7 7.24323662 -7 5 C-5.46875 3.7109375 -5.46875 3.7109375 -3.5 2.375 C-2.8503125 1.92898437 -2.200625 1.48296875 -1.53125 1.0234375 C-1.0259375 0.68570313 -0.520625 0.34796875 0 0 Z " fill="#F9FAFB" transform="translate(275,175)"/>
<path d="M0 0 C2.10242402 1.99563663 3.75538207 3.97203605 5.3125 6.4140625 C5.74296631 7.0846167 6.17343262 7.7551709 6.61694336 8.44604492 C7.07335205 9.1651001 7.52976074 9.88415527 8 10.625 C8.98037558 12.15500762 9.96084721 13.6849537 10.94140625 15.21484375 C11.44430176 16.0022998 11.94719727 16.78975586 12.46533203 17.60107422 C14.94191761 21.47236438 17.44000927 25.32967752 19.9375 29.1875 C20.38544922 29.88117676 20.83339844 30.57485352 21.29492188 31.28955078 C21.72224609 31.95067871 22.14957031 32.61180664 22.58984375 33.29296875 C22.99388428 33.92058105 23.3979248 34.54819336 23.81420898 35.19482422 C24.5968204 36.38622401 25.39824457 37.56550251 26.21899414 38.73095703 C27.19524969 40.12064314 28.10426214 41.55710151 29 43 C28.20373951 47.55005993 24.90231223 50.56441739 22 54 C5.17595571 49.13092365 -11.40954309 43.60218835 -28 38 C-26.99122289 33.51114444 -25.04097726 31.43084614 -22 28 C-21.113125 28.33 -20.22625 28.66 -19.3125 29 C-16.10391737 29.96862872 -14.28385566 30.48887475 -11 30 C-8.38593778 27.78147074 -8.38593778 27.78147074 -6.125 24.8125 C-4.92230469 23.36810547 -4.92230469 23.36810547 -3.6953125 21.89453125 C-1.74065976 19.1645745 -1.74065976 19.1645745 -2.140625 16.265625 C-2.90527007 13.90804801 -2.90527007 13.90804801 -4.625 11.9375 C-6 10 -6 10 -6 8.125 C-4.50334866 4.94461591 -2.32952633 2.62818355 0 0 Z " fill="#F8F9FA" transform="translate(640,550)"/>
<path d="M0 0 C2.85959754 1.8263511 5.29600996 3.97278586 7.86352539 6.19018555 C7.27041842 9.56619179 6.42892391 12.54913591 5.09765625 15.70507812 C4.73735825 16.5655928 4.37706024 17.42610748 4.00584412 18.31269836 C3.61727737 19.22746445 3.22871063 20.14223053 2.82836914 21.0847168 C2.43025528 22.03207199 2.03214142 22.97942719 1.6219635 23.95549011 C0.3526804 26.97308126 -0.92305259 29.98789636 -2.19897461 33.00268555 C-3.06203183 35.05133383 -3.92466699 37.10015998 -4.78686523 39.14916992 C-6.89851338 44.16491391 -9.01545995 49.17839575 -11.13647461 54.19018555 C-16.44127395 54.19018555 -17.32630088 52.65397985 -21.13647461 49.19018555 C-20.91991211 48.57530273 -20.70334961 47.96041992 -20.48022461 47.3269043 C-20.20178711 46.51866211 -19.92334961 45.71041992 -19.63647461 44.87768555 C-19.35803711 44.07717773 -19.07959961 43.27666992 -18.79272461 42.4519043 C-17.99714353 40.10249133 -17.99714353 40.10249133 -18.13647461 37.19018555 C-19.79797731 35.38523101 -19.79797731 35.38523101 -21.94897461 33.69018555 C-24.45652339 31.60741279 -26.870007 29.5353003 -29.13647461 27.19018555 C-29.83772461 27.47893555 -30.53897461 27.76768555 -31.26147461 28.06518555 C-32.68459961 28.62206055 -32.68459961 28.62206055 -34.13647461 29.19018555 C-35.08522461 29.68518555 -36.03397461 30.18018555 -37.01147461 30.69018555 C-40.13647461 31.19018555 -40.13647461 31.19018555 -42.07397461 30.04956055 C-43.92167515 28.51477704 -45.5946694 27.03305331 -47.13647461 25.19018555 C-47.13647461 24.53018555 -47.13647461 23.87018555 -47.13647461 23.19018555 C-46.15759277 22.68588013 -46.15759277 22.68588013 -45.15893555 22.17138672 C-42.06668096 20.57624909 -38.97649615 18.97714456 -35.88647461 17.37768555 C-34.76088135 16.79688232 -33.63528809 16.2160791 -32.47558594 15.61767578 C-26.98426303 12.76953392 -21.53214038 9.88198221 -16.16381836 6.80737305 C-15.25857422 6.29150635 -14.35333008 5.77563965 -13.4206543 5.24414062 C-11.71675808 4.26547365 -10.02042221 3.27349931 -8.33276367 2.26708984 C-7.57060547 1.83050049 -6.80844727 1.39391113 -6.02319336 0.9440918 C-5.36536865 0.55552002 -4.70754395 0.16694824 -4.02978516 -0.23339844 C-2.13647461 -0.80981445 -2.13647461 -0.80981445 0 0 Z " fill="#F9F9FB" transform="translate(627.136474609375,202.809814453125)"/>
<path d="M0 0 C6.19655748 3.15435618 10.56716832 8.87836819 13.9140625 14.81640625 C15.69406818 20.7846606 16.00607381 25.28311538 13.2265625 30.94140625 C12.4840625 31.74578125 11.7415625 32.55015625 10.9765625 33.37890625 C6.9765625 33.37890625 6.9765625 33.37890625 4.6640625 31.12890625 C2.9765625 28.37890625 2.9765625 28.37890625 3.2265625 26.50390625 C3.4740625 25.80265625 3.7215625 25.10140625 3.9765625 24.37890625 C4.60988469 18.78456023 3.56980844 16.07068312 0.265625 11.76171875 C-1.83365188 9.50976719 -2.96794411 9.38117129 -6.0859375 9.25390625 C-8.91242566 9.04242608 -8.91242566 9.04242608 -10.0234375 10.37890625 C-9.67004503 16.40621117 -8.21723618 20.55114223 -5.3984375 25.81640625 C-0.85448998 35.02060809 -0.85448998 35.02060809 -2.03515625 40.44140625 C-4.5004373 45.27452642 -8.95173175 48.68833767 -14.0234375 50.37890625 C-19.5202854 51.02559424 -22.66587928 49.97520344 -27.09765625 46.9375 C-32.47779529 42.58318869 -36.47778771 37.73775983 -37.359375 30.6953125 C-37.44633993 24.56428462 -37.08046496 21.06984425 -33.0234375 16.37890625 C-29.63910074 17.77932146 -27.64805147 19.0441723 -26.0234375 22.37890625 C-26.16796875 24.4296875 -26.16796875 24.4296875 -26.5234375 26.75390625 C-27.19378975 31.17677381 -26.60729938 33.59539421 -24.0234375 37.37890625 C-20.58236484 39.67295469 -19.05503941 39.64183681 -15.0234375 39.37890625 C-13.73959414 38.30449223 -13.73959414 38.30449223 -13.74609375 35.7734375 C-14.08179228 31.66467664 -15.58658274 28.65222816 -17.4609375 25.06640625 C-20.23853086 19.40808936 -22.33020967 14.82112186 -22.0234375 8.37890625 C-17.64654668 -0.71155929 -9.40181626 -2.88588569 0 0 Z " fill="#F8F8FA" transform="translate(235.0234375,561.62109375)"/>
<path d="M0 0 C3.09341369 2.65014292 4.76534083 5.97210055 6.609375 9.53125 C6.9404425 10.16357544 7.27151001 10.79590088 7.61260986 11.4473877 C8.30801109 12.78060679 9.00039549 14.11540327 9.68994141 15.45166016 C10.74932737 17.49870029 11.82525752 19.53644822 12.90234375 21.57421875 C13.57654714 22.87186312 14.2497589 24.17002329 14.921875 25.46875 C15.24573181 26.07819458 15.56958862 26.68763916 15.90325928 27.31555176 C16.6797629 28.8399371 17.34907455 30.41791131 18 32 C17 35 17 35 14.73779297 36.40698242 C13.74924316 36.88498291 12.76069336 37.3629834 11.7421875 37.85546875 C10.64793457 38.39220215 9.55368164 38.92893555 8.42626953 39.48193359 C7.25435059 40.04477051 6.08243164 40.60760742 4.875 41.1875 C2.49385645 42.34834403 0.11364294 43.51109779 -2.265625 44.67578125 C-3.42255859 45.24119629 -4.57949219 45.80661133 -5.77148438 46.38916016 C-11.03115005 49.01342468 -16.14343412 51.8826641 -21.2421875 54.8046875 C-24 56 -24 56 -26.0222168 55.83447266 C-28.71008166 54.70040006 -29.16771251 53.45807147 -30.40234375 50.84375 C-30.81806641 49.98523438 -31.23378906 49.12671875 -31.66210938 48.2421875 C-32.29342773 46.88480469 -32.29342773 46.88480469 -32.9375 45.5 C-33.77792422 43.73861632 -34.62036349 41.97819265 -35.46484375 40.21875 C-35.87589355 39.35121094 -36.28694336 38.48367188 -36.71044922 37.58984375 C-38.37009012 34.25673685 -40.24518816 31.07141684 -42.18188477 27.89257812 C-43 26 -43 26 -42 23 C-38.4375 21.3125 -38.4375 21.3125 -35 20 C-33.16002803 23.45484098 -31.32916118 26.9144248 -29.5 30.375 C-28.97535156 31.35984375 -28.45070312 32.3446875 -27.91015625 33.359375 C-27.41386719 34.30039062 -26.91757813 35.24140625 -26.40625 36.2109375 C-25.71499023 37.51490479 -25.71499023 37.51490479 -25.00976562 38.84521484 C-24 41 -24 41 -24 43 C-21.03 41.68 -18.06 40.36 -15 39 C-16.79751554 34.27915654 -18.96137372 29.74793489 -21.125 25.1875 C-21.68380859 24.00510742 -21.68380859 24.00510742 -22.25390625 22.79882812 C-23.16795524 20.86526295 -24.08379842 18.93254612 -25 17 C-22.36 15.68 -19.72 14.36 -17 13 C-15.32666842 16.12147545 -13.66248284 19.24773498 -12 22.375 C-11.52304688 23.26445313 -11.04609375 24.15390625 -10.5546875 25.0703125 C-9.87792969 26.34648438 -9.87792969 26.34648438 -9.1875 27.6484375 C-8.76855469 28.43395996 -8.34960938 29.21948242 -7.91796875 30.02880859 C-7 32 -7 32 -7 34 C-3.37 32.35 0.26 30.7 4 29 C2.22667467 22.83744954 -0.85202523 17.56115234 -3.98632812 12.01367188 C-4.58670898 10.91829102 -4.58670898 10.91829102 -5.19921875 9.80078125 C-5.56877686 9.14247314 -5.93833496 8.48416504 -6.3190918 7.8059082 C-7 6 -7 6 -6 3 C-2.9375 1.3125 -2.9375 1.3125 0 0 Z " fill="#F8F9FA" transform="translate(207,513)"/>
<path d="M0 0 C-1.05875074 3.40312738 -2.00902154 6.01353231 -4 9 C-5.98609986 9.19535408 -7.97250024 9.38867275 -9.9609375 9.55859375 C-13.31297621 10.28422665 -14.91693662 12.41195156 -17 15 C-18.43304064 17.86608129 -18.30644155 19.81300783 -18 23 C-14.8616762 29.84725193 -8.46309716 32.76845142 -2 36 C2.63213493 36.55512815 5.98172127 36.6364242 10 34.125 C13.13039503 30.79895529 13.25856958 28.50734361 13.2421875 23.953125 C13.14438652 21.81809629 13.14438652 21.81809629 11.375 19.875 C10.92125 19.25625 10.4675 18.6375 10 18 C10.8067818 14.40615382 11.95308582 12.07037127 14 9 C18.43270514 10.74141988 20.72916316 13.83049997 23.09375 17.8671875 C25.01329166 22.38472951 24.79331695 27.64049546 23.2421875 32.25390625 C22.2724578 34.26590449 21.20915196 36.1232954 20 38 C19.13375 39.36125 19.13375 39.36125 18.25 40.75 C13.4352352 45.5647648 8.66610531 47.27391259 1.875 47.6875 C-6.91906371 47.39095599 -14.82814529 43.71061005 -21.3671875 37.89453125 C-27.03764218 31.6240907 -28.59551332 26.88102144 -28.43359375 18.39453125 C-27.60632521 11.91798742 -24.61949346 7.48976617 -19.94921875 3.05078125 C-13.70473661 -1.70744759 -7.4203168 -2.47343893 0 0 Z " fill="#F9F9FB" transform="translate(200,271)"/>
<path d="M0 0 C0.99 2.64 1.98 5.28 3 8 C-0.45533314 9.67294007 -3.91473993 11.33727763 -7.375 13 C-8.35984375 13.47695312 -9.3446875 13.95390625 -10.359375 14.4453125 C-11.30039062 14.89648438 -12.24140625 15.34765625 -13.2109375 15.8125 C-14.08024902 16.23144531 -14.94956055 16.65039062 -15.84521484 17.08203125 C-18 18 -18 18 -20 18 C-18.35 21.3 -16.7 24.6 -15 28 C-13.74703125 27.39929688 -12.4940625 26.79859375 -11.203125 26.1796875 C-9.55246829 25.41063153 -7.90140516 24.64244749 -6.25 23.875 C-5.425 23.47667969 -4.6 23.07835937 -3.75 22.66796875 C-2.95078125 22.30058594 -2.1515625 21.93320313 -1.328125 21.5546875 C-0.22839355 21.03624268 -0.22839355 21.03624268 0.89355469 20.50732422 C3 20 3 20 5.22363281 20.70751953 C7 22 7 22 7.75 25.125 C7.8325 26.07375 7.915 27.0225 8 28 C5.21128823 29.33957921 2.41856938 30.67058435 -0.375 32 C-1.1690625 32.3815625 -1.963125 32.763125 -2.78125 33.15625 C-3.92207031 33.69765625 -3.92207031 33.69765625 -5.0859375 34.25 C-5.7876709 34.58515625 -6.4894043 34.9203125 -7.21240234 35.265625 C-9 36 -9 36 -11 36 C-10.41089844 37.18078125 -9.82179688 38.3615625 -9.21484375 39.578125 C-8.45510823 41.13511383 -7.69602765 42.69242236 -6.9375 44.25 C-6.35258789 45.41595703 -6.35258789 45.41595703 -5.75585938 46.60546875 C-5.39169922 47.35957031 -5.02753906 48.11367187 -4.65234375 48.890625 C-4.31195068 49.58188477 -3.97155762 50.27314453 -3.62084961 50.98535156 C-2.85534465 53.46940463 -2.9083542 54.64072677 -4 57 C-5.84765625 58.046875 -5.84765625 58.046875 -8.0625 58.75 C-8.79597656 58.99234375 -9.52945312 59.2346875 -10.28515625 59.484375 C-10.85105469 59.65453125 -11.41695313 59.8246875 -12 60 C-14.69608243 54.68114251 -17.3523607 49.34311641 -20 44 C-20.55139648 42.89140625 -21.10279297 41.7828125 -21.67089844 40.640625 C-23.17801583 37.60671086 -24.67284886 34.5669531 -26.1612854 31.52383423 C-26.76226124 30.29927295 -27.36673997 29.07642458 -27.97470093 27.85531616 C-28.83755061 26.12040969 -29.68663151 24.37867622 -30.53515625 22.63671875 C-31.034104 21.62311279 -31.53305176 20.60950684 -32.04711914 19.56518555 C-33 17 -33 17 -32 14 C-29.81203859 12.74561903 -27.70039055 11.67726418 -25.41015625 10.64453125 C-24.7504332 10.33803146 -24.09071014 10.03153168 -23.41099548 9.71574402 C-22.01526159 9.06968951 -20.61720026 8.42864315 -19.21704102 7.79223633 C-17.0697988 6.81581899 -14.930014 5.82440602 -12.79101562 4.83007812 C-11.43530637 4.20483823 -10.07919939 3.58045984 -8.72265625 2.95703125 C-8.0799025 2.6602095 -7.43714874 2.36338776 -6.7749176 2.05757141 C-2.23375745 0 -2.23375745 0 0 0 Z " fill="#F9F9FB" transform="translate(327,150)"/>
<path d="M0 0 C4.48999285 3.90434161 7.74779689 8.58508883 8.875 14.5 C9.25812179 20.34260732 8.88231076 24.28732802 5.875 29.5 C2.68610649 32.39225225 0.1303217 33.74777252 -4.125 34 C-8.45060094 33.71986584 -10.90556798 32.50480322 -14.125 29.5 C-18.69593355 23.21647393 -19.92545646 17.13125112 -19.6171875 9.43359375 C-18.74938431 4.26121124 -16.42789269 2.18878798 -12.25 -0.875 C-7.6998681 -2.21327409 -4.27634377 -2.05264501 0 0 Z " fill="#2C376C" transform="translate(376.125,146.5)"/>
<path d="M0 0 C3.61971905 1.81342927 6.17895246 4.38915493 7.98046875 7.9921875 C8.38329008 13.22886477 7.81133904 16.54367704 4.98046875 20.9921875 C0.69519548 24.8757164 -3.18685409 25.17004466 -8.83203125 25.2421875 C-10.63607422 25.28085937 -10.63607422 25.28085937 -12.4765625 25.3203125 C-17.77482315 24.82962463 -20.96637295 22.93087207 -24.89453125 19.4296875 C-27.57917318 15.95442286 -27.67547778 12.61172505 -27.4375 8.328125 C-26.82328188 4.89539193 -25.63815873 3.26625873 -23.01953125 0.9921875 C-16.00760702 -3.84937923 -7.66289275 -2.84815483 0 0 Z " fill="#2C376C" transform="translate(176.01953125,383.0078125)"/>
<path d="M0 0 C2.91212327 2.32969862 3.82919848 3.91988371 4.41015625 7.59375 C4.65736873 12.30980356 4.6517124 15.07993543 1.875 19 C-4.88545362 23.70292426 -9.81913908 24.84709624 -18 24 C-22.11861995 23.11597009 -25.22425889 21.67628712 -28.4375 18.875 C-30.57542344 14.94122087 -31.31619583 11.47417101 -31 7 C-29.04926204 2.69212033 -26.43627614 -0.12280646 -22.18359375 -2.30859375 C-14.75310208 -4.66136124 -6.7985506 -3.52067799 0 0 Z " fill="#2C366B" transform="translate(715,407)"/>
<path d="M0 0 C6.73566864 1.95991832 10.89575964 6.50388682 15 12 C16.85110583 15.70221166 16.46454795 19.95906917 16 24 C13.86209777 27.66497525 11.85385637 29.38026327 8 31 C3.70163732 31.76025462 -0.29801386 31.85541765 -4.25390625 29.8671875 C-8.9521667 26.46161731 -13.38003113 22.23993773 -16 17 C-16.52467307 12.1403232 -16.75563571 8.25070737 -14.1875 4 C-9.46112178 -0.32126008 -6.1687504 -0.7823781 0 0 Z " fill="#2A356A" transform="translate(231,231)"/>
<path d="M0 0 C2.75736272 8.06088592 5.3971306 16.14232669 7.8125 24.3125 C8.03123779 25.04718506 8.24997559 25.78187012 8.4753418 26.53881836 C10 31.75210639 10 31.75210639 10 34 C9.39341553 34.17539307 8.78683105 34.35078613 8.16186523 34.53149414 C-4.54399435 38.20991377 -17.22935799 41.94043589 -29.86157227 45.86547852 C-30.77092529 46.14576904 -31.68027832 46.42605957 -32.6171875 46.71484375 C-33.41753418 46.96355225 -34.21788086 47.21226074 -35.04248047 47.46850586 C-37 48 -37 48 -39 48 C-40.19287411 44.12315913 -41 41.08378077 -41 37 C-28.6785942 33.29211056 -16.34895928 29.61510984 -4 26 C-4.46238168 19.17987019 -6.02662675 13.21435634 -8.16015625 6.72265625 C-9 4 -9 4 -9 2 C-5.62902617 0.50178941 -3.79557881 0 0 0 Z " fill="#F7F7F9" transform="translate(195,471)"/>
<path d="M0 0 C2.97 0 5.94 0 9 0 C9.51012614 3.95709552 10.00621646 7.91583468 10.5 11.875 C10.64308594 12.98359375 10.78617188 14.0921875 10.93359375 15.234375 C11.75256021 21.86410348 12.20407583 28.32029581 12 35 C7.29067114 35.55615299 2.58078331 36.10723522 -2.12963867 36.65405273 C-3.72484516 36.8399067 -5.31990365 37.02703635 -6.91479492 37.21557617 C-17.26884284 38.43849522 -27.58833048 39.42173481 -38 40 C-38.33 36.37 -38.66 32.74 -39 29 C-33.64335838 28.42834109 -28.28650468 27.85872799 -22.92944336 27.29101562 C-21.1067923 27.09756891 -19.28420063 26.90356177 -17.46166992 26.70898438 C-14.84309019 26.42951711 -12.224304 26.15206124 -9.60546875 25.875 C-8.78974899 25.78750488 -7.97402924 25.70000977 -7.1335907 25.60986328 C-4.07403074 25.28770839 -1.0789039 25 2 25 C1.855625 23.865625 1.71125 22.73125 1.5625 21.5625 C1.37474666 20.04169792 1.18726097 18.52086278 1 17 C0.90460938 16.25621094 0.80921875 15.51242187 0.7109375 14.74609375 C0.10772324 9.79111949 -0.09075591 4.99157504 0 0 Z " fill="#F7F8F9" transform="translate(181,428)"/>
<path d="M0 0 C3.59692056 3.97126071 7.39313751 8.62738706 7.875 14.125 C6.50665813 20.18479973 3.1007746 23.86089705 -1.96484375 27.35546875 C-6.55209191 29.87164249 -10.7693648 31 -16 31 C-21.31814545 28.49734332 -23.8700737 24.78694611 -27 20 C-25.62058205 16.73286523 -24.20692627 15.12627858 -21.296875 13.125 C-20.19666016 12.35929687 -20.19666016 12.35929687 -19.07421875 11.578125 C-18.30722656 11.05734375 -17.54023437 10.5365625 -16.75 10 C-15.99847656 9.47921875 -15.24695313 8.9584375 -14.47265625 8.421875 C-12.32288268 6.93616761 -10.16218092 5.46756226 -8 4 C-7.1018457 3.37351563 -7.1018457 3.37351563 -6.18554688 2.734375 C-2.22359155 0 -2.22359155 0 0 0 Z " fill="#2C376C" transform="translate(660,249)"/>
<path d="M0 0 C6.04367938 0.1831418 10.91570242 4.91570242 15 9 C16.25145135 16.19584529 12.69308692 21.99235169 9 28 C6.73335419 31.08622396 4.54524932 32.69303128 0.6796875 33.4609375 C-5.81054289 33.87774129 -9.9534606 31.94701406 -15 28 C-14.41392179 24.00352188 -13.16462657 21.18875738 -11.09375 17.734375 C-10.51496094 16.76242188 -9.93617188 15.79046875 -9.33984375 14.7890625 C-8.73269531 13.78617188 -8.12554688 12.78328125 -7.5 11.75 C-6.89285156 10.73164063 -6.28570313 9.71328125 -5.66015625 8.6640625 C-1.17924626 1.17924626 -1.17924626 1.17924626 0 0 Z " fill="#2B366B" transform="translate(567,173)"/>
<path d="M0 0 C3.71888239 0.50712033 6.73454239 1.11608215 10 3 C9.37095597 8.52464755 7.48661933 13.23444026 5.40234375 18.3359375 C4.87176109 19.65496567 4.87176109 19.65496567 4.33045959 21.00064087 C3.20514321 23.79442167 2.07145824 26.58471718 0.9375 29.375 C0.17066822 31.27451533 -0.59561396 33.17425263 -1.36132812 35.07421875 C-3.23452985 39.71874076 -5.11524167 44.36015635 -7 49 C-13.625 48.25 -13.625 48.25 -17 46 C-16.37494981 40.91655682 -14.83577705 36.62964824 -12.91015625 31.93359375 C-12.60556992 31.17708023 -12.30098358 30.42056671 -11.98716736 29.64112854 C-11.0179556 27.23757825 -10.04039638 24.83752817 -9.0625 22.4375 C-8.40894623 20.82118945 -7.75594589 19.20465501 -7.10351562 17.58789062 C-5.90454454 14.61895968 -4.70243651 11.65134515 -3.49633789 8.68530273 C-2.32220003 5.79354045 -1.15528151 2.89932924 0 0 Z " fill="#F8F9FA" transform="translate(535,149)"/>
<path d="M0 0 C0.33 0 0.66 0 1 0 C1 80.85 1 161.7 1 245 C-1.70513673 242.29486327 -1.24059824 240.1869971 -1.25816262 236.51263607 C-1.25233693 235.59241605 -1.24651125 234.67219604 -1.24050903 233.72409058 C-1.24221788 232.75049626 -1.24392673 231.77690195 -1.24568737 230.77380478 C-1.24899814 227.49089411 -1.2379525 224.20818501 -1.22705078 220.92529297 C-1.22648701 218.58020024 -1.22680256 216.23510717 -1.22793579 213.89001465 C-1.22851164 207.5060085 -1.21671992 201.1220769 -1.20278788 194.73808813 C-1.19158119 188.74764694 -1.18954372 182.75720575 -1.18748413 176.76675607 C-1.18310391 164.89934019 -1.16978595 153.03195176 -1.15087891 141.16455078 C-1.13252856 129.63460426 -1.11836792 118.1046652 -1.10986328 106.57470703 C-1.10933783 105.86432753 -1.10881239 105.15394803 -1.10827102 104.42204188 C-1.10566099 100.85837424 -1.10313357 97.29470654 -1.10064721 93.73103881 C-1.07990453 64.15400815 -1.04452173 34.57700456 -1 5 C-2.65 6.65 -4.3 8.3 -6 10 C-6.66 9.67 -7.32 9.34 -8 9 C-6.85459775 7.68712379 -5.70866567 6.37470979 -4.5625 5.0625 C-3.92441406 4.33160156 -3.28632813 3.60070312 -2.62890625 2.84765625 C-1.77458541 1.87860647 -0.91348825 0.91348825 0 0 Z " fill="#9F9F9E" transform="translate(292,297)"/>
<path d="M0 0 C2.41734542 -0.08117951 4.83194949 -0.14056926 7.25 -0.1875 C7.93191406 -0.21263672 8.61382812 -0.23777344 9.31640625 -0.26367188 C12.42631815 -0.30896185 14.6627076 -0.17375669 17.44921875 1.26171875 C19.28395584 3.31828804 19.56767086 4.26978706 19.5625 7 C19.58441406 7.680625 19.60632813 8.36125 19.62890625 9.0625 C19 11 19 11 16.921875 12.73828125 C13.31191878 14.29712598 10.60546964 14.29734962 6.6875 14.1875 C3.3771875 14.0946875 3.3771875 14.0946875 0 14 C0 9.38 0 4.76 0 0 Z " fill="#343E71" transform="translate(419,139)"/>
<path d="M0 0 C1.41702513 0.14230808 2.8336096 0.28900746 4.25 0.4375 C5.43335938 0.55931641 5.43335938 0.55931641 6.640625 0.68359375 C8.82364639 0.97634993 10.8773182 1.42064419 13 2 C12.74273307 3.89772191 12.46856661 5.79315677 12.1875 7.6875 C12.03667969 8.74324219 11.88585937 9.79898437 11.73046875 10.88671875 C10.95837167 14.17742127 10.09099305 16.3449251 8 19 C5.13128745 19.8123285 3.0339093 19.33710103 0 19 C-2 17 -2 17 -2.265625 14.609375 C-2.23692463 9.35720758 -2.12218762 4.90755888 0 0 Z " fill="#2C376C" transform="translate(701,467)"/>
<path d="M0 0 C0.33 0 0.66 0 1 0 C1 34.98 1 69.96 1 106 C0.67 106 0.34 106 0 106 C-0.33 72.67 -0.66 39.34 -1 5 C-2.65 6.65 -4.3 8.3 -6 10 C-6.66 9.67 -7.32 9.34 -8 9 C-6.85459775 7.68712379 -5.70866567 6.37470979 -4.5625 5.0625 C-3.92441406 4.33160156 -3.28632813 3.60070312 -2.62890625 2.84765625 C-1.77458541 1.87860647 -0.91348825 0.91348825 0 0 Z " fill="#929291" transform="translate(292,297)"/>
<path d="M0 0 C4.49316995 4.09671378 7.97813973 8.71434062 11 14 C11 14.66 11 15.32 11 16 C7.08878502 15.31063929 3.44491404 14.21749819 -0.3125 12.9375 C-1.38113281 12.57527344 -2.44976563 12.21304688 -3.55078125 11.83984375 C-4.35902344 11.56269531 -5.16726563 11.28554688 -6 11 C-6 7.39426104 -5.18292538 6.58663434 -3 3.8125 C-2.443125 3.09707031 -1.88625 2.38164063 -1.3125 1.64453125 C-0.879375 1.10183594 -0.44625 0.55914063 0 0 Z " fill="#353F72" transform="translate(644,575)"/>
<path d="M0 0 C0.66 0.33 1.32 0.66 2 1 C-0.64 6.61 -3.28 12.22 -6 18 C-12.25 13.703125 -12.25 13.703125 -14 12 C-14 10.68 -14 9.36 -14 8 C-11.7136988 6.63597957 -9.42178251 5.28365726 -7.125 3.9375 C-6.47402344 3.54755859 -5.82304688 3.15761719 -5.15234375 2.75585938 C-3.46934275 1.77555467 -1.73703801 0.88101568 0 0 Z " fill="#333D70" transform="translate(621,215)"/>
<path d="M0 0 C0.66 0.33 1.32 0.66 2 1 C-7.9 10.9 -17.8 20.8 -28 31 C-28.66 30.67 -29.32 30.34 -30 30 C-21.59516939 20.71541142 -13.16616737 11.56017939 -3.62890625 3.41015625 C-2.37392427 2.32370902 -1.17374345 1.17374345 0 0 Z " fill="#7B7B79" transform="translate(211,168)"/>
<path d="M0 0 C0.66 0.33 1.32 0.66 2 1 C-6.91 9.91 -15.82 18.82 -25 28 C-25.66 27.67 -26.32 27.34 -27 27 C-22.59116277 21.66298651 -17.82086301 16.7112801 -12.9375 11.8125 C-12.3482373 11.21872559 -11.75897461 10.62495117 -11.15185547 10.01318359 C-7.58562372 6.45889569 -3.91615889 3.16511472 0 0 Z " fill="#6D6D6B" transform="translate(297,257)"/>
<path d="M0 0 C0.66 0.33 1.32 0.66 2 1 C-7.57 10.57 -17.14 20.14 -27 30 C-27.66 29.67 -28.32 29.34 -29 29 C-20.90815595 20.075172 -12.82876019 11.29555155 -3.6640625 3.4453125 C-2.39833536 2.34597202 -1.1854566 1.1854566 0 0 Z " fill="#8187A6" transform="translate(227,185)"/>
<path d="M0 0 C0.33 0 0.66 0 1 0 C1 12.87 1 25.74 1 39 C0.67 39 0.34 39 0 39 C-0.33 27.78 -0.66 16.56 -1 5 C-2.65 6.65 -4.3 8.3 -6 10 C-6.66 9.67 -7.32 9.34 -8 9 C-6.85459775 7.68712379 -5.70866567 6.37470979 -4.5625 5.0625 C-3.92441406 4.33160156 -3.28632813 3.60070312 -2.62890625 2.84765625 C-1.77458541 1.87860647 -0.91348825 0.91348825 0 0 Z " fill="#838382" transform="translate(292,297)"/>
<path d="M0 0 C1.33877662 4.01632987 0.49049413 6.09632491 -1 10 C-3.125 11.4375 -3.125 11.4375 -5 12 C-3.68938409 7.76570244 -2.05643741 3.92592596 0 0 Z " fill="#47507E" transform="translate(505,151)"/>
<path d="M0 0 C0.66 0 1.32 0 2 0 C0.55746343 3.36591866 -1.33264727 5.51047079 -4 8 C-4.66 7.67 -5.32 7.34 -6 7 C-5.04882866 5.8274869 -4.08882991 4.66212985 -3.125 3.5 C-2.59132813 2.8503125 -2.05765625 2.200625 -1.5078125 1.53125 C-0.76144531 0.77328125 -0.76144531 0.77328125 0 0 Z " fill="#747473" transform="translate(290,299)"/>
<path d="M0 0 C0.66 0.33 1.32 0.66 2 1 C-0.31 3.31 -2.62 5.62 -5 8 C-5.33 7.01 -5.66 6.02 -6 5 C-4.02 3.35 -2.04 1.7 0 0 Z " fill="#747472" transform="translate(319,274)"/>
</svg>
