<?xml version="1.0" encoding="UTF-8"?>
<svg version="1.1" xmlns="http://www.w3.org/2000/svg" width="315" height="408">
<path d="M0 0 C2.47184749 2.18663432 4.88784647 4.41982106 7.2890625 6.68359375 C8.01351563 7.34359375 8.73796875 8.00359375 9.484375 8.68359375 C37.32523275 35.02763119 51.88728796 74.26509409 53.5703125 111.96484375 C54.73197046 155.13979807 38.69097989 194.49655995 9.2890625 225.68359375 C8.6290625 226.40804688 7.9690625 227.1325 7.2890625 227.87890625 C-19.05497494 255.719764 -58.29243784 270.28181921 -95.9921875 271.96484375 C-139.16714182 273.12650171 -178.5239037 257.08551114 -209.7109375 227.68359375 C-210.43539062 227.02359375 -211.15984375 226.36359375 -211.90625 225.68359375 C-239.74710775 199.33955631 -254.30916296 160.10209341 -255.9921875 122.40234375 C-257.15384546 79.22738943 -241.11285489 39.87062755 -211.7109375 8.68359375 C-211.0509375 7.95914063 -210.3909375 7.2346875 -209.7109375 6.48828125 C-154.93495886 -51.3999689 -58.71139103 -50.16693787 0 0 Z " fill="#FAF9F9" transform="translate(259.7109375,87.31640625)"/>
<path d="M0 0 C1.73016232 1.34742945 3.43863468 2.72314417 5.125 4.125 C6.50945312 5.26582031 6.50945312 5.26582031 7.921875 6.4296875 C14.71396438 12.30240567 20.07460044 18.71774731 25.125 26.125 C25.67929688 26.92421875 26.23359375 27.7234375 26.8046875 28.546875 C40.01243536 48.94018517 43.74908436 75.58170409 38.73706055 99.14428711 C35.11308525 113.83244547 28.82247184 127.45940657 19.125 139.125 C18.36445313 140.04796875 17.60390625 140.9709375 16.8203125 141.921875 C1.1219686 160.07778712 -21.84743031 172.08010045 -45.875 174.125 C-72.0221889 175.64077907 -96.59024395 169.49632609 -116.875 152.125 C-118.09123047 151.12533203 -118.09123047 151.12533203 -119.33203125 150.10546875 C-134.81759605 136.90348954 -143.79960083 119.52168054 -148.875 100.125 C-149.06046387 99.44663086 -149.24592773 98.76826172 -149.43701172 98.06933594 C-153.43001081 82.23269548 -151.79905881 64.54721719 -146.875 49.125 C-146.53597656 48.01511719 -146.19695312 46.90523437 -145.84765625 45.76171875 C-139.03286892 25.89940267 -125.11783546 9.72215946 -107.875 -1.875 C-106.62783203 -2.71998047 -106.62783203 -2.71998047 -105.35546875 -3.58203125 C-73.46543605 -23.93189056 -30.60134479 -21.42526969 0 0 Z " fill="#FDFDFD" transform="translate(213.875,125.875)"/>
<path d="M0 0 C2.47184749 2.18663432 4.88784647 4.41982106 7.2890625 6.68359375 C8.01351563 7.34359375 8.73796875 8.00359375 9.484375 8.68359375 C37.32523275 35.02763119 51.88728796 74.26509409 53.5703125 111.96484375 C54.73197046 155.13979807 38.69097989 194.49655995 9.2890625 225.68359375 C8.6290625 226.40804688 7.9690625 227.1325 7.2890625 227.87890625 C-19.05497494 255.719764 -58.29243784 270.28181921 -95.9921875 271.96484375 C-139.16714182 273.12650171 -178.5239037 257.08551114 -209.7109375 227.68359375 C-210.43539062 227.02359375 -211.15984375 226.36359375 -211.90625 225.68359375 C-239.74710775 199.33955631 -254.30916296 160.10209341 -255.9921875 122.40234375 C-257.15384546 79.22738943 -241.11285489 39.87062755 -211.7109375 8.68359375 C-211.0509375 7.95914063 -210.3909375 7.2346875 -209.7109375 6.48828125 C-154.93495886 -51.3999689 -58.71139103 -50.16693787 0 0 Z M-126.7109375 -22.31640625 C-127.3591748 -22.19813477 -128.00741211 -22.07986328 -128.67529297 -21.95800781 C-153.06235648 -17.35136712 -174.86722323 -6.26976182 -193.7109375 9.68359375 C-194.62746094 10.44671875 -195.54398438 11.20984375 -196.48828125 11.99609375 C-202.66192315 17.32311912 -207.75509168 23.22297293 -212.7109375 29.68359375 C-213.37867188 30.53566406 -214.04640625 31.38773438 -214.734375 32.265625 C-230.69750286 53.30792991 -241.91411575 80.05646702 -242.7109375 106.68359375 C-242.73671875 107.40321289 -242.7625 108.12283203 -242.7890625 108.86425781 C-244.10120639 150.0491741 -230.39563132 186.28594704 -202.62109375 216.7109375 C-199.49444048 219.93989436 -196.1947771 222.84666815 -192.7109375 225.68359375 C-191.79957031 226.44414062 -190.88820312 227.2046875 -189.94921875 227.98828125 C-160.5090392 251.70295537 -122.89104793 262.2096145 -85.3984375 258.1875 C-49.76034666 253.61427241 -15.65258635 236.85670646 7.2890625 208.68359375 C8.04960937 207.77222656 8.81015625 206.86085938 9.59375 205.921875 C33.04283333 176.81140862 43.26177574 139.68422699 39.98046875 102.5859375 C39.53726637 98.91873194 38.96485616 95.31501369 38.2890625 91.68359375 C38.11165527 90.71123779 38.11165527 90.71123779 37.93066406 89.71923828 C33.32249683 65.32409343 22.23509772 43.54108994 6.2890625 24.68359375 C5.20238281 23.38421875 5.20238281 23.38421875 4.09375 22.05859375 C-0.1520707 17.13011169 -4.67005733 12.78843314 -9.7109375 8.68359375 C-10.62230469 7.92304687 -11.53367188 7.1625 -12.47265625 6.37890625 C-44.2072354 -19.18395424 -86.62991871 -29.77533381 -126.7109375 -22.31640625 Z " fill="#242021" transform="translate(259.7109375,87.31640625)"/>
<path d="M0 0 C1.35948257 -0.0076664 1.35948257 -0.0076664 2.74642944 -0.01548767 C5.73743322 -0.02936829 8.72820615 -0.02842792 11.71923828 -0.02612305 C13.8028268 -0.03001104 15.88641452 -0.03434593 17.97000122 -0.03910828 C22.33614674 -0.04656737 26.7022114 -0.04628161 31.06835938 -0.04101562 C36.65585436 -0.0352239 42.24301755 -0.05214648 47.83045769 -0.0753603 C52.13365607 -0.09011279 56.43677485 -0.09096722 60.73999405 -0.08785057 C62.79961936 -0.0883631 64.85924921 -0.09358797 66.91884995 -0.10366249 C69.80288819 -0.1160377 72.68628406 -0.10922837 75.5703125 -0.09765625 C76.41625977 -0.10529999 77.26220703 -0.11294373 78.13378906 -0.12081909 C84.75113816 -0.06231089 89.43048698 1.40604059 94.81359863 5.45544434 C97.52245501 9.09038931 97.6069123 12.01912587 97.52978516 16.38208008 C97.53533417 17.1843251 97.54088318 17.98657013 97.54660034 18.81312561 C97.55838273 21.45716645 97.53413714 24.099488 97.50830078 26.7434082 C97.50658922 28.58516359 97.50665583 30.42692142 97.50842285 32.26867676 C97.50677041 36.12556314 97.48808656 39.98186771 97.45654297 43.83862305 C97.41686558 48.77845747 97.4124982 53.71753006 97.4200058 58.65749359 C97.42307769 62.45968586 97.41094719 66.26170738 97.39387512 70.06385803 C97.38685181 71.88508533 97.38371978 73.70633199 97.38456726 75.52757263 C97.38276629 78.0744819 97.36135949 80.62048423 97.33447266 83.16723633 C97.33740326 83.91751602 97.34033386 84.66779572 97.34335327 85.44081116 C97.27099381 89.89098235 96.6431577 92.72933939 93.91455078 96.2746582 C88.25837356 100.60604973 81.31219632 99.60524226 74.53955078 99.4621582 C72.72003906 99.44185547 72.72003906 99.44185547 70.86376953 99.42114258 C67.8805051 99.38590717 64.89747019 99.33210387 61.91455078 99.2746582 C61.91455078 94.6546582 61.91455078 90.0346582 61.91455078 85.2746582 C68.18455078 84.9446582 74.45455078 84.6146582 80.91455078 84.2746582 C80.93710416 75.55621479 80.95546723 66.83779061 80.96636295 58.11932468 C80.9715912 54.07140078 80.97868777 50.0234978 80.98999023 45.97558594 C81.00082121 42.07229849 81.00682806 38.16903121 81.00942802 34.2657299 C81.01128189 32.77332173 81.01490178 31.28091472 81.02028084 29.78851509 C81.02749409 27.70517681 81.02854161 25.62192289 81.02807617 23.53857422 C81.03029678 22.35054703 81.0325174 21.16251984 81.0348053 19.93849182 C81.21817673 17.35345128 81.21817673 17.35345128 79.91455078 16.2746582 C77.33354322 16.1742621 74.77927181 16.13848551 72.19775391 16.14526367 C71.38966782 16.14351135 70.58158173 16.14175903 69.74900818 16.13995361 C67.06458418 16.13553444 64.3802255 16.13847331 61.69580078 16.1418457 C59.83874499 16.14117268 57.98168928 16.14020267 56.12463379 16.13894653 C52.22728641 16.13746947 48.32996191 16.13962438 44.43261719 16.14428711 C39.42520578 16.1499844 34.41784797 16.14670544 29.41043854 16.14071465 C25.57415357 16.13710925 21.73788141 16.13824752 17.90159607 16.14084244 C16.05472304 16.14151177 14.20784887 16.14068308 12.36097717 16.13836288 C9.78440246 16.13583672 7.20791578 16.13967643 4.63134766 16.14526367 C3.86040268 16.14323944 3.0894577 16.14121521 2.29515076 16.13912964 C-1.18630999 15.83569263 -1.18630999 15.83569263 -4.08544922 17.2746582 C-4.17962695 19.36084843 -4.20287799 21.45026297 -4.19897461 23.53857422 C-4.19912064 24.19220947 -4.19926666 24.84584473 -4.19941711 25.51928711 C-4.19871805 27.68907949 -4.19092599 29.85878699 -4.18310547 32.02856445 C-4.18124127 33.52929131 -4.17981737 35.03001878 -4.17881775 36.53074646 C-4.17499274 40.48784047 -4.16516262 44.44489799 -4.15411377 48.40197754 C-4.14389927 52.4370067 -4.13932005 56.47204173 -4.13427734 60.50708008 C-4.12354032 68.42962476 -4.10594367 76.35213275 -4.08544922 84.2746582 C2.18455078 84.6046582 8.45455078 84.9346582 14.91455078 85.2746582 C14.91455078 89.8946582 14.91455078 94.5146582 14.91455078 99.2746582 C10.70552782 99.38273583 6.49928876 99.46202661 2.28955078 99.5246582 C1.09974609 99.55817383 -0.09005859 99.59168945 -1.31591797 99.6262207 C-12.37560495 99.74979262 -12.37560495 99.74979262 -17.08544922 95.2746582 C-20.59906579 91.70026971 -20.52997574 88.16786526 -20.52124023 83.40429688 C-20.53131607 82.61516403 -20.54139191 81.82603119 -20.55177307 81.01298523 C-20.58025236 78.40605469 -20.58612985 75.79970335 -20.58935547 73.19262695 C-20.59899781 71.37665063 -20.60909038 69.56067664 -20.61961365 67.7447052 C-20.63757577 63.93749593 -20.64313472 60.13049084 -20.64135742 56.32324219 C-20.64105284 51.453868 -20.68198054 46.58580905 -20.73367405 41.71674633 C-20.76709915 37.96509335 -20.77311309 34.21375599 -20.77152824 30.46196938 C-20.77505995 28.66745794 -20.78828262 26.87293761 -20.81152534 25.07857323 C-20.84106087 22.56252538 -20.83224707 20.04930045 -20.81420898 17.53320312 C-20.8310675 16.79789368 -20.84792603 16.06258423 -20.86529541 15.30499268 C-20.77053377 10.08020987 -19.21028846 7.29594732 -15.69230747 3.6746521 C-11.01043457 -0.40448398 -5.89733583 -0.01718851 0 0 Z " fill="#282425" transform="translate(120.08544921875,137.725341796875)"/>
<path d="M0 0 C27.57127579 -0.85130433 52.26610858 9.84613921 72.609375 28.19140625 C89.88601655 44.95656828 101.62035355 68.98016104 102.609375 93.19140625 C102.70412109 94.86976563 102.70412109 94.86976563 102.80078125 96.58203125 C103.65208558 124.15330704 92.95464204 148.84813983 74.609375 169.19140625 C56.29807868 188.06135229 30.74821939 198.97452702 4.546875 199.62890625 C-24.47251763 198.75041808 -50.59955078 187.97524957 -70.703125 166.87890625 C-87.71428335 147.16712211 -98.37963773 121.59802624 -96.57519531 95.27783203 C-94.09304085 67.21898008 -82.82374972 42.09852481 -61.32421875 23.49609375 C-43.14529496 9.21438265 -23.12915254 1.30567797 0 0 Z M-40.390625 14.19140625 C-41.33679688 14.68125 -42.28296875 15.17109375 -43.2578125 15.67578125 C-59.9321342 24.77086581 -72.0368689 37.77707296 -81.390625 54.19140625 C-82.11958984 55.45984375 -82.11958984 55.45984375 -82.86328125 56.75390625 C-86.51856369 63.55027237 -88.53096938 70.72842148 -90.390625 78.19140625 C-90.56940186 78.85857666 -90.74817871 79.52574707 -90.93237305 80.21313477 C-96.78211205 103.57797385 -91.14035714 128.63351417 -79.390625 149.19140625 C-76.96041785 153.08853924 -74.32523629 156.66120965 -71.390625 160.19140625 C-70.63007812 161.114375 -69.86953125 162.03734375 -69.0859375 162.98828125 C-55.88830147 178.25200088 -38.1019542 188.89291157 -18.390625 193.19140625 C-17.44445312 193.41441406 -16.49828125 193.63742187 -15.5234375 193.8671875 C9.99348086 199.06246035 36.04892951 192.95483402 57.59204102 178.80322266 C77.90037621 164.82903593 90.43995822 144.76909984 96.609375 121.19140625 C96.79483887 120.51303711 96.98030273 119.83466797 97.17138672 119.13574219 C101.16438581 103.29910173 99.53343381 85.61362344 94.609375 70.19140625 C94.10083984 68.52658203 94.10083984 68.52658203 93.58203125 66.828125 C85.34555993 42.8221819 66.96086983 24.2192431 44.5546875 12.98046875 C38.1617405 9.95863966 31.43899248 7.9784664 24.609375 6.19140625 C23.58855835 5.9142981 23.58855835 5.9142981 22.54711914 5.6315918 C1.97622189 0.47328872 -21.8604274 4.08402574 -40.390625 14.19140625 Z " fill="#353132" transform="translate(155.390625,104.80859375)"/>
<path d="M0 0 C2.88898904 1.44449452 3.38253698 3.79880387 4.72265625 6.60546875 C6.63882754 10.19755743 9.01842221 13.41827324 11.4140625 16.703125 C13.66513806 19.9633034 15 21.99146679 15 26 C15.66 26 16.32 26 17 26 C19.94397288 18.2370239 20.34937193 11.25552919 20 3 C27.87142768 12.36015421 30.68380962 21.30386639 30.50390625 33.2734375 C29.7342184 38.96554763 27.73056587 43.55885015 24 48 C24 45.69 24 43.38 24 41 C23.8040625 41.60585937 23.608125 42.21171875 23.40625 42.8359375 C20.94401621 49.73443735 16.87868291 58.56065855 10 62 C10.165 61.13375 10.33 60.2675 10.5 59.375 C11.47501866 52.60558472 12.17310034 44.51930101 10 38 C7.70438191 44.59379663 5.77910928 51.24947898 4 58 C-1.14323937 55.78808495 -2.88146007 51.72733354 -4.91796875 46.76171875 C-5.64057839 44.85172239 -6.32387943 42.92694363 -7 41 C-7.33 43.64 -7.66 46.28 -8 49 C-11.88245357 45.50579178 -13.72269306 42.51376944 -14.30078125 37.2734375 C-14.32619952 30.98665175 -13.52974868 25.81163309 -11.66796875 19.82421875 C-10.50818461 14.92057004 -10.76414463 10.00537506 -11 5 C-9.66666667 6.66666667 -8.33333333 8.33333333 -7 10 C-6.34 10.78375 -5.68 11.5675 -5 12.375 C-2.6559667 15.4515437 -0.86060706 18.61103714 1 22 C1.0272415 20.58344207 1.04650467 19.16672955 1.0625 17.75 C1.07410156 16.96109375 1.08570313 16.1721875 1.09765625 15.359375 C1.08124438 13.03851678 1.08124438 13.03851678 0.5 11 C-0.07862059 8.68551764 -0.09752902 6.63197321 -0.0625 4.25 C-0.05347656 3.45078125 -0.04445312 2.6515625 -0.03515625 1.828125 C-0.02355469 1.22484375 -0.01195312 0.6215625 0 0 Z " fill="#ED1E48" transform="translate(151,175)"/>
<path d="M0 0 C11 0 11 0 14.04296875 2.625 C14.75066406 3.73875 15.45835938 4.8525 16.1875 6 C16.56712891 6.57234375 16.94675781 7.1446875 17.33789062 7.734375 C18.25950549 9.13429632 19.13485223 10.56449556 20 12 C20.33 8.04 20.66 4.08 21 0 C23.97 0 26.94 0 30 0 C30 8.91 30 17.82 30 27 C26.7 27 23.4 27 20 27 C17.46003347 24.36596064 16.0754247 22.59421544 14.375 19.5 C13.94316406 18.78457031 13.51132813 18.06914062 13.06640625 17.33203125 C12.01153792 15.57391737 11.0011326 13.78925826 10 12 C9.67 16.95 9.34 21.9 9 27 C6.03 27 3.06 27 0 27 C0 18.09 0 9.18 0 0 Z " fill="#2B2728" transform="translate(100,241)"/>
<path d="M0 0 C3.34125 -0.061875 6.6825 -0.12375 10.125 -0.1875 C11.68758545 -0.22846802 11.68758545 -0.22846802 13.28173828 -0.27026367 C19.61480082 -0.32690676 24.12989388 0.31506201 28.9375 4.8125 C30.4454272 7.917056 29.97085251 9.74070943 29 13 C27.08268479 15.52737004 26.08494591 15.9716847 23 17 C20.93854893 17.068991 18.87498599 17.08467727 16.8125 17.0625 C15.18248047 17.04896484 15.18248047 17.04896484 13.51953125 17.03515625 C12.68808594 17.02355469 11.85664063 17.01195312 11 17 C11 20.3 11 23.6 11 27 C7.37 27 3.74 27 0 27 C0 18.09 0 9.18 0 0 Z " fill="#292526" transform="translate(162,241)"/>
<path d="M0 0 C1.51400391 0.01740234 1.51400391 0.01740234 3.05859375 0.03515625 C4.07050781 0.04417969 5.08242187 0.05320313 6.125 0.0625 C7.29869141 0.07990234 7.29869141 0.07990234 8.49609375 0.09765625 C18.49609375 21.3316988 18.49609375 21.3316988 18.49609375 27.09765625 C15.19609375 27.09765625 11.89609375 27.09765625 8.49609375 27.09765625 C7.83609375 25.77765625 7.17609375 24.45765625 6.49609375 23.09765625 C3.52609375 23.09765625 0.55609375 23.09765625 -2.50390625 23.09765625 C-3.16390625 24.41765625 -3.82390625 25.73765625 -4.50390625 27.09765625 C-7.14390625 27.09765625 -9.78390625 27.09765625 -12.50390625 27.09765625 C-11.88272726 21.24498545 -9.71609958 16.1802781 -7.50390625 10.78515625 C-7.13523438 9.86669922 -6.7665625 8.94824219 -6.38671875 8.00195312 C-3.19621012 0.12465718 -3.19621012 0.12465718 0 0 Z " fill="#282425" transform="translate(201.50390625,240.90234375)"/>
<path d="M0 0 C8.58 0 17.16 0 26 0 C26 2.31 26 4.62 26 7 C21.05 7 16.1 7 11 7 C11 8.32 11 9.64 11 11 C14.63 11 18.26 11 22 11 C22 12.98 22 14.96 22 17 C18.37 17 14.74 17 11 17 C11 20.3 11 23.6 11 27 C7.37 27 3.74 27 0 27 C0 18.09 0 9.18 0 0 Z " fill="#2F2C2D" transform="translate(133,241)"/>
<path d="M0 0 C3 2.0625 3 2.0625 5 5 C5.15731759 9.40489261 4.54448184 11.3345222 1.75 14.75 C-4.38461538 19.76923077 -4.38461538 19.76923077 -9.0625 20.4375 C-12.67808899 19.89900802 -13.76016265 18.82053592 -16 16 C-17.44430855 13.11138291 -17.37688506 11.20352299 -17 8 C-12.29816593 2.223461 -7.60280683 -1.08611526 0 0 Z " fill="#322E2F" transform="translate(265,129)"/>
<path d="M0 0 C2.69990662 1.79993774 4.5418865 3.083773 6 6 C6.60542972 11.8524873 5.95245529 15.54349906 2.55859375 20.41796875 C1 22 1 22 -2.5 23.25 C-6.69015577 22.95070316 -8.1442729 22.02371105 -11 19 C-12.61386527 14.15840419 -12.83616487 9.79178187 -10.6875 5.1875 C-10.130625 4.465625 -9.57375 3.74375 -9 3 C-8.3503125 2.1028125 -8.3503125 2.1028125 -7.6875 1.1875 C-5.02874272 -0.68347735 -3.1657245 -0.44320143 0 0 Z " fill="#333031" transform="translate(183,75)"/>
<path d="M0 0 C4.20358927 3.45628451 6.81720671 6.38097367 7.4375 11.875 C7.34896666 15.31515269 7.0276393 15.96367406 4.8125 18.875 C2.19755843 20.85073363 0.03579869 21.86731545 -3 23 C-7.27499123 16.91805372 -10.82819865 10.72253472 -14 4 C-9.17916167 0.85169742 -5.94100089 -0.99016682 0 0 Z " fill="#2E2A2B" transform="translate(101,90)"/>
<path d="M0 0 C2.90567066 0.88784381 3.86322363 1.83492507 5.8125 4.1875 C7.41447672 7.98165538 7.12609115 10.05868098 6 14 C3.98608141 16.86830829 2.54565017 18.61592935 -0.93359375 19.48046875 C-4.88284615 19.75669245 -6.63647711 19.25523948 -9.9375 16.9375 C-12.40599406 13.42176604 -13 11.28616677 -13 7 C-10.17343915 0.64023808 -6.7213573 -0.4716742 0 0 Z " fill="#ED2049" transform="translate(161,314)"/>
<path d="M0 0 C3.25 1.3125 3.25 1.3125 5 4 C5.39585848 7.76878964 5.22688692 11.18829973 5 15 C-1.93 15 -8.86 15 -16 15 C-16.49072799 4.6947123 -16.49072799 4.6947123 -14.35546875 1.671875 C-10.00281836 -1.41756839 -5.10422202 -0.64760252 0 0 Z " fill="#262223" transform="translate(44,198)"/>
<path d="M0 0 C0.99 0.66 1.98 1.32 3 2 C2.46274105 5.37705625 1.88935377 8.696686 1 12 C2.65 10.68 4.3 9.36 6 8 C7.32 8.66 8.64 9.32 10 10 C8.58681481 13.3046792 6.92720475 15.19508587 4.1875 17.5 C3.12595703 18.39912109 3.12595703 18.39912109 2.04296875 19.31640625 C-0.2858889 21.23559869 -2.62185925 23.14207754 -5 25 C-8.80625982 23.50468364 -10.77940501 21.41019944 -13 18 C-13.5 15.4375 -13.5 15.4375 -13 13 C-11.375 10.6875 -11.375 10.6875 -9 9 C-5.75 8.75 -5.75 8.75 -3 9 C-2.87625 8.2575 -2.7525 7.515 -2.625 6.75 C-2.04513299 4.19858515 -1.26291261 2.2732427 0 0 Z " fill="#302C2D" transform="translate(72,272)"/>
<path d="M0 0 C2.5 2 2.5 2 4 5 C3.86608946 7.07561342 3.4942104 9.02979115 3.09765625 11.0703125 C2.79083004 13.31003593 2.79083004 13.31003593 4.9375 15.875 C5.618125 16.57625 6.29875 17.2775 7 18 C7 18.66 7 19.32 7 20 C1.96014269 19.55530671 -0.37634988 17.28656638 -4 14 C-3.34 16.97 -2.68 19.94 -2 23 C-3.65 22.67 -5.3 22.34 -7 22 C-7.83830973 19.23058394 -8.67082034 16.45964931 -9.5 13.6875 C-9.73847656 12.90181641 -9.97695312 12.11613281 -10.22265625 11.30664062 C-10.44824219 10.54931641 -10.67382812 9.79199219 -10.90625 9.01171875 C-11.11572266 8.31522217 -11.32519531 7.61872559 -11.54101562 6.90112305 C-12 5 -12 5 -12 2 C-7.87877002 0.00182789 -4.56236123 -0.58066416 0 0 Z " fill="#312D2E" transform="translate(128,78)"/>
<path d="M0 0 C2.375 1.6875 2.375 1.6875 4 4 C4.25 6.75 4.25 6.75 4 9 C6.64 10.32 9.28 11.64 12 13 C11.01 14.485 11.01 14.485 10 16 C6.0507432 15.44894091 2.65079826 14.61064629 -1 13 C-0.175 13.94875 0.65 14.8975 1.5 15.875 C4 18.75 4 18.75 4 21 C2.02 21.99 2.02 21.99 0 23 C-2.20417737 20.40954644 -4.38527042 17.80062487 -6.5625 15.1875 C-7.50512695 14.08051758 -7.50512695 14.08051758 -8.46679688 12.95117188 C-9.05654297 12.23896484 -9.64628906 11.52675781 -10.25390625 10.79296875 C-10.80377197 10.1383667 -11.3536377 9.48376465 -11.92016602 8.80932617 C-12.27651123 8.21224854 -12.63285645 7.6151709 -13 7 C-11.06637858 1.19913575 -5.83811599 -1.01532452 0 0 Z " fill="#2F2B2C" transform="translate(84,101)"/>
<path d="M0 0 C-0.74675098 6.00556071 -3.96775476 8.67450056 -8 13 C-4.37 11.68 -0.74 10.36 3 9 C3.66 10.32 4.32 11.64 5 13 C2.06657102 14.34242421 -0.87236252 15.67234067 -3.8125 17 C-4.64587891 17.3815625 -5.47925781 17.763125 -6.33789062 18.15625 C-7.14033203 18.5171875 -7.94277344 18.878125 -8.76953125 19.25 C-9.50792236 19.58515625 -10.24631348 19.9203125 -11.00708008 20.265625 C-13 21 -13 21 -16 21 C-16.74609375 19.328125 -16.74609375 19.328125 -17 17 C-15.34765625 14.421875 -15.34765625 14.421875 -13.0625 11.75 C-12.31097656 10.85796875 -11.55945313 9.9659375 -10.78515625 9.046875 C-10.19605469 8.37140625 -9.60695313 7.6959375 -9 7 C-12.63 8.32 -16.26 9.64 -20 11 C-20.33 9.68 -20.66 8.36 -21 7 C-19.10545176 6.03912864 -17.20930419 5.08141031 -15.3125 4.125 C-14.25675781 3.59132812 -13.20101563 3.05765625 -12.11328125 2.5078125 C-3.92991518 -1.45552414 -3.92991518 -1.45552414 0 0 Z " fill="#2E2A2B" transform="translate(277,147)"/>
<path d="M0 0 C2.475 0.99 2.475 0.99 5 2 C5 6.29 5 10.58 5 15 C6.65 12.03 8.3 9.06 10 6 C11.32 6.33 12.64 6.66 14 7 C12.62394084 11.76551013 10.53221934 15.7248553 7.875 19.875 C7.50246094 20.46796875 7.12992188 21.0609375 6.74609375 21.671875 C5.83635 23.1181343 4.91896202 24.55958046 4 26 C2.68 25.67 1.36 25.34 0 25 C-0.33 20.71 -0.66 16.42 -1 12 C-2.65 14.97 -4.3 17.94 -6 21 C-7.32 20.34 -8.64 19.68 -10 19 C-6.82976438 12.56442169 -3.65066187 6.17804317 0 0 Z " fill="#2D292A" transform="translate(216,87)"/>
<path d="M0 0 C6.93 1.65 13.86 3.3 21 5 C20.67 6.65 20.34 8.3 20 10 C16.7 9.34 13.4 8.68 10 8 C10 9.65 10 11.3 10 13 C12.64 13.99 15.28 14.98 18 16 C17.67 17.32 17.34 18.64 17 20 C9.76410027 19.39700836 3.00629124 17.8849413 -4 16 C-3.67 14.35 -3.34 12.7 -3 11 C1.455 11.99 1.455 11.99 6 13 C6.33 10.69 6.66 8.38 7 6 C4.36 5.67 1.72 5.34 -1 5 C-0.67 3.35 -0.34 1.7 0 0 Z " fill="#332F30" transform="translate(34,163)"/>
<path d="M0 0 C6.93 0 13.86 0 21 0 C21.36934752 10.46484632 21.36934752 10.46484632 19.73828125 12.828125 C16.6782454 14.89107052 13.5396299 14.65630638 10 14 C8 12.375 8 12.375 7 10 C6.8125 6.75 6.8125 6.75 7 4 C4.69 4 2.38 4 0 4 C0 2.68 0 1.36 0 0 Z " fill="#2E2B2C" transform="translate(268,199)"/>
<path d="M0 0 C7.28738389 2.89769072 14.25078957 5.99478674 21 10 C20.01 11.485 20.01 11.485 19 13 C17 13 15 13 13 13 C10.66608797 15.78114056 10.66608797 15.78114056 11.375 18.6875 C11.58125 19.450625 11.7875 20.21375 12 21 C10.68 21 9.36 21 8 21 C6.61206055 19.59472656 6.61206055 19.59472656 5.38671875 17.640625 C4.94392578 16.93679687 4.50113281 16.23296875 4.04492188 15.5078125 C3.59697266 14.76273438 3.14902344 14.01765625 2.6875 13.25 C2.22021484 12.52039063 1.75292969 11.79078125 1.27148438 11.0390625 C-2.08479116 5.58573445 -2.08479116 5.58573445 -1.68432617 2.81933594 C-1 1 -1 1 0 0 Z " fill="#2F2B2C" transform="translate(62,115)"/>
<path d="M0 0 C2.54685809 0.0785782 3.81954973 0.17584047 6.0625 1.4375 C7.48348605 4.10184884 7.26017261 6.34741085 7.0625 9.3125 C5.7425 9.3125 4.4225 9.3125 3.0625 9.3125 C2.4025 7.6625 1.7425 6.0125 1.0625 4.3125 C-1.26508311 5.24353324 -2.68107132 5.96632128 -4.1875 8 C-5.20845909 11.14795718 -5.06382947 14.02793368 -4.9375 17.3125 C-3.2875 16.9825 -1.6375 16.6525 0.0625 16.3125 C-0.5975 15.9825 -1.2575 15.6525 -1.9375 15.3125 C-1.6075 13.9925 -1.2775 12.6725 -0.9375 11.3125 C1.3725 11.9725 3.6825 12.6325 6.0625 13.3125 C5.0725 16.6125 4.0825 19.9125 3.0625 23.3125 C1.7425 23.3125 0.4225 23.3125 -0.9375 23.3125 C-0.9375 22.6525 -0.9375 21.9925 -0.9375 21.3125 C-1.865625 21.374375 -2.79375 21.43625 -3.75 21.5 C-6.9375 21.3125 -6.9375 21.3125 -8.609375 20.1015625 C-11.17301198 16.64819268 -10.52906315 12.40255488 -9.9375 8.3125 C-7.3139627 3.41523038 -5.68619951 0.45128568 0 0 Z " fill="#282425" transform="translate(200.9375,80.6875)"/>
<path d="M0 0 C4.43626553 2.02300946 7.38251359 4.97867758 10.8125 8.375 C11.72805664 9.24125 11.72805664 9.24125 12.66210938 10.125 C13.23380859 10.68960937 13.80550781 11.25421875 14.39453125 11.8359375 C14.91893799 12.34688965 15.44334473 12.8578418 15.98364258 13.38427734 C17 15 17 15 16.6628418 17.19775391 C16.444104 17.79249512 16.22536621 18.38723633 16 19 C8.1753241 18.32545897 0.65443386 16.73123042 -7 15 C-6.67 13.35 -6.34 11.7 -6 10 C-4.02 10 -2.04 10 0 10 C0.6878236 7.64632287 0.6878236 7.64632287 1 5 C0.34 4.01 -0.32 3.02 -1 2 C-0.67 1.34 -0.34 0.68 0 0 Z " fill="#2D292A" transform="translate(256,254)"/>
<path d="M0 0 C7.8316181 -0.2700558 15.27279225 0.76892281 23 2 C22.67 3.32 22.34 4.64 22 6 C20.35 6.33 18.7 6.66 17 7 C16.19032562 9.91482778 15.78154007 11.46113217 16.9375 14.3125 C17.288125 14.869375 17.63875 15.42625 18 16 C17.34 16.66 16.68 17.32 16 18 C13.70746969 16.04266995 11.41594507 14.08418394 9.125 12.125 C8.47402344 11.56941406 7.82304688 11.01382813 7.15234375 10.44140625 C6.52714844 9.90644531 5.90195312 9.37148437 5.2578125 8.8203125 C4.6817627 8.32805176 4.10571289 7.83579102 3.51220703 7.32861328 C2.30047746 6.26399715 1.14054725 5.14054725 0 4 C0 2.68 0 1.36 0 0 Z " fill="#2A2627" transform="translate(39,149)"/>
<path d="M0 0 C0.33 1.32 0.66 2.64 1 4 C-1.31 4.66 -3.62 5.32 -6 6 C-6 6.66 -6 7.32 -6 8 C-5.25234375 7.96519531 -4.5046875 7.93039062 -3.734375 7.89453125 C-2.74953125 7.86746094 -1.7646875 7.84039062 -0.75 7.8125 C0.22453125 7.77769531 1.1990625 7.74289062 2.203125 7.70703125 C5.41993272 8.04398737 6.72923956 8.72923956 9 11 C9.61459548 14.61074844 9.45961289 16.30138841 7.4375 19.375 C4.18317497 21.54455002 1.82869586 21.29451507 -2 21 C-1.67 19.68 -1.34 18.36 -1 17 C0.65 16.67 2.3 16.34 4 16 C4.33 15.01 4.66 14.02 5 13 C4.18015625 13.11859375 3.3603125 13.2371875 2.515625 13.359375 C1.43796875 13.48828125 0.3603125 13.6171875 -0.75 13.75 C-1.81734375 13.88921875 -2.8846875 14.0284375 -3.984375 14.171875 C-7 14 -7 14 -9.390625 12.23828125 C-11 10 -11 10 -11 6.4375 C-10 3 -10 3 -8.3125 1.0625 C-5.40913094 -0.27148038 -3.15869424 -0.21536552 0 0 Z " fill="#322E2F" transform="translate(234,289)"/>
<path d="M0 0 C4.01586501 1.5911918 7.1092303 2.9960171 9 7 C8.93351603 10.78958606 8.83225402 13.07857591 6.25 15.9375 C3.64597372 17.16717908 1.84687774 17.23723981 -1 17 C-1 15.35 -1 13.7 -1 12 C0.65 11.67 2.3 11.34 4 11 C3.96877057 9.03243548 3.96877057 9.03243548 3 7 C-1.05701058 5.11301833 -4.56542098 4.78882957 -9 5 C-9 6.32 -9 7.64 -9 9 C-8.34 9.33 -7.68 9.66 -7 10 C-7.33 11.65 -7.66 13.3 -8 15 C-10.4375 13.9375 -10.4375 13.9375 -13 12 C-14.0625 8.625 -14.0625 8.625 -14 5 C-10.08245664 -1.2140343 -6.87600265 -1.44690558 0 0 Z " fill="#343131" transform="translate(276,232)"/>
<path d="M0 0 C2.4375 1.5 2.4375 1.5 4 4 C4.61932825 8.79979391 4.544217 10.95187836 2.3125 15.25 C-0.01597467 18.0189969 -1.88534773 20.14604032 -5 22 C-8.63075827 22 -10.42048414 21.41176127 -13.375 19.3125 C-15.43883512 16.37550387 -15.31944345 14.51387796 -15 11 C-14.34 10.67 -13.68 10.34 -13 10 C-12.01 10.33 -11.02 10.66 -10 11 C-10 12.98 -10 14.96 -10 17 C-6.01002713 16.11333936 -4.40255334 15.61724846 -2.125 12.125 C-0.77418702 8.92629715 -0.77418702 8.92629715 -1 5 C-3.31 5.33 -5.62 5.66 -8 6 C-8.66 5.01 -9.32 4.02 -10 3 C-7.29602194 -0.81738079 -4.39903544 -0.54023242 0 0 Z " fill="#332F30" transform="translate(102,297)"/>
<path d="M0 0 C3.6875 0.3125 3.6875 0.3125 6.125 2.0625 C7.6875 4.3125 7.6875 4.3125 7.6875 8.3125 C6.3675 8.3125 5.0475 8.3125 3.6875 8.3125 C3.0275 7.3225 2.3675 6.3325 1.6875 5.3125 C0.3675 5.6425 -0.9525 5.9725 -2.3125 6.3125 C-2.33948189 7.93740954 -2.35888757 9.56244633 -2.375 11.1875 C-2.38660156 12.09242187 -2.39820313 12.99734375 -2.41015625 13.9296875 C-2.47499257 16.3293585 -2.47499257 16.3293585 -1.3125 18.3125 C0.66286745 17.96463292 0.66286745 17.96463292 2.6875 17.3125 C3.0175 16.6525 3.3475 15.9925 3.6875 15.3125 C5.0075 15.3125 6.3275 15.3125 7.6875 15.3125 C7.3690535 18.25813014 7.02483608 19.92326606 5.0625 22.1875 C1.57772914 23.83818093 -0.64881653 23.3116864 -4.3125 22.3125 C-7.54470435 19.08029565 -8.25401467 16.02602102 -8.625 11.5 C-8.58285388 5.78920118 -5.86961053 0.55373684 0 0 Z " fill="#302D2E" transform="translate(160.3125,72.6875)"/>
<path d="M0 0 C2.875 0.9375 2.875 0.9375 4.875 3.9375 C5.13260279 6.63202521 4.96400053 9.22298375 4.875 11.9375 C2.895 12.9275 2.895 12.9275 0.875 13.9375 C0.215 12.9475 -0.445 11.9575 -1.125 10.9375 C-0.465 10.2775 0.195 9.6175 0.875 8.9375 C0.875 7.9475 0.875 6.9575 0.875 5.9375 C-0.115 5.9375 -1.105 5.9375 -2.125 5.9375 C-2.40214844 6.57558594 -2.67929687 7.21367187 -2.96484375 7.87109375 C-3.32707031 8.69738281 -3.68929688 9.52367187 -4.0625 10.375 C-4.42214844 11.19871094 -4.78179687 12.02242187 -5.15234375 12.87109375 C-6.125 14.9375 -6.125 14.9375 -7.125 15.9375 C-13.40406977 16.51889535 -13.40406977 16.51889535 -16.0625 14.375 C-17.50573056 11.06405931 -17.44994847 8.51193322 -17.125 4.9375 C-16.465 3.9475 -15.805 2.9575 -15.125 1.9375 C-13.805 2.2675 -12.485 2.5975 -11.125 2.9375 C-11.785 5.9075 -12.445 8.8775 -13.125 11.9375 C-11.805 11.9375 -10.485 11.9375 -9.125 11.9375 C-8.75375 10.08125 -8.75375 10.08125 -8.375 8.1875 C-7.09639571 3.1885124 -5.66059463 -0.11321189 0 0 Z " fill="#302D2D" transform="translate(283.125,179.0625)"/>
<path d="M0 0 C1.85625 0.0309375 1.85625 0.0309375 3.75 0.0625 C3.75 1.3825 3.75 2.7025 3.75 4.0625 C1.44 4.0625 -0.87 4.0625 -3.25 4.0625 C-3.25 5.7125 -3.25 7.3625 -3.25 9.0625 C-1.27 9.0625 0.71 9.0625 2.75 9.0625 C2.75 10.0525 2.75 11.0425 2.75 12.0625 C1.1 12.3925 -0.55 12.7225 -2.25 13.0625 C-2.25 14.7125 -2.25 16.3625 -2.25 18.0625 C0.72 18.0625 3.69 18.0625 6.75 18.0625 C6.75 19.3825 6.75 20.7025 6.75 22.0625 C0.315 22.5575 0.315 22.5575 -6.25 23.0625 C-7.50669664 15.60086369 -8.50627534 8.6226226 -8.25 1.0625 C-5.42068148 0.25321295 -2.93915923 -0.04898599 0 0 Z " fill="#322E2F" transform="translate(144.25,73.9375)"/>
<path d="M0 0 C4.59306496 1.4859916 7.43569245 3.85014682 11 7 C9.2703384 11.20953787 6.31793255 14.35143576 3.375 17.75 C2.859375 18.35199219 2.34375 18.95398438 1.8125 19.57421875 C0.54530865 21.05260866 -0.72685775 22.52673171 -2 24 C-5.39192363 23.40716379 -7.2107757 22.23256811 -9.75 19.9375 C-10.36359375 19.38964844 -10.9771875 18.84179688 -11.609375 18.27734375 C-12.06828125 17.85582031 -12.5271875 17.43429687 -13 17 C-12.01 15.515 -12.01 15.515 -11 14 C-10.4225 14.309375 -9.845 14.61875 -9.25 14.9375 C-7.15705816 15.92583364 -5.25464725 16.5168613 -3 17 C-3 13.89448334 -3.5393715 12.64738916 -5 10 C-2.33333333 10 0.33333333 10 3 10 C3.66 9.01 4.32 8.02 5 7 C4.071875 6.62875 4.071875 6.62875 3.125 6.25 C0.64931313 4.79371361 0.04874998 3.62187494 -1 1 C-0.67 0.67 -0.34 0.34 0 0 Z " fill="#312D2E" transform="translate(83,285)"/>
<path d="M0 0 C7.52719602 -0.25515919 14.58851545 0.71702277 22 2 C21.67 5.96 21.34 9.92 21 14 C19.68 14.33 18.36 14.66 17 15 C17 12.03 17 9.06 17 6 C15.35 6 13.7 6 12 6 C12 7.65 12 9.3 12 11 C10.68 10.67 9.36 10.34 8 10 C8.33 8.35 8.66 6.7 9 5 C7.02 5 5.04 5 3 5 C3.020625 5.94875 3.04125 6.8975 3.0625 7.875 C3 11 3 11 2 13 C1.01 12.67 0.02 12.34 -1 12 C-1.02712066 10.56260487 -1.04645067 9.12506137 -1.0625 7.6875 C-1.07410156 6.88699219 -1.08570313 6.08648437 -1.09765625 5.26171875 C-1 3 -1 3 0 0 Z " fill="#343132" transform="translate(267,216)"/>
<path d="M0 0 C1.87988281 0.28881836 1.87988281 0.28881836 4 1 C5.43946601 3.5307685 6.61941545 5.90101663 7.75 8.5625 C8.06582031 9.27341797 8.38164063 9.98433594 8.70703125 10.71679688 C9.48454043 12.47208274 10.24401855 14.23533543 11 16 C12.32 14.02 13.64 12.04 15 10 C16.32 10.33 17.64 10.66 19 11 C17.44298069 15.67105792 14.91552627 19.08705685 12 23 C10.203125 22.90234375 10.203125 22.90234375 8 22 C6.296875 19.12890625 6.296875 19.12890625 4.75 15.5625 C4.22921875 14.38816406 3.7084375 13.21382812 3.171875 12.00390625 C2 9 2 9 2 7 C1.34 7 0.68 7 0 7 C-0.66 8.65 -1.32 10.3 -2 12 C-3.32 12 -4.64 12 -6 12 C-5.36934243 8.78147169 -4.21979305 6.49198931 -2.4375 3.75 C-1.98246094 3.04359375 -1.52742188 2.3371875 -1.05859375 1.609375 C-0.53458984 0.81273438 -0.53458984 0.81273438 0 0 Z " fill="#2E2A2B" transform="translate(52,127)"/>
<path d="M0 0 C1.32 0 2.64 0 4 0 C5.26237731 2.52475462 5.09856404 4.31200466 5.0625 7.125 C5.05347656 8.03507813 5.04445313 8.94515625 5.03515625 9.8828125 C5.02355469 10.58148438 5.01195313 11.28015625 5 12 C2.81462633 12.50921328 0.62657569 13.00694437 -1.5625 13.5 C-2.78066406 13.7784375 -3.99882813 14.056875 -5.25390625 14.34375 C-8.92222707 14.98637554 -12.28502603 15.11474823 -16 15 C-17.13764351 10.73383684 -18 7.43513689 -18 3 C-16.68 3 -15.36 3 -14 3 C-13.67 5.31 -13.34 7.62 -13 10 C-11.35 10 -9.7 10 -8 10 C-8.33 8.02 -8.66 6.04 -9 4 C-7.68 4 -6.36 4 -5 4 C-5 5.65 -5 7.3 -5 9 C-3.35 8.67 -1.7 8.34 0 8 C0 5.36 0 2.72 0 0 Z " fill="#2D2A2A" transform="translate(46,216)"/>
<path d="M0 0 C0.33 0 0.66 0 1 0 C1.09796875 0.56847656 1.1959375 1.13695312 1.296875 1.72265625 C2.37501512 7.28994878 4.05198098 11.17596888 7 16 C10.09316276 21.85491523 10.35101797 26.53866924 10 33 C9.34 33 8.68 33 8 33 C7.43410156 32.00097656 6.86820313 31.00195312 6.28515625 29.97265625 C5.5443558 28.66922254 4.80346575 27.36583975 4.0625 26.0625 C3.68931641 25.40314453 3.31613281 24.74378906 2.93164062 24.06445312 C1.23037187 20.84167167 1.23037187 20.84167167 -1 18 C-1.09986975 15.15664952 -1.13877881 12.34302837 -1.125 9.5 C-1.12886719 8.70207031 -1.13273438 7.90414062 -1.13671875 7.08203125 C-1.12660767 1.12660767 -1.12660767 1.12660767 0 0 Z " fill="#EE2850" transform="translate(157,158)"/>
<path d="M0 0 C1.875 0.3125 1.875 0.3125 4 1 C4.66 1.99 5.32 2.98 6 4 C6.763125 3.67 7.52625 3.34 8.3125 3 C11 2 11 2 14 2 C14.33 3.32 14.66 4.64 15 6 C12.25343799 7.17538461 9.50325878 8.34049752 6.75 9.5 C5.97269531 9.83386719 5.19539063 10.16773438 4.39453125 10.51171875 C3.64042969 10.82753906 2.88632812 11.14335937 2.109375 11.46875 C1.41811523 11.76201172 0.72685547 12.05527344 0.01464844 12.35742188 C-2 13 -2 13 -6 13 C-7.32 9.37 -8.64 5.74 -10 2 C-8.68 1.67 -7.36 1.34 -6 1 C-4.5393715 3.64738916 -4 4.89448334 -4 8 C-2.35 7.67 -0.7 7.34 1 7 C0.67 4.69 0.34 2.38 0 0 Z " fill="#2E2A2B" transform="translate(44,244)"/>
<path d="M0 0 C2 0 2 0 4.375 2.25 C5.24125 3.1575 6.1075 4.065 7 5 C7.78375 5.680625 8.5675 6.36125 9.375 7.0625 C9.91125 7.701875 10.4475 8.34125 11 9 C10.75 11.25 10.75 11.25 10 13 C8.02 12.34 6.04 11.68 4 11 C0.7 14.63 -2.6 18.26 -6 22 C-7.32 21.67 -8.64 21.34 -10 21 C-9.52590352 16.68269587 -6.96603297 14.66352539 -3.9375 11.75 C-3.01839844 10.85796875 -2.09929687 9.9659375 -1.15234375 9.046875 C-0.44207031 8.37140625 0.26820313 7.6959375 1 7 C0.34 6.01 -0.32 5.02 -1 4 C-0.625 1.8125 -0.625 1.8125 0 0 Z " fill="#353132" transform="translate(242,104)"/>
<path d="M0 0 C4.06762061 1.35587354 4.86334252 3.9484594 6.6875 7.5625 C7.00783203 8.17802734 7.32816406 8.79355469 7.65820312 9.42773438 C8.44746371 10.9473555 9.22487915 12.47311811 10 14 C11.65 13.67 13.3 13.34 15 13 C15.33 14.32 15.66 15.64 16 17 C14.40089132 18.00806851 12.79551738 19.00620385 11.1875 20 C10.29417969 20.556875 9.40085938 21.11375 8.48046875 21.6875 C6 23 6 23 3 23 C2.67 22.01 2.34 21.02 2 20 C2.99 19.34 3.98 18.68 5 18 C3.71631339 13.33204869 1.72214884 9.78650133 -0.9765625 5.83203125 C-2 4 -2 4 -2 1 C-1.34 0.67 -0.68 0.34 0 0 Z " fill="#2E2A2B" transform="translate(214,299)"/>
<path d="M0 0 C1.32 0.66 2.64 1.32 4 2 C4 2.66 4 3.32 4 4 C1.69404616 5.62946228 -0.60196707 7.1435897 -3 8.625 C-4.00160156 9.25535156 -4.00160156 9.25535156 -5.0234375 9.8984375 C-6.67831454 10.93864592 -8.33866288 11.97014051 -10 13 C-9.34 14.65 -8.68 16.3 -8 18 C-9.32 18.33 -10.64 18.66 -12 19 C-14.31 15.7 -16.62 12.4 -19 9 C-18.34 7.68 -17.68 6.36 -17 5 C-16.01 5.99 -15.02 6.98 -14 8 C-10.37723685 6.6744419 -7.36494652 5.05653045 -4.1875 2.875 C-3.39730469 2.33617187 -2.60710938 1.79734375 -1.79296875 1.2421875 C-1.20128906 0.83226562 -0.60960938 0.42234375 0 0 Z " fill="#2D2A2B" transform="translate(65,264)"/>
<path d="M0 0 C4.05214179 1.74522938 7.30603961 4.4228157 10.75 7.125 C11.35199219 7.59292969 11.95398438 8.06085938 12.57421875 8.54296875 C14.05186616 9.69225007 15.52626005 10.84571235 17 12 C16.67 13.32 16.34 14.64 16 16 C12.0479482 15.41827275 9.77904947 13.44842259 6.75 10.9375 C5.85796875 10.20402344 4.9659375 9.47054688 4.046875 8.71484375 C3.37140625 8.14894531 2.6959375 7.58304687 2 7 C1.38640625 7.30679687 0.7728125 7.61359375 0.140625 7.9296875 C-1.90625 8.953125 -3.953125 9.9765625 -6 11 C-6 6.63204596 -5.77237852 6.25341007 -3 3.25 C-2.443125 2.63640625 -1.88625 2.0228125 -1.3125 1.390625 C-0.6628125 0.70226562 -0.6628125 0.70226562 0 0 Z " fill="#2E2A2B" transform="translate(247,270)"/>
<path d="M0 0 C-0.33 1.32 -0.66 2.64 -1 4 C-3.55951745 4.70078445 -6.12159702 5.38585196 -8.6875 6.0625 C-9.40873047 6.26166016 -10.12996094 6.46082031 -10.87304688 6.66601562 C-14.92386473 7.72033808 -17.8823458 8.29133534 -22 7 C-22 6.01 -22 5.02 -22 4 C-19.27464312 3.13161176 -16.54583627 2.28007381 -13.8125 1.4375 C-13.04357422 1.19064453 -12.27464844 0.94378906 -11.48242188 0.68945312 C-7.31284385 -0.58110499 -4.29082831 -1.43600867 0 0 Z " fill="#343031" transform="translate(54,233)"/>
<path d="M0 0 C0 1.32 0 2.64 0 4 C-2.76203532 5.53723734 -5.53585152 7.05184161 -8.3125 8.5625 C-9.09818359 9.00013672 -9.88386719 9.43777344 -10.69335938 9.88867188 C-11.45068359 10.29794922 -12.20800781 10.70722656 -12.98828125 11.12890625 C-14.03302612 11.70233765 -14.03302612 11.70233765 -15.09887695 12.28735352 C-17 13 -17 13 -20 12 C-20.33 11.01 -20.66 10.02 -21 9 C-18.07178145 7.29599331 -15.131112 5.61475261 -12.1875 3.9375 C-11.35412109 3.45216797 -10.52074219 2.96683594 -9.66210938 2.46679688 C-8.45844727 1.78520508 -8.45844727 1.78520508 -7.23046875 1.08984375 C-6.49207764 0.66566162 -5.75368652 0.24147949 -4.99291992 -0.19555664 C-3 -1 -3 -1 0 0 Z " fill="#312D2E" transform="translate(62,254)"/>
<path d="M0 0 C0.375 2.1875 0.375 2.1875 0 5 C-3.23375481 8.46473729 -4.63519393 9.87362907 -9.375 10.3125 C-10.24125 10.209375 -11.1075 10.10625 -12 10 C-12.33 8.35 -12.66 6.7 -13 5 C-5.55168776 -1.31487342 -5.55168776 -1.31487342 0 0 Z " fill="#F5F5F5" transform="translate(265,134)"/>
<path d="M0 0 C6.93998648 2.16163513 13.43117569 4.8936214 20 8 C19.67 9.32 19.34 10.64 19 12 C14.15888235 11.41161801 10.03928805 9.92346884 5.625 7.9375 C4.98433594 7.65583984 4.34367187 7.37417969 3.68359375 7.08398438 C2.11970341 6.39540579 0.55946059 5.69855289 -1 5 C-0.67 3.35 -0.34 1.7 0 0 Z " fill="#302C2D" transform="translate(259,247)"/>
<path d="M0 0 C0.99 0.66 1.98 1.32 3 2 C1.46462136 5.75696002 -0.81248385 7.93533035 -3.8125 10.625 C-4.66457031 11.40101563 -5.51664063 12.17703125 -6.39453125 12.9765625 C-8.89485926 14.91834648 -11.01522106 16.00328746 -14 17 C-14.66 16.01 -15.32 15.02 -16 14 C-14.08539961 12.22688737 -12.16842507 10.45646638 -10.25 8.6875 C-9.44175781 7.93823242 -9.44175781 7.93823242 -8.6171875 7.17382812 C-5.84396048 4.62043007 -3.07809771 2.18903551 0 0 Z " fill="#2F2B2C" transform="translate(256,118)"/>
<path d="M0 0 C1.32 0.66 2.64 1.32 4 2 C0.19648587 7.82665994 -3.76017897 13.48221873 -8 19 C-9.32 18.67 -10.64 18.34 -12 18 C-11.12565831 13.62056977 -8.73129025 10.73799319 -6 7.3125 C-5.30390625 6.42208008 -5.30390625 6.42208008 -4.59375 5.51367188 C-1.24503968 1.24503968 -1.24503968 1.24503968 0 0 Z " fill="#2F2B2C" transform="translate(235,99)"/>
<path d="M0 0 C1.875 0.75 1.875 0.75 2.875 1.75 C3.12999568 6.16992518 3.24741176 9.90895238 0.875 13.75 C-1.75 14.5625 -1.75 14.5625 -4.125 14.75 C-5.35191067 12.29617866 -5.32675931 10.55015897 -5.375 7.8125 C-5.40078125 6.93722656 -5.4265625 6.06195313 -5.453125 5.16015625 C-5.125 2.75 -5.125 2.75 -3.7421875 0.91796875 C-2.125 -0.25 -2.125 -0.25 0 0 Z " fill="#F7F7F7" transform="translate(181.125,79.25)"/>
<path d="M0 0 C5.66129431 4.69766975 10.85228904 9.74723372 16 15 C15.01 16.485 15.01 16.485 14 18 C9.67495164 16.34136495 6.90581175 13.128959 3.75 9.875 C3.19570312 9.31167969 2.64140625 8.74835938 2.0703125 8.16796875 C0.70895515 6.78313972 -0.64614859 5.39216796 -2 4 C-1.34 2.68 -0.68 1.36 0 0 Z " fill="#272324" transform="translate(237,281)"/>
<path d="M0 0 C1.17369141 -0.02513672 1.17369141 -0.02513672 2.37109375 -0.05078125 C4.5625 0.3125 4.5625 0.3125 6.34765625 1.58203125 C7.5625 3.3125 7.5625 3.3125 7.5625 7.3125 C2.6125 7.3125 -2.3375 7.3125 -7.4375 7.3125 C-6.26821859 1.46609293 -5.7515132 0.02833258 0 0 Z " fill="#E9E9E9" transform="translate(38.4375,201.6875)"/>
<path d="M0 0 C2.1875 -0.375 2.1875 -0.375 5 0 C7.88922526 2.76081525 9.73433527 4.73071295 10.5625 8.6875 C9.83097129 11.69489583 8.48279981 12.28721365 6 14 C4.80285445 12.04754815 3.61751926 10.08785003 2.4375 8.125 C1.77621094 7.03445312 1.11492187 5.94390625 0.43359375 4.8203125 C-0.03949219 3.88960938 -0.51257813 2.95890625 -1 2 C-0.67 1.34 -0.34 0.68 0 0 Z " fill="#F3F3F3" transform="translate(94,94)"/>
<path d="M0 0 C1.8125 1.1875 1.8125 1.1875 3 3 C3.1875 5.6875 3.1875 5.6875 3 8 C2.34 7.01 1.68 6.02 1 5 C0.67 5.99 0.34 6.98 0 8 C-1.65 8.33 -3.3 8.66 -5 9 C-5.33 7.35 -5.66 5.7 -6 4 C-6.66 5.32 -7.32 6.64 -8 8 C-8.36075949 3.55063291 -8.36075949 3.55063291 -6.8125 1.1875 C-4.35092224 -0.42525784 -2.88934264 -0.4334014 0 0 Z " fill="#989697" transform="translate(225,235)"/>
<path d="M0 0 C2.31 0.66 4.62 1.32 7 2 C6.01 5.3 5.02 8.6 4 12 C2.68 12 1.36 12 0 12 C-0.625 10.1875 -0.625 10.1875 -1 8 C-0.34 7.01 0.32 6.02 1 5 C0.34 4.67 -0.32 4.34 -1 4 C-0.67 2.68 -0.34 1.36 0 0 Z " fill="#363233" transform="translate(200,92)"/>
<path d="M0 0 C1.98 0 3.96 0 6 0 C6.66 1.32 7.32 2.64 8 4 C6 6 6 6 2.875 6.125 C1.451875 6.063125 1.451875 6.063125 0 6 C0 4.02 0 2.04 0 0 Z " fill="#E1E0E0" transform="translate(173,247)"/>
<path d="M0 0 C0.33 0 0.66 0 1 0 C1 1.98 1 3.96 1 6 C1.66 6 2.32 6 3 6 C3.33 5.34 3.66 4.68 4 4 C4.66 4.33 5.32 4.66 6 5 C6.33 3.68 6.66 2.36 7 1 C7.33 1 7.66 1 8 1 C8 2.98 8 4.96 8 7 C1.25 8.125 1.25 8.125 -1 7 C-1.04254356 5.00045254 -1.04080783 2.99958364 -1 1 C-0.67 0.67 -0.34 0.34 0 0 Z " fill="#CBCACA" transform="translate(219,238)"/>
<path d="M0 0 C0.33 1.32 0.66 2.64 1 4 C-0.98 4.99 -0.98 4.99 -3 6 C-6 2.25 -6 2.25 -6 0 C-3.50907189 -1.24546405 -2.58919267 -0.7767578 0 0 Z " fill="#EBEAEA" transform="translate(83,106)"/>
<path d="M0 0 C1.66611905 -0.042721 3.33382885 -0.04063832 5 0 C6 1 6 1 6.0625 3.5625 C6.041875 4.366875 6.02125 5.17125 6 6 C4.68 6.33 3.36 6.66 2 7 C0.5393715 4.35261084 0 3.10551666 0 0 Z " fill="#EBEBEB" transform="translate(121,82)"/>
<path d="M0 0 C2.625 0.375 2.625 0.375 5 1 C5 1.99 5 2.98 5 4 C3.35 4.66 1.7 5.32 0 6 C-0.66 4.68 -1.32 3.36 -2 2 C-1.34 1.34 -0.68 0.68 0 0 Z " fill="#F2F2F2" transform="translate(65,285)"/>
<path d="M0 0 C1.98 0 3.96 0 6 0 C5.67 1.65 5.34 3.3 5 5 C3.35 4.67 1.7 4.34 0 4 C0 2.68 0 1.36 0 0 Z " fill="#FCFCFC" transform="translate(279,204)"/>
<path d="M0 0 C1.65 0 3.3 0 5 0 C5 1.65 5 3.3 5 5 C3.35 5.33 1.7 5.66 0 6 C0 4.02 0 2.04 0 0 Z " fill="#494546" transform="translate(220,238)"/>
<path d="M0 0 C2.35953094 2.35953094 2.49141413 3.77895617 3 7 C1.35 7 -0.3 7 -2 7 C-1.125 1.125 -1.125 1.125 0 0 Z " fill="#E4E4E4" transform="translate(203,250)"/>
<path d="M0 0 C1.65 1.65 3.3 3.3 5 5 C2.69 4.67 0.38 4.34 -2 4 C-1.34 2.68 -0.68 1.36 0 0 Z " fill="#D0CFCF" transform="translate(261,263)"/>
<path d="M0 0 C2.31 0.33 4.62 0.66 7 1 C6.67 2.32 6.34 3.64 6 5 C3.98079663 3.69593116 1.98075027 2.36176581 0 1 C0 0.67 0 0.34 0 0 Z " fill="#D0D0D0" transform="translate(45,153)"/>
<path d="M0 0 C2 3 2 3 1.7578125 5.04296875 C1.171875 7.02864583 0.5859375 9.01432292 0 11 C-0.33 11 -0.66 11 -1 11 C-1.0270043 9.54176788 -1.04639787 8.08339325 -1.0625 6.625 C-1.07410156 5.81289062 -1.08570313 5.00078125 -1.09765625 4.1640625 C-1 2 -1 2 0 0 Z " fill="#FAC7D1" transform="translate(144,214)"/>
<path d="M0 0 C1.98 0.99 3.96 1.98 6 3 C5.67 3.99 5.34 4.98 5 6 C4.34 6 3.68 6 3 6 C0 2.53846154 0 2.53846154 0 0 Z " fill="#DBDADA" transform="translate(66,121)"/>
</svg>
