<svg id="Capa_1" data-name="Capa 1" xmlns="http://www.w3.org/2000/svg" viewBox="0 0 61.03 30.8"><defs><style>.cls-1{isolation:isolate;font-size:20px;font-family:Montserrat-Bold, Montserrat;font-weight:700;}.cls-2{fill:#f29100;}.cls-3{fill:#f9bf79;}</style></defs><title>logo-negro</title><text class="cls-1" transform="translate(7.53 25.62)">n</text><text class="cls-1" transform="translate(21.43 25.62)">elar</text><path class="cls-2" d="M6.1,3.5A2.89,2.89,0,0,1,3.5,6.6H3.3c-1.6,0-4.4-3-2.8-3.1C4.8,3.2,2-.7,3.5.1,5.2,1.1,5.9,1.8,6.1,3.5Z" transform="translate(-0.02 0.01)"/><rect x="2.08" y="10.81" width="3.7" height="15"/><path class="cls-3" d="M7.6,6.2A3.49,3.49,0,0,1,4,9.3C2,9.3.5,8,.5,6.5.5,5.2,4.3,9,5.6,6,6.9,2.7,7.6,4.7,7.6,6.2Z" transform="translate(-0.02 0.01)"/></svg>