<?xml version="1.0" encoding="UTF-8"?>
<svg version="1.1" xmlns="http://www.w3.org/2000/svg" width="512" height="512">
<path d="M0 0 C1.01852051 0.41588379 2.03704102 0.83176758 3.08642578 1.26025391 C4.03243652 1.6629248 4.97844727 2.0655957 5.953125 2.48046875 C6.78489258 2.83391357 7.61666016 3.1873584 8.47363281 3.55151367 C11.06302163 4.98589733 12.80305722 6.59223483 14.75 8.8125 C15.53135174 11.57147993 15.42831199 14.03085082 14.75 16.8125 C12.375 19.3125 12.375 19.3125 9.75 20.8125 C9.09 20.8125 8.43 20.8125 7.75 20.8125 C7.76351757 52.55843565 7.80262646 84.30421245 7.87685562 116.05006019 C7.88562109 119.80835677 7.89417113 123.5666538 7.90258789 127.32495117 C7.90426695 128.07307758 7.90594602 128.82120398 7.90767596 129.59200088 C7.93425702 141.66375903 7.94343464 153.73546968 7.94604143 165.8072541 C7.94911414 178.21834752 7.97121202 190.62930492 8.01052457 203.04033691 C8.034145 210.68240678 8.04338847 218.32420411 8.03351311 225.96630529 C8.02750734 231.85234095 8.04812766 237.73810702 8.07806015 243.62407494 C8.08622611 246.01956316 8.08612411 248.41509801 8.07659721 250.81058121 C8.02536129 265.12389594 9.36635945 277.88921774 13.21004736 291.68765986 C14.87159709 298.22624737 14.99246868 304.80033682 15.0625 311.5 C15.09150391 312.43650391 15.12050781 313.37300781 15.15039062 314.33789062 C15.21353937 321.1433824 15.21353937 321.1433824 12.91796875 324.45703125 C10.75 325.8125 10.75 325.8125 7.75 325.8125 C7.75 357.1625 7.75 388.5125 7.75 420.8125 C-24.59 420.8125 -56.93 420.8125 -90.25 420.8125 C-90.58 422.4625 -90.91 424.1125 -91.25 425.8125 C-94.26338929 428.47137291 -95.83538207 428.81964858 -99.875 428.75 C-103.69203886 427.68971143 -104.33543531 427.15140526 -106.25 423.8125 C-106.5973053 421.27088928 -106.5973053 421.27088928 -106.55883789 418.36743164 C-106.54881493 416.72775169 -106.54881493 416.72775169 -106.53858948 415.0549469 C-106.51683151 413.87279099 -106.49507355 412.69063507 -106.47265625 411.47265625 C-106.45917397 409.62479774 -106.45917397 409.62479774 -106.44541931 407.73960876 C-106.42043817 404.45129 -106.38367623 401.16341325 -106.3394165 397.87530518 C-106.04502721 375.9977079 -105.95350835 354.52977246 -110.3125 333 C-113.68102613 315.75665248 -113.68102613 315.75665248 -111.9375 311.9375 C-110.25 309.8125 -110.25 309.8125 -108.25 307.8125 C-108.44782865 305.80556994 -108.44782865 305.80556994 -109.125 303.6875 C-109.32867187 302.96304687 -109.53234375 302.23859375 -109.7421875 301.4921875 C-109.90976562 300.93789063 -110.07734375 300.38359375 -110.25 299.8125 C-111.136875 299.915625 -112.02375 300.01875 -112.9375 300.125 C-117.41984305 299.70213745 -118.34361084 298.20549921 -121.25 294.8125 C-122.87375169 292.14107609 -124.24774233 289.36723749 -125.625 286.5625 C-128.94152131 280.06540302 -132.43449263 274.32885586 -137.25 268.8125 C-137.77851563 268.1421875 -138.30703125 267.471875 -138.8515625 266.78125 C-151.14861309 251.62848624 -171.14201637 242.89809073 -190.25 240.8125 C-193.81361262 240.65295135 -197.37062719 240.62256195 -200.9375 240.625 C-201.91267578 240.62435547 -202.88785156 240.62371094 -203.89257812 240.62304688 C-210.0038943 240.66783334 -215.82367771 241.06038047 -221.8125 242.375 C-225.78128455 243.08734594 -229.07707492 243.49156189 -232.625 241.4375 C-233.16125 240.90125 -233.6975 240.365 -234.25 239.8125 C-234.25 239.1525 -234.25 238.4925 -234.25 237.8125 C-235.00925781 238.10125 -235.76851563 238.39 -236.55078125 238.6875 C-237.54464844 239.05875 -238.53851563 239.43 -239.5625 239.8125 C-240.54863281 240.18375 -241.53476563 240.555 -242.55078125 240.9375 C-245.25 241.8125 -245.25 241.8125 -248.25 241.8125 C-247.82847656 242.56015625 -247.40695313 243.3078125 -246.97265625 244.078125 C-246.42480469 245.06296875 -245.87695312 246.0478125 -245.3125 247.0625 C-244.49458984 248.52429688 -244.49458984 248.52429688 -243.66015625 250.015625 C-239.82818051 257.61588714 -240.20830897 266.58299159 -242.8125 274.5625 C-246.48054659 283.46328438 -252.45618346 289.02514463 -261.25 292.8125 C-264.79444543 293.99398181 -268.21817741 293.97954168 -271.9375 294 C-273.09636719 294.01417969 -274.25523437 294.02835937 -275.44921875 294.04296875 C-279.25 293.8125 -279.25 293.8125 -281.27434635 293.08026409 C-283.73339814 292.20489375 -285.63185158 291.77598343 -288.25 291.8125 C-291.83918647 293.77632624 -294.42587386 296.6074566 -297.22631836 299.5559082 C-298.07298065 300.4025705 -298.91964294 301.24923279 -299.79196167 302.12155151 C-302.10336158 304.4435154 -304.38857247 306.78797698 -306.66451335 309.1446116 C-309.05241417 311.60512003 -311.47203063 314.03402132 -313.88856506 316.46635437 C-318.45903312 321.07614787 -323.00116729 325.71282172 -327.53337342 330.36020583 C-333.19512943 336.16331542 -338.89079592 341.93278605 -344.58789062 347.70117188 C-346.5793026 349.71771797 -348.57051341 351.73446223 -350.56141663 353.75151062 C-351.04340549 354.23980935 -351.52539435 354.72810808 -352.02198893 355.23120373 C-355.35261749 358.60743706 -358.67308049 361.99340976 -361.98973083 365.38337708 C-362.86793991 366.2796431 -363.74614899 367.17590912 -364.65097046 368.09933472 C-366.29612324 369.77903743 -367.9392447 371.46073291 -369.58000183 373.14472961 C-370.30177612 373.881026 -371.02355042 374.61732239 -371.76719666 375.37593079 C-372.39523162 376.01917455 -373.02326658 376.66241831 -373.67033291 377.3251543 C-376.08016976 379.59415167 -377.17520001 379.80685472 -380.5625 380.0625 C-384.47987566 379.79691521 -386.03984116 378.91208754 -389.25 376.8125 C-389.86752136 377.43446259 -390.48504272 378.05642517 -391.12127686 378.69723511 C-396.94260854 384.55864608 -402.7687442 390.41522998 -408.60032272 396.26644707 C-411.59820044 399.27476056 -414.59418985 402.28490555 -417.5859375 405.29931641 C-420.47336957 408.208484 -423.3656642 411.11273438 -426.26139069 414.01364517 C-427.36512975 415.1210787 -428.46710739 416.23027066 -429.56728363 417.34124374 C-431.10890986 418.89739413 -432.65668871 420.44716624 -434.20605469 421.99560547 C-435.08541687 422.87940887 -435.96477905 423.76321228 -436.87078857 424.67379761 C-440.38340254 427.83132947 -442.05205303 428.87554984 -446.8125 428.625 C-451.29053144 427.56655621 -451.29053144 427.56655621 -453.25 424.8125 C-453.03320312 422.66699219 -453.03320312 422.66699219 -452.53125 420.109375 C-452.3623027 413.70204855 -455.3395878 410.56356067 -459.53125 406.140625 C-461.53441706 404.09785928 -463.56505333 402.09281881 -465.62792969 400.11035156 C-467.75238891 398.06019465 -469.81796952 395.96157085 -471.8828125 393.8515625 C-473.22078874 392.5280381 -474.56183687 391.20761041 -475.90625 389.890625 C-476.5211731 389.26375793 -477.13609619 388.63689087 -477.76965332 387.99102783 C-481.07051713 384.77981986 -481.07051713 384.77981986 -485.38378906 383.71179199 C-487.35321547 383.99389234 -489.30418805 384.39772677 -491.25 384.8125 C-493.68063337 383.67475672 -495.36813896 382.69436104 -497.25 380.8125 C-497.98315627 377.1356459 -498.19270604 375.36502968 -497.25 371.8125 C-494.03436268 367.30541326 -490.07710998 363.59156038 -486.09375 359.77734375 C-484.94836097 358.64875639 -483.80495451 357.51815373 -482.66345215 356.38563538 C-479.66455255 353.42097668 -476.63962122 350.48434614 -473.6083374 347.55285645 C-470.51558503 344.55243869 -467.44839021 341.52613837 -464.37890625 338.50195312 C-458.36057023 332.57992337 -452.31446979 326.68727588 -446.25 320.8125 C-446.55808594 320.05582031 -446.86617188 319.29914063 -447.18359375 318.51953125 C-448.56625734 315.0096929 -449.3146536 312.62706267 -449.25 308.8125 C-448.06640625 307.06933594 -448.06640625 307.06933594 -446.375 305.234375 C-445.73506104 304.53658936 -445.09512207 303.83880371 -444.43579102 303.11987305 C-443.71447998 302.35843994 -442.99316895 301.59700684 -442.25 300.8125 C-441.47261475 299.98596924 -440.69522949 299.15943848 -439.89428711 298.30786133 C-437.35095325 295.63744799 -434.77391887 293.00366179 -432.1875 290.375 C-431.31544922 289.46556641 -430.44339844 288.55613281 -429.54492188 287.61914062 C-428.2677832 286.32459961 -428.2677832 286.32459961 -426.96484375 285.00390625 C-425.82196899 283.83130249 -425.82196899 283.83130249 -424.65600586 282.63500977 C-421.79157746 280.46525248 -419.80815069 280.04079314 -416.25 279.8125 C-415.0434375 280.245625 -415.0434375 280.245625 -413.8125 280.6875 C-410.58266088 280.84505313 -409.86872714 280.1226965 -407.4375 278.0625 C-404.77544187 275.15534027 -404.77544187 275.15534027 -404.27709961 271.36735535 C-404.40093018 270.49226822 -404.52476074 269.61718109 -404.65234375 268.71557617 C-404.78593921 263.5763657 -403.62976266 261.33691182 -400.2109375 257.5246582 C-398.37093132 255.68638744 -396.5186523 253.89302054 -394.625 252.11328125 C-393.6361173 251.14494856 -392.64965996 250.17413341 -391.66552734 249.20097351 C-389.08504972 246.66223575 -386.47328982 244.15828563 -383.85327148 241.66046143 C-381.17911241 239.09940539 -378.53632567 236.50640308 -375.890625 233.91601562 C-370.7070527 228.84995335 -365.48997193 223.82027462 -360.25 218.8125 C-360.46194 218.1262001 -360.67388 217.43990021 -360.89224243 216.73280334 C-361.16708466 215.83234787 -361.44192688 214.9318924 -361.72509766 214.00415039 C-361.99891266 213.11160049 -362.27272766 212.2190506 -362.55484009 211.29945374 C-365.08726989 202.23961634 -362.91596325 193.74946899 -358.5625 185.6875 C-352.64955636 178.33627278 -345.84669415 172.98282856 -336.25 171.8125 C-325.88341159 171.10968045 -318.05807367 174.06209368 -310.25 180.8125 C-309.49976563 181.45445312 -308.74953125 182.09640625 -307.9765625 182.7578125 C-306.05182988 184.4259141 -304.14412006 186.10980697 -302.25 187.8125 C-301.97534637 183.79272158 -301.97534637 183.79272158 -302.25 179.8125 C-302.91 179.1525 -303.57 178.4925 -304.25 177.8125 C-306.25 175.8125 -306.25 175.8125 -306.546875 172.24609375 C-306.41349392 167.46050974 -305.12842282 163.34620857 -303.5 158.875 C-303.19489502 158.02381592 -302.88979004 157.17263184 -302.57543945 156.2956543 C-291.55998641 126.62882444 -274.85852907 98.79594498 -254.25 74.8125 C-253.37618155 73.75638378 -252.50387297 72.69901709 -251.6328125 71.640625 C-240.43300836 58.15096278 -228.14647289 45.52977981 -214.25 34.8125 C-213.18679431 33.95038689 -212.12570949 33.08565369 -211.06640625 32.21875 C-202.22900297 25.03971107 -192.93659249 18.78558552 -183.25 12.8125 C-182.36924805 12.26166748 -182.36924805 12.26166748 -181.47070312 11.69970703 C-126.47188358 -22.45796123 -58.92739759 -24.12487836 0 0 Z " fill="#6DC6E9" transform="translate(497.25,61.1875)"/>
<path d="M0 0 C5.46215459 4.45105153 10.30091275 9.47132651 14.8762207 14.81591797 C19.36850376 19.95525142 24.17749226 24.75854201 29.0078125 29.578125 C29.97246605 30.54345408 30.93697127 31.5089314 31.90133667 32.47454834 C33.90835568 34.48303045 35.91714354 36.48972126 37.92724609 38.49511719 C40.49375012 41.05590153 43.05570608 43.62118184 45.61636543 46.18780899 C47.60147091 48.176538 49.58896421 50.16286696 51.57717514 52.14849091 C52.97932088 53.54965336 54.37946745 54.95281549 55.77957153 56.35601807 C56.63751312 57.2108075 57.49545471 58.06559692 58.37939453 58.94628906 C59.12883331 59.69493225 59.87827209 60.44357544 60.65042114 61.21490479 C62.89449469 63.38940988 62.89449469 63.38940988 65.57296753 65.46038818 C67.89819413 67.33116095 68.89186306 68.63721986 70.125 71.3125 C70.43953125 71.9725 70.7540625 72.6325 71.078125 73.3125 C74.50390975 81.910548 73.67188278 91.33728444 70.1953125 99.7734375 C66.04036819 107.76371502 59.56968986 113.08093671 51.0234375 115.9296875 C48.06104175 116.45753256 45.19570189 116.48345323 42.1875 116.5 C41.02863281 116.51417969 39.86976563 116.52835937 38.67578125 116.54296875 C34.875 116.3125 34.875 116.3125 32.85065365 115.58026409 C30.39160186 114.70489375 28.49314842 114.27598343 25.875 114.3125 C22.28581353 116.27632624 19.69912614 119.1074566 16.89868164 122.0559082 C16.05201935 122.9025705 15.20535706 123.74923279 14.33303833 124.62155151 C12.02163842 126.9435154 9.73642753 129.28797698 7.46048665 131.6446116 C5.07258583 134.10512003 2.65296937 136.53402132 0.23643494 138.96635437 C-4.33403312 143.57614787 -8.87616729 148.21282172 -13.40837342 152.86020583 C-19.07012943 158.66331542 -24.76579592 164.43278605 -30.46289062 170.20117188 C-32.4543026 172.21771797 -34.44551341 174.23446223 -36.43641663 176.25151062 C-37.15939992 176.98395871 -37.15939992 176.98395871 -37.89698893 177.73120373 C-41.22761749 181.10743706 -44.54808049 184.49340976 -47.86473083 187.88337708 C-48.74293991 188.7796431 -49.62114899 189.67590912 -50.52597046 190.59933472 C-52.17112324 192.27903743 -53.8142447 193.96073291 -55.45500183 195.64472961 C-56.53766327 196.74917419 -56.53766327 196.74917419 -57.64219666 197.87593079 C-58.5842491 198.84079643 -58.5842491 198.84079643 -59.54533291 199.8251543 C-61.95516976 202.09415167 -63.05020001 202.30685472 -66.4375 202.5625 C-70.35487566 202.29691521 -71.91484116 201.41208754 -75.125 199.3125 C-75.74252136 199.93446259 -76.36004272 200.55642517 -76.99627686 201.19723511 C-82.81760854 207.05864608 -88.6437442 212.91522998 -94.47532272 218.76644707 C-97.47320044 221.77476056 -100.46918985 224.78490555 -103.4609375 227.79931641 C-106.34836957 230.708484 -109.2406642 233.61273438 -112.13639069 236.51364517 C-113.24012975 237.6210787 -114.34210739 238.73027066 -115.44228363 239.84124374 C-116.98390986 241.39739413 -118.53168871 242.94716624 -120.08105469 244.49560547 C-120.96041687 245.37940887 -121.83977905 246.26321228 -122.74578857 247.17379761 C-126.25840254 250.33132947 -127.92705303 251.37554984 -132.6875 251.125 C-137.16553144 250.06655621 -137.16553144 250.06655621 -139.125 247.3125 C-138.90820312 245.16699219 -138.90820312 245.16699219 -138.40625 242.609375 C-138.2373027 236.20204855 -141.2145878 233.06356067 -145.40625 228.640625 C-147.40941706 226.59785928 -149.44005333 224.59281881 -151.50292969 222.61035156 C-153.62738891 220.56019465 -155.69296952 218.46157085 -157.7578125 216.3515625 C-159.09578874 215.0280381 -160.43683687 213.70761041 -161.78125 212.390625 C-162.3961731 211.76375793 -163.01109619 211.13689087 -163.64465332 210.49102783 C-166.94551713 207.27981986 -166.94551713 207.27981986 -171.25878906 206.21179199 C-173.22821547 206.49389234 -175.17918805 206.89772677 -177.125 207.3125 C-179.55563337 206.17475672 -181.24313896 205.19436104 -183.125 203.3125 C-183.85815627 199.6356459 -184.06770604 197.86502968 -183.125 194.3125 C-179.90936268 189.80541326 -175.95210998 186.09156038 -171.96875 182.27734375 C-170.82336097 181.14875639 -169.67995451 180.01815373 -168.53845215 178.88563538 C-165.53955255 175.92097668 -162.51462122 172.98434614 -159.4833374 170.05285645 C-156.39058503 167.05243869 -153.32339021 164.02613837 -150.25390625 161.00195312 C-144.23557023 155.07992337 -138.18946979 149.18727588 -132.125 143.3125 C-132.43308594 142.55582031 -132.74117187 141.79914063 -133.05859375 141.01953125 C-134.44125734 137.5096929 -135.1896536 135.12706267 -135.125 131.3125 C-133.94140625 129.56933594 -133.94140625 129.56933594 -132.25 127.734375 C-131.61006104 127.03658936 -130.97012207 126.33880371 -130.31079102 125.61987305 C-129.58947998 124.85843994 -128.86816895 124.09700684 -128.125 123.3125 C-127.34761475 122.48596924 -126.57022949 121.65943848 -125.76928711 120.80786133 C-123.22595325 118.13744799 -120.64891887 115.50366179 -118.0625 112.875 C-116.75442383 111.51084961 -116.75442383 111.51084961 -115.41992188 110.11914062 C-114.56849609 109.25611328 -113.71707031 108.39308594 -112.83984375 107.50390625 C-111.69696899 106.33130249 -111.69696899 106.33130249 -110.53100586 105.13500977 C-107.66657746 102.96525248 -105.68315069 102.54079314 -102.125 102.3125 C-101.320625 102.60125 -100.51625 102.89 -99.6875 103.1875 C-96.45766088 103.34505313 -95.74372714 102.6226965 -93.3125 100.5625 C-90.65044187 97.65534027 -90.65044187 97.65534027 -90.15209961 93.86735535 C-90.27593018 92.99226822 -90.39976074 92.11718109 -90.52734375 91.21557617 C-90.66093921 86.0763657 -89.50476266 83.83691182 -86.0859375 80.0246582 C-84.24593132 78.18638744 -82.3936523 76.39302054 -80.5 74.61328125 C-79.5111173 73.64494856 -78.52465996 72.67413341 -77.54052734 71.70097351 C-74.96004972 69.16223575 -72.34828982 66.65828563 -69.72827148 64.16046143 C-67.05411241 61.59940539 -64.41132567 59.00640308 -61.765625 56.41601562 C-56.5820527 51.34995335 -51.36497193 46.32027462 -46.125 41.3125 C-46.33694 40.6262001 -46.54888 39.93990021 -46.76724243 39.23280334 C-47.04208466 38.33234787 -47.31692688 37.4318924 -47.60009766 36.50415039 C-47.87391266 35.61160049 -48.14772766 34.7190506 -48.42984009 33.79945374 C-50.96226989 24.73961634 -48.79096325 16.24946899 -44.4375 8.1875 C-33.36052578 -5.58387336 -15.26386607 -10.98399774 0 0 Z " fill="#010100" transform="translate(183.125,238.6875)"/>
<path d="M0 0 C6.04265914 5.00255879 11.56098043 10.43177324 17.08984375 15.9921875 C18.04368954 16.94790248 18.99775941 17.90339388 19.95204163 18.8586731 C22.44153194 21.35194916 24.92800224 23.84821525 27.41381836 26.34515381 C29.95957994 28.90121509 32.50823777 31.45438505 35.05664062 34.0078125 C40.04057069 39.00241019 45.02131048 44.00017799 50 49 C45.69682388 54.14249007 41.1865617 58.9521007 36.43408203 63.67944336 C35.70168808 64.41198334 34.96929413 65.14452332 34.21470642 65.89926147 C31.81477343 68.29850275 29.41132745 70.69419129 27.0078125 73.08984375 C25.3346507 74.76113873 23.66171085 76.43265592 21.98898315 78.10438538 C17.60182061 82.48774351 13.21166243 86.86808925 8.82086182 91.24780273 C4.3344815 95.72392418 -0.14904292 100.20290426 -4.6328125 104.68164062 C-13.41909099 113.45721843 -22.2085386 122.22961471 -31 131 C-35.05382735 127.58418599 -38.99629253 124.12834755 -42.74194336 120.37158203 C-44.03248878 119.08092331 -44.03248878 119.08092331 -45.34910583 117.76419067 C-46.25354935 116.85458588 -47.15799286 115.94498108 -48.08984375 115.0078125 C-49.04368954 114.05209752 -49.99775941 113.09660612 -50.95204163 112.1413269 C-53.44153194 109.64805084 -55.92800224 107.15178475 -58.41381836 104.65484619 C-60.95957994 102.09878491 -63.50823777 99.54561495 -66.05664062 96.9921875 C-71.04057069 91.99758981 -76.02131048 86.99982201 -81 82 C-74.80039363 74.63545748 -74.80039363 74.63545748 -71.5703125 71.71875 C-71.003125 71.18636719 -70.4359375 70.65398437 -69.8515625 70.10546875 C-68.68789274 69.02341383 -67.51306577 67.95325007 -66.328125 66.89453125 C-63.22174984 63.93846457 -62.07922205 62.75665146 -61.6171875 58.34375 C-61.74351563 57.2403125 -61.86984375 56.136875 -62 55 C-62 50.44907076 -61.54768964 49.87053846 -58.5625 46.6875 C-54.76357966 43.01588034 -54.76357966 43.01588034 -51.74609375 42.953125 C-50.27625138 43.2700997 -48.80826136 43.59582122 -47.3425293 43.93128967 C-44.96333077 44.21709631 -44.96333077 44.21709631 -43.12255859 42.83226013 C-42.51234863 42.25524857 -41.90213867 41.678237 -41.2734375 41.08374023 C-40.23364746 40.11245682 -40.23364746 40.11245682 -39.17285156 39.12155151 C-38.45581055 38.42143951 -37.73876953 37.72132751 -37 37 C-36.29584961 36.31882111 -35.59169922 35.63764221 -34.86621094 34.93582153 C-32.60056985 32.71601178 -30.36031237 30.47299009 -28.125 28.22265625 C-27.31506592 27.41130722 -26.50513184 26.59995819 -25.6706543 25.76402283 C-23.11138985 23.19920861 -20.5556447 20.63092052 -18 18.0625 C-16.25413867 16.31161717 -14.50804713 14.56096387 -12.76171875 12.81054688 C-8.50514802 8.54301384 -4.25145284 4.27263134 0 0 Z " fill="#545D76" transform="translate(148,291)"/>
<path d="M0 0 C1.01852051 0.41588379 2.03704102 0.83176758 3.08642578 1.26025391 C4.03243652 1.6629248 4.97844727 2.0655957 5.953125 2.48046875 C6.78489258 2.83391357 7.61666016 3.1873584 8.47363281 3.55151367 C11.06302163 4.98589733 12.80305722 6.59223483 14.75 8.8125 C15.53418017 11.58146722 15.38933706 14.01540038 14.75 16.8125 C12.8125 19.4375 12.8125 19.4375 9.75 20.8125 C2.83871432 20.15428232 -2.99658785 17.25360722 -9.296875 14.46484375 C-15.79415994 11.67391947 -22.54147152 9.55690116 -29.28027344 7.43359375 C-30.89107767 6.92567531 -32.49706596 6.40250571 -34.1015625 5.875 C-36.80307308 5.05168249 -39.48767971 4.40367173 -42.25 3.8125 C-42.87922363 3.67714844 -43.50844727 3.54179688 -44.15673828 3.40234375 C-56.72430937 0.8421228 -69.28493858 0.49546225 -82.0625 0.4375 C-82.84292664 0.42973541 -83.62335327 0.42197083 -84.4274292 0.41397095 C-95.3876266 0.32804982 -105.56090491 1.4021773 -116.25 3.8125 C-117.14372314 4.00585938 -118.03744629 4.19921875 -118.95825195 4.3984375 C-145.5838921 10.39350281 -170.37424213 22.63181837 -192.25 38.8125 C-192.82685547 39.2338623 -193.40371094 39.65522461 -193.99804688 40.08935547 C-201.19222378 45.36549724 -207.90990023 51.05444313 -214.41015625 57.16015625 C-217.02183013 59.59939499 -219.68613733 61.95922081 -222.375 64.3125 C-232.16890361 73.13794743 -240.29316197 83.35605859 -248.25 93.8125 C-248.93280029 94.70195312 -248.93280029 94.70195312 -249.62939453 95.609375 C-267.25845984 118.65554208 -280.38929109 143.82292393 -290.0690918 171.12255859 C-292.05115933 176.59308961 -292.05115933 176.59308961 -294.0625 178.8125 C-297.04632843 180.17653585 -299.00498859 180.28573083 -302.25 179.8125 C-304.625 178.3125 -304.625 178.3125 -306.25 175.8125 C-306.72534433 169.55832681 -305.63115314 164.72657003 -303.5 158.875 C-303.19489502 158.02381592 -302.88979004 157.17263184 -302.57543945 156.2956543 C-291.55998641 126.62882444 -274.85852907 98.79594498 -254.25 74.8125 C-253.37618155 73.75638378 -252.50387297 72.69901709 -251.6328125 71.640625 C-240.43300836 58.15096278 -228.14647289 45.52977981 -214.25 34.8125 C-213.18679431 33.95038689 -212.12570949 33.08565369 -211.06640625 32.21875 C-202.22900297 25.03971107 -192.93659249 18.78558552 -183.25 12.8125 C-182.66283203 12.44527832 -182.07566406 12.07805664 -181.47070312 11.69970703 C-126.47188358 -22.45796123 -58.92739759 -24.12487836 0 0 Z " fill="#000101" transform="translate(497.25,61.1875)"/>
<path d="M0 0 C2.90543872 1.31376917 4.96661059 2.72056492 7.20800781 4.98095703 C7.80832825 5.58142853 8.40864868 6.18190002 9.02716064 6.80056763 C9.66272888 7.44645844 10.29829712 8.09234924 10.953125 8.7578125 C11.61334656 9.42086395 12.27356812 10.08391541 12.95379639 10.76705933 C15.05727824 12.88171832 17.15369142 15.00323212 19.25 17.125 C20.67662261 18.56165557 22.10370072 19.99785898 23.53125 21.43359375 C27.02613661 24.95050804 30.51470062 28.47358547 34 32 C32.450168 35.70044944 30.19605329 38.04581087 27.36669922 40.86035156 C26.89823578 41.32910706 26.42977234 41.79786255 25.94711304 42.28082275 C24.40433305 43.82221432 22.85460036 45.35640873 21.3046875 46.890625 C20.23093808 47.96064255 19.15763067 49.03110381 18.08474731 50.10198975 C15.26479548 52.91431879 12.43888846 55.72058889 9.61169434 58.52563477 C6.7257863 61.39105523 3.84555743 64.26217168 0.96484375 67.1328125 C-4.68456489 72.76079512 -10.34027825 78.38238884 -16 84 C-18.90543872 82.68623083 -20.96661059 81.27943508 -23.20800781 79.01904297 C-23.80832825 78.41857147 -24.40864868 77.81809998 -25.02716064 77.19943237 C-25.66272888 76.55354156 -26.29829712 75.90765076 -26.953125 75.2421875 C-27.94345734 74.24761032 -27.94345734 74.24761032 -28.95379639 73.23294067 C-31.05727824 71.11828168 -33.15369142 68.99676788 -35.25 66.875 C-36.67662261 65.43834443 -38.10370072 64.00214102 -39.53125 62.56640625 C-43.02613661 59.04949196 -46.51470062 55.52641453 -50 52 C-48.450168 48.29955056 -46.19605329 45.95418913 -43.36669922 43.13964844 C-42.89823578 42.67089294 -42.42977234 42.20213745 -41.94711304 41.71917725 C-40.40433305 40.17778568 -38.85460036 38.64359127 -37.3046875 37.109375 C-36.23093808 36.03935745 -35.15763067 34.96889619 -34.08474731 33.89801025 C-31.26479548 31.08568121 -28.43888846 28.27941111 -25.61169434 25.47436523 C-22.7257863 22.60894477 -19.84555743 19.73782832 -16.96484375 16.8671875 C-11.31543511 11.23920488 -5.65972175 5.61761116 0 0 Z " fill="#FEEB3F" transform="translate(63,392)"/>
<path d="M0 0 C7.38561539 6.25557019 7.38561539 6.25557019 10.52734375 9.4296875 C11.09130859 9.996875 11.65527344 10.5640625 12.23632812 11.1484375 C12.79771484 11.71820313 13.35910156 12.28796875 13.9375 12.875 C14.82018555 13.76445312 14.82018555 13.76445312 15.72070312 14.671875 C17.14947674 16.11226466 18.57508132 17.5557967 20 19 C18.64680663 22.01947899 17.13702023 24.11100877 14.79830933 26.44219971 C14.13925598 27.10400238 13.48020264 27.76580505 12.80117798 28.44766235 C12.07901093 29.16263885 11.35684387 29.87761536 10.61279297 30.61425781 C9.85172241 31.37562042 9.09065186 32.13698303 8.30651855 32.92141724 C5.78978644 35.43675604 3.26604416 37.94493661 0.7421875 40.453125 C-1.00416872 42.19575111 -2.7500839 43.93881931 -4.49557495 45.68231201 C-9.09103696 50.27013748 -13.69247349 54.85192517 -18.29516602 59.43249512 C-22.99075464 64.10762586 -27.68068622 68.78842168 -32.37109375 73.46875 C-41.57519177 82.65139772 -50.78541868 91.8278727 -60 101 C-63.3247945 99.42411996 -65.51631617 97.7182851 -68.109375 95.0859375 C-69.24052734 93.94511719 -69.24052734 93.94511719 -70.39453125 92.78125 C-71.17183594 91.9871875 -71.94914062 91.193125 -72.75 90.375 C-73.54277344 89.57320313 -74.33554688 88.77140625 -75.15234375 87.9453125 C-77.10614493 85.96797154 -79.05512103 83.98611091 -81 82 C-78.024962 78.38057392 -75.00220214 74.91429436 -71.5703125 71.71875 C-71.003125 71.18636719 -70.4359375 70.65398437 -69.8515625 70.10546875 C-68.68789274 69.02341383 -67.51306577 67.95325007 -66.328125 66.89453125 C-63.22174984 63.93846457 -62.07922205 62.75665146 -61.6171875 58.34375 C-61.74351563 57.2403125 -61.86984375 56.136875 -62 55 C-62 50.44907076 -61.54768964 49.87053846 -58.5625 46.6875 C-54.76357966 43.01588034 -54.76357966 43.01588034 -51.74609375 42.953125 C-50.27625138 43.2700997 -48.80826136 43.59582122 -47.3425293 43.93128967 C-44.96333077 44.21709631 -44.96333077 44.21709631 -43.12255859 42.83226013 C-42.51234863 42.25524857 -41.90213867 41.678237 -41.2734375 41.08374023 C-40.23364746 40.11245682 -40.23364746 40.11245682 -39.17285156 39.12155151 C-38.45581055 38.42143951 -37.73876953 37.72132751 -37 37 C-36.29584961 36.31882111 -35.59169922 35.63764221 -34.86621094 34.93582153 C-32.60056985 32.71601178 -30.36031237 30.47299009 -28.125 28.22265625 C-27.31506592 27.41130722 -26.50513184 26.59995819 -25.6706543 25.76402283 C-23.11138985 23.19920861 -20.5556447 20.63092052 -18 18.0625 C-16.25413867 16.31161717 -14.50804713 14.56096387 -12.76171875 12.81054688 C-8.50514802 8.54301384 -4.25145284 4.27263134 0 0 Z " fill="#3D465A" transform="translate(148,291)"/>
<path d="M0 0 C3.00808645 0.0032014 6.01522491 -0.02052894 9.02319336 -0.0456543 C10.94832234 -0.04792394 12.87345394 -0.04863235 14.79858398 -0.04760742 C15.69130508 -0.05681717 16.58402618 -0.06602692 17.50379944 -0.07551575 C22.76554467 -0.03628142 26.50885184 0.40484793 30.41967773 4.31567383 C30.89663184 11.7084625 30.89663184 11.7084625 29.16177368 13.91711426 C27.01043843 15.6442123 25.95048467 15.69286854 23.21801758 15.70043945 C22.37218109 15.71055054 21.5263446 15.72066162 20.65487671 15.7310791 C19.73937042 15.72805786 18.82386414 15.72503662 17.88061523 15.72192383 C16.92635651 15.73276001 15.97209778 15.74359619 14.98892212 15.75476074 C11.92410678 15.78906756 8.85965967 15.80459326 5.79467773 15.81567383 C-7.99942777 15.86677957 -21.08437627 16.32562053 -34.58032227 19.31567383 C-35.51585937 19.51418945 -36.45139648 19.71270508 -37.4152832 19.91723633 C-48.72186319 22.43691019 -59.19989616 26.20759279 -69.58032227 31.31567383 C-70.53116699 31.77780273 -70.53116699 31.77780273 -71.5012207 32.24926758 C-86.8425343 39.79084142 -99.92478041 49.90103522 -112.58032227 61.31567383 C-113.32926758 61.99114258 -114.07821289 62.66661133 -114.84985352 63.36254883 C-125.89897837 73.89409757 -134.61843154 87.00627608 -142.22485352 100.15942383 C-145.71678338 105.98237812 -145.71678338 105.98237812 -150.14282227 107.69067383 C-153.58032227 107.31567383 -153.58032227 107.31567383 -156.51782227 105.25317383 C-158.97639766 101.75156645 -159.01331278 100.50804082 -158.58032227 96.31567383 C-151.77662815 80.50709045 -139.41414947 66.5685459 -127.58032227 54.31567383 C-126.66072033 53.33291063 -125.7414529 52.34983432 -124.82250977 51.36645508 C-92.48760188 17.32091188 -46.39769485 -0.10355772 0 0 Z " fill="#010303" transform="translate(383.580322265625,160.684326171875)"/>
<path d="M0 0 C5.28862252 2.69603755 9.19705045 5.76605367 13.34667969 9.97436523 C13.9378508 10.56188568 14.52902191 11.14940613 15.1381073 11.75473022 C17.07347908 13.68205269 18.9978602 15.61993894 20.921875 17.55859375 C22.27180716 18.90904509 23.62225906 20.25897707 24.97320557 21.6084137 C27.79532057 24.43061817 30.61221893 27.25789569 33.42529297 30.08911133 C37.02696486 33.71350188 40.63963969 37.32668052 44.25605392 40.93635464 C47.04285092 43.71980726 49.82463059 46.50822976 52.60483551 49.29826546 C53.93514236 50.63241403 55.26679134 51.96522577 56.59981537 53.29665947 C58.46182956 55.15830193 60.31719931 57.02632277 62.17089844 58.89624023 C62.71951035 59.44237473 63.26812225 59.98850922 63.83335876 60.55119324 C67.34202918 64.10886752 70.59246853 67.44293978 71.3984375 72.5 C71.33743077 79.00738441 70.38175117 82.32052993 66 87.25 C62.25969357 90.52276812 57.87784949 90.67058842 53.08251953 90.55792236 C49.41061101 89.89332321 48.13546324 88.84868233 45.46484375 86.28417969 C44.60028564 85.46300659 43.73572754 84.6418335 42.8449707 83.79577637 C41.90613037 82.87317017 40.96729004 81.95056396 40 81 C38.97702814 80.00632302 37.95382735 79.01288169 36.93041992 78.01965332 C33.47162656 74.64614988 30.04673087 71.2391567 26.625 67.828125 C26.00781097 67.21376335 25.39062195 66.5994017 24.75473022 65.96642303 C21.50129491 62.72784424 18.25063861 59.48650796 15.00244141 56.24267578 C11.65573963 52.90150152 8.29982339 49.56974091 4.94177246 46.23997879 C2.34768275 43.6644979 -0.23968905 41.08234788 -2.82525635 38.4983139 C-4.06033106 37.26625999 -5.29789955 36.03670059 -6.5380249 34.80973053 C-8.26558139 33.0992298 -9.98342436 31.37951453 -11.69921875 29.65722656 C-12.20930984 29.15635025 -12.71940094 28.65547394 -13.24494934 28.13941956 C-17.29315491 24.04303092 -19.27212979 20.33351865 -19.375 14.5625 C-19.253882 10.00543517 -18.06661546 7.47011749 -15 4 C-10.40558736 -0.06017861 -5.96195761 -1.29732198 0 0 Z " fill="#FDEA3F" transform="translate(169,249)"/>
<path d="M0 0 C1.9375 1.0625 1.9375 1.0625 3 3 C3.61057692 8.49519231 3.61057692 8.49519231 3 11 C0.35600763 14.22615583 -2.48940571 15.96078468 -6.1875 17.8125 C-11.63823808 20.69391547 -16.26670441 24.07372224 -21 28 C-21.56976563 28.42410156 -22.13953125 28.84820312 -22.7265625 29.28515625 C-49.71216695 50.19580235 -62.2100937 92.87624093 -67 125 C-67.2897648 127.67490586 -67.56127661 130.34426759 -67.80078125 133.0234375 C-67.86214767 133.70232529 -67.9235141 134.38121307 -67.98674011 135.08067322 C-68.28097458 138.42396183 -68.53645001 141.76258021 -68.7487793 145.11254883 C-69.5294132 155.28372956 -69.5294132 155.28372956 -72.40625 158.32421875 C-75.66761291 160.43133424 -77.19168072 160.79339985 -81 160 C-84.24471708 157.42331291 -85.82309231 155.94738726 -86.59375 151.8203125 C-85.35500984 102.99330437 -70.31674911 51.00771783 -34.50390625 16.19140625 C-11.32369043 -4.09580292 -11.32369043 -4.09580292 0 0 Z " fill="#000000" transform="translate(259,23)"/>
<path d="M0 0 C2.72871681 0.55339459 5.27003494 1.39944677 7.875 2.375 C8.59260498 2.63756592 9.31020996 2.90013184 10.04956055 3.1706543 C28.40870779 10.17224184 43.76072089 20.54032715 58 34 C58.81082031 34.74636719 59.62164062 35.49273437 60.45703125 36.26171875 C83.12691254 57.86058203 99.08848365 90.66315471 100.23828125 122.13671875 C100.26852582 123.98689737 100.29315863 125.83717528 100.3125 127.6875 C100.34150391 128.62400391 100.37050781 129.56050781 100.40039062 130.52539062 C100.4636337 137.34104827 100.4636337 137.34104827 98.1640625 140.609375 C95.15155428 142.5452106 93.51604526 142.64580423 90 142 C87.11668289 139.94354797 85.29226106 138.2923309 84.49243164 134.75561523 C84.23087233 131.98066324 84.09852161 129.22297458 84 126.4375 C82.91434535 109.0546417 78.68612398 93.59578176 71 78 C70.51660156 77.00613281 70.03320312 76.01226562 69.53515625 74.98828125 C55.58824403 47.90577303 31.24784797 28.47317872 3 18 C0.11152993 17.18839307 -2.7592152 16.45171475 -5.6953125 15.8359375 C-8.60296038 14.78129912 -10.02615497 13.35545507 -12 11 C-13.27547525 7.25329146 -13.34179601 5.71466438 -11.625 2.125 C-7.85833562 -0.9242045 -4.69554131 -0.42721493 0 0 Z " fill="#010303" transform="translate(412,245)"/>
<path d="M0 0 C1.58056471 1.33303744 3.1437168 2.68703388 4.6875 4.0625 C5.80705078 5.05830078 5.80705078 5.05830078 6.94921875 6.07421875 C16.09060553 14.70509179 22.84046329 25.08196606 28.8125 36.0625 C29.20308594 36.76826172 29.59367187 37.47402344 29.99609375 38.20117188 C32.13450207 42.27969973 33.34769933 45.34482559 32.6875 50.0625 C30.23155875 53.38524404 28.7618356 54.83868008 24.6875 55.6875 C20.6144841 54.83895502 19.41049717 53.19682605 16.6875 50.0625 C15.06169859 47.39234211 13.68973706 44.61719551 12.3125 41.8125 C8.99597869 35.31540302 5.50300737 29.57885586 0.6875 24.0625 C-0.10527344 23.05703125 -0.10527344 23.05703125 -0.9140625 22.03125 C-13.21111309 6.87848624 -33.20451637 -1.85190927 -52.3125 -3.9375 C-55.87611262 -4.09704865 -59.43312719 -4.12743805 -63 -4.125 C-63.97517578 -4.12564453 -64.95035156 -4.12628906 -65.95507812 -4.12695312 C-72.0663943 -4.08216666 -77.88617771 -3.68961953 -83.875 -2.375 C-87.66446071 -1.69484039 -91.07798333 -1.45019079 -94.6875 -2.875 C-96.95670138 -5.75514021 -96.83836041 -8.10123539 -96.94140625 -11.68359375 C-95.99245507 -15.08449332 -94.25845763 -16.08087083 -91.3125 -17.9375 C-60.99079283 -27.92056821 -24.72048991 -19.15933194 0 0 Z " fill="#010202" transform="translate(359.3125,305.9375)"/>
<path d="M0 0 C2.42670362 -0.00967682 4.85254772 -0.04077494 7.27905273 -0.07226562 C20.68948705 -0.16476139 33.15222685 1.57315288 45.76147461 6.42773438 C46.55626221 6.7288916 47.3510498 7.03004883 48.16992188 7.34033203 C66.91282297 14.64539227 82.0962164 26.07497616 96.26147461 40.24023438 C96.88858607 44.27166521 96.56758206 45.80426315 94.19897461 49.17773438 C91.26147461 51.24023438 91.26147461 51.24023438 87.92163086 51.17773438 C83.54137895 50.05579152 81.89940895 48.51731366 78.76147461 45.30273438 C57.77302579 24.84746392 30.88820494 16.03022772 2.01147461 15.99023438 C1.24847046 15.98789795 0.48546631 15.98556152 -0.30065918 15.9831543 C-10.54507198 15.97128422 -20.36615762 16.38042721 -30.41040039 18.58398438 C-38.35491031 20.15050746 -38.35491031 20.15050746 -42.11352539 17.67773438 C-44.36193058 14.30512659 -44.30636484 12.21511055 -43.73852539 8.24023438 C-40.71771422 4.29274925 -37.90548943 3.47181395 -33.11352539 2.55273438 C-31.96625977 2.32199219 -30.81899414 2.09125 -29.63696289 1.85351562 C-19.74875729 0.29795623 -9.9920409 0.0239977 0 0 Z " fill="#020304" transform="translate(405.738525390625,103.759765625)"/>
<path d="M0 0 C3.75 0.3125 3.75 0.3125 6.5 1.5625 C12.63291039 9.05827936 12.68437758 21.76612018 13.875 31.0625 C14.04386719 32.30515625 14.21273438 33.5478125 14.38671875 34.828125 C16.35983998 49.86734821 16.91745156 64.75074501 16.88037109 79.89526367 C16.87498411 82.50770813 16.88036899 85.11998239 16.88671875 87.73242188 C16.9041519 115.04467728 16.9041519 115.04467728 12.75 119.3125 C8.77655839 120.41623378 6.66000228 120.72793583 2.875 119 C0.75 117.3125 0.75 117.3125 -0.25 115.3125 C-0.33064745 113.57481762 -0.3467012 111.83397132 -0.33178711 110.09448242 C-0.3252562 109.0012114 -0.31872528 107.90794037 -0.31199646 106.78153992 C-0.30056107 105.58906143 -0.28912567 104.39658295 -0.27734375 103.16796875 C-0.26467034 100.62695462 -0.25231148 98.08593891 -0.24023438 95.54492188 C-0.21676898 91.55227298 -0.18800784 87.55971375 -0.15405273 83.56713867 C0.00480651 63.63968547 -0.34572071 44.09257149 -4.3125 24.5 C-7.68424086 7.24019639 -7.68424086 7.24019639 -5.875 3.375 C-3.4795082 0.3345681 -3.4795082 0.3345681 0 0 Z " fill="#010203" transform="translate(391.25,369.6875)"/>
<path d="M0 0 C2.79570164 1.34727261 4.83967803 2.59706233 7.015625 4.8203125 C7.54414062 5.35527344 8.07265625 5.89023437 8.6171875 6.44140625 C9.15601563 6.99699219 9.69484375 7.55257813 10.25 8.125 C11.08144531 8.96998047 11.08144531 8.96998047 11.9296875 9.83203125 C13.29104485 11.21686028 14.64614859 12.60783204 16 14 C14.450168 17.70044944 12.19605329 20.04581087 9.36669922 22.86035156 C8.89823578 23.32910706 8.42977234 23.79786255 7.94711304 24.28082275 C6.40433305 25.82221432 4.85460036 27.35640873 3.3046875 28.890625 C2.23093808 29.96064255 1.15763067 31.03110381 0.08474731 32.10198975 C-2.73520452 34.91431879 -5.56111154 37.72058889 -8.38830566 40.52563477 C-11.2742137 43.39105523 -14.15444257 46.26217168 -17.03515625 49.1328125 C-22.68456489 54.76079512 -28.34027825 60.38238884 -34 66 C-36.79570164 64.65272739 -38.83967803 63.40293767 -41.015625 61.1796875 C-41.54414062 60.64472656 -42.07265625 60.10976563 -42.6171875 59.55859375 C-43.15601563 59.00300781 -43.69484375 58.44742188 -44.25 57.875 C-44.80429687 57.31167969 -45.35859375 56.74835938 -45.9296875 56.16796875 C-47.29104485 54.78313972 -48.64614859 53.39216796 -50 52 C-48.450168 48.29955056 -46.19605329 45.95418913 -43.36669922 43.13964844 C-42.89823578 42.67089294 -42.42977234 42.20213745 -41.94711304 41.71917725 C-40.40433305 40.17778568 -38.85460036 38.64359127 -37.3046875 37.109375 C-36.23093808 36.03935745 -35.15763067 34.96889619 -34.08474731 33.89801025 C-31.26479548 31.08568121 -28.43888846 28.27941111 -25.61169434 25.47436523 C-22.7257863 22.60894477 -19.84555743 19.73782832 -16.96484375 16.8671875 C-11.31543511 11.23920488 -5.65972175 5.61761116 0 0 Z " fill="#FBC641" transform="translate(63,392)"/>
<path d="M0 0 C5.63964231 2.714653 9.61787793 6.2091777 13.9375 10.6875 C14.82018555 11.57791992 14.82018555 11.57791992 15.72070312 12.48632812 C20 16.84514736 20 16.84514736 20 18 C18.80375 18.2475 17.6075 18.495 16.375 18.75 C10.10885611 20.33314236 5.46483048 23.504062 2 29 C0.82214924 32.29090492 -0.13242539 35.61514451 -1 39 C-5.07844089 35.61576182 -9.00322055 32.1235018 -12.8125 28.4375 C-13.56144531 27.71433594 -14.31039062 26.99117188 -15.08203125 26.24609375 C-18.77666988 21.91937846 -19.45949435 17.74159983 -19.3125 12.2109375 C-18.63046491 7.38553921 -15.8275802 4.73134994 -12.3125 1.625 C-8.11464191 -0.43432661 -4.58983601 -0.99874832 0 0 Z " fill="#FBC642" transform="translate(169,249)"/>
</svg>
