<?xml version="1.0" encoding="UTF-8"?>
<svg version="1.1" xmlns="http://www.w3.org/2000/svg" width="900" height="900">
<path d="M0 0 C1.29524094 -0.00860046 2.59048187 -0.01720093 3.92497253 -0.02606201 C5.35858114 -0.03049694 6.79219018 -0.03479532 8.22579956 -0.03897095 C9.73724047 -0.04687566 11.2486795 -0.05514484 12.76011658 -0.06375122 C17.72245491 -0.08993215 22.68480151 -0.10527657 27.64718628 -0.11953735 C29.35819377 -0.12489896 31.0692012 -0.13027647 32.78020859 -0.13566971 C39.90038129 -0.15729412 47.02055176 -0.17602874 54.14074898 -0.1872921 C64.32970994 -0.20351819 74.51828881 -0.23666825 84.70710576 -0.29369295 C91.87925785 -0.33245894 99.05130804 -0.35193274 106.22356212 -0.35721266 C110.50303741 -0.36085748 114.78210479 -0.37278535 119.06146622 -0.4053154 C123.09174741 -0.43551314 127.12137638 -0.44166668 131.15174675 -0.42993164 C132.62467703 -0.42971187 134.09763862 -0.43793675 135.57046318 -0.45558548 C145.70312095 -0.57031914 153.30096737 0.57208855 161.17453003 7.2515564 C161.69917847 7.89995483 162.2238269 8.54835327 162.76437378 9.21640015 C163.58615112 10.19286499 163.58615112 10.19286499 164.42453003 11.1890564 C166.70276443 14.69349647 166.82721557 18.0640423 166.83050823 22.17119312 C166.83373268 23.18850854 166.83695712 24.20582395 166.84027928 25.25396711 C166.83795638 26.92772673 166.83795638 26.92772673 166.83558655 28.63529968 C166.8378521 29.82209216 166.84011766 31.00888463 166.84245187 32.23164052 C166.84769307 35.52696484 166.84843573 38.82223468 166.84725749 42.11755931 C166.8470536 45.67117065 166.85257115 49.22477381 166.85731506 52.77838135 C166.86562489 59.74120991 166.86837006 66.70403001 166.86892744 73.66686312 C166.86940247 79.32651112 166.87145658 84.98615633 166.87462807 90.64580345 C166.88343578 106.6899334 166.8880473 122.73405666 166.88729759 138.77818904 C166.88725764 139.64330408 166.88721768 140.50841911 166.88717651 141.39974976 C166.88713563 142.26592048 166.88709475 143.13209119 166.88705263 144.02450951 C166.8866462 158.06159998 166.89621484 172.09866363 166.91031488 186.13574634 C166.92467655 200.54695683 166.93158517 214.95815424 166.9307211 229.36937207 C166.93038905 237.46093865 166.93313989 245.55247711 166.94389915 253.64403725 C166.95300143 260.53365483 166.95518167 267.42323155 166.94838973 274.31285254 C166.94512306 277.82761363 166.94507311 281.3422963 166.95374298 284.85704994 C166.96304817 288.66858624 166.9568357 292.48000782 166.94911194 296.29154968 C166.9542555 297.40069727 166.95939906 298.50984485 166.96469849 299.65260297 C166.92454611 308.60315526 165.95089662 314.6393256 159.70187378 321.35702515 C153.57728555 326.85958488 146.73107395 328.26177553 138.67658997 328.31452942 C137.46700623 328.32457504 136.25742249 328.33462067 135.01118469 328.3449707 C133.69215652 328.3508017 132.37312836 328.35663269 131.01412964 328.36264038 C129.60430676 328.3721864 128.19448619 328.38207788 126.78466797 328.39228821 C122.16204583 328.42359299 117.53940616 328.44393395 112.91671753 328.4624939 C112.1284304 328.46579122 111.34014327 328.46908854 110.52796865 328.47248578 C103.08399753 328.50326771 95.64002214 328.52995578 88.19600582 328.54690456 C78.70020563 328.56878417 69.20497269 328.61071054 59.70939916 328.68034214 C53.01872368 328.72772518 46.32820046 328.75185721 39.63736254 328.75910145 C35.6483726 328.76403686 31.66002299 328.77891385 27.67121696 328.81884575 C23.91249762 328.85597936 20.15477721 328.86403598 16.39590836 328.85083961 C14.37759179 328.85091842 12.35934233 328.88059682 10.34126282 328.91152954 C1.64069342 328.84292599 -5.06377508 327.1354007 -12.29812622 322.15390015 C-15.04640234 319.3469761 -17.28198158 316.52350121 -19.29812622 313.15390015 C-19.81405366 312.35626409 -20.3299811 311.55862803 -20.8615427 310.73682117 C-22.9101681 305.62743288 -22.71549136 300.94008857 -22.68580627 295.4834137 C-22.69119181 294.30040706 -22.69657735 293.11740041 -22.70212609 291.89854509 C-22.71394628 288.62291243 -22.71233943 285.34760637 -22.70495927 282.07197082 C-22.70022715 278.5360598 -22.71273794 275.00020323 -22.72297668 271.46430969 C-22.74017014 264.53982938 -22.74100344 257.6154398 -22.73576378 250.69094368 C-22.73172128 245.0613869 -22.7331666 239.43185691 -22.73851204 233.80230141 C-22.73926046 233.00085809 -22.74000888 232.19941478 -22.74077998 231.3736853 C-22.74231148 229.74549608 -22.74384983 228.11730687 -22.74539495 226.48911766 C-22.75912238 211.22059456 -22.75368097 195.95212269 -22.74220974 180.68360076 C-22.7322807 166.72231414 -22.74521189 152.76116011 -22.76914393 138.79989394 C-22.79354171 124.45865935 -22.80314091 110.11748651 -22.79649121 95.77623159 C-22.79300003 87.72708075 -22.79522414 79.67803184 -22.81274223 71.62889671 C-22.82747286 64.77557009 -22.82808866 57.92241715 -22.81067132 51.06909391 C-22.80216525 47.5742436 -22.80000165 44.07970342 -22.81532288 40.58486938 C-22.82850456 36.79139943 -22.81700835 32.99877127 -22.79933167 29.20533752 C-22.80893667 28.10727081 -22.81854168 27.0092041 -22.82843775 25.87786263 C-22.75420346 18.12937602 -21.37695094 11.8100045 -16.29812622 5.77890015 C-15.63812622 5.24265015 -14.97812622 4.70640015 -14.29812622 4.15390015 C-13.30812622 3.31858765 -13.30812622 3.31858765 -12.29812622 2.46640015 C-8.40580302 -0.08793695 -4.56857732 0.02260179 0 0 Z " fill="#000000" transform="translate(377.2981262207031,285.8460998535156)"/>
<path d="M0 0 C1.29524094 -0.00860046 2.59048187 -0.01720093 3.92497253 -0.02606201 C5.35858114 -0.03049694 6.79219018 -0.03479532 8.22579956 -0.03897095 C9.73724047 -0.04687566 11.2486795 -0.05514484 12.76011658 -0.06375122 C17.72245491 -0.08993215 22.68480151 -0.10527657 27.64718628 -0.11953735 C29.35819377 -0.12489896 31.0692012 -0.13027647 32.78020859 -0.13566971 C39.90038129 -0.15729412 47.02055176 -0.17602874 54.14074898 -0.1872921 C64.32970994 -0.20351819 74.51828881 -0.23666825 84.70710576 -0.29369295 C91.87925785 -0.33245894 99.05130804 -0.35193274 106.22356212 -0.35721266 C110.50303741 -0.36085748 114.78210479 -0.37278535 119.06146622 -0.4053154 C123.09174741 -0.43551314 127.12137638 -0.44166668 131.15174675 -0.42993164 C132.62467703 -0.42971187 134.09763862 -0.43793675 135.57046318 -0.45558548 C145.70312095 -0.57031914 153.30096737 0.57208855 161.17453003 7.2515564 C161.69917847 7.89995483 162.2238269 8.54835327 162.76437378 9.21640015 C163.58615112 10.19286499 163.58615112 10.19286499 164.42453003 11.1890564 C166.70276443 14.69349647 166.82721557 18.0640423 166.83050823 22.17119312 C166.83373268 23.18850854 166.83695712 24.20582395 166.84027928 25.25396711 C166.83795638 26.92772673 166.83795638 26.92772673 166.83558655 28.63529968 C166.8378521 29.82209216 166.84011766 31.00888463 166.84245187 32.23164052 C166.84769307 35.52696484 166.84843573 38.82223468 166.84725749 42.11755931 C166.8470536 45.67117065 166.85257115 49.22477381 166.85731506 52.77838135 C166.86562489 59.74120991 166.86837006 66.70403001 166.86892744 73.66686312 C166.86940247 79.32651112 166.87145658 84.98615633 166.87462807 90.64580345 C166.88343578 106.6899334 166.8880473 122.73405666 166.88729759 138.77818904 C166.88725764 139.64330408 166.88721768 140.50841911 166.88717651 141.39974976 C166.88713563 142.26592048 166.88709475 143.13209119 166.88705263 144.02450951 C166.8866462 158.06159998 166.89621484 172.09866363 166.91031488 186.13574634 C166.92467655 200.54695683 166.93158517 214.95815424 166.9307211 229.36937207 C166.93038905 237.46093865 166.93313989 245.55247711 166.94389915 253.64403725 C166.95300143 260.53365483 166.95518167 267.42323155 166.94838973 274.31285254 C166.94512306 277.82761363 166.94507311 281.3422963 166.95374298 284.85704994 C166.96304817 288.66858624 166.9568357 292.48000782 166.94911194 296.29154968 C166.9542555 297.40069727 166.95939906 298.50984485 166.96469849 299.65260297 C166.92454611 308.60315526 165.95089662 314.6393256 159.70187378 321.35702515 C153.57728555 326.85958488 146.73107395 328.26177553 138.67658997 328.31452942 C137.46700623 328.32457504 136.25742249 328.33462067 135.01118469 328.3449707 C133.69215652 328.3508017 132.37312836 328.35663269 131.01412964 328.36264038 C129.60430676 328.3721864 128.19448619 328.38207788 126.78466797 328.39228821 C122.16204583 328.42359299 117.53940616 328.44393395 112.91671753 328.4624939 C112.1284304 328.46579122 111.34014327 328.46908854 110.52796865 328.47248578 C103.08399753 328.50326771 95.64002214 328.52995578 88.19600582 328.54690456 C78.70020563 328.56878417 69.20497269 328.61071054 59.70939916 328.68034214 C53.01872368 328.72772518 46.32820046 328.75185721 39.63736254 328.75910145 C35.6483726 328.76403686 31.66002299 328.77891385 27.67121696 328.81884575 C23.91249762 328.85597936 20.15477721 328.86403598 16.39590836 328.85083961 C14.37759179 328.85091842 12.35934233 328.88059682 10.34126282 328.91152954 C1.64069342 328.84292599 -5.06377508 327.1354007 -12.29812622 322.15390015 C-15.04640234 319.3469761 -17.28198158 316.52350121 -19.29812622 313.15390015 C-20.07264193 311.92302799 -20.07264193 311.92302799 -20.86280441 310.66728973 C-22.81429239 305.89042541 -22.70718001 301.70740674 -22.6656189 296.59591675 C-22.66888774 295.53233838 -22.67215658 294.46876 -22.67552447 293.37295198 C-22.68280812 289.80825321 -22.66864406 286.24396448 -22.65457153 282.67929077 C-22.65536244 280.12300039 -22.65745979 277.56671012 -22.6607666 275.01042175 C-22.6653723 268.78339709 -22.65608441 262.55652453 -22.64047864 256.32952189 C-22.62290253 249.06012673 -22.62151845 241.79075519 -22.62086305 234.5213421 C-22.61917463 221.52888054 -22.60336424 208.53647478 -22.57937622 195.54403687 C-22.556195 182.97925352 -22.5419621 170.41450549 -22.5383606 157.84970093 C-22.53802644 156.69235399 -22.53802644 156.69235399 -22.53768554 155.5116263 C-22.53724289 153.95694783 -22.53680087 152.40226936 -22.53635947 150.84759089 C-22.53613991 150.08039116 -22.53592034 149.31319143 -22.53569412 148.52274323 C-22.53537014 147.37458332 -22.53537014 147.37458332 -22.53503962 146.20322827 C-22.53131756 134.18323765 -22.51995251 122.16325263 -22.50756373 110.14326826 C-22.50315821 105.80982897 -22.4997077 101.4763902 -22.4969416 97.14294958 C-22.49204393 89.60064719 -22.48180603 82.05837635 -22.46611404 74.51608849 C-22.46164212 72.02586291 -22.45876472 69.5356338 -22.45770645 67.04540443 C-22.44991458 52.05257462 -22.12047891 37.12507975 -21.29812622 22.15390015 C-20.96812622 22.15390015 -20.63812622 22.15390015 -20.29812622 22.15390015 C-19.96812622 24.79390015 -19.63812622 27.43390015 -19.29812622 30.15390015 C-18.80312622 25.69890015 -18.80312622 25.69890015 -18.29812622 21.15390015 C-17.96812622 21.15390015 -17.63812622 21.15390015 -17.29812622 21.15390015 C-17.29888566 21.74121792 -17.2996451 22.32853569 -17.30042756 22.93365097 C-17.34518912 57.74717167 -17.37950208 92.56068742 -17.40025688 127.37423092 C-17.40275828 131.55485639 -17.40534692 135.7354818 -17.4079895 139.91610718 C-17.40851412 140.74839022 -17.40903874 141.58067325 -17.40957926 142.43817699 C-17.41828055 155.91225593 -17.43404901 169.3863178 -17.45243181 182.86038661 C-17.47113854 196.68725591 -17.48224458 210.51411626 -17.48630321 224.3409977 C-17.48904666 232.87208498 -17.49770998 241.40312399 -17.51395915 249.93419641 C-17.52453557 255.78522326 -17.52772535 261.63622517 -17.52512898 267.48726088 C-17.5238487 270.86239793 -17.52689899 274.23738274 -17.53653717 277.6125164 C-17.54648376 281.27505994 -17.54409594 284.93739677 -17.53863525 288.59994507 C-17.54446094 289.66221691 -17.55028662 290.72448875 -17.55628884 291.81895065 C-17.52520188 299.53035713 -16.41634398 306.02654527 -13.29812622 313.15390015 C-13.95812622 313.15390015 -14.61812622 313.15390015 -15.29812622 313.15390015 C-13.50980847 316.21153233 -13.50980847 316.21153233 -11.29812622 319.15390015 C-8.37266182 319.37750694 -8.37266182 319.37750694 -6.29812622 318.15390015 C-4.13406372 318.7124939 -4.13406372 318.7124939 -1.67312622 319.59140015 C-0.8558606 319.87886108 -0.03859497 320.16632202 0.80343628 320.4624939 C1.74316284 320.80473999 1.74316284 320.80473999 2.70187378 321.15390015 C2.70187378 321.81390015 2.70187378 322.47390015 2.70187378 323.15390015 C47.25187378 322.82390015 91.80187378 322.49390015 137.70187378 322.15390015 C137.70187378 321.82390015 137.70187378 321.49390015 137.70187378 321.15390015 C122.19187378 320.82390015 106.68187378 320.49390015 90.70187378 320.15390015 C90.70187378 319.82390015 90.70187378 319.49390015 90.70187378 319.15390015 C91.68120125 319.14510078 91.68120125 319.14510078 92.68031311 319.13612366 C99.47758016 319.07217381 106.27437445 318.98774953 113.07125854 318.89144897 C115.60765346 318.85820126 118.14412234 318.8301689 120.68063354 318.8074646 C124.32735706 318.77391674 127.97340289 318.72159863 131.61984253 318.6656189 C132.75334641 318.65922897 133.88685028 318.65283905 135.05470276 318.64625549 C136.11542496 318.62646133 137.17614716 318.60666718 138.26901245 318.58627319 C139.1994487 318.57517014 140.12988495 318.56406708 141.08851624 318.55262756 C144.20049429 318.07782419 146.09547752 316.87684338 148.70187378 315.15390015 C151.25641436 314.32743113 152.97834433 314.15390015 155.70187378 314.15390015 C155.70187378 314.81390015 155.70187378 315.47390015 155.70187378 316.15390015 C156.36187378 316.15390015 157.02187378 316.15390015 157.70187378 316.15390015 C161.1421182 310.42015944 160.85121031 303.63503903 160.86009216 297.13705444 C160.86503014 296.35785204 160.86996812 295.57864964 160.87505573 294.77583504 C160.89035124 292.17659834 160.89877248 289.57738626 160.90719604 286.9781189 C160.91678695 285.10528859 160.92679773 283.2324604 160.93719482 281.3596344 C160.96427012 276.25781362 160.98530466 271.15598374 161.00519681 266.05413055 C161.02728083 260.63115398 161.05461133 255.20820354 161.08125305 249.7852478 C161.12560978 240.60166663 161.16629565 231.41807504 161.20455933 222.23446655 C161.24314919 212.97631231 161.28457989 203.71817793 161.32955933 194.46005249 C161.33499303 193.33943326 161.34042674 192.21881403 161.34602511 191.06423664 C161.35697423 188.80732599 161.36792547 186.55041535 161.37887883 184.29350471 C161.47568559 164.29865793 161.55597329 144.30382265 161.61880422 124.3088398 C161.65816553 111.86896961 161.71418312 99.42950338 161.80672723 86.98990822 C161.86234104 79.48242666 161.90549487 71.97495176 161.93848532 64.46733665 C161.95802068 60.17810262 161.98444616 55.88918334 162.02877998 51.60012817 C162.06928359 47.68105646 162.09122359 43.76232936 162.09867406 39.84305954 C162.10468421 38.43420014 162.117518 37.02534866 162.13809657 35.61662674 C162.2754815 25.89206074 161.28189569 18.20804873 155.57687378 10.15390015 C147.92474411 4.83067951 137.38614574 5.8723775 128.45895386 5.91098022 C127.0501344 5.90990508 125.64131538 5.90796295 124.23249817 5.90522766 C120.43517633 5.90041462 116.63797351 5.90798959 112.84066606 5.9181807 C108.85346012 5.92701704 104.86625731 5.9252027 100.87904358 5.92481995 C94.18886341 5.92575391 87.49872884 5.93440298 80.80856323 5.9480896 C73.08544801 5.9638315 65.36238259 5.96908686 57.63925248 5.96835405 C49.39492205 5.96767757 41.15061067 5.974622 32.906286 5.98380065 C30.53903807 5.98592679 28.17179324 5.98664111 25.80454445 5.98703957 C22.08051178 5.98804741 18.35652057 5.99417994 14.6325016 6.0042057 C12.62172495 6.00849749 10.6109398 6.00796113 8.60015869 6.00726318 C-2.24522655 5.70985285 -2.24522655 5.70985285 -12.29812622 9.15390015 C-11.29812622 6.15390015 -11.29812622 6.15390015 -9.23562622 4.96640015 C-8.59625122 4.69827515 -7.95687622 4.43015015 -7.29812622 4.15390015 C-8.28812622 3.16390015 -9.27812622 2.17390015 -10.29812622 1.15390015 C-6.82668473 0.0941612 -3.61944554 0.01790622 0 0 Z " fill="#848388" transform="translate(377.2981262207031,285.8460998535156)"/>
<path d="M0 0 C1.299375 0.433125 1.299375 0.433125 2.625 0.875 C2.13 1.349375 1.635 1.82375 1.125 2.3125 C-0.49042197 3.63423698 -0.49042197 3.63423698 -0.375 4.875 C0.615 4.545 1.605 4.215 2.625 3.875 C10.59125061 2.62643794 18.64367444 2.72689142 26.68432617 2.72973633 C28.07344146 2.72673791 29.46255592 2.72333383 30.85166931 2.71955872 C34.59523393 2.7107894 38.33877564 2.70838376 42.08234954 2.70774293 C44.42525132 2.70702903 46.76814739 2.70488844 49.11104774 2.70224571 C57.29530834 2.69301962 65.47955273 2.68890787 73.66381836 2.68969727 C81.27788828 2.69029911 88.89188761 2.67971938 96.50593966 2.6639536 C103.06076457 2.6508673 109.61556639 2.64551374 116.17040426 2.64615268 C120.07786859 2.6464071 123.98526993 2.64358579 127.89272118 2.63297462 C131.56424536 2.62327385 135.23564647 2.62322795 138.90717506 2.63049126 C140.88933536 2.63202999 142.8714957 2.62370651 144.8536377 2.61505127 C152.05053759 2.64041917 158.02416142 2.69774876 164.3125 6.5 C169.91181809 12.25065101 171.75326801 19.01437959 171.74249268 26.8671875 C171.74321022 28.10438538 171.74392776 29.34158325 171.74466705 30.61627197 C171.74035371 31.99418161 171.73594284 33.37209095 171.73144531 34.75 C171.73032127 36.21628799 171.72962943 37.68257636 171.72933197 39.14886475 C171.72715756 43.19831393 171.71856049 47.24772783 171.70879269 51.29716492 C171.69916177 55.67759775 171.69486582 60.05803656 171.6897583 64.43847656 C171.67994395 72.12761299 171.66593727 79.81673409 171.6496582 87.50585938 C171.63199576 95.8717421 171.61828851 104.23762041 171.6081543 112.60351562 C171.57765862 137.38944348 171.52686635 162.17518019 171.44107819 186.96098328 C171.40079524 198.72285388 171.36854627 210.4846489 171.35400391 222.24658203 C171.34101229 232.74430195 171.31420859 243.24187706 171.27038693 253.7395153 C171.24790755 259.23104899 171.23208209 264.72240543 171.23311615 270.21398926 C171.23385886 275.31060462 171.21606662 280.40681421 171.18383217 285.50332451 C171.17532207 287.36454862 171.17359077 289.22581817 171.17919731 291.0870533 C171.18583405 293.62727685 171.16793291 296.16620574 171.14398193 298.70629883 C171.15174235 299.43744778 171.15950277 300.16859673 171.16749835 300.9219017 C171.07654844 306.37433296 169.54447423 309.43923988 166.625 313.875 C165.965 313.875 165.305 313.875 164.625 313.875 C163.965 313.215 163.305 312.555 162.625 311.875 C161.635 312.535 160.645 313.195 159.625 313.875 C157.96683216 314.56253301 156.30040664 315.23061283 154.625 315.875 C153.965 316.205 153.305 316.535 152.625 316.875 C149.9526379 317.00915472 147.30249512 316.91818541 144.625 316.875 C147.49910607 314.95892929 149.74466971 314.11044879 153 313.0625 C157.61819861 311.41532216 160.5981183 309.87829516 163.625 305.875 C165.25010965 302.4209212 165.87594611 299.69621748 165.88226891 295.8908329 C165.89194224 294.41412414 165.89194224 294.41412414 165.901811 292.90758288 C165.8987138 291.83356545 165.8956166 290.75954803 165.89242554 289.65298462 C165.89922221 287.93276755 165.89922221 287.93276755 165.90615618 286.17779863 C165.91662511 282.99872395 165.91812625 279.81979155 165.91576743 276.64070511 C165.91535916 273.21048106 165.92639935 269.78029072 165.93588257 266.3500824 C165.95249088 259.63136361 165.95799203 252.91267992 165.95910732 246.19394232 C165.96005782 240.73263631 165.96416818 235.27134187 165.97050858 229.81003952 C165.98812004 214.32518855 165.99734752 198.84036529 165.99584763 183.35550423 C165.99572776 182.10348471 165.99572776 182.10348471 165.99560547 180.82617188 C165.99548283 179.57262327 165.99548283 179.57262327 165.99535771 178.29375045 C165.99454469 164.74814332 166.01368644 151.20264735 166.0418822 137.65707238 C166.07060704 123.74754971 166.08442274 109.83808127 166.08269465 95.92852819 C166.08203064 88.1197505 166.08752781 80.31108938 166.10905075 72.50233841 C166.12725725 65.85425129 166.13161429 59.20633357 166.1180319 52.55823232 C166.11149964 49.16691552 166.11139387 45.77592376 166.1287384 42.38463783 C166.14412987 38.70646097 166.13492176 35.02914054 166.11947632 31.35098267 C166.12976344 30.28142668 166.14005057 29.2118707 166.15064943 28.10990393 C166.08418589 20.95823048 164.93780787 16.56878077 160.0625 11.1328125 C155.4313731 7.48328315 152.19837951 6.79368405 146.421875 6.55859375 C145.4421875 6.51669922 144.4625 6.47480469 143.453125 6.43164062 C142.43734375 6.39232422 141.4215625 6.35300781 140.375 6.3125 C139.34375 6.26931641 138.3125 6.22613281 137.25 6.18164062 C134.7084613 6.07574318 132.16682804 5.97366557 129.625 5.875 C129.49867188 6.81730469 129.37234375 7.75960938 129.2421875 8.73046875 C128.51869535 12.41661544 127.52658473 13.57080036 124.625 15.875 C121.01258453 17.07913849 117.69031694 17.0461778 113.92822266 17.06787109 C113.14577682 17.07604858 112.36333099 17.08422607 111.55717468 17.09265137 C108.9678117 17.11746483 106.37850332 17.13400916 103.7890625 17.1484375 C102.90441692 17.15376118 102.01977135 17.15908485 101.10831833 17.16456985 C96.42768979 17.19128125 91.74708776 17.21066432 87.06640625 17.22509766 C83.19214331 17.2384496 79.31840549 17.26632775 75.44433594 17.30712891 C70.76591878 17.35640051 66.08797876 17.38121154 61.4093132 17.38832474 C59.62709723 17.39504289 57.84489214 17.41027967 56.06282425 17.43421555 C53.5681724 17.46581632 51.07536564 17.46591248 48.58056641 17.45849609 C47.8458461 17.47490143 47.11112579 17.49130676 46.35414124 17.50820923 C42.43945417 17.46060654 40.77280602 16.99342209 37.67855835 14.51431274 C35.58269842 11.82063238 34.9130683 10.23579688 34.625 6.875 C30.93765225 6.78723815 27.25057653 6.73435397 23.5625 6.6875 C22.00499023 6.64979492 22.00499023 6.64979492 20.41601562 6.61132812 C14.35538569 6.55360784 9.90156529 6.77728027 4.625 9.875 C2.66124496 11.72845288 2.66124496 11.72845288 1.3125 13.875 C0.60673828 14.8959375 0.60673828 14.8959375 -0.11328125 15.9375 C-0.52964844 16.576875 -0.94601562 17.21625 -1.375 17.875 C-2.035 18.865 -2.695 19.855 -3.375 20.875 C-4.365 20.875 -5.355 20.875 -6.375 20.875 C-6.045 64.435 -5.715 107.995 -5.375 152.875 C-5.045 149.905 -4.715 146.935 -4.375 143.875 C-4.045 143.875 -3.715 143.875 -3.375 143.875 C-3.31676271 148.4166125 -3.28132325 152.9581284 -3.25 157.5 C-3.23324219 158.78519531 -3.21648437 160.07039062 -3.19921875 161.39453125 C-3.19277344 162.63847656 -3.18632812 163.88242187 -3.1796875 165.1640625 C-3.16921387 166.30568848 -3.15874023 167.44731445 -3.14794922 168.62353516 C-3.375 171.875 -3.375 171.875 -4.34765625 174.73828125 C-5.67046443 178.77712143 -5.83137205 182.54923299 -6.0078125 186.7734375 C-6.04937469 187.60839752 -6.09093689 188.44335754 -6.13375854 189.30361938 C-6.26377792 191.95210127 -6.38206144 194.60095544 -6.5 197.25 C-6.58646326 199.0534228 -6.67369472 200.85680895 -6.76171875 202.66015625 C-6.97503919 207.06472963 -7.17784125 211.4696748 -7.375 215.875 C-6.715 215.875 -6.055 215.875 -5.375 215.875 C-5.375 208.945 -5.375 202.015 -5.375 194.875 C-5.045 194.875 -4.715 194.875 -4.375 194.875 C-3.10549715 199.76550663 -3.23025827 204.5886762 -3.2331543 209.60302734 C-3.22967987 210.57762405 -3.22620544 211.55222076 -3.22262573 212.55635071 C-3.21528451 214.66905525 -3.20993044 216.78176742 -3.20633507 218.89448166 C-3.19915519 222.24055958 -3.18347777 225.58649209 -3.16499329 228.93252563 C-3.11259029 238.4449059 -3.06453899 247.95720497 -3.04907227 257.46972656 C-3.03898615 263.29171215 -3.00964843 269.11332927 -2.96775246 274.93516922 C-2.95545007 277.15106036 -2.9503198 279.36700354 -2.95255089 281.5829277 C-2.95490613 284.68507939 -2.93272053 287.78617477 -2.9050293 290.88818359 C-2.91163071 291.79958603 -2.91823212 292.71098846 -2.92503357 293.65000916 C-2.8380655 299.594712 -1.63070593 302.90782643 1.625 307.875 C1.625 308.535 1.625 309.195 1.625 309.875 C7.69996858 313.41873167 14.680226 314.17905554 21.57788086 314.48022461 C22.31072516 314.51753409 23.04356947 314.55484358 23.79862118 314.59328365 C31.65545577 314.9694494 39.51452118 315.09940037 47.37890625 315.19140625 C48.90161081 315.21206308 50.42431078 315.23306118 51.94700623 315.25437927 C55.8906575 315.30870164 59.8343524 315.35849386 63.77807617 315.40722656 C67.82800016 315.45811222 71.8778634 315.5134425 75.92773438 315.56835938 C83.82677107 315.67483618 91.72585969 315.77651034 99.625 315.875 C99.625 316.535 99.625 317.195 99.625 317.875 C115.465 317.875 131.305 317.875 147.625 317.875 C147.625 318.205 147.625 318.535 147.625 318.875 C149.605 319.205 151.585 319.535 153.625 319.875 C153.625 320.205 153.625 320.535 153.625 320.875 C106.765 320.875 59.905 320.875 11.625 320.875 C11.625 320.215 11.625 319.555 11.625 318.875 C5.0616007 317.76408809 5.0616007 317.76408809 -1.375 318.875 C-4.11777578 315.67509492 -6.0052836 312.87000618 -7.375 308.875 C-6.715 308.875 -6.055 308.875 -5.375 308.875 C-5.849375 308.17375 -6.32375 307.4725 -6.8125 306.75 C-10.1487709 300.61126154 -9.51444786 293.71040917 -9.49525452 286.90322876 C-9.49653615 285.24170023 -9.49653615 285.24170023 -9.49784368 283.54660547 C-9.49949115 279.83395101 -9.49398905 276.1213417 -9.48852539 272.40869141 C-9.48824334 269.74774066 -9.48835758 267.08679269 -9.4889679 264.42584229 C-9.48949183 258.6964636 -9.48635867 252.96709631 -9.48073006 247.23772049 C-9.47259736 238.95404156 -9.46999802 230.67036814 -9.46874207 222.38668565 C-9.46655433 208.94642664 -9.45990178 195.50617369 -9.45043945 182.06591797 C-9.44125814 169.01123078 -9.43418082 155.95654524 -9.42993164 142.90185547 C-9.42966892 142.096943 -9.42940619 141.29203054 -9.42913551 140.46272679 C-9.42783046 136.42465136 -9.42656675 132.38657593 -9.42532361 128.34850049 C-9.41495966 94.85732921 -9.39727448 61.36616545 -9.375 27.875 C-9.705 32.825 -10.035 37.775 -10.375 42.875 C-11.365 42.545 -12.355 42.215 -13.375 41.875 C-13.49219343 37.56273255 -13.56258416 33.25088066 -13.625 28.9375 C-13.65851563 27.72513672 -13.69203125 26.51277344 -13.7265625 25.26367188 C-13.82547168 16.13929982 -12.59086414 9.24744369 -6.5 2.25 C-3.375 -0.125 -3.375 -0.125 0 0 Z " fill="#181818" transform="translate(368.375,288.125)"/>
<path d="M0 0 C1.299375 0.433125 1.299375 0.433125 2.625 0.875 C2.13 1.349375 1.635 1.82375 1.125 2.3125 C-0.49042197 3.63423698 -0.49042197 3.63423698 -0.375 4.875 C0.945 4.875 2.265 4.875 3.625 4.875 C2.67418399 6.99605111 1.86551649 8.64186975 0.18572617 10.27007389 C-6.15450445 16.78986056 -5.93104601 25.4936305 -5.82910156 34.01391602 C-5.82997772 35.94709435 -5.82997772 35.94709435 -5.83087158 37.91932678 C-5.83201185 41.42717424 -5.8086156 44.9344664 -5.78057575 48.44218564 C-5.75544621 52.11767281 -5.75321105 55.79317492 -5.74847412 59.46873474 C-5.73607806 66.41716959 -5.70330261 73.36535051 -5.66307616 80.31367391 C-5.61825297 88.22905276 -5.596345 96.1444442 -5.57629442 104.05991852 C-5.53456656 120.33176062 -5.46428079 136.60334782 -5.375 152.875 C-5.045 149.905 -4.715 146.935 -4.375 143.875 C-4.045 143.875 -3.715 143.875 -3.375 143.875 C-3.31676271 148.4166125 -3.28132325 152.9581284 -3.25 157.5 C-3.23324219 158.78519531 -3.21648437 160.07039062 -3.19921875 161.39453125 C-3.19277344 162.63847656 -3.18632812 163.88242187 -3.1796875 165.1640625 C-3.16921387 166.30568848 -3.15874023 167.44731445 -3.14794922 168.62353516 C-3.375 171.875 -3.375 171.875 -4.34765625 174.73828125 C-5.67046443 178.77712143 -5.83137205 182.54923299 -6.0078125 186.7734375 C-6.04937469 187.60839752 -6.09093689 188.44335754 -6.13375854 189.30361938 C-6.26377792 191.95210127 -6.38206144 194.60095544 -6.5 197.25 C-6.58646326 199.0534228 -6.67369472 200.85680895 -6.76171875 202.66015625 C-6.97503919 207.06472963 -7.17784125 211.4696748 -7.375 215.875 C-6.715 215.875 -6.055 215.875 -5.375 215.875 C-5.375 208.945 -5.375 202.015 -5.375 194.875 C-5.045 194.875 -4.715 194.875 -4.375 194.875 C-3.10549715 199.76550663 -3.23025827 204.5886762 -3.2331543 209.60302734 C-3.22967987 210.57762405 -3.22620544 211.55222076 -3.22262573 212.55635071 C-3.21528451 214.66905525 -3.20993044 216.78176742 -3.20633507 218.89448166 C-3.19915519 222.24055958 -3.18347777 225.58649209 -3.16499329 228.93252563 C-3.11259029 238.4449059 -3.06453899 247.95720497 -3.04907227 257.46972656 C-3.03898615 263.29171215 -3.00964843 269.11332927 -2.96775246 274.93516922 C-2.95545007 277.15106036 -2.9503198 279.36700354 -2.95255089 281.5829277 C-2.95490613 284.68507939 -2.93272053 287.78617477 -2.9050293 290.88818359 C-2.91163071 291.79958603 -2.91823212 292.71098846 -2.92503357 293.65000916 C-2.8380655 299.594712 -1.63070593 302.90782643 1.625 307.875 C1.625 308.535 1.625 309.195 1.625 309.875 C7.69996858 313.41873167 14.680226 314.17905554 21.57788086 314.48022461 C22.31072516 314.51753409 23.04356947 314.55484358 23.79862118 314.59328365 C31.65545577 314.9694494 39.51452118 315.09940037 47.37890625 315.19140625 C48.90161081 315.21206308 50.42431078 315.23306118 51.94700623 315.25437927 C55.8906575 315.30870164 59.8343524 315.35849386 63.77807617 315.40722656 C67.82800016 315.45811222 71.8778634 315.5134425 75.92773438 315.56835938 C83.82677107 315.67483618 91.72585969 315.77651034 99.625 315.875 C99.625 316.535 99.625 317.195 99.625 317.875 C115.465 317.875 131.305 317.875 147.625 317.875 C147.625 318.205 147.625 318.535 147.625 318.875 C149.605 319.205 151.585 319.535 153.625 319.875 C153.625 320.205 153.625 320.535 153.625 320.875 C106.765 320.875 59.905 320.875 11.625 320.875 C11.625 320.215 11.625 319.555 11.625 318.875 C5.0616007 317.76408809 5.0616007 317.76408809 -1.375 318.875 C-4.11777578 315.67509492 -6.0052836 312.87000618 -7.375 308.875 C-6.715 308.875 -6.055 308.875 -5.375 308.875 C-5.849375 308.17375 -6.32375 307.4725 -6.8125 306.75 C-10.1487709 300.61126154 -9.51444786 293.71040917 -9.49525452 286.90322876 C-9.49653615 285.24170023 -9.49653615 285.24170023 -9.49784368 283.54660547 C-9.49949115 279.83395101 -9.49398905 276.1213417 -9.48852539 272.40869141 C-9.48824334 269.74774066 -9.48835758 267.08679269 -9.4889679 264.42584229 C-9.48949183 258.6964636 -9.48635867 252.96709631 -9.48073006 247.23772049 C-9.47259736 238.95404156 -9.46999802 230.67036814 -9.46874207 222.38668565 C-9.46655433 208.94642664 -9.45990178 195.50617369 -9.45043945 182.06591797 C-9.44125814 169.01123078 -9.43418082 155.95654524 -9.42993164 142.90185547 C-9.42966892 142.096943 -9.42940619 141.29203054 -9.42913551 140.46272679 C-9.42783046 136.42465136 -9.42656675 132.38657593 -9.42532361 128.34850049 C-9.41495966 94.85732921 -9.39727448 61.36616545 -9.375 27.875 C-9.705 32.825 -10.035 37.775 -10.375 42.875 C-11.365 42.545 -12.355 42.215 -13.375 41.875 C-13.49219343 37.56273255 -13.56258416 33.25088066 -13.625 28.9375 C-13.65851563 27.72513672 -13.69203125 26.51277344 -13.7265625 25.26367188 C-13.82547168 16.13929982 -12.59086414 9.24744369 -6.5 2.25 C-3.375 -0.125 -3.375 -0.125 0 0 Z " fill="#202020" transform="translate(368.375,288.125)"/>
<path d="M0 0 C1.12695786 -0.00852997 2.25391571 -0.01705994 3.4150238 -0.02584839 C5.26341103 -0.02448883 5.26341103 -0.02448883 7.1491394 -0.02310181 C8.45039261 -0.02981903 9.75164581 -0.03653625 11.09233093 -0.04345703 C14.66085233 -0.06112069 18.2292778 -0.06581275 21.79783869 -0.0670886 C24.03051783 -0.06851136 26.26317269 -0.07278347 28.49584579 -0.07808304 C36.29451796 -0.09658947 44.09312179 -0.1047535 51.89181519 -0.10317993 C59.14452375 -0.10198062 66.3969337 -0.12303972 73.64956677 -0.15466726 C79.88755818 -0.18089387 86.12545251 -0.19154446 92.36349857 -0.19026911 C96.08399312 -0.18976104 99.8042227 -0.19535665 103.52466202 -0.21662521 C107.68224413 -0.23974272 111.83916659 -0.23044787 115.99679565 -0.21841431 C117.21690842 -0.22965332 118.43702118 -0.24089233 119.69410706 -0.25247192 C128.6295312 -0.18694121 136.98047066 1.35030686 143.83615112 7.51742554 C144.74494019 8.29859741 144.74494019 8.29859741 145.67208862 9.09555054 C151.26674781 15.8873202 152.03947531 22.15370634 151.95562744 30.76754761 C151.96045627 31.90804959 151.9652851 33.04855157 151.97026026 34.22361422 C151.98150996 38.03597878 151.96422706 41.84766946 151.94699097 45.66000366 C151.94692258 48.39694605 151.95285564 51.13386805 151.95849609 53.87080383 C151.96856032 60.52735229 151.95732181 67.18370142 151.93879549 73.8402251 C151.91798776 81.59637929 151.91816893 89.35249082 151.91914065 97.10866767 C151.92014115 110.95020315 151.90183933 124.7916461 151.87277222 138.63314819 C151.84459893 152.0560169 151.83043075 165.47880419 151.83175659 178.90170288 C151.83187646 180.14182301 151.83187646 180.14182301 151.83199875 181.40699607 C151.83207946 182.23233098 151.83216017 183.0576659 151.83224332 183.90801096 C151.83362418 199.20119022 151.82183619 214.49433497 151.80393689 229.78750303 C151.79791215 235.19048471 151.79577871 240.59346004 151.79487228 245.9964447 C151.79350582 252.58328803 151.78454609 259.17007319 151.76620667 265.75689185 C151.75699368 269.11586883 151.75193857 272.47470867 151.75339508 275.83370781 C151.75437737 279.47833043 151.74305629 283.12271415 151.72857666 286.76730347 C151.73167386 287.82411835 151.73477107 288.88093324 151.73796213 289.96977282 C151.70003715 295.74983856 151.12233592 300.72402264 149.46115112 306.26742554 C146.99219403 303.79846844 147.23169695 302.43194226 147.22916162 299.06442624 C147.24373657 297.9692022 147.24373657 297.9692022 147.25860596 296.85185242 C147.26216801 295.689457 147.26216801 295.689457 147.26580203 294.50357884 C147.27627194 291.88866632 147.30116476 289.27408498 147.32589722 286.65927124 C147.33632328 284.78718522 147.34585852 282.91509406 147.35456848 281.04299927 C147.38089669 275.92012364 147.41963716 270.79740481 147.46029234 265.67462564 C147.50116656 260.23833262 147.53020193 254.80197665 147.5604248 249.36561584 C147.61993167 238.96952669 147.68930255 228.57352852 147.76249564 218.17752761 C147.8511821 205.54282182 147.9302328 192.90806178 148.00802612 180.27328491 C148.01842509 178.59686751 148.01842509 178.59686751 148.02903414 176.88658309 C148.14611268 158.00946444 148.25425098 139.13230204 148.35387802 120.25508308 C148.41463276 108.86494047 148.48730815 97.47500963 148.57703006 86.0850578 C148.63516755 78.57633678 148.67894208 71.06762215 148.71103299 63.55874485 C148.72984096 59.27096429 148.75529659 54.9834945 148.7987175 50.69588661 C148.83830479 46.77862858 148.85917633 42.86172808 148.86533499 38.94427896 C148.87082792 37.53635314 148.88310431 36.12843282 148.90308237 34.72063804 C149.03600305 25.00167726 148.03778634 17.31679291 142.33615112 9.26742554 C138.82432858 6.82441855 135.86001827 6.29635644 131.66818237 5.72445679 C129.46115112 5.26742554 129.46115112 5.26742554 127.46115112 3.26742554 C124.96918339 2.95236593 124.96918339 2.95236593 122.01959229 2.98895264 C120.86410385 2.97778915 119.70861542 2.96662567 118.51811218 2.9551239 C117.24425156 2.95296371 115.97039093 2.95080353 114.65792847 2.94857788 C113.30789079 2.9392834 111.95785889 2.92911545 110.60783386 2.9181366 C106.93659405 2.89076818 103.26539275 2.87566705 99.59407759 2.86270857 C95.75965409 2.84710783 91.9253096 2.82030794 88.09094238 2.79467773 C80.82722373 2.74783563 73.56349031 2.71111789 66.29969752 2.67800486 C58.0313196 2.63982176 49.76302092 2.59040168 41.49470973 2.5400207 C24.48358079 2.4366201 7.47240605 2.34738624 -9.53884888 2.26742554 C-6.25680913 0.31607676 -3.79444595 0.01299245 0 0 Z " fill="#534853" transform="translate(390.5388488769531,286.7325744628906)"/>
<path d="M0 0 C5.28 0 10.56 0 16 0 C16 20.13 16 40.26 16 61 C10.72 61 5.44 61 0 61 C0 40.87 0 20.74 0 0 Z " fill="#FBFBFB" transform="translate(443,415)"/>
<path d="M0 0 C5.33941325 1.88449879 9.77521789 4.0150083 12.8125 8.9375 C13.86659705 11.65596082 14.57681629 14.1223508 15 17 C15.639375 17.103125 16.27875 17.20625 16.9375 17.3125 C17.618125 17.539375 18.29875 17.76625 19 18 C20.20643566 21.61930698 20.32268559 24.19231005 20 28 C18.24646388 31.50707224 16.63071915 33.52696064 13.5 35.875 C7.17700649 37.90739077 0.73928389 37.91309463 -5.5625 35.8125 C-8.32165707 33.7608191 -9.6201952 32.14288871 -11 29 C-11 27.68 -11 26.36 -11 25 C-8.24267176 25.48658734 -5.75816794 26.08937272 -3.125 27.0625 C1.48098136 28.44429441 5.43615348 28.52128217 10 27 C10.73323796 24.98491642 10.73323796 24.98491642 11 23 C10.15695312 23.72509766 10.15695312 23.72509766 9.296875 24.46484375 C5.40021176 27.06924622 1.51113524 26.85765595 -3 26 C-6.88173427 23.89846505 -9.89744619 21.10255381 -13 18 C-13 16.68 -13 15.36 -13 14 C-12.38511719 13.87882812 -11.77023437 13.75765625 -11.13671875 13.6328125 C-10.32847656 13.46523438 -9.52023437 13.29765625 -8.6875 13.125 C-7.48673828 12.88136719 -7.48673828 12.88136719 -6.26171875 12.6328125 C-3.74698882 12.05521001 -3.74698882 12.05521001 -1 10 C-0.41810734 7.57478506 -0.41810734 7.57478506 -0.3125 4.875 C-0.24675781 3.96492188 -0.18101562 3.05484375 -0.11328125 2.1171875 C-0.07589844 1.41851562 -0.03851563 0.71984375 0 0 Z " fill="#E68A00" transform="translate(447,372)"/>
<path d="M0 0 C0.33 0 0.66 0 1 0 C1.66849898 3.92743152 1.69195117 5.92603413 -0.5 9.328125 C-6.05737897 15.8840955 -11.52733991 19.56757865 -20 21 C-22.03388331 21.08690485 -24.07029496 21.12201706 -26.10603333 21.12025452 C-27.33295898 21.12162918 -28.55988464 21.12300385 -29.82398987 21.12442017 C-31.17538477 21.12088152 -32.52677942 21.11724672 -33.87817383 21.11352539 C-35.30746458 21.11324318 -36.73675548 21.11340191 -38.16604614 21.1139679 C-42.0396062 21.11425456 -45.91313523 21.10837888 -49.78668809 21.10139394 C-53.83725721 21.09513872 -57.88782706 21.09455488 -61.93840027 21.09336853 C-69.60579753 21.09026161 -77.27318051 21.08205683 -84.94057149 21.07201904 C-93.67087003 21.06083806 -102.40116926 21.05534245 -111.13147318 21.05032361 C-129.08765688 21.03987369 -147.04382729 21.02228662 -165 21 C-165 20.34 -165 19.68 -165 19 C-165.66 18.67 -166.32 18.34 -167 18 C-159.5176897 16.9878492 -152.1964122 16.8828598 -144.65258789 16.93408203 C-142.63905763 16.94125491 -140.62552735 16.94842369 -138.61199653 16.95543838 C-136.46379737 16.96380024 -134.31562182 16.97459599 -132.1674366 16.98596573 C-127.67352216 17.00918648 -123.17961197 17.02237891 -118.68565369 17.03366089 C-105.91220362 17.06696535 -93.13882039 17.10867106 -80.36547852 17.17138672 C-73.29810597 17.20600258 -66.23078218 17.22974965 -59.16333383 17.24159515 C-54.70436587 17.24965117 -50.24572008 17.2707901 -45.78685582 17.30180001 C-42.35017491 17.32168964 -38.91354265 17.32165041 -35.47680664 17.32470703 C-34.25519836 17.3370639 -33.03359009 17.34942078 -31.77496338 17.3621521 C-24.67621026 17.34554486 -18.65885905 16.50560022 -12 14 C-13.2065625 14.2475 -13.2065625 14.2475 -14.4375 14.5 C-18.65887352 15.09247348 -22.74664545 15.08506709 -27 15 C-27 14.67 -27 14.34 -27 14 C-42.51 13.67 -58.02 13.34 -74 13 C-74 12.67 -74 12.34 -74 12 C-73.34711502 11.99413376 -72.69423004 11.98826752 -72.02156067 11.98222351 C-65.22429362 11.91827366 -58.42749933 11.83384938 -51.63061523 11.73754883 C-49.09422032 11.70430112 -46.55775144 11.67626875 -44.02124023 11.65356445 C-40.37451672 11.6200166 -36.72847089 11.56769848 -33.08203125 11.51171875 C-31.94852737 11.50532883 -30.8150235 11.4989389 -29.64717102 11.49235535 C-28.58644882 11.47256119 -27.52572662 11.45276703 -26.43286133 11.43237305 C-25.50242508 11.42126999 -24.57198883 11.41016693 -23.61335754 11.39872742 C-20.50137949 10.92392405 -18.60639626 9.72294323 -16 8 C-13.44545942 7.17353099 -11.72352945 7 -9 7 C-9 7.66 -9 8.32 -9 9 C-8.34 9 -7.68 9 -7 9 C-5.79371992 6.66785852 -4.8345262 4.50357861 -4 2 C-3.01 2.495 -3.01 2.495 -2 3 C-1.34 2.01 -0.68 1.02 0 0 Z " fill="#70696E" transform="translate(542,593)"/>
<path d="M0 0 C0.11437931 37.00355499 0.20251524 74.00708341 0.25532665 111.01077934 C0.26158038 115.37681542 0.26805197 119.74285115 0.2746582 124.10888672 C0.27596976 124.97810638 0.27728131 125.84732603 0.2786326 126.74288568 C0.30040463 140.82756537 0.33983601 154.91214328 0.38576398 168.99676254 C0.43247869 183.44285404 0.46028482 197.88889214 0.47044247 212.33505607 C0.47731201 221.25319856 0.4990287 230.17105344 0.53958233 239.08910742 C0.56595923 245.199905 0.57401252 251.31055333 0.56750689 257.42140374 C0.56429603 260.95011103 0.56930705 264.47831485 0.59602737 268.00693321 C0.62475655 271.82864262 0.61497301 275.6496907 0.60127258 279.47149658 C0.61583679 280.59211117 0.630401 281.71272576 0.64540654 282.86729836 C0.57213495 290.38661582 0.57213495 290.38661582 -2.53757954 293.72053146 C-3.35017829 294.14275608 -4.16277704 294.5649807 -5 295 C-4.85769192 293.58297487 -4.71099254 292.1663904 -4.5625 290.75 C-4.48128906 289.96109375 -4.40007813 289.1721875 -4.31640625 288.359375 C-4 286 -4 286 -3.4879151 284.15758109 C-2.94248388 281.74566129 -2.87585021 279.59213524 -2.87695217 277.11932755 C-2.87496112 276.13252919 -2.87297007 275.14573084 -2.87091869 274.12902951 C-2.87528795 272.50647185 -2.87528795 272.50647185 -2.87974548 270.85113525 C-2.87889106 269.70023934 -2.87803663 268.54934343 -2.87715632 267.36357188 C-2.87579282 264.16875197 -2.87892259 260.97397252 -2.88393438 257.7791574 C-2.88824924 254.33406942 -2.88679172 250.88898336 -2.8860321 247.44389343 C-2.88550753 241.47493288 -2.88864742 235.50598325 -2.89426994 229.53702545 C-2.9023939 220.90689456 -2.90500108 212.27676896 -2.90625793 203.64663467 C-2.90844704 189.64511673 -2.91510331 175.64360462 -2.92456055 161.64208984 C-2.93373831 148.04020212 -2.94081736 134.43831598 -2.94506836 120.83642578 C-2.94546244 119.57898349 -2.94546244 119.57898349 -2.94586449 118.29613832 C-2.94716952 114.09069684 -2.94843323 109.88525536 -2.94967639 105.67981386 C-2.96004461 70.78653842 -2.9776591 35.89326975 -3 1 C-1 0 -1 0 0 0 Z " fill="#837686" transform="translate(544,303)"/>
<path d="M0 0 C0.74025925 0.06892456 1.48051849 0.13784912 2.24320984 0.2088623 C11.52789914 1.00528301 20.77172768 1.19909842 30.08203125 1.28125 C31.72816936 1.29909746 33.37430277 1.31738316 35.02043152 1.33607483 C38.49366349 1.37488182 41.96690797 1.41134878 45.44018555 1.4458313 C54.44591525 1.5355874 63.45146867 1.64109372 72.45703125 1.74609375 C73.34580082 1.75633009 74.23457039 1.76656643 75.15027237 1.77711296 C90.76882971 1.95788438 106.38412131 2.2168516 122 2.5625 C123.51117905 2.59585449 123.51117905 2.59585449 125.05288696 2.62988281 C130.36871646 2.74824422 135.68441032 2.87133029 141 3 C141 3.33 141 3.66 141 4 C142.98 4.33 144.96 4.66 147 5 C147 5.33 147 5.66 147 6 C100.14 6 53.28 6 5 6 C5 5.34 5 4.68 5 4 C3.35 4 1.7 4 0 4 C0.66 3.34 1.32 2.68 2 2 C1.34 1.34 0.68 0.68 0 0 Z " fill="#2C2C2D" transform="translate(375,603)"/>
<path d="M0 0 C6.34332382 1.09367652 10.16653932 2.7077888 14 8 C16.42521623 12.24332383 17.37362416 15.27190073 17.36076355 20.15036011 C17.36488754 21.36183212 17.36901154 22.57330414 17.3732605 23.82148743 C17.36247467 25.13707138 17.35168884 26.45265533 17.34057617 27.80810547 C17.33972928 29.21783937 17.34020626 30.6275746 17.34190369 32.03730774 C17.34276264 35.85306317 17.32515329 39.66853433 17.30418181 43.48422384 C17.28539823 47.47605025 17.28366325 51.46788353 17.28010559 55.45974731 C17.27079005 63.01383601 17.24618296 70.56779409 17.21605712 78.12182534 C17.18249778 86.72395891 17.16602325 95.32609879 17.15097082 103.92828155 C17.11963294 121.61892835 17.06688204 139.30945366 17 157 C16.01 157 15.02 157 14 157 C13.99853344 156.2797763 13.99706688 155.55955259 13.99555588 154.81750393 C13.95848188 137.28165729 13.89945937 119.74602159 13.81609726 102.21033382 C13.77631131 93.73014451 13.74391659 85.25004793 13.72900391 76.76977539 C13.71598505 69.37716596 13.68901454 61.98476063 13.64538693 54.59226614 C13.6227772 50.67902908 13.60708901 46.76604369 13.60811615 42.85273552 C13.60886307 39.16637605 13.59090036 35.48057281 13.55883217 31.7943573 C13.54630456 29.80260578 13.55339476 27.81076084 13.56114197 25.81898499 C13.47042262 18.02027348 12.82171493 13.17522356 7.4375 7.29296875 C4.73826823 5.21720084 2.14524972 3.33068257 -1 2 C-0.67 1.34 -0.34 0.68 0 0 Z " fill="#121212" transform="translate(521,292)"/>
<path d="M0 0 C0.33 0 0.66 0 1 0 C1.33 2.64 1.66 5.28 2 8 C2.33 8 2.66 8 3 8 C3 65.09 3 122.18 3 181 C2.01 181 1.02 181 0 181 C0 121.27 0 61.54 0 0 Z " fill="#1D1D1E" transform="translate(355,407)"/>
<path d="M0 0 C0.33 0 0.66 0 1 0 C2.26950285 4.89050663 2.14474173 9.7136762 2.1418457 14.72802734 C2.14532013 15.70262405 2.14879456 16.67722076 2.15237427 17.68135071 C2.15971549 19.79405525 2.16506956 21.90676742 2.16866493 24.01948166 C2.17584481 27.36555958 2.19152223 30.71149209 2.21000671 34.05752563 C2.26240971 43.5699059 2.31046101 53.08220497 2.32592773 62.59472656 C2.33601385 68.41671215 2.36535157 74.23832927 2.40724754 80.06016922 C2.41954993 82.27606036 2.4246802 84.49200354 2.42244911 86.7079277 C2.42009387 89.81007939 2.44227947 92.91117477 2.4699707 96.01318359 C2.46336929 96.92458603 2.45676788 97.83598846 2.44996643 98.77500916 C2.5369345 104.719712 3.74429407 108.03282643 7 113 C7 113.66 7 114.32 7 115 C8.32 115.66 9.64 116.32 11 117 C7.65175218 117 7.0218309 116.55627104 4.4375 114.625 C3.53837891 113.96371094 3.53837891 113.96371094 2.62109375 113.2890625 C0.0643618 111.25599854 -0.94408271 110.16775187 -2 107 C-2.09133385 104.24629771 -2.12600326 101.51841178 -2.11352539 98.76489258 C-2.11367142 97.92564743 -2.11381744 97.08640228 -2.1139679 96.22172546 C-2.11327087 93.44596783 -2.10548829 90.67027718 -2.09765625 87.89453125 C-2.09579132 85.97067807 -2.09436777 84.04682441 -2.09336853 82.12297058 C-2.08954924 77.05785818 -2.07972394 71.99277442 -2.06866455 66.92767334 C-2.05843781 61.75972888 -2.0538682 56.59177979 -2.04882812 51.42382812 C-2.03810117 41.28253949 -2.02103177 31.14127213 -2 21 C-1.34 21 -0.68 21 0 21 C0 14.07 0 7.14 0 0 Z " fill="#171717" transform="translate(363,483)"/>
<path d="M0 0 C0.33 0 0.66 0 1 0 C2.20388797 9.86924168 2.14845609 19.70343556 2.14526367 29.62670898 C2.14826029 31.49373949 2.15166397 33.36076937 2.15544128 35.22779846 C2.16422751 40.26858054 2.16661693 45.30934562 2.16725707 50.35013461 C2.16796984 53.50091715 2.1701083 56.65169541 2.17275429 59.80247688 C2.181985 70.79727578 2.18609142 81.79206259 2.18530273 92.78686523 C2.18470031 103.03499675 2.19529006 113.2830759 2.2110464 123.53119415 C2.22410595 132.33905136 2.2294874 141.1468914 2.22884732 149.95475823 C2.22859217 155.21188171 2.23145402 160.46895848 2.24202538 165.72607231 C2.25168136 170.66158512 2.25180281 175.59700622 2.24450874 180.5325222 C2.24346027 182.34497969 2.2458413 184.15744283 2.2518692 185.96989059 C2.25955401 188.43999187 2.25496802 190.90977347 2.24723816 193.37986755 C2.25238172 194.09999305 2.25752529 194.82011854 2.26282471 195.56206602 C2.23753556 199.20809776 2.00350427 201.89926317 0 205 C-1.09627032 200.59621076 -1.12244756 196.31297731 -1.08229065 191.80595398 C-1.07744696 190.57448009 -1.07744696 190.57448009 -1.07250541 189.31812793 C-1.06045035 186.56970356 -1.04107334 183.82138005 -1.02172852 181.07299805 C-1.01158361 179.10184446 -1.00189016 177.13068851 -0.99261475 175.15953064 C-0.96615502 169.80872509 -0.93337112 164.45797468 -0.89946485 159.10721183 C-0.86510081 153.51516371 -0.8365348 147.92308607 -0.80735779 142.33100891 C-0.75122474 131.74177546 -0.68986575 121.15257898 -0.62663645 110.56338578 C-0.55490564 98.50789813 -0.48898971 86.45238089 -0.42356598 74.39685762 C-0.28885467 49.59786668 -0.14682874 24.79892194 0 0 Z " fill="#444648" transform="translate(539,388)"/>
<path d="M0 0 C5.48558614 6.13094922 7.24882395 12.73672372 7.25439453 20.81152344 C7.25698902 21.77782606 7.25698902 21.77782606 7.25963593 22.76364994 C7.26400904 24.92058397 7.26103168 27.07743985 7.2578125 29.234375 C7.25883023 30.78252689 7.26017089 32.3306786 7.2618103 33.87882996 C7.26453172 38.08408342 7.26000207 42.28930043 7.25357056 46.4945488 C7.25000624 49.1204006 7.24838165 51.74624691 7.24731445 54.37210083 C7.22737029 94.04366193 6.72603234 133.70855631 6.125 173.375 C5.795 173.375 5.465 173.375 5.125 173.375 C4.465 181.625 3.805 189.875 3.125 198.375 C2.795 198.375 2.465 198.375 2.125 198.375 C2.125 183.855 2.125 169.335 2.125 154.375 C2.785 154.375 3.445 154.375 4.125 154.375 C4.24190706 135.86835365 4.33002421 117.36178244 4.38406086 98.85484314 C4.40982022 90.26133871 4.44492713 81.668064 4.50219727 73.07470703 C4.55210199 65.58294327 4.58430751 58.09134591 4.59544247 50.59942055 C4.60194936 46.63402324 4.61719429 42.66910188 4.65365028 38.70385742 C4.68772203 34.96748458 4.6980308 31.23178132 4.69053841 27.49526787 C4.69255846 25.47853404 4.71939497 23.46187228 4.74710083 21.44532776 C4.7055986 14.11366275 4.07306333 8.98638678 -0.875 3.375 C-4.04402524 0.28520039 -6.42618321 -1.27377762 -10.875 -1.625 C-11.865 -1.295 -12.855 -0.965 -13.875 -0.625 C-15.43143549 -0.60946183 -16.98900687 -0.65701313 -18.54296875 -0.74609375 C-19.88198242 -0.81860352 -19.88198242 -0.81860352 -21.24804688 -0.89257812 C-22.17681641 -0.94865234 -23.10558594 -1.00472656 -24.0625 -1.0625 C-25.00287109 -1.11470703 -25.94324219 -1.16691406 -26.91210938 -1.22070312 C-29.23341501 -1.35031918 -31.55428409 -1.48528181 -33.875 -1.625 C-33.875 -1.955 -33.875 -2.285 -33.875 -2.625 C-30.58447386 -2.85478281 -27.29274088 -3.05474313 -24 -3.25 C-23.0821875 -3.31445312 -22.164375 -3.37890625 -21.21875 -3.4453125 C-13.86892313 -3.85938725 -6.538852 -3.69587287 0 0 Z " fill="#1C1C1C" transform="translate(532.875,294.625)"/>
<path d="M0 0 C1.299375 0.433125 1.299375 0.433125 2.625 0.875 C2.13 1.349375 1.635 1.82375 1.125 2.3125 C-0.49042197 3.63423698 -0.49042197 3.63423698 -0.375 4.875 C0.945 4.875 2.265 4.875 3.625 4.875 C2.67302425 6.9986382 1.85245083 8.65098671 0.18426514 10.29396057 C-7.48100117 18.06626817 -6.07543204 30.05709249 -6.203125 40.12890625 C-6.24058983 41.99937783 -6.27973971 43.86981635 -6.32049561 45.74021912 C-6.42271437 50.63734351 -6.50218965 55.53457725 -6.57678223 60.43218994 C-6.65712993 65.44008965 -6.7591916 70.44754292 -6.859375 75.45507812 C-7.05239012 85.26140416 -7.22135803 95.06798354 -7.375 104.875 C-7.705 104.875 -8.035 104.875 -8.375 104.875 C-8.705 79.465 -9.035 54.055 -9.375 27.875 C-9.705 32.825 -10.035 37.775 -10.375 42.875 C-11.365 42.545 -12.355 42.215 -13.375 41.875 C-13.49219343 37.56273255 -13.56258416 33.25088066 -13.625 28.9375 C-13.65851563 27.72513672 -13.69203125 26.51277344 -13.7265625 25.26367188 C-13.82547168 16.13929982 -12.59086414 9.24744369 -6.5 2.25 C-3.375 -0.125 -3.375 -0.125 0 0 Z " fill="#424445" transform="translate(368.375,288.125)"/>
<path d="M0 0 C1.9375 0.3125 1.9375 0.3125 4 1 C5.20643566 4.61930698 5.32268559 7.19231005 5 11 C3.24646388 14.50707224 1.63071915 16.52696064 -1.5 18.875 C-7.82299351 20.90739077 -14.26071611 20.91309463 -20.5625 18.8125 C-23.32165707 16.7608191 -24.6201952 15.14288871 -26 12 C-26 10.68 -26 9.36 -26 8 C-23.24267176 8.48658734 -20.75816794 9.08937272 -18.125 10.0625 C-13.51901864 11.44429441 -9.56384652 11.52128217 -5 10 C-4.27095914 8.35965807 -3.61344757 6.68698082 -3 5 C-2.02763513 3.3170608 -1.03435556 1.64556566 0 0 Z " fill="#EDB673" transform="translate(462,389)"/>
<path d="M0 0 C2.13471795 3.20207693 2.24919889 4.00859843 2.24291992 7.68334961 C2.24599655 8.63120834 2.24907318 9.57906708 2.25224304 10.5556488 C2.24505753 11.57755814 2.23787201 12.59946747 2.23046875 13.65234375 C2.23001053 14.70402237 2.22955231 15.75570099 2.2290802 16.83924866 C2.22605801 19.064312 2.21817272 21.28937324 2.20581055 23.5144043 C2.18759101 26.92048645 2.18530064 30.32629615 2.18554688 33.73242188 C2.18063014 35.89323152 2.17480115 38.05403932 2.16796875 40.21484375 C2.16685593 41.23472885 2.1657431 42.25461395 2.16459656 43.30540466 C2.15821671 44.25641556 2.15183685 45.20742645 2.14526367 46.18725586 C2.14145187 47.02203964 2.13764008 47.85682343 2.13371277 48.71690369 C2 51 2 51 1.46438408 52.82764053 C0.91409064 55.40187858 1.12409358 57.42947359 1.43614197 60.04084778 C2.03323496 65.83602502 2.09791973 71.52567588 2.02172852 77.34643555 C2.01212097 78.4209346 2.00251343 79.49543365 1.99261475 80.60249329 C1.9599328 84.11397508 1.91948553 87.62532012 1.87890625 91.13671875 C1.85457494 93.58721959 1.83073294 96.03772533 1.80735779 98.48823547 C1.74481633 104.90792467 1.67566632 111.32752599 1.60510254 117.74713135 C1.53414714 124.30989615 1.46949351 130.87272278 1.40429688 137.43554688 C1.27567096 150.29043219 1.14027215 163.14523676 1 176 C0.67 176 0.34 176 0 176 C-1.1034696 69.92987188 -1.1034696 69.92987188 -1.12338257 29.93957901 C-1.12500227 27.80951736 -1.12855463 25.67946634 -1.13256836 23.54940796 C-1.13932754 19.68526969 -1.137084 15.82117422 -1.1328125 11.95703125 C-1.13479645 10.83946442 -1.1367804 9.72189758 -1.13882446 8.57046509 C-1.13571259 7.57372772 -1.13260071 6.57699036 -1.12939453 5.55004883 C-1.12859894 4.68777176 -1.12780334 3.82549469 -1.12698364 2.93708801 C-1 1 -1 1 0 0 Z " fill="#615D63" transform="translate(356,339)"/>
<path d="M0 0 C0.33 0 0.66 0 1 0 C1.33 29.37 1.66 58.74 2 89 C2.33 86.03 2.66 83.06 3 80 C3.33 80 3.66 80 4 80 C4.05823729 84.5416125 4.09367675 89.0831284 4.125 93.625 C4.14175781 94.91019531 4.15851563 96.19539063 4.17578125 97.51953125 C4.18222656 98.76347656 4.18867188 100.00742187 4.1953125 101.2890625 C4.20578613 102.43068848 4.21625977 103.57231445 4.22705078 104.74853516 C3.98937539 108.15214899 3.13370026 110.79767903 2 114 C1.64874314 116.30330837 1.64874314 116.30330837 1.5859375 118.5234375 C1.54726563 119.31621094 1.50859375 120.10898437 1.46875 120.92578125 C1.4378125 121.73402344 1.406875 122.54226563 1.375 123.375 C1.31699219 124.62216797 1.31699219 124.62216797 1.2578125 125.89453125 C1.16425754 127.92935156 1.08107287 129.96464416 1 132 C0.67 132 0.34 132 0 132 C-0.94925516 122.02355151 -1.14724755 112.1185237 -1.1328125 102.109375 C-1.13382961 100.48884051 -1.13516991 98.8683062 -1.1368103 97.24777222 C-1.13948076 92.96180087 -1.13509783 88.67586639 -1.12857056 84.38990021 C-1.12499194 81.74404288 -1.12338033 79.09819099 -1.12231445 76.45233154 C-1.1095271 50.95758971 -0.92603267 25.4806755 0 0 Z " fill="#191919" transform="translate(361,352)"/>
<path d="M0 0 C0.33 0 0.66 0 1 0 C1.02328209 11.10159674 1.04099536 22.20318757 1.05181217 33.30480385 C1.05700653 38.46102391 1.06404077 43.61722713 1.07543945 48.7734375 C1.08639184 53.75958799 1.09230272 58.7457224 1.09487724 63.731884 C1.09670942 65.62383655 1.10028662 67.51578832 1.10573006 69.40773392 C1.13494288 79.9925535 0.96848666 90.45062638 0 101 C-2.0140956 97.9788566 -2.26836596 97.19339983 -2.4140625 93.76953125 C-2.45273437 92.96708984 -2.49140625 92.16464844 -2.53125 91.33789062 C-2.5621875 90.50451172 -2.593125 89.67113281 -2.625 88.8125 C-2.66367187 87.96751953 -2.70234375 87.12253906 -2.7421875 86.25195312 C-2.83636279 84.16832476 -2.91926675 82.08419247 -3 80 C-2.67 80 -2.34 80 -2 80 C-1.9494037 73.62796407 -1.91431043 67.2559797 -1.89013672 60.88378906 C-1.88006211 58.71482406 -1.86640202 56.54587269 -1.84912109 54.37695312 C-1.82493677 51.26428874 -1.81353168 48.15180349 -1.8046875 45.0390625 C-1.79436493 44.065065 -1.78404236 43.0910675 -1.77340698 42.08755493 C-1.77325592 41.18677216 -1.77310486 40.28598938 -1.77294922 39.35791016 C-1.768508 38.56293121 -1.76406677 37.76795227 -1.75949097 36.94888306 C-1.82631697 34.76356509 -1.82631697 34.76356509 -4 33 C-4.10442677 30.5567151 -4.09024118 28.23965842 -3.9765625 25.8046875 C-3.95153656 25.09724396 -3.92651062 24.38980042 -3.90072632 23.66091919 C-3.8184671 21.39846281 -3.7219031 19.13687194 -3.625 16.875 C-3.56676631 15.34248342 -3.5094629 13.80993119 -3.453125 12.27734375 C-3.31288005 8.5177302 -3.15980243 4.758831 -3 1 C-2.67 1 -2.34 1 -2 1 C-1.67 3.64 -1.34 6.28 -1 9 C-0.67 6.03 -0.34 3.06 0 0 Z " fill="#929192" transform="translate(359,307)"/>
<path d="M0 0 C1.65 0 3.3 0 5 0 C5 5.61 5 11.22 5 17 C3.35 16.67 1.7 16.34 0 16 C-0.33 15.34 -0.66 14.68 -1 14 C-1.33 14.66 -1.66 15.32 -2 16 C-3.76949095 16.10815225 -5.54087487 16.18566083 -7.3125 16.25 C-8.29863281 16.29640625 -9.28476562 16.3428125 -10.30078125 16.390625 C-13 16 -13 16 -14.8671875 14.1484375 C-16 12 -16 12 -15.8125 9.375 C-15 7 -15 7 -13 5 C-5.9478673 4.43127962 -5.9478673 4.43127962 -2.5 6.5 C-2.005 6.995 -1.51 7.49 -1 8 C-0.67 5.36 -0.34 2.72 0 0 Z " fill="#525252" transform="translate(455,513)"/>
<path d="M0 0 C-3.36298888 3.07507003 -5.66351543 3.37490789 -10.16213989 3.3742218 C-12.05923706 3.38474327 -12.05923706 3.38474327 -13.99465942 3.39547729 C-15.39373938 3.38804988 -16.79281775 3.38031875 -18.19189453 3.37231445 C-19.66705583 3.37474271 -21.14221549 3.37846237 -22.61737061 3.38337708 C-26.62136045 3.39278343 -30.62510574 3.38336376 -34.62907648 3.37004495 C-38.81618445 3.35873372 -43.00328032 3.36283759 -47.19039917 3.36479187 C-54.21990967 3.36567475 -61.24932371 3.35459401 -68.27880859 3.33618164 C-76.41318514 3.31499764 -84.54742054 3.31150765 -92.68181908 3.3177436 C-100.50079793 3.32343144 -108.31972692 3.31779953 -116.13869858 3.30657005 C-119.46961257 3.30191804 -122.80049614 3.30105279 -126.13141251 3.3031559 C-130.04991465 3.30503491 -133.96827242 3.29696499 -137.88674164 3.2810955 C-139.3275251 3.27684133 -140.76832319 3.27600968 -142.20911026 3.27878571 C-144.17002262 3.28199161 -146.13094345 3.27173015 -148.09182739 3.26069641 C-149.19094011 3.25864354 -150.29005283 3.25659067 -151.422472 3.25447559 C-154 3 -154 3 -156 1 C-148.48967135 -0.01352222 -141.12945632 -0.12938208 -133.55737305 -0.09765625 C-132.22265173 -0.09573346 -130.88792969 -0.09427137 -129.5532074 -0.0932312 C-126.69680605 -0.09008857 -123.84043485 -0.08384835 -120.98404503 -0.07516479 C-116.46656398 -0.06157024 -111.94909269 -0.05573368 -107.43159485 -0.05102539 C-97.8502166 -0.03996143 -88.26886222 -0.02040364 -78.6875 0 C-68.32460402 0.02203902 -57.96171757 0.04259512 -47.59880286 0.05341816 C-43.10818087 0.0583979 -38.61760403 0.06825242 -34.12700021 0.08184814 C-32.0090883 0.0875091 -29.89118764 0.0908863 -27.77326965 0.0932312 C-25.19165348 0.09610322 -22.61003786 0.10258335 -20.02844238 0.11331177 C-18.32321663 0.11341751 -18.32321663 0.11341751 -16.58354187 0.11352539 C-15.10224053 0.11685631 -15.10224053 0.11685631 -13.59101391 0.12025452 C-11.05599798 0.08907467 -11.05599798 0.08907467 -8.88540363 -0.53443909 C-5.85022952 -1.28391172 -3.03835878 -0.52586979 0 0 Z " fill="#1E1D1D" transform="translate(531,610)"/>
<path d="M0 0 C0.33 0 0.66 0 1 0 C1.01981934 0.65484375 1.03963867 1.3096875 1.06005859 1.984375 C1.15610522 4.98994448 1.26545784 7.99489331 1.375 11 C1.4059375 12.02996094 1.436875 13.05992187 1.46875 14.12109375 C1.76812364 21.9547039 2.83042444 28.75525586 6 36 C5.34 36 4.68 36 4 36 C5.78831775 39.05763218 5.78831775 39.05763218 8 42 C10.9254644 42.2236068 10.9254644 42.2236068 13 41 C15.1640625 41.55859375 15.1640625 41.55859375 17.625 42.4375 C18.44226563 42.72496094 19.25953125 43.01242187 20.1015625 43.30859375 C20.72804688 43.53675781 21.35453125 43.76492188 22 44 C22 44.66 22 45.32 22 46 C23.485 46.495 23.485 46.495 25 47 C16 50 16 50 13.73046875 49.06640625 C5.73142111 44.33578668 0.48944846 38.72362115 -3 30 C-3.1875 27.125 -3.1875 27.125 -3 25 C-2.01 25 -1.02 25 0 25 C0 16.75 0 8.5 0 0 Z " fill="#57585B" transform="translate(358,563)"/>
<path d="M0 0 C0.33 0 0.66 0 1 0 C1.04898437 1.04800781 1.09796875 2.09601563 1.1484375 3.17578125 C1.22348143 4.55471354 1.29902857 5.9336185 1.375 7.3125 C1.4059375 8.00279297 1.436875 8.69308594 1.46875 9.40429688 C1.68124919 13.06990789 1.91933861 14.87900792 4 18 C4.24050903 20.03117371 4.24050903 20.03117371 4.22705078 22.37963867 C4.22689972 23.26032516 4.22674866 24.14101166 4.22659302 25.04838562 C4.21627045 25.99534805 4.20594788 26.94231049 4.1953125 27.91796875 C4.1924826 28.89034988 4.18965271 29.86273102 4.18673706 30.86457825 C4.17553599 33.97234366 4.15043148 37.07982159 4.125 40.1875 C4.11497011 42.29361563 4.10584427 44.39973578 4.09765625 46.50585938 C4.07559688 51.6706838 4.04106746 56.83529315 4 62 C3.01 62.495 3.01 62.495 2 63 C1.67 56.4 1.34 49.8 1 43 C0.67 43 0.34 43 0 43 C0 28.81 0 14.62 0 0 Z " fill="#151615" transform="translate(362,309)"/>
<path d="M0 0 C0.66 0.33 1.32 0.66 2 1 C1.47470451 1.74604996 1.47470451 1.74604996 0.938797 2.50717163 C-4.37813094 11.29862953 -3.82863662 20.40497543 -3.92578125 30.3515625 C-3.96138696 32.22061184 -3.99911541 34.08962183 -4.03886414 35.95858765 C-4.13719563 40.84749202 -4.20691476 45.73639062 -4.27044678 50.62585449 C-4.34057422 55.62719291 -4.43808036 60.62799184 -4.53320312 65.62890625 C-4.71542403 75.41893671 -4.86738638 85.2091806 -5 95 C-5.33 95 -5.66 95 -6 95 C-6.06959117 84.03831238 -6.12285763 73.07667756 -6.15543652 62.1148138 C-6.17107483 57.02446105 -6.19227967 51.93425974 -6.22631836 46.84399414 C-6.25897711 41.92918476 -6.27686681 37.01452082 -6.28463173 32.09961128 C-6.29016353 30.22697219 -6.30096582 28.35434082 -6.31719017 26.48176384 C-6.33905109 23.85347328 -6.34196332 21.22577935 -6.34057617 18.59741211 C-6.351362 17.82776627 -6.36214783 17.05812042 -6.3732605 16.26515198 C-6.34007863 10.4331655 -5.26106642 5.59603923 -1.3125 1.0625 C-0.6628125 0.5365625 -0.6628125 0.5365625 0 0 Z " fill="#323232" transform="translate(366,298)"/>
<path d="M0 0 C6.34332382 1.09367652 10.16653932 2.7077888 14 8 C16.75986029 12.6787066 17.36826432 16.06570326 17.34057617 21.47412109 C17.34123329 22.55808167 17.34123329 22.55808167 17.34190369 23.66394043 C17.3398266 26.03405512 17.31654777 28.40344758 17.29296875 30.7734375 C17.28736893 32.42395644 17.28310065 34.07448038 17.28010559 35.7250061 C17.26868717 40.05533778 17.23924613 44.38536445 17.20599365 48.71557617 C17.17522778 53.13976924 17.16158636 57.56401189 17.14648438 61.98828125 C17.11437329 70.65899366 17.06321364 79.32945882 17 88 C16.67 88 16.34 88 16 88 C16 64.57 16 41.14 16 17 C15.01 16.67 14.02 16.34 13 16 C12.04544762 14.28838884 11.09371957 12.57501505 10.16796875 10.84765625 C7.55417239 6.71278776 3.47593023 3.89366279 -1 2 C-0.67 1.34 -0.34 0.68 0 0 Z " fill="#0B0B0B" transform="translate(521,292)"/>
<path d="M0 0 C0 21.45 0 42.9 0 65 C-0.66 65 -1.32 65 -2 65 C-2.33 43.88 -2.66 22.76 -3 1 C-1 0 -1 0 0 0 Z " fill="#847888" transform="translate(544,303)"/>
<path d="M0 0 C5.41978576 6.05740762 7.25450212 12.62394122 7.23852539 20.61230469 C7.23844986 21.87330994 7.23837433 23.13431519 7.23829651 24.43353271 C7.23319028 25.80464721 7.2279743 27.17576131 7.22265625 28.546875 C7.22079028 29.95363311 7.21936722 31.36039188 7.21836853 32.76715088 C7.21455744 36.46280727 7.2047392 40.15842413 7.19366455 43.85406494 C7.18342014 47.62796494 7.17886442 51.40187135 7.17382812 55.17578125 C7.16311564 62.57553882 7.14605616 69.97526386 7.125 77.375 C6.795 77.375 6.465 77.375 6.125 77.375 C6.11286972 76.25199745 6.11286972 76.25199745 6.10049438 75.10630798 C6.02235737 68.02987753 5.93500993 60.95363353 5.83747292 53.87744808 C5.78765606 50.24003302 5.7413256 46.60264496 5.703125 42.96508789 C5.66608648 39.45066094 5.619678 35.93646824 5.56693649 32.42224312 C5.53955092 30.43773722 5.52171807 28.45310688 5.50405884 26.4684906 C5.35643315 17.39878895 4.86672261 10.75721478 -0.875 3.375 C-4.06813342 0.34561701 -6.4432015 -1.27512117 -10.875 -1.625 C-11.865 -1.295 -12.855 -0.965 -13.875 -0.625 C-15.43143549 -0.60946183 -16.98900687 -0.65701313 -18.54296875 -0.74609375 C-19.88198242 -0.81860352 -19.88198242 -0.81860352 -21.24804688 -0.89257812 C-22.17681641 -0.94865234 -23.10558594 -1.00472656 -24.0625 -1.0625 C-25.00287109 -1.11470703 -25.94324219 -1.16691406 -26.91210938 -1.22070312 C-29.23341501 -1.35031918 -31.55428409 -1.48528181 -33.875 -1.625 C-33.875 -1.955 -33.875 -2.285 -33.875 -2.625 C-30.58447386 -2.85478281 -27.29274088 -3.05474313 -24 -3.25 C-23.0821875 -3.31445312 -22.164375 -3.37890625 -21.21875 -3.4453125 C-13.86892313 -3.85938725 -6.538852 -3.69587287 0 0 Z " fill="#242424" transform="translate(532.875,294.625)"/>
<path d="M0 0 C1.97265625 0.265625 1.97265625 0.265625 4.97265625 2.265625 C4.97265625 3.585625 4.97265625 4.905625 4.97265625 6.265625 C1.67265625 6.265625 -1.62734375 6.265625 -5.02734375 6.265625 C-4.69734375 6.925625 -4.36734375 7.585625 -4.02734375 8.265625 C-1.71734375 8.265625 0.59265625 8.265625 2.97265625 8.265625 C2.97265625 9.255625 2.97265625 10.245625 2.97265625 11.265625 C-5.24623335 11.88591855 -5.24623335 11.88591855 -8.15234375 9.578125 C-9.25220299 6.67135414 -9.02600097 5.18477687 -8.02734375 2.265625 C-5.42029477 -0.34142398 -3.55396134 0.02657167 0 0 Z " fill="#E7E7E7" transform="translate(448.02734375,517.734375)"/>
<path d="M0 0 C1.62463842 -0.05395478 3.24978541 -0.09277195 4.875 -0.125 C5.77992188 -0.14820313 6.68484375 -0.17140625 7.6171875 -0.1953125 C10 0 10 0 12 2 C12.27240673 5.01826653 12.08675125 7.96370622 12 11 C8.37 11 4.74 11 1 11 C0.67 9.35 0.34 7.7 0 6 C2.70879335 4.64560332 5.00933268 4.93498549 8 5 C7.67 4.34 7.34 3.68 7 3 C4.69 3 2.38 3 0 3 C0 2.01 0 1.02 0 0 Z " fill="#CFCFCF" transform="translate(463,518)"/>
<path d="M0 0 C1.95766281 -0.08082094 3.91626728 -0.13910778 5.875 -0.1875 C7.51082031 -0.23970703 7.51082031 -0.23970703 9.1796875 -0.29296875 C10.11039062 -0.19628906 11.04109375 -0.09960938 12 0 C14.13586678 3.20380017 14.23132175 4.01939967 14.125 7.6875 C14.10695313 8.49574219 14.08890625 9.30398438 14.0703125 10.13671875 C14.03550781 11.05904297 14.03550781 11.05904297 14 12 C12.68 12 11.36 12 10 12 C9.67 9.36 9.34 6.72 9 4 C7.35 3.67 5.7 3.34 4 3 C4 5.64 4 8.28 4 11 C2.68 11 1.36 11 0 11 C0 7.37 0 3.74 0 0 Z " fill="#D5D5D5" transform="translate(423,518)"/>
<path d="M0 0 C2.52561648 3.78842473 2.25391573 6.78533329 2.1953125 11.16796875 C2.1924826 11.96278152 2.18965271 12.7575943 2.18673706 13.57649231 C2.17554705 16.11364838 2.15044491 18.65045072 2.125 21.1875 C2.11496866 22.90819802 2.10584308 24.62890159 2.09765625 26.34960938 C2.07561161 30.56654243 2.04109006 34.78321125 2 39 C1.01 38.34 0.02 37.68 -1 37 C-1.27926386 34.24542543 -1.37205304 31.7186054 -1.328125 28.96484375 C-1.32625183 28.1709877 -1.32437866 27.37713165 -1.32244873 26.55921936 C-1.31572268 24.88050133 -1.30179715 23.20179912 -1.28125 21.52319336 C-1.25008281 18.94435172 -1.24027944 16.36612069 -1.234375 13.78710938 C-1.22520581 12.15884666 -1.2148303 10.5305902 -1.203125 8.90234375 C-1.19887512 8.12632309 -1.19462524 7.35030243 -1.19024658 6.55076599 C-1.11715434 1.11715434 -1.11715434 1.11715434 0 0 Z " fill="#827F81" transform="translate(356,339)"/>
<path d="M0 0 C0.33 0 0.66 0 1 0 C1.67936577 3.9912739 1.65818366 5.95661979 -0.53515625 9.43359375 C-6.32207326 16.40242445 -6.32207326 16.40242445 -11 17.0625 C-11.99 17.041875 -12.98 17.02125 -14 17 C-14 15 -14 15 -12 13 C-10.98913516 11.88475237 -9.9901288 10.75869747 -9 9.625 C-8.484375 9.03976562 -7.96875 8.45453125 -7.4375 7.8515625 C-5.98692711 5.98316155 -4.98294082 4.14545737 -4 2 C-3.34 2.33 -2.68 2.66 -2 3 C-1.34 2.01 -0.68 1.02 0 0 Z " fill="#464C4F" transform="translate(542,593)"/>
<path d="M0 0 C6.18932283 2.17624577 10.60129068 6.07369985 14.58984375 11.20703125 C16.29970794 14.9229975 16.20188925 18.31310064 16.0625 22.3125 C16.04219727 23.42334961 16.04219727 23.42334961 16.02148438 24.55664062 C15.98635979 26.37141075 15.93255972 28.18580288 15.875 30 C15.545 30 15.215 30 14.875 30 C14.72804688 28.62328125 14.72804688 28.62328125 14.578125 27.21875 C13.15631985 15.09034156 13.15631985 15.09034156 6.1875 5.5625 C2.06752469 3.61911542 -1.61434023 3.20047377 -6.125 3 C-6.125 2.01 -6.125 1.02 -6.125 0 C-3.54182979 -1.2915851 -2.72347868 -0.8350736 0 0 Z " fill="#49464D" transform="translate(525.125,289)"/>
<path d="M0 0 C3.88473697 2.56893897 8.09163996 5.63383286 9.80078125 10.0859375 C10.0625 12 10.0625 12 10 15 C6.92837334 13.90299048 5.99237152 12.98816271 4.1875 10.1875 C1.59784189 6.41399818 -1.20179703 4.43225991 -5 2 C-5.99 1.34 -6.98 0.68 -8 0 C-4.60511186 -1.13162938 -3.37535223 -1.02069035 0 0 Z " fill="#7B6A7A" transform="translate(533,289)"/>
<path d="M0 0 C2.00720923 0.28674418 4.0085944 0.61866701 6 1 C4.36587557 2.70840281 3.13093906 3.93453047 1 5 C0.525625 5.845625 0.05125 6.69125 -0.4375 7.5625 C-0.953125 8.366875 -1.46875 9.17125 -2 10 C-2.99 10 -3.98 10 -5 10 C-5.99 12.31 -6.98 14.62 -8 17 C-8.33 17 -8.66 17 -9 17 C-8.86643652 9.52044518 -6.25042054 6.1603398 -1 1 C-0.67 0.67 -0.34 0.34 0 0 Z " fill="#4B5053" transform="translate(365,288)"/>
<path d="M0 0 C2.64 0 5.28 0 8 0 C8 0.99 8 1.98 8 3 C6.68 3.33 5.36 3.66 4 4 C4 6.64 4 9.28 4 12 C2.68 12 1.36 12 0 12 C0 8.04 0 4.08 0 0 Z " fill="#CECECE" transform="translate(479,518)"/>
<path d="M0 0 C1.32 0 2.64 0 4 0 C4 4.95 4 9.9 4 15 C2.68 15 1.36 15 0 15 C0 10.05 0 5.1 0 0 Z " fill="#E7E7E7" transform="translate(415,514)"/>
<path d="M0 0 C0.33 0.66 0.66 1.32 1 2 C-0.68474722 5.36949443 -1.8191658 6.87944386 -5 9 C-10.79532324 9.56816895 -14.75478851 8.2085101 -20 6 C-20 5.01 -20 4.02 -20 3 C-19.38125 3.33 -18.7625 3.66 -18.125 4 C-13.71705611 5.41054204 -9.58047789 5.77342496 -5 5 C-2.71828831 3.54477499 -1.65211702 2.2028227 0 0 Z " fill="#402B0E" transform="translate(459,392)"/>
<path d="M0 0 C0.99 0 1.98 0 3 0 C3 4.95 3 9.9 3 15 C2.01 15 1.02 15 0 15 C0 10.05 0 5.1 0 0 Z " fill="#F8F8F8" transform="translate(456,514)"/>
<path d="M0 0 C0.99 0 1.98 0 3 0 C3 0.66 3 1.32 3 2 C3.66 2.33 4.32 2.66 5 3 C4.67 5.64 4.34 8.28 4 11 C2.68 11 1.36 11 0 11 C0 7.37 0 3.74 0 0 Z " fill="#EEEEEE" transform="translate(423,518)"/>
<path d="M0 0 C2.01822917 0.06510417 4.03645833 0.13020833 6.0546875 0.1953125 C6.0546875 1.86197917 6.0546875 3.52864583 6.0546875 5.1953125 C3.0546875 5.1953125 0.0546875 5.1953125 -2.9453125 5.1953125 C-3.6053125 5.8553125 -4.2653125 6.5153125 -4.9453125 7.1953125 C-3.87057023 0.38861147 -3.87057023 0.38861147 0 0 Z " fill="#9D9D9D" transform="translate(443.9453125,517.8046875)"/>
<path d="M0 0 C0.33 0.99 0.66 1.98 1 3 C3.01508358 3.73323796 3.01508358 3.73323796 5 4 C1.8386498 6.81008907 0.14625351 7.10365634 -4 7 C-6.25132517 7.91568906 -6.25132517 7.91568906 -8 9 C-7 6 -7 6 -4.9375 4.8125 C-4.298125 4.544375 -3.65875 4.27625 -3 4 C-3.99 3.01 -4.98 2.02 -6 1 C-3.92446352 0.4465236 -2.15634036 0 0 0 Z " fill="#66686C" transform="translate(373,286)"/>
<path d="M0 0 C0.66 0.33 1.32 0.66 2 1 C1.66226562 1.66386719 1.32453125 2.32773437 0.9765625 3.01171875 C0.30753906 4.33623047 0.30753906 4.33623047 -0.375 5.6875 C-0.81585938 6.55761719 -1.25671875 7.42773438 -1.7109375 8.32421875 C-2.92664268 10.84772799 -3.99260958 13.38737532 -5 16 C-5.33 16 -5.66 16 -6 16 C-5.84653748 8.94072393 -5.1246795 4.99327746 0 0 Z " fill="#383838" transform="translate(366,298)"/>
<path d="M0 0 C2.35119399 3.52679099 2.21443452 5.02879485 2.125 9.1875 C2.10695313 10.27417969 2.08890625 11.36085938 2.0703125 12.48046875 C2.03550781 13.72763672 2.03550781 13.72763672 2 15 C1.01 14.67 0.02 14.34 -1 14 C-1.02685938 11.85423363 -1.04633088 9.70837355 -1.0625 7.5625 C-1.07410156 6.36753906 -1.08570313 5.17257812 -1.09765625 3.94140625 C-1 1 -1 1 0 0 Z " fill="#3B343A" transform="translate(356,339)"/>
<path d="M0 0 C4.4062186 1.34634457 6.43077702 3.19374374 9 7 C9 7.66 9 8.32 9 9 C8.01 9.33 7.02 9.66 6 10 C3.25722422 6.80009492 1.3697164 3.99500618 0 0 Z " fill="#333536" transform="translate(361,597)"/>
<path d="M0 0 C7.92 0.33 15.84 0.66 24 1 C24 1.33 24 1.66 24 2 C17.07 2 10.14 2 3 2 C2.67 3.98 2.34 5.96 2 8 C1.33333333 5.33333333 0.66666667 2.66666667 0 0 Z " fill="#121212" transform="translate(495,292)"/>
<path d="M0 0 C-2.28176413 2.07384637 -3.44323483 2.98397191 -6.578125 3.07421875 C-7.90070312 2.88279297 -7.90070312 2.88279297 -9.25 2.6875 C-10.14203125 2.56761719 -11.0340625 2.44773437 -11.953125 2.32421875 C-12.62859375 2.21722656 -13.3040625 2.11023438 -14 2 C-8.95585048 -1.36276635 -5.96798004 -1.03291962 0 0 Z " fill="#2F3031" transform="translate(531,610)"/>
<path d="M0 0 C6.20627416 0.75927822 9.96576877 4.43341661 14 9 C15.0625 12.5 15.0625 12.5 15 15 C14.443125 14.278125 13.88625 13.55625 13.3125 12.8125 C9.30792262 7.94206805 5.23442438 4.40846239 0 1 C0 0.67 0 0.34 0 0 Z " fill="#56565D" transform="translate(528,288)"/>
<path d="M0 0 C0.99 0.99 1.98 1.98 3 3 C1.3125 5.0625 1.3125 5.0625 -1 7 C-3.75 6.75 -3.75 6.75 -6 6 C-5.67 4.68 -5.34 3.36 -5 2 C-4.360625 1.855625 -3.72125 1.71125 -3.0625 1.5625 C-1.02454854 1.18992819 -1.02454854 1.18992819 0 0 Z " fill="#252627" transform="translate(531,599)"/>
<path d="M0 0 C0.33 0 0.66 0 1 0 C1.36923077 6.4 1.36923077 6.4 -0.5 9.4375 C-0.995 9.953125 -1.49 10.46875 -2 11 C-3.32 10.67 -4.64 10.34 -6 10 C-5.65066406 9.52949219 -5.30132813 9.05898438 -4.94140625 8.57421875 C-4.48636719 7.95160156 -4.03132812 7.32898438 -3.5625 6.6875 C-2.88380859 5.76517578 -2.88380859 5.76517578 -2.19140625 4.82421875 C-0.82663692 2.90322899 -0.82663692 2.90322899 0 0 Z " fill="#313436" transform="translate(542,593)"/>
<path d="M0 0 C13.365 0.495 13.365 0.495 27 1 C27 1.33 27 1.66 27 2 C19.08 2.33 11.16 2.66 3 3 C3 2.34 3 1.68 3 1 C2.01 0.67 1.02 0.34 0 0 Z " fill="#201F21" transform="translate(376,291)"/>
<path d="M0 0 C2.475 0.99 2.475 0.99 5 2 C4.01 2.99 3.02 3.98 2 5 C1.67 4.67 1.34 4.34 1 4 C0.01 6.31 -0.98 8.62 -2 11 C-2.33 11 -2.66 11 -3 11 C-2.25 3.375 -2.25 3.375 0 0 Z " fill="#596267" transform="translate(359,294)"/>
<path d="M0 0 C3.3 0 6.6 0 10 0 C10 0.66 10 1.32 10 2 C10.99 2.33 11.98 2.66 13 3 C11.39667209 3.08121924 9.79215974 3.13929134 8.1875 3.1875 C7.29417969 3.22230469 6.40085937 3.25710938 5.48046875 3.29296875 C3 3 3 3 0 0 Z " fill="#767B7D" transform="translate(370,607)"/>
<path d="M0 0 C0.66 0 1.32 0 2 0 C3.66666667 3.33333333 5.33333333 6.66666667 7 10 C6.01 10.33 5.02 10.66 4 11 C3.32591692 9.73308493 2.66099503 8.46129251 2 7.1875 C1.62875 6.47980469 1.2575 5.77210938 0.875 5.04296875 C0 3 0 3 0 0 Z " fill="#5E656C" transform="translate(355,590)"/>
<path d="M0 0 C5.75 -0.125 5.75 -0.125 8 1 C8 2.32 8 3.64 8 5 C4.7 5 1.4 5 -2 5 C-2 4.67 -2 4.34 -2 4 C0.31 4 2.62 4 5 4 C3.74458443 1.48916886 2.49936512 1.12874554 0 0 Z " fill="#EEEEEE" transform="translate(445,519)"/>
<path d="M0 0 C3.3 0 6.6 0 10 0 C9.01 1.485 9.01 1.485 8 3 C4.375 3.1875 4.375 3.1875 1 3 C0.67 2.01 0.34 1.02 0 0 Z " fill="#616161" transform="translate(443,524)"/>
<path d="M0 0 C3.63 0 7.26 0 11 0 C11 0.33 11 0.66 11 1 C9.35 1 7.7 1 6 1 C6 1.66 6 2.32 6 3 C4.02 3.33 2.04 3.66 0 4 C0 2.68 0 1.36 0 0 Z " fill="#848089" transform="translate(373,286)"/>
<path d="M0 0 C-4.90924297 3.92739438 -7.73920552 4.43177893 -14 4 C-11.37350692 2.24900461 -9.38191413 1.30690675 -6.4375 0.3125 C-5.65246094 0.04050781 -4.86742187 -0.23148438 -4.05859375 -0.51171875 C-2 -1 -2 -1 0 0 Z " fill="#111112" transform="translate(527,601)"/>
<path d="M0 0 C0 0.99 0 1.98 0 3 C-1.65 3.33 -3.3 3.66 -5 4 C-5.33 2.68 -5.66 1.36 -6 0 C-3.50907189 -1.24546405 -2.58919267 -0.7767578 0 0 Z " fill="#1F1F28" transform="translate(470,299)"/>
<path d="M0 0 C4.42700422 1.39134418 6.99413292 3.47884142 10 7 C10 7.99 10 8.98 10 10 C6.66666667 6.66666667 3.33333333 3.33333333 0 0 Z " fill="#313131" transform="translate(526,292)"/>
<path d="M0 0 C0 0.66 0 1.32 0 2 C-2.64 2.33 -5.28 2.66 -8 3 C-7.67 2.01 -7.34 1.02 -7 0 C-4.3333581 -1.33332095 -2.83319697 -0.67102033 0 0 Z " fill="#555555" transform="translate(471,521)"/>
<path d="M0 0 C0 0.66 0 1.32 0 2 C-3.375 2.625 -3.375 2.625 -7 3 C-7.66 2.34 -8.32 1.68 -9 1 C-5.8035914 -0.06546953 -3.34252724 -0.07427838 0 0 Z " fill="#353434" transform="translate(384,610)"/>
<path d="M0 0 C2.5 1.3125 2.5 1.3125 5 3 C5 3.99 5 4.98 5 6 C4.01 6.33 3.02 6.66 2 7 C1.34 4.69 0.68 2.38 0 0 Z " fill="#3E3F40" transform="translate(365,600)"/>
</svg>
